<?xml version="1.0" encoding="utf-8"?>
<!-- Generator: Adobe Illustrator 22.1.0, SVG Export Plug-In . SVG Version: 6.00 Build 0)  -->
<svg version="1.1" id="Layer_1" xmlns="http://www.w3.org/2000/svg" xmlns:xlink="http://www.w3.org/1999/xlink" x="0px" y="0px"
	 viewBox="0 0 116.8 115.6" style="enable-background:new 0 0 116.8 115.6;" xml:space="preserve">
<style type="text/css">
	.st0{fill:#0AAA64;}
</style>
<path class="st0" d="M5.7,38.2v10c0,0.4,0.3,0.6,0.6,0.6c0.4,0,0.6-0.3,0.6-0.6v-10c0-0.4-0.3-0.6-0.6-0.6C6,37.6,5.7,37.9,5.7,38.2
	z"/>
<path class="st0" d="M6.4,55.4c0.4,0,0.6-0.3,0.6-0.6v-3.2c0-0.4-0.3-0.6-0.6-0.6c-0.4,0-0.6,0.2-0.6,0.6v3.3
	C5.7,55.1,6,55.4,6.4,55.4z"/>
<path class="st0" d="M111.5,64.2c0-0.4-0.3-0.6-0.6-0.6s-0.6,0.3-0.6,0.6v10c0,0.4,0.3,0.6,0.6,0.6s0.6-0.3,0.6-0.6V64.2z"/>
<path class="st0" d="M110.8,76.8c-0.4,0-0.6,0.3-0.6,0.6v3.2c0,0.4,0.3,0.6,0.6,0.6s0.6-0.3,0.6-0.6v-3.2
	C111.5,77.1,111.2,76.8,110.8,76.8z"/>
<path class="st0" d="M106.1,12.4c0.1,0.1,0.3,0.2,0.5,0.2c0.2,0,0.4-0.1,0.5-0.2c0.3-0.3,0.3-0.7,0-0.9l-1.6-1.6
	c-0.3-0.3-0.7-0.3-0.9,0c-0.2,0.3-0.3,0.7,0,0.9L106.1,12.4z"/>
<path class="st0" d="M111.1,17.4c0.1,0.1,0.3,0.2,0.5,0.2c0.2,0,0.4-0.1,0.5-0.2c0.3-0.3,0.3-0.7,0-0.9l-1.6-1.6
	c-0.3-0.3-0.7-0.3-0.9,0c-0.3,0.3-0.3,0.7,0,0.9L111.1,17.4z"/>
<path class="st0" d="M105.1,17.6c0.2,0,0.4-0.1,0.5-0.2l1.6-1.6c0.3-0.3,0.3-0.7,0-0.9c-0.3-0.2-0.7-0.3-0.9,0l-1.6,1.6
	c-0.3,0.3-0.3,0.7,0,0.9C104.8,17.6,105,17.6,105.1,17.6z"/>
<path class="st0" d="M110.1,12.7c0.2,0,0.4-0.1,0.5-0.2l1.6-1.6c0.3-0.3,0.3-0.7,0-0.9c-0.3-0.3-0.7-0.3-0.9,0l-1.6,1.6
	c-0.3,0.3-0.3,0.7,0,0.9C109.7,12.6,109.9,12.7,110.1,12.7z"/>
<path class="st0" d="M62.5,98.7c-0.3-0.3-0.7-0.3-0.9,0c-0.3,0.3-0.3,0.7,0,0.9l1.6,1.6c0.1,0.1,0.3,0.2,0.5,0.2s0.4-0.1,0.5-0.2
	c0.3-0.3,0.3-0.7,0-0.9L62.5,98.7z"/>
<path class="st0" d="M67.4,103.7c-0.3-0.3-0.7-0.3-0.9,0c-0.2,0.3-0.3,0.7,0,0.9l1.6,1.6c0.1,0.1,0.3,0.2,0.5,0.2s0.4-0.1,0.5-0.2
	c0.3-0.3,0.3-0.7,0-0.9L67.4,103.7z"/>
<path class="st0" d="M63.1,103.7l-1.6,1.6c-0.3,0.3-0.3,0.7,0,0.9c0.1,0.1,0.3,0.2,0.5,0.2s0.4-0.1,0.5-0.2l1.6-1.6
	c0.3-0.3,0.3-0.7,0-0.9C63.7,103.5,63.4,103.4,63.1,103.7z"/>
<path class="st0" d="M68,98.7l-1.6,1.6c-0.3,0.3-0.3,0.7,0,0.9c0.1,0.1,0.3,0.2,0.5,0.2c0.2,0,0.4-0.1,0.5-0.2l1.6-1.6
	c0.3-0.3,0.3-0.7,0-0.9C68.7,98.4,68.2,98.4,68,98.7z"/>
<path class="st0" d="M2.1,71.5c-0.3-0.3-0.7-0.3-0.9,0c-0.2,0.3-0.3,0.7,0,0.9l1.6,1.6C2.8,74,3,74.1,3.2,74.1
	c0.2,0,0.4-0.1,0.5-0.2c0.3-0.3,0.3-0.7,0-0.9L2.1,71.5z"/>
<path class="st0" d="M6.9,76.3C6.6,76,6.2,76,6,76.3c-0.3,0.3-0.3,0.7,0,0.9l1.6,1.6C7.7,78.9,7.8,79,8,79s0.4-0.1,0.5-0.2
	c0.3-0.3,0.3-0.7,0-0.9L6.9,76.3z"/>
<path class="st0" d="M2.6,76.3L1,77.9c-0.3,0.3-0.3,0.7,0,0.9C1.1,78.9,1.3,79,1.5,79s0.4-0.1,0.5-0.2l1.6-1.6
	c0.3-0.3,0.3-0.7,0-0.9C3.3,76,2.9,76,2.6,76.3z"/>
<path class="st0" d="M7.5,71.5L5.9,73c-0.3,0.3-0.3,0.7,0,0.9C6,74,6.2,74.1,6.4,74.1s0.4-0.1,0.5-0.2l1.7-1.6
	c0.3-0.3,0.3-0.7,0-0.9C8.2,71.3,7.8,71.2,7.5,71.5z"/>
<path class="st0" d="M69.6,13.7c1.7,0,3.2-1.5,3.2-3.2s-1.5-3.2-3.2-3.2c-1.7,0-3.3,1.4-3.3,3.2C66.3,12.3,67.8,13.7,69.6,13.7z
	 M69.6,8.6c1,0,1.8,0.8,1.8,1.8s-0.8,1.8-1.8,1.8s-1.8-0.8-1.8-1.8C67.7,9.4,68.5,8.6,69.6,8.6z"/>
<path class="st0" d="M16,99.5c-1.7,0-3.2,1.5-3.2,3.2s1.5,3.2,3.2,3.2s3.2-1.5,3.2-3.2S17.8,99.5,16,99.5z M16,104.7
	c-1,0-1.8-0.8-1.8-1.8S15,101,16,101c1,0,1.8,0.8,1.8,1.8C17.9,103.9,17.1,104.7,16,104.7z"/>
<path class="st0" d="M21.9,11.6c0-0.4-0.3-0.6-0.6-0.6h-12c-0.4,0-0.7,0.3-0.7,0.6s0.3,0.6,0.6,0.6h12C21.6,12.3,21.9,12,21.9,11.6z
	"/>
<path class="st0" d="M5.9,11.6c0-0.4-0.3-0.6-0.6-0.6H1.3c-0.4,0-0.6,0.3-0.6,0.6s0.3,0.6,0.6,0.6h3.9C5.6,12.3,5.9,12,5.9,11.6z"/>
<path class="st0" d="M1.3,8.2h8.4c0.4,0,0.6-0.3,0.6-0.6c0-0.4-0.3-0.6-0.6-0.6H1.3C1,6.9,0.7,7.2,0.7,7.6C0.7,7.9,1,8.2,1.3,8.2z"
	/>
<path class="st0" d="M13.3,8.2h2.8c0.4,0,0.6-0.3,0.6-0.6c0-0.4-0.3-0.6-0.6-0.6h-2.8c-0.4,0-0.6,0.3-0.6,0.6
	C12.7,7.9,13,8.2,13.3,8.2z"/>
<path class="st0" d="M109.4,98.6c0-0.4-0.3-0.6-0.6-0.6h-12c-0.4,0-0.6,0.3-0.6,0.6c0,0.4,0.3,0.6,0.6,0.6h12
	C109.1,99.4,109.4,99,109.4,98.6z"/>
<path class="st0" d="M112,98.6c0,0.4,0.3,0.6,0.6,0.6h3.9c0.4,0,0.6-0.3,0.6-0.6c0-0.4-0.3-0.6-0.6-0.6h-3.9
	C112.3,98,112,98.3,112,98.6z"/>
<path class="st0" d="M116.6,102.1h-8.4c-0.4,0-0.6,0.3-0.6,0.6c0,0.4,0.3,0.6,0.6,0.6h8.4c0.4,0,0.6-0.3,0.6-0.6
	S117,102.1,116.6,102.1z"/>
<path class="st0" d="M104.6,102.1h-2.8c-0.4,0-0.6,0.3-0.6,0.6c0,0.4,0.3,0.6,0.6,0.6h2.8c0.4,0,0.6-0.3,0.6-0.6
	C105.3,102.4,105,102.1,104.6,102.1z"/>
<path class="st0" d="M44.1,57.1l13.1,7.6c0.1,0.1,0.2,0.1,0.4,0.1c0.2,0,0.3,0,0.4-0.1l13.1-7.6c0.2-0.1,0.4-0.4,0.4-0.6V41.4l0,0
	c0-0.1,0-0.2-0.1-0.3l0,0c-0.1-0.1-0.1-0.2-0.2-0.2l0,0L58,33.4c-0.2-0.1-0.5-0.1-0.6,0L44.3,41l0,0c-0.1,0.1-0.2,0.1-0.2,0.2l0,0
	C44,41.3,44,41.3,44,41.4l0,0v15.1C43.8,56.9,43.9,57,44.1,57.1z M45.1,42.5l11.8,6.8V63l-11.8-6.8V42.5z M58.3,63V49.4l11.8-6.8
	v13.6L58.3,63z M57.6,34.6l11.8,6.8l-11.8,6.8l-11.8-6.8L57.6,34.6z"/>
<path class="st0" d="M19.5,20.7c-1.2,0-2.2,1-2.2,2.2v23.9v4.6v32.8h-3.6c-0.4,0-0.6,0.3-0.6,0.6v9.8c0,0.4,0.3,0.6,0.6,0.6h87.8
	c0.4,0,0.6-0.3,0.6-0.6v-9.8c0-0.4-0.3-0.6-0.6-0.6H98V51.4v-4.6V22.9c0-1.2-1-2.2-2.2-2.2h-8.6l-1.5-3.6c-0.1-0.3-0.4-0.5-0.6-0.5
	H30.1c-0.3,0-0.6,0.2-0.6,0.5l-1.4,3.6H19.5z M30.6,18h54l1,2.6H29.7L30.6,18z M32.3,50.7H18.7v-3.3h13.6V50.7z M100.8,93.9H14.4
	v-8.4h3.6h15.3H82h15.2h3.6V93.9z M81.3,84.1H33.9v-4.3h47.4V84.1z M83,47.4h13.6v3.3H83V47.4z M96.5,22.9v23.2H83V28.9
	c0-0.4-0.3-0.6-0.6-0.6h-2.9c-0.4,0-0.6,0.3-0.6,0.6s0.3,0.6,0.6,0.6h2.3v17.3v4.6v16.4h-2.3c-0.4,0-0.6,0.3-0.6,0.6
	s0.3,0.6,0.6,0.6h2.9c0.4,0,0.6-0.3,0.6-0.6V52.1h13.6v32h-14v-5c0-0.4-0.3-0.6-0.6-0.6H33.3c-0.4,0-0.6,0.3-0.6,0.6v5h-14v-32h13.6
	v16.4c0,0.4,0.3,0.6,0.6,0.6h2.9c0.4,0,0.6-0.3,0.6-0.6c0-0.4-0.3-0.6-0.6-0.6h-2.3V51.4v-4.6V29.5h2.3c0.4,0,0.6-0.3,0.6-0.6
	s-0.3-0.6-0.6-0.6h-2.9c-0.4,0-0.6,0.3-0.6,0.6v17.3H18.7V22.9c0-0.5,0.4-0.8,0.8-0.8h76.2C96.1,22,96.5,22.4,96.5,22.9z"/>
<path class="st0" d="M91.5,89h-22c-0.4,0-0.6,0.3-0.6,0.6c0,0.4,0.3,0.6,0.6,0.6h22c0.4,0,0.6-0.3,0.6-0.6
	C92.2,89.3,91.9,89,91.5,89z"/>
<path class="st0" d="M36.5,87.9c-0.4,0-0.6,0.3-0.6,0.6v2.2c0,0.4,0.3,0.6,0.6,0.6c0.4,0,0.6-0.3,0.6-0.6v-2.2
	C37.1,88.2,36.8,87.9,36.5,87.9z"/>
<path class="st0" d="M30.1,87.9c-0.4,0-0.6,0.3-0.6,0.6v2.2c0,0.4,0.3,0.6,0.6,0.6c0.4,0,0.6-0.3,0.6-0.6v-2.2
	C30.8,88.2,30.4,87.9,30.1,87.9z"/>
<path class="st0" d="M23.6,87.9c-0.4,0-0.6,0.3-0.6,0.6v2.2c0,0.4,0.3,0.6,0.6,0.6c0.4,0,0.6-0.3,0.6-0.6v-2.2
	C24.4,88.2,24,87.9,23.6,87.9z"/>
</svg>
