<?xml version="1.0" encoding="utf-8"?>
<!-- Generator: Adobe Illustrator 22.1.0, SVG Export Plug-In . SVG Version: 6.00 Build 0)  -->
<svg version="1.1" id="Layer_1" xmlns="http://www.w3.org/2000/svg" xmlns:xlink="http://www.w3.org/1999/xlink" x="0px" y="0px"
	 viewBox="0 0 116.8 115.6" style="enable-background:new 0 0 116.8 115.6;" xml:space="preserve">
<style type="text/css">
	.st0{fill:#F7F3FF;}
</style>
<path class="st0" d="M99.9,0.7c0,0.4,0.3,0.7,0.7,0.7h3.2c0.4,0,0.7-0.3,0.7-0.7c0-0.4-0.3-0.7-0.7-0.7h-3.2
	C100.2,0,99.9,0.3,99.9,0.7z"/>
<path class="st0" d="M84.9,21.2h18c0.4,0,0.6-0.3,0.6-0.6s-0.3-0.6-0.6-0.6h-18c-0.4,0-0.6,0.3-0.6,0.6
	C84.3,20.8,84.5,21.2,84.9,21.2z"/>
<path class="st0" d="M99.3,24.6H88.5c-0.4,0-0.6,0.3-0.6,0.6c0,0.4,0.3,0.6,0.6,0.6h10.8c0.4,0,0.6-0.3,0.6-0.6
	C100,24.8,99.6,24.6,99.3,24.6z"/>
<path class="st0" d="M14.8,27.1c-1.9,0-3.5,1.6-3.5,3.5v53.6c0,0.4,0.3,0.6,0.6,0.6h90.7c0.4,0,0.6-0.3,0.6-0.6v-52h3.7
	c1.6,0,2.8-1.2,2.8-2.8V16c0-1.6-1.2-2.8-2.8-2.8H80.9c-1.6,0-2.8,1.2-2.8,2.8v11.1H14.8z M101.8,83.6H12.6V30.6
	c0-1.2,1-2.2,2.2-2.2h63.3v0.9c0,1.6,1.2,2.8,2.8,2.8h1.6v2.9c0,0.3,0.2,0.5,0.4,0.6c0.1,0,0.2,0.1,0.3,0.1c0.2,0,0.3-0.1,0.5-0.2
	l4.5-3.5h13.9L101.8,83.6L101.8,83.6z M79.5,16c0-0.7,0.6-1.4,1.4-1.4h26.1c0.7,0,1.4,0.6,1.4,1.4v13.4c0,0.7-0.6,1.4-1.4,1.4H87.8
	c-0.2,0-0.3,0.1-0.5,0.2l-3.6,2.8v-2.2c0-0.4-0.3-0.6-0.6-0.6h-2.2c-0.7,0-1.4-0.6-1.4-1.4V16z"/>
<path class="st0" d="M111.7,87.9H2.8c-0.5,0-0.8,0.3-1,0.6c-0.2,0.4-0.2,0.8,0,1.2l1.1,1.7c1.8,3,5.2,5,8.7,5H103
	c3.6,0,6.9-1.9,8.7-5l1.1-1.7c0.2-0.4,0.3-0.8,0-1.2C112.5,88.2,112.1,87.9,111.7,87.9z M110.5,90.9c-1.6,2.7-4.5,4.3-7.6,4.3H11.5
	c-3.1,0-6-1.7-7.6-4.3L3,89.3h108.4L110.5,90.9z"/>
<path class="st0" d="M30,103.2c-1.8,0-3.4,1.6-3.4,3.4c0,1.8,1.6,3.4,3.4,3.4s3.4-1.6,3.4-3.4C33.5,104.8,31.9,103.2,30,103.2z
	 M30,108.8c-1.1,0-2-0.9-2-2c0-1.1,0.9-2,2-2s2,0.9,2,2C32.1,107.8,31.2,108.8,30,108.8z"/>
<path class="st0" d="M68.2,17.3c1.8,0,3.4-1.6,3.4-3.4s-1.6-3.4-3.4-3.4c-1.8,0-3.4,1.6-3.4,3.4C64.8,15.8,66.3,17.3,68.2,17.3z
	 M68.2,11.9c1.1,0,2,0.9,2,2s-0.9,2-2,2c-1.1,0-2-0.9-2-2C66.1,12.7,67.1,11.9,68.2,11.9z"/>
<path class="st0" d="M109.6,101.1c-0.3-0.3-0.7-0.3-0.9,0c-0.3,0.3-0.3,0.7,0,0.9l1.5,1.5c0.1,0.1,0.3,0.2,0.5,0.2
	c0.2,0,0.4-0.1,0.5-0.2c0.3-0.3,0.3-0.7,0-0.9L109.6,101.1z"/>
<path class="st0" d="M114.3,105.9c-0.3-0.3-0.7-0.3-0.9,0c-0.3,0.3-0.3,0.7,0,0.9l1.5,1.5c0.1,0.1,0.3,0.2,0.5,0.2
	c0.2,0,0.4-0.1,0.5-0.2c0.3-0.3,0.3-0.7,0-0.9L114.3,105.9z"/>
<path class="st0" d="M110,105.9l-1.5,1.5c-0.3,0.3-0.3,0.7,0,0.9c0.1,0.1,0.3,0.2,0.5,0.2c0.2,0,0.4-0.1,0.5-0.2l1.5-1.5
	c0.3-0.3,0.3-0.7,0-0.9C110.8,105.6,110.3,105.6,110,105.9z"/>
<path class="st0" d="M113.8,103.8c0.2,0,0.4-0.1,0.5-0.2l1.5-1.5c0.3-0.3,0.3-0.7,0-0.9c-0.3-0.3-0.7-0.3-0.9,0l-1.5,1.5
	c-0.3,0.3-0.3,0.7,0,0.9C113.4,103.7,113.6,103.8,113.8,103.8z"/>
<path class="st0" d="M47.9,8.8C48,8.9,48.2,9,48.4,9s0.4-0.1,0.5-0.2c0.3-0.3,0.3-0.7,0-0.9l-1.5-1.5c-0.3-0.3-0.7-0.3-0.9,0
	s-0.3,0.7,0,0.9L47.9,8.8z"/>
<path class="st0" d="M52.6,13.5c0.1,0.1,0.3,0.2,0.5,0.2s0.4-0.1,0.5-0.2c0.3-0.3,0.3-0.7,0-0.9L52,11.1c-0.3-0.3-0.7-0.3-0.9,0
	c-0.3,0.3-0.3,0.7,0,0.9L52.6,13.5z"/>
<path class="st0" d="M46.9,13.7c0.2,0,0.4-0.1,0.5-0.2l1.5-1.5c0.3-0.3,0.3-0.7,0-0.9c-0.3-0.3-0.7-0.3-0.9,0l-1.5,1.5
	c-0.3,0.3-0.3,0.7,0,0.9C46.5,13.7,46.7,13.7,46.9,13.7z"/>
<path class="st0" d="M51.6,9C51.8,9,52,8.9,52,8.8l1.5-1.5c0.3-0.3,0.3-0.7,0-0.9c-0.3-0.3-0.7-0.3-0.9,0l-1.5,1.5
	c-0.3,0.3-0.3,0.7,0,0.9C51.3,8.9,51.5,9,51.6,9z"/>
<path class="st0" d="M0.7,72.1c0.1,0.1,0.3,0.2,0.5,0.2s0.4-0.1,0.5-0.2c0.3-0.3,0.3-0.7,0-0.9l-1.5-1.5c-0.3-0.3-0.7-0.3-0.9,0
	c-0.3,0.3-0.3,0.7,0,0.9L0.7,72.1z"/>
<path class="st0" d="M5.4,76.9C5.5,77,5.7,77,5.8,77s0.4-0.1,0.5-0.2c0.3-0.3,0.3-0.7,0-0.9l-1.5-1.5c-0.3-0.3-0.7-0.3-0.9,0
	c-0.2,0.3-0.3,0.7,0,0.9L5.4,76.9z"/>
<path class="st0" d="M1.6,74.5c-0.3-0.3-0.7-0.3-0.9,0l-1.5,1.5c-0.3,0.3-0.3,0.7,0,0.9C-0.7,77-0.5,77-0.3,77S0,77,0.1,76.9
	l1.5-1.5C1.9,75.1,1.9,74.7,1.6,74.5z"/>
<path class="st0" d="M4.5,72.3c0.2,0,0.4-0.1,0.5-0.2l1.5-1.5c0.3-0.3,0.3-0.7,0-0.9c-0.3-0.3-0.7-0.3-0.9,0L4,71.2
	c-0.3,0.3-0.3,0.7,0,0.9C4.1,72.3,4.3,72.3,4.5,72.3z"/>
<path class="st0" d="M80.8,46.3l-21.4-8.6c-1.3-0.6-2.9-0.6-4.2,0l-21.4,8.6c-0.7,0.3-1.2,0.9-1.2,1.6c0,0.7,0.5,1.3,1.2,1.6
	l7.8,3.1v11.9c0,0.4,0.3,0.6,0.6,0.6c0.1,0,8.7,0.2,14.5,6.9c0.1,0.2,0.3,0.2,0.6,0.2c0.2,0,0.4-0.1,0.6-0.2
	c5.9-6.7,14.5-6.9,14.5-6.9c0.4,0,0.6-0.3,0.6-0.6V52.6l4-1.6v15.6c-1.3,0.2-2.2,1.3-2.2,2.6v4.9c0,0.4,0.3,0.6,0.6,0.6h4.5
	c0.4,0,0.6-0.3,0.6-0.6v-4.9c0-1.3-1-2.4-2.2-2.6V50.4l2.5-1c0.7-0.3,1.2-0.9,1.2-1.6C82,47.1,81.5,46.6,80.8,46.3z M79.2,69.2v4.2
	h-3.1v-4.2c0-0.7,0.6-1.3,1.3-1.3h0.6C78.6,67.9,79.2,68.5,79.2,69.2z M71.6,63.8c-2.1,0.2-9,1.1-14.4,6.7
	c-5.3-5.6-12.2-6.6-14.4-6.7V53.1L55.1,58c0.6,0.3,1.4,0.4,2.1,0.4s1.5-0.1,2.1-0.4l12.2-4.9L71.6,63.8L71.6,63.8z M80.3,48.2
	l-8.2,3.2c0,0-0.1,0-0.1,0.1l-13.2,5.2c-1,0.4-2.2,0.4-3.2,0l-13.2-5.2c0,0-0.1,0-0.1-0.1l-8.2-3.2c-0.2-0.1-0.4-0.2-0.4-0.4
	c0-0.1,0.1-0.3,0.4-0.4L55.6,39c0.5-0.2,1.1-0.3,1.7-0.3c0.6,0,1.1,0.1,1.7,0.3l21.4,8.6c0.2,0.1,0.4,0.2,0.4,0.4
	C80.6,48,80.5,48.1,80.3,48.2z"/>
</svg>
