<?xml version="1.0" encoding="utf-8"?>
<!-- Generator: Adobe Illustrator 22.1.0, SVG Export Plug-In . SVG Version: 6.00 Build 0)  -->
<svg version="1.1" id="Layer_1" xmlns="http://www.w3.org/2000/svg" xmlns:xlink="http://www.w3.org/1999/xlink" x="0px" y="0px"
	 viewBox="0 0 116.8 115.6" style="enable-background:new 0 0 116.8 115.6;" xml:space="preserve">
<style type="text/css">
	.st0{fill:#0AAA64;}
</style>
<g>
	<path class="st0" d="M54.5,30c0,0.5-0.4,1.8-0.9,3c-0.1,0.2-0.1,0.4,0,0.5c0.1,0.2,0.2,0.3,0.4,0.4c0.1,0,0.2,0.1,0.4,0.1
		c0.5,0,1.3-0.4,2.8-1.3c0.6-0.4,1.6-0.9,1.9-1c6.9,1.4,14-2.6,16.4-9.3c1-2.7,1.1-5.7,0.4-8.5c-0.7-2.8-2.3-5.3-4.4-7.2
		c-1.4-1.2-2.9-2.2-4.7-2.8c-7.5-2.7-15.8,1.2-18.4,8.7C45.8,19.3,48.5,26.6,54.5,30z M49.5,13.2c1.9-5.3,6.9-8.7,12.3-8.7
		c1.5,0,2.9,0.3,4.4,0.7c1.6,0.5,3,1.5,4.3,2.6c1.9,1.7,3.3,4,4,6.5c0.6,2.6,0.5,5.2-0.4,7.7l0,0c-2.2,6.1-8.6,9.7-15,8.4
		c-0.5-0.1-1.1,0.2-2.7,1.2c-0.3,0.2-0.6,0.4-1,0.5c0.9-2.6,0.2-3-0.1-3.2C49.8,25.8,47.4,19.2,49.5,13.2z"/>
	<path class="st0" d="M53.5,15h16.6c0.4,0,0.7-0.3,0.7-0.7c0-0.4-0.3-0.7-0.7-0.7H53.5c-0.4,0-0.7,0.3-0.7,0.7
		C52.8,14.7,53.1,15,53.5,15z"/>
	<path class="st0" d="M68.2,19.5H55.4c-0.4,0-0.7,0.3-0.7,0.7c0,0.4,0.3,0.7,0.7,0.7h12.8c0.4,0,0.7-0.3,0.7-0.7
		S68.5,19.5,68.2,19.5z"/>
	<path class="st0" d="M62.1,89.4c-0.4-1-0.6-2-0.9-3c-0.1-0.4-0.2-0.6-0.4-0.9c-0.6-1.6-1.6-3-2.8-4.2c-0.9-0.8-1.9-1.6-3.1-2.2
		c-1.5-0.7-3.2-1.2-5-1.4c-0.9-0.1-1.9-0.1-2.9,0c-1.5,0.1-2.9,0.2-4.5,0.3c-0.5-1-1.7-4.3,0-8.9c2.2-2,3.9-4.7,5-7.9l0,0
		c1.7,0,3-2.6,3-5.8c0-2.7-0.8-4.9-2.1-5.6v-0.1c0.2-1.8,0.5-3.6,0.5-5.5c0.5-8-1.6-9-5.7-10.3c-0.3-0.1-0.6-0.2-1-0.3
		c-3.3-1.1-6.7-1.3-8.9-1.3s-5.7,0.3-8.9,1.3c-0.4,0.1-0.6,0.2-1,0.3c-4.1,1.3-6.2,2.3-5.7,10.3c0.1,1.8,0.4,3.6,0.5,5.5v0.1
		c-1.3,0.7-2.1,2.9-2.1,5.6c0,3.4,1.3,5.8,3,5.8l0,0c1.1,3.2,2.7,5.8,4.8,7.8c1.7,4.7,0.5,8,0,9.1c-1.5-0.1-2.8-0.2-4.3-0.3
		c-6.9-0.5-12.3,2.8-14.1,8.8c-0.2,0.5-0.4,1.1-0.5,1.6c-0.3,0.7-0.5,1.4-0.7,2.2c-0.1,0.3,0,0.5,0.2,0.7s9.9,9.2,26.8,9.2
		c8.5,0,18.7-2.3,30.5-9.1c0.3-0.2,0.5-0.5,0.3-0.8V89.4z M24.1,35.1c0.3-0.1,0.6-0.2,1-0.3c2.5-0.8,5.4-1.2,8.5-1.3
		c3.1,0,6,0.5,8.5,1.3c0.4,0.1,0.6,0.2,1,0.3c3.6,1.1,5.2,1.6,4.7,8.9c0,0.6-0.1,1.3-0.2,2c-0.6-1.6-1.6-3.3-3.1-3.5
		c-2.6-0.3-9.9-0.3-10.1-0.3c-2.7-0.2-11.8-0.5-13.2,1.2c-0.5,0.6-1.1,1.8-1.6,2.9c-0.1-0.8-0.2-1.6-0.2-2.5
		C18.9,36.6,20.5,36.2,24.1,35.1z M20.6,60.1c-0.1-0.2-0.2-0.4-0.4-0.5c-0.1,0-0.2-0.1-0.3-0.1s-0.2,0-0.3,0.1
		c-0.1,0-0.2,0.1-0.2,0.1c-0.6,0-1.6-1.7-1.6-4.5c0-2.6,0.9-4.3,1.6-4.5c0.3-0.1,0.5-0.3,0.5-0.5V50c0.3-1.3,1.2-4.6,2.2-5.7
		c0.6-0.7,6.8-1,12.1-0.7c0.1,0,7.4-0.1,10,0.3c1.6,0.2,2.6,4,2.8,6l0,0l0,0V50l0,0v0.1c0.1,0.3,0.3,0.5,0.5,0.5
		c0.6,0.2,1.6,1.8,1.6,4.5c0,2.7-1,4.5-1.6,4.5c-0.1,0-0.1,0-0.2-0.1c-0.2-0.1-0.4-0.1-0.5,0s-0.3,0.3-0.4,0.5
		c-2.1,6.8-7.2,11.2-13,11.2C27.8,71.3,22.7,66.8,20.6,60.1z M33.6,72.6c2.6,0,5-0.8,7.2-2.2c-1.2,5.1,0.7,8.4,0.8,8.6
		c-1.4,2.6-2.4,3.8-3.6,5.2c-0.3,0.3-0.5,0.5-0.7,0.9L37,85.3C36,86.4,34.7,87,33.2,87c-1.4,0-2.7-0.6-3.6-1.6
		c-1.6-1.7-2.9-3.9-4.3-6.5c0.1-0.2,2.1-3.6,0.9-8.6C28.4,71.8,30.9,72.6,33.6,72.6z M6.1,90.2c0.2-0.6,0.4-1.2,0.5-1.7
		c0.2-0.5,0.4-1.1,0.5-1.6c1.6-5.3,6.6-8.3,12.8-7.8c1.3,0.1,2.6,0.2,3.9,0.2c1.5,2.8,3,5.2,4.7,7c1.2,1.4,2.9,2.1,4.7,2.1l0,0
		c1.8,0,3.6-0.8,4.7-2.2l0.4-0.4c0.3-0.3,0.5-0.5,0.7-0.8c1.3-1.6,2.4-2.7,3.9-5.7c1.4-0.1,2.7-0.2,4.1-0.3c0.9-0.1,1.8-0.1,2.7,0
		c1.6,0.2,3.1,0.5,4.5,1.3c1,0.5,1.9,1.2,2.7,1.9c1.1,1,1.9,2.3,2.5,3.7c0.1,0.3,0.2,0.5,0.3,0.8c0.3,1,0.6,2,1,3.1l0.1,0.2
		C29.3,108.3,8.9,92.4,6.1,90.2z"/>
	<path class="st0" d="M7,28.5c0-0.4-0.3-0.7-0.7-0.7c-0.4,0-0.7,0.3-0.7,0.7v10c0,0.4,0.3,0.7,0.7,0.7C6.7,39.3,7,39,7,38.5V28.5z"
		/>
	<path class="st0" d="M6.3,41.2c-0.4,0-0.7,0.3-0.7,0.7v3.3c0,0.4,0.3,0.7,0.7,0.7c0.4,0,0.7-0.3,0.7-0.7v-3.3
		C7,41.5,6.8,41.2,6.3,41.2z"/>
	<path class="st0" d="M83.9,2.8c0.1,0.1,0.3,0.2,0.5,0.2s0.4-0.1,0.5-0.2c0.3-0.3,0.3-0.7,0-1l-1.6-1.6c-0.3-0.3-0.7-0.3-1,0
		c-0.3,0.3-0.3,0.7,0,1L83.9,2.8z"/>
	<path class="st0" d="M88.8,7.8C88.9,7.9,89.1,8,89.2,8s0.4-0.1,0.5-0.2c0.3-0.3,0.3-0.7,0-1l-1.6-1.6c-0.3-0.3-0.7-0.3-1,0
		c-0.3,0.3-0.3,0.7,0,1L88.8,7.8z"/>
	<path class="st0" d="M82.8,8c0.2,0,0.4-0.1,0.5-0.2l1.6-1.6c0.3-0.3,0.3-0.7,0-1c-0.3-0.3-0.7-0.3-1,0l-1.6,1.6
		c-0.3,0.3-0.3,0.7,0,1C82.5,7.9,82.7,8,82.8,8z"/>
	<path class="st0" d="M87.8,3c0.2,0,0.4-0.1,0.5-0.2l1.6-1.6c0.3-0.3,0.3-0.7,0-1c-0.3-0.3-0.7-0.3-1,0l-1.6,1.6
		c-0.3,0.3-0.3,0.7,0,1C87.4,2.9,87.6,3,87.8,3z"/>
	<path class="st0" d="M67.3,94.3c-0.3-0.3-0.7-0.3-1,0c-0.3,0.3-0.3,0.7,0,1l1.6,1.6c0.1,0.1,0.3,0.2,0.5,0.2s0.4-0.1,0.5-0.2
		c0.3-0.3,0.3-0.7,0-1L67.3,94.3z"/>
	<path class="st0" d="M72.4,99.2c-0.3-0.3-0.7-0.3-1,0c-0.3,0.3-0.3,0.7,0,1l1.6,1.6c0.1,0.1,0.3,0.2,0.5,0.2s0.4-0.1,0.5-0.2
		c0.3-0.3,0.3-0.7,0-1L72.4,99.2z"/>
	<path class="st0" d="M67.9,99.2l-1.6,1.6c-0.3,0.3-0.3,0.7,0,1c0.1,0.1,0.3,0.2,0.5,0.2c0.2,0,0.4-0.1,0.5-0.2l1.6-1.6
		c0.3-0.3,0.3-0.7,0-1C68.6,98.9,68.2,98.9,67.9,99.2z"/>
	<path class="st0" d="M72.9,94.3l-1.6,1.6c-0.3,0.3-0.3,0.7,0,1c0.1,0.1,0.3,0.2,0.5,0.2s0.4-0.1,0.5-0.2l1.6-1.6
		c0.3-0.3,0.3-0.7,0-1C73.5,94,73.2,94,72.9,94.3z"/>
	<path class="st0" d="M-1.9,64.8c-0.3-0.3-0.7-0.3-1,0c-0.3,0.3-0.3,0.7,0,1l1.6,1.6c0.1,0.1,0.3,0.2,0.5,0.2s0.4-0.1,0.5-0.2
		c0.3-0.3,0.3-0.7,0-1L-1.9,64.8z"/>
	<path class="st0" d="M4.6,71.3L3,69.8c-0.3-0.3-0.7-0.3-1,0c-0.3,0.3-0.3,0.7,0,1l1.6,1.6c0.1,0.1,0.3,0.2,0.5,0.2s0.4-0.1,0.5-0.2
		C4.8,72,4.8,71.5,4.6,71.3z"/>
	<path class="st0" d="M-1.4,69.8l-1.6,1.6c-0.3,0.3-0.3,0.7,0,1c0.1,0.1,0.3,0.2,0.5,0.2c0.2,0,0.4-0.1,0.5-0.2l1.6-1.6
		c0.3-0.3,0.3-0.7,0-1C-0.6,69.5-1.1,69.5-1.4,69.8z"/>
	<path class="st0" d="M2.6,67.5c0.2,0,0.4-0.1,0.5-0.2l1.6-1.6c0.3-0.3,0.3-0.7,0-1c-0.3-0.3-0.7-0.3-1,0L2,66.3
		c-0.3,0.3-0.3,0.7,0,1C2.2,67.4,2.4,67.5,2.6,67.5z"/>
	<path class="st0" d="M30.8,23.7c1.9,0,3.5-1.6,3.5-3.5s-1.6-3.5-3.5-3.5s-3.5,1.6-3.5,3.5S28.8,23.7,30.8,23.7z M30.8,18
		c1.2,0,2.1,0.9,2.1,2.1c0,1.2-0.9,2.1-2.1,2.1c-1.2,0-2.1-0.9-2.1-2.1C28.7,18.9,29.6,18,30.8,18z"/>
	<path class="st0" d="M16.1,105.1c-1.9,0-3.5,1.6-3.5,3.5c0,1.9,1.6,3.5,3.5,3.5s3.5-1.6,3.5-3.5C19.5,106.8,18,105.1,16.1,105.1z
		 M16.1,110.8c-1.2,0-2.1-0.9-2.1-2.1c0-1.2,0.9-2.1,2.1-2.1s2.1,0.9,2.1,2.1C18.2,109.9,17.3,110.8,16.1,110.8z"/>
	<path class="st0" d="M12.5,11.1c0,0.4,0.3,0.7,0.7,0.7h14c0.4,0,0.7-0.3,0.7-0.7c0-0.4-0.3-0.7-0.7-0.7h-14
		C12.9,10.3,12.5,10.6,12.5,11.1z"/>
	<path class="st0" d="M4.1,11.7h4.6c0.4,0,0.7-0.3,0.7-0.7c0-0.4-0.3-0.7-0.7-0.7H4.1c-0.4,0-0.7,0.3-0.7,0.7
		C3.4,11.4,3.7,11.7,4.1,11.7z"/>
	<path class="st0" d="M4.1,6.9h9.8c0.4,0,0.7-0.3,0.7-0.7c0-0.4-0.3-0.7-0.7-0.7H4.1c-0.4,0-0.7,0.3-0.7,0.7S3.7,6.9,4.1,6.9z"/>
	<path class="st0" d="M18.1,6.9h3.2c0.4,0,0.7-0.3,0.7-0.7c0-0.4-0.3-0.7-0.7-0.7h-3.2c-0.4,0-0.7,0.3-0.7,0.7
		C17.3,6.6,17.7,6.9,18.1,6.9z"/>
	<path class="st0" d="M95.3,106.7c0-0.4-0.3-0.7-0.7-0.7h-14c-0.4,0-0.7,0.3-0.7,0.7c0,0.4,0.3,0.7,0.7,0.7h14
		C95,107.3,95.3,107,95.3,106.7z"/>
	<path class="st0" d="M103.7,105.9h-4.6c-0.4,0-0.7,0.3-0.7,0.7c0,0.4,0.3,0.7,0.7,0.7h4.6c0.4,0,0.7-0.3,0.7-0.7
		C104.4,106.3,104.1,105.9,103.7,105.9z"/>
	<path class="st0" d="M103.7,110.8H94c-0.4,0-0.7,0.3-0.7,0.7c0,0.4,0.3,0.7,0.7,0.7h9.8c0.4,0,0.7-0.3,0.7-0.7
		C104.4,111.1,104.1,110.8,103.7,110.8z"/>
	<path class="st0" d="M89.7,110.8h-3.2c-0.4,0-0.7,0.3-0.7,0.7c0,0.4,0.3,0.7,0.7,0.7h3.2c0.4,0,0.7-0.3,0.7-0.7
		C90.4,111.1,90.1,110.8,89.7,110.8z"/>
	<path class="st0" d="M94.7,29c0,0.4,0.4,0.6,0.7,0.6h16.2c0.4,0,0.6-0.3,0.7-0.6l0.5-6.5c0.1-1.9-0.5-3.7-1.7-5.2
		c-0.6-0.7-1.5-1.2-2.5-1.3c-1-0.1-1.9,0.3-2.6,0.9c-0.6,0.5-1.6,0.9-2.5,0.9s-1.8-0.4-2.5-0.9c-0.7-0.6-1.6-1-2.6-0.9
		c-1,0.1-2,0.6-2.6,1.5c-1.1,1.5-1.6,3.2-1.6,5L94.7,29z M96.9,18.5c0.4-0.5,1-0.8,1.6-0.9c0.6-0.1,1.2,0.1,1.6,0.5
		c0.9,0.8,2.1,1.3,3.4,1.3s2.6-0.5,3.4-1.3c0.5-0.4,1-0.5,1.6-0.5c0.5,0,1.1,0.3,1.5,0.7c1,1.2,1.5,2.7,1.4,4.3l0,0l-0.4,5.8h-15
		l-0.4-5.8C95.5,21,96,19.5,96.9,18.5z"/>
	<path class="st0" d="M103.6,14.7c2.6,0,4.8-2.3,4.8-5.1s-2.2-5.1-4.8-5.1s-4.8,2.3-4.8,5.1S100.8,14.7,103.6,14.7z M103.6,5.9
		c1.9,0,3.5,1.6,3.5,3.7s-1.6,3.7-3.5,3.7c-1.9,0-3.5-1.6-3.5-3.7C100.1,7.6,101.6,5.9,103.6,5.9z"/>
	<path class="st0" d="M108.6,48.9c-1-0.1-1.9,0.3-2.6,0.9c-0.6,0.5-1.6,0.9-2.5,0.9s-1.8-0.4-2.5-0.9c-0.7-0.6-1.6-1-2.6-0.9
		c-1,0.1-2,0.6-2.6,1.5c-1.1,1.5-1.6,3.2-1.6,5l0.5,6.5c0,0.4,0.4,0.6,0.7,0.6h16.2c0.4,0,0.6-0.3,0.7-0.6l0.5-6.5
		c0.1-1.9-0.5-3.7-1.7-5.2C110.5,49.5,109.6,49,108.6,48.9z M111.4,55.3L111.4,55.3l-0.4,5.8h-15l-0.4-5.8c-0.1-1.5,0.4-2.9,1.3-4.1
		c0.4-0.5,1-0.8,1.6-0.9s1.2,0.1,1.6,0.5c0.9,0.8,2.1,1.3,3.4,1.3c1.3,0,2.6-0.5,3.4-1.3c0.5-0.4,1-0.5,1.6-0.5
		c0.5,0,1.1,0.3,1.5,0.7C111,52.3,111.5,53.8,111.4,55.3z"/>
	<path class="st0" d="M98.7,42.4c0,2.8,2.2,5.1,4.8,5.1s4.8-2.3,4.8-5.1c0-2.8-2.2-5.1-4.8-5.1C100.8,37.3,98.7,39.6,98.7,42.4z
		 M106.9,42.4c0,2.1-1.6,3.7-3.5,3.7s-3.5-1.6-3.5-3.7c0-2.1,1.6-3.7,3.5-3.7C105.4,38.7,106.9,40.4,106.9,42.4z"/>
	<path class="st0" d="M108.6,81.9c-1-0.1-1.9,0.3-2.6,0.9c-0.6,0.5-1.6,0.9-2.5,0.9s-1.8-0.4-2.5-0.9c-0.7-0.6-1.6-0.9-2.6-0.9
		c-1,0.1-2,0.6-2.6,1.5c-1.1,1.5-1.6,3.2-1.6,5l0.5,6.5c0,0.4,0.4,0.6,0.7,0.6h16.2c0.4,0,0.6-0.3,0.7-0.6l0.5-6.5
		c0.1-1.9-0.5-3.7-1.7-5.2C110.5,82.3,109.6,81.9,108.6,81.9z M111.4,88.2L111.4,88.2l-0.4,5.8h-15l-0.4-5.8
		c-0.1-1.5,0.4-2.9,1.3-4.1c0.4-0.5,1-0.8,1.6-0.9c0.6-0.1,1.2,0.1,1.6,0.5c0.9,0.8,2.1,1.3,3.4,1.3c1.3,0,2.6-0.5,3.4-1.3
		c0.5-0.4,1-0.5,1.6-0.5c0.5,0,1.1,0.3,1.5,0.7C111,85.1,111.5,86.6,111.4,88.2z"/>
	<path class="st0" d="M108.3,75.3c0-2.8-2.2-5.1-4.8-5.1s-4.8,2.3-4.8,5.1c0,2.8,2.2,5.1,4.8,5.1C106.2,80.4,108.3,78.1,108.3,75.3z
		 M100.1,75.3c0-2.1,1.6-3.7,3.5-3.7s3.5,1.6,3.5,3.7c0,2.1-1.6,3.7-3.5,3.7C101.6,79,100.1,77.4,100.1,75.3z"/>
	<path class="st0" d="M84.7,53.4H61.8c-0.4,0-0.7,0.3-0.7,0.7c0,0.4,0.3,0.7,0.7,0.7h22.9c0.4,0,0.7-0.3,0.7-0.7
		C85.3,53.7,85,53.4,84.7,53.4z"/>
	<path class="st0" d="M84.2,26.5L61.4,43.4c-0.3,0.2-0.4,0.6-0.2,1c0.1,0.2,0.4,0.3,0.5,0.3c0.2,0,0.3,0,0.4-0.1L85,27.7
		c0.3-0.2,0.4-0.6,0.2-1C85,26.3,84.6,26.3,84.2,26.5z"/>
	<path class="st0" d="M62.2,63.7c-0.3-0.2-0.7-0.2-1,0.2c-0.2,0.3-0.2,0.7,0.2,1l22.9,16.9c0.1,0.1,0.3,0.1,0.4,0.1
		c0.2,0,0.5-0.1,0.5-0.3c0.2-0.3,0.2-0.7-0.2-1L62.2,63.7z"/>
</g>
</svg>
