<?xml version="1.0" encoding="utf-8"?>
<!-- Generator: Adobe Illustrator 22.1.0, SVG Export Plug-In . SVG Version: 6.00 Build 0)  -->
<svg version="1.1" id="Layer_1" xmlns="http://www.w3.org/2000/svg" xmlns:xlink="http://www.w3.org/1999/xlink" x="0px" y="0px"
	 viewBox="0 0 116.8 115.6" style="enable-background:new 0 0 116.8 115.6;" xml:space="preserve">
<style type="text/css">
	.st0{fill:#F7F3FF;}
</style>
<path class="st0" d="M56.7,35.1c0,0.4-0.3,1.7-0.8,2.8c-0.1,0.2-0.1,0.3,0,0.5c0.1,0.2,0.2,0.3,0.3,0.3c0.1,0,0.2,0.1,0.3,0.1
	c0.5,0,1.2-0.3,2.6-1.2c0.6-0.3,1.4-0.8,1.8-0.9c6.3,1.3,12.8-2.3,15-8.5c0.9-2.5,1-5.2,0.3-7.8c-0.7-2.6-2.1-4.8-4-6.6
	c-1.3-1.1-2.7-2-4.3-2.6C61,8.7,53.4,12.3,51,19.1C48.7,25.2,51.1,31.9,56.7,35.1z M52.2,19.6c1.8-4.8,6.3-7.9,11.3-7.9
	c1.3,0,2.7,0.3,4,0.7c1.4,0.5,2.8,1.3,3.9,2.3c1.8,1.6,3,3.7,3.7,5.9c0.6,2.3,0.5,4.8-0.3,7l0,0c-2,5.6-7.9,8.9-13.7,7.7
	c-0.5-0.1-1,0.2-2.5,1.1c-0.3,0.2-0.6,0.3-0.9,0.5c0.8-2.4,0.2-2.8-0.1-2.9C52.4,31.2,50.1,25.1,52.2,19.6z"/>
<path class="st0" d="M55.7,21.3h15.2c0.3,0,0.7-0.3,0.7-0.7c0-0.3-0.3-0.7-0.7-0.7H55.7c-0.3,0-0.7,0.3-0.7,0.7
	C55.2,21,55.4,21.3,55.7,21.3z"/>
<path class="st0" d="M69.2,25.4H57.5c-0.3,0-0.7,0.3-0.7,0.7c0,0.3,0.3,0.7,0.7,0.7h11.7c0.3,0,0.7-0.3,0.7-0.7S69.5,25.4,69.2,25.4
	z"/>
<path class="st0" d="M63.7,89.4c-0.3-0.9-0.6-1.8-0.8-2.8c-0.1-0.3-0.2-0.6-0.3-0.8c-0.6-1.5-1.4-2.8-2.6-3.8
	c-0.8-0.8-1.8-1.4-2.8-2c-1.3-0.7-2.9-1.1-4.6-1.3c-0.8-0.1-1.8-0.1-2.7,0c-1.3,0.1-2.7,0.2-4.1,0.3c-0.4-0.9-1.6-3.9,0-8.2
	c2-1.8,3.6-4.3,4.6-7.3l0,0c1.6,0,2.8-2.3,2.8-5.3c0-2.5-0.8-4.5-1.9-5.1V53c0.2-1.7,0.4-3.3,0.5-5c0.5-7.4-1.5-8.3-5.2-9.4
	c-0.3-0.1-0.6-0.2-0.9-0.3c-3-1-6.1-1.2-8.2-1.2c-2.1,0-5.2,0.3-8.2,1.2c-0.3,0.1-0.6,0.2-0.9,0.3c-3.8,1.2-5.7,2.1-5.2,9.4
	c0.1,1.7,0.3,3.3,0.5,5v0.1c-1.2,0.7-1.9,2.7-1.9,5.1c0,3.1,1.2,5.3,2.8,5.3l0,0c1,2.9,2.5,5.3,4.4,7.1c1.6,4.3,0.4,7.4,0,8.4
	c-1.3-0.1-2.6-0.2-3.9-0.3c-6.3-0.5-11.3,2.6-12.9,8c-0.2,0.5-0.3,1-0.5,1.5c-0.3,0.7-0.4,1.3-0.7,2c-0.1,0.3,0,0.5,0.2,0.7
	c0.2,0.2,9.1,8.4,24.6,8.4c7.8,0,17.1-2.1,27.9-8.4c0.3-0.2,0.4-0.5,0.3-0.8V89.4z M28.8,39.7c0.3-0.1,0.6-0.2,0.9-0.3
	c2.3-0.8,4.9-1.1,7.8-1.2c2.8,0,5.5,0.4,7.8,1.2c0.3,0.1,0.6,0.2,0.9,0.3c3.3,1,4.8,1.5,4.3,8.2c0,0.6-0.1,1.2-0.2,1.8
	c-0.6-1.5-1.5-3-2.8-3.2c-2.4-0.3-9-0.3-9.3-0.3c-2.5-0.2-10.8-0.4-12.1,1.1c-0.5,0.6-1,1.7-1.4,2.7c-0.1-0.8-0.2-1.5-0.2-2.3
	C24.1,41.1,25.6,40.7,28.8,39.7z M25.7,62.5c-0.1-0.2-0.2-0.3-0.3-0.4c-0.1,0-0.2-0.1-0.3-0.1s-0.2,0-0.3,0.1
	c-0.1,0-0.2,0.1-0.2,0.1c-0.6,0-1.5-1.6-1.5-4.1c0-2.4,0.8-3.9,1.4-4.1c0.3-0.1,0.4-0.3,0.5-0.5v-0.2c0.3-1.2,1.1-4.2,2-5.2
	c0.6-0.7,6.3-0.9,11.1-0.7c0.1,0,6.8-0.1,9.2,0.3c1.4,0.2,2.3,3.7,2.6,5.5l0,0l0,0v0.1l0,0v0.1c0.1,0.3,0.3,0.4,0.5,0.5
	c0.6,0.2,1.4,1.7,1.4,4.1c0,2.5-0.9,4.1-1.5,4.1c-0.1,0-0.1,0-0.2-0.1c-0.2-0.1-0.3-0.1-0.5,0c-0.2,0.1-0.3,0.3-0.3,0.4
	c-1.9,6.3-6.6,10.3-11.9,10.3C32.3,72.8,27.6,68.7,25.7,62.5z M37.5,74.1c2.3,0,4.6-0.8,6.6-2c-1.1,4.7,0.7,7.7,0.8,7.9
	c-1.3,2.4-2.2,3.5-3.3,4.8c-0.3,0.3-0.4,0.5-0.7,0.8l-0.3,0.2c-0.8,1-2.1,1.5-3.4,1.5c-1.3,0-2.5-0.6-3.3-1.5
	c-1.4-1.6-2.7-3.6-3.9-5.9c0.1-0.2,1.9-3.3,0.8-7.9C32.8,73.3,35.1,74.1,37.5,74.1z M12.4,90.1c0.2-0.6,0.3-1.1,0.5-1.6
	c0.2-0.5,0.3-1,0.5-1.5c1.5-4.8,6-7.6,11.7-7.1c1.2,0.1,2.4,0.2,3.6,0.2c1.3,2.6,2.8,4.8,4.3,6.4c1.1,1.3,2.7,1.9,4.3,1.9l0,0
	c1.7,0,3.3-0.8,4.3-2l0.3-0.3c0.3-0.3,0.5-0.5,0.7-0.8c1.2-1.4,2.2-2.5,3.6-5.3c1.3-0.1,2.5-0.2,3.8-0.3c0.8-0.1,1.7-0.1,2.5,0
	c1.5,0.2,2.8,0.5,4.1,1.2c0.9,0.4,1.8,1.1,2.5,1.8c1,0.9,1.8,2.1,2.3,3.4c0.1,0.3,0.2,0.5,0.3,0.8c0.3,0.9,0.6,1.8,0.9,2.8l0.1,0.2
	C33.6,106.7,14.9,92.2,12.4,90.1z"/>
<path class="st0" d="M83.6,10.1c0.1,0.1,0.3,0.2,0.4,0.2c0.2,0,0.3-0.1,0.4-0.2c0.3-0.3,0.3-0.7,0-0.9L83,7.7
	c-0.3-0.3-0.7-0.3-0.9,0c-0.3,0.3-0.3,0.7,0,0.9L83.6,10.1z"/>
<path class="st0" d="M88.1,14.7c0.1,0.1,0.3,0.2,0.4,0.2s0.3-0.1,0.4-0.2c0.3-0.3,0.3-0.7,0-0.9l-1.4-1.4c-0.3-0.3-0.7-0.3-0.9,0
	s-0.3,0.7,0,0.9L88.1,14.7z"/>
<path class="st0" d="M82.6,14.8c0.2,0,0.3-0.1,0.4-0.2l1.4-1.4c0.3-0.3,0.3-0.7,0-0.9s-0.7-0.3-0.9,0l-1.4,1.4
	c-0.3,0.3-0.3,0.7,0,0.9C82.3,14.8,82.5,14.8,82.6,14.8z"/>
<path class="st0" d="M87.2,10.3c0.2,0,0.3-0.1,0.4-0.2L89,8.7c0.3-0.3,0.3-0.7,0-0.9c-0.3-0.3-0.7-0.3-0.9,0l-1.4,1.4
	c-0.3,0.3-0.3,0.7,0,0.9C86.8,10.3,87,10.3,87.2,10.3z"/>
<path class="st0" d="M68.4,93.9c-0.3-0.3-0.7-0.3-0.9,0c-0.3,0.3-0.3,0.7,0,0.9l1.4,1.4c0.1,0.1,0.3,0.2,0.4,0.2s0.3-0.1,0.4-0.2
	c0.3-0.3,0.3-0.7,0-0.9L68.4,93.9z"/>
<path class="st0" d="M73,98.4c-0.3-0.3-0.7-0.3-0.9,0c-0.3,0.3-0.3,0.7,0,0.9l1.4,1.4c0.1,0.1,0.3,0.2,0.4,0.2s0.3-0.1,0.4-0.2
	c0.3-0.3,0.3-0.7,0-0.9L73,98.4z"/>
<path class="st0" d="M68.9,98.4l-1.4,1.4c-0.3,0.3-0.3,0.7,0,0.9c0.1,0.1,0.3,0.2,0.4,0.2s0.3-0.1,0.4-0.2l1.4-1.4
	c0.3-0.3,0.3-0.7,0-0.9C69.6,98.1,69.2,98.1,68.9,98.4z"/>
<path class="st0" d="M73.5,93.9l-1.4,1.4c-0.3,0.3-0.3,0.7,0,0.9c0.1,0.1,0.3,0.2,0.4,0.2c0.2,0,0.3-0.1,0.4-0.2l1.4-1.4
	c0.3-0.3,0.3-0.7,0-0.9C74.1,93.6,73.8,93.6,73.5,93.9z"/>
<path class="st0" d="M5,66.9c-0.3-0.3-0.7-0.3-0.9,0c-0.3,0.3-0.3,0.7,0,0.9l1.4,1.4c0.1,0.1,0.3,0.2,0.4,0.2c0.2,0,0.3-0.1,0.4-0.2
	c0.3-0.3,0.3-0.7,0-0.9L5,66.9z"/>
<path class="st0" d="M11,72.8l-1.4-1.3c-0.3-0.3-0.7-0.3-0.9,0c-0.3,0.3-0.3,0.7,0,0.9l1.4,1.4c0.1,0.1,0.3,0.2,0.4,0.2
	c0.2,0,0.3-0.1,0.4-0.2C11.2,73.5,11.2,73.1,11,72.8z"/>
<path class="st0" d="M5.5,71.5l-1.4,1.4c-0.3,0.3-0.3,0.7,0,0.9C4.2,73.9,4.4,74,4.5,74s0.3-0.1,0.4-0.2l1.5-1.5
	c0.3-0.3,0.3-0.7,0-0.9C6.2,71.2,5.8,71.2,5.5,71.5z"/>
<path class="st0" d="M9.1,69.4c0.2,0,0.3-0.1,0.4-0.2l1.4-1.4c0.3-0.3,0.3-0.7,0-0.9s-0.7-0.3-0.9,0l-1.4,1.4
	c-0.3,0.3-0.3,0.7,0,0.9C8.8,69.3,9,69.4,9.1,69.4z"/>
<path class="st0" d="M34.9,29.2c1.8,0,3.2-1.4,3.2-3.2s-1.4-3.2-3.2-3.2c-1.8,0-3.2,1.4-3.2,3.2S33.2,29.2,34.9,29.2z M34.9,24
	c1.1,0,1.9,0.8,1.9,1.9s-0.8,1.9-1.9,1.9C33.9,27.9,33,27,33,26S33.9,24,34.9,24z"/>
<path class="st0" d="M21.5,103.8c-1.8,0-3.2,1.4-3.2,3.2s1.4,3.2,3.2,3.2s3.2-1.4,3.2-3.2C24.7,105.3,23.2,103.8,21.5,103.8z
	 M21.5,109c-1.1,0-1.9-0.8-1.9-1.9c0-1.1,0.8-1.9,1.9-1.9s1.9,0.8,1.9,1.9C23.4,108.2,22.6,109,21.5,109z"/>
<path class="st0" d="M10.5,13.8h8.9c0.3,0,0.7-0.3,0.7-0.7c0-0.3-0.3-0.7-0.7-0.7h-8.9c-0.3,0-0.7,0.3-0.7,0.7
	C9.9,13.6,10.1,13.8,10.5,13.8z"/>
<path class="st0" d="M23.3,13.8h2.9c0.3,0,0.7-0.3,0.7-0.7c0-0.3-0.3-0.7-0.7-0.7h-2.9c-0.3,0-0.7,0.3-0.7,0.7
	C22.7,13.6,23,13.8,23.3,13.8z"/>
<path class="st0" d="M101.8,109h-8.9c-0.3,0-0.7,0.3-0.7,0.7c0,0.3,0.3,0.7,0.7,0.7h8.9c0.3,0,0.7-0.3,0.7-0.7
	C102.4,109.2,102.1,109,101.8,109z"/>
<path class="st0" d="M88.9,109H86c-0.3,0-0.7,0.3-0.7,0.7c0,0.3,0.3,0.7,0.7,0.7h2.9c0.3,0,0.7-0.3,0.7-0.7S89.3,109,88.9,109z"/>
<path class="st0" d="M93.5,34.1c0,0.3,0.3,0.6,0.7,0.6H109c0.3,0,0.6-0.3,0.7-0.6l0.4-5.9c0.1-1.8-0.4-3.4-1.6-4.8
	c-0.6-0.7-1.3-1.1-2.3-1.2s-1.8,0.3-2.4,0.8c-0.6,0.5-1.4,0.8-2.3,0.8s-1.7-0.3-2.3-0.8c-0.7-0.6-1.5-0.9-2.4-0.8
	c-0.9,0.1-1.8,0.6-2.4,1.3c-1,1.3-1.5,2.9-1.4,4.6L93.5,34.1z M95.5,24.5c0.3-0.5,0.9-0.8,1.5-0.8c0.6-0.1,1.1,0.1,1.4,0.5
	c0.8,0.8,1.9,1.2,3.1,1.2s2.3-0.4,3.1-1.2c0.4-0.3,0.9-0.5,1.4-0.5c0.5,0,1,0.3,1.3,0.7c0.9,1.1,1.3,2.5,1.3,3.9l0,0l-0.3,5.3H94.6
	l-0.3-5.3C94.3,26.8,94.7,25.5,95.5,24.5z"/>
<path class="st0" d="M101.6,21c2.4,0,4.4-2.1,4.4-4.7s-2-4.7-4.4-4.7s-4.4,2.1-4.4,4.7S99.1,21,101.6,21z M101.6,12.9
	c1.8,0,3.2,1.5,3.2,3.4s-1.4,3.4-3.2,3.4s-3.2-1.5-3.2-3.4C98.4,14.5,99.9,12.9,101.6,12.9z"/>
<path class="st0" d="M106.2,52.4c-0.9-0.1-1.8,0.3-2.4,0.8c-0.6,0.5-1.4,0.8-2.3,0.8c-0.8,0-1.7-0.3-2.3-0.8
	c-0.7-0.6-1.5-0.9-2.4-0.8c-0.9,0.1-1.8,0.6-2.4,1.3c-1,1.3-1.5,2.9-1.4,4.6l0.4,5.9c0,0.3,0.3,0.6,0.7,0.6H109
	c0.3,0,0.6-0.3,0.7-0.6l0.4-5.9c0.1-1.8-0.4-3.4-1.6-4.8C108,52.9,107.1,52.4,106.2,52.4z M108.8,58.2L108.8,58.2l-0.3,5.3H94.8
	l-0.3-5.3c-0.1-1.3,0.3-2.7,1.2-3.8c0.3-0.5,0.9-0.8,1.5-0.8c0.6-0.1,1.1,0.1,1.4,0.5c0.8,0.8,1.9,1.2,3.1,1.2
	c1.2,0,2.3-0.4,3.1-1.2c0.4-0.3,0.9-0.5,1.4-0.5c0.5,0,1,0.3,1.3,0.7C108.5,55.4,108.9,56.8,108.8,58.2z"/>
<path class="st0" d="M97.2,46.4c0,2.6,2,4.7,4.4,4.7s4.4-2.1,4.4-4.7c0-2.6-2-4.7-4.4-4.7C99.1,41.7,97.2,43.8,97.2,46.4z
	 M104.7,46.4c0,1.9-1.4,3.4-3.2,3.4s-3.2-1.5-3.2-3.4c0-1.9,1.4-3.4,3.2-3.4C103.3,43,104.7,44.6,104.7,46.4z"/>
<path class="st0" d="M106.2,82.5c-0.9-0.1-1.8,0.3-2.4,0.8c-0.6,0.5-1.4,0.8-2.3,0.8c-0.8,0-1.7-0.3-2.3-0.8
	c-0.7-0.6-1.5-0.8-2.4-0.8c-0.9,0.1-1.8,0.6-2.4,1.3c-1,1.3-1.5,2.9-1.4,4.6l0.4,5.9c0,0.3,0.3,0.6,0.7,0.6H109
	c0.3,0,0.6-0.3,0.7-0.6l0.4-5.9c0.1-1.8-0.4-3.4-1.6-4.8C108,82.9,107.1,82.5,106.2,82.5z M108.8,88.4L108.8,88.4l-0.3,5.3H94.8
	l-0.3-5.3c-0.1-1.3,0.3-2.7,1.2-3.8c0.3-0.5,0.9-0.8,1.5-0.8c0.6-0.1,1.1,0.1,1.4,0.5c0.8,0.8,1.9,1.2,3.1,1.2
	c1.2,0,2.3-0.4,3.1-1.2c0.4-0.3,0.9-0.5,1.4-0.5c0.5,0,1,0.3,1.3,0.7C108.5,85.5,108.9,86.9,108.8,88.4z"/>
<path class="st0" d="M106,76.5c0-2.6-2-4.7-4.4-4.7s-4.4,2.1-4.4,4.7s2,4.7,4.4,4.7C104,81.2,106,79.1,106,76.5z M98.4,76.5
	c0-1.9,1.4-3.4,3.2-3.4c1.8,0,3.2,1.5,3.2,3.4s-1.4,3.4-3.2,3.4S98.4,78.4,98.4,76.5z"/>
<path class="st0" d="M84.3,56.5h-21c-0.3,0-0.7,0.3-0.7,0.7c0,0.3,0.3,0.7,0.7,0.7h21c0.3,0,0.7-0.3,0.7-0.7
	C84.9,56.7,84.6,56.5,84.3,56.5z"/>
<path class="st0" d="M83.9,31.8L63,47.3c-0.3,0.2-0.3,0.6-0.2,0.9c0.1,0.2,0.3,0.3,0.5,0.3c0.2,0,0.3,0,0.3-0.1l21-15.5
	c0.3-0.2,0.3-0.6,0.2-0.9C84.6,31.6,84.2,31.6,83.9,31.8z"/>
<path class="st0" d="M63.8,65.9c-0.3-0.2-0.7-0.2-0.9,0.2c-0.2,0.3-0.2,0.7,0.2,0.9l21,15.5c0.1,0.1,0.3,0.1,0.3,0.1
	c0.2,0,0.4-0.1,0.5-0.3c0.2-0.3,0.2-0.7-0.2-0.9L63.8,65.9z"/>
</svg>
