<?xml version="1.0" encoding="utf-8"?>
<!-- Generator: Adobe Illustrator 22.1.0, SVG Export Plug-In . SVG Version: 6.00 Build 0)  -->
<svg version="1.1" id="Layer_1" xmlns="http://www.w3.org/2000/svg" xmlns:xlink="http://www.w3.org/1999/xlink" x="0px" y="0px"
	 viewBox="0 0 116.8 115.6" style="enable-background:new 0 0 116.8 115.6;" xml:space="preserve">
<style type="text/css">
	.st0{fill:none;stroke:#F7F3FF;stroke-width:1.4848;stroke-miterlimit:10;}
	.st1{fill:#F7F3FF;}
</style>
<path class="st0" d="M47.2,78.6c-4.5-4.4-8.9-8.7-13.4-13c0.2-0.2,0.4-0.5,0.6-0.7c3-3,6.1-6.1,9.1-9.1c1.8-1.7,3.9-2.6,6.3-2.6
	c7.6,0,15.2,0,22.8,0c1.9,0,2.6,0.9,2.6,3c0,1.7-0.9,2.6-2.6,2.6c-3.8,0-7.5,0-11.3,0c-1,0-1.7,0.4-2.1,1.3
	c-0.4,0.9-0.4,1.9,0.4,2.7c0.4,0.4,1.2,0.8,1.8,0.8c3.7,0.1,7.5,0.1,11.2,0c0.4,0,0.8-0.3,1.1-0.6c4-3.9,7.9-7.8,11.8-11.8
	c1.3-1.3,2.8-1.4,4.4-1.1c1.6,0.3,2.1,2,1.1,3.3c-4.4,5.7-8.9,11.3-13.3,17c-0.7,0.9-1.5,1.2-2.6,1.2c-6.6,0-13.2,0-19.9,0
	c-0.7,0-1.2,0.2-1.6,0.7C51.6,74.3,49.4,76.4,47.2,78.6z"/>
<path class="st0" d="M45.5,83.6c-0.3,0.4-0.4,0.8-0.7,1.1c-2.1,2.1-4.2,4.2-6.3,6.3c-0.8,0.8-1.5,0.8-2.3,0
	C30.8,85.6,25.4,80.2,20,74.8c-0.7-0.8-0.8-1.5,0-2.3c2.1-2.1,4.2-4.2,6.3-6.3c0.8-0.8,1.5-0.7,2.3,0C34,71.6,39.4,77,44.8,82.4
	C45.1,82.7,45.3,83.1,45.5,83.6z"/>
<path class="st1" d="M106.1,26.4c0.3,0,0.6-0.3,0.6-0.6V15.3c0-0.3-0.3-0.6-0.6-0.6c-0.3,0-0.6,0.3-0.6,0.6v10.5
	C105.5,26.1,105.7,26.4,106.1,26.4z"/>
<path class="st1" d="M106.1,33.3c0.3,0,0.6-0.3,0.6-0.6v-3.4c0-0.3-0.3-0.6-0.6-0.6c-0.3,0-0.6,0.3-0.6,0.6v3.4
	C105.5,32.9,105.7,33.3,106.1,33.3z"/>
<path class="st1" d="M86.5,90.3c-0.3-0.3-0.7-0.3-0.9,0c-0.3,0.3-0.3,0.7,0,0.9l1.5,1.5c0.1,0.1,0.3,0.2,0.4,0.2
	c0.2,0,0.3-0.1,0.4-0.2c0.3-0.3,0.3-0.7,0-0.9L86.5,90.3z"/>
<path class="st1" d="M92.1,97.4c0.2,0,0.3-0.1,0.4-0.2c0.3-0.3,0.3-0.7,0-0.9l-1.5-1.5c-0.3-0.3-0.7-0.3-0.9,0
	c-0.3,0.3-0.3,0.7,0,0.9l1.5,1.5C91.8,97.3,91.9,97.4,92.1,97.4z"/>
<path class="st1" d="M87.1,94.8l-1.5,1.5c-0.3,0.3-0.3,0.7,0,0.9c0.1,0.1,0.3,0.2,0.4,0.2c0.2,0,0.3-0.1,0.4-0.2l1.5-1.5
	c0.3-0.3,0.3-0.7,0-0.9C87.7,94.5,87.3,94.5,87.1,94.8z"/>
<path class="st1" d="M91.7,90.3l-1.5,1.5c-0.3,0.3-0.3,0.7,0,0.9c0.1,0.1,0.3,0.2,0.4,0.2c0.2,0,0.3-0.1,0.4-0.2l1.5-1.5
	c0.3-0.3,0.3-0.7,0-0.9C92.3,90.1,91.9,90,91.7,90.3z"/>
<path class="st1" d="M21.7,101.7c-0.3-0.3-0.7-0.3-0.9,0c-0.3,0.3-0.3,0.7,0,0.9l1.5,1.5c0.1,0.1,0.3,0.2,0.4,0.2
	c0.2,0,0.3-0.1,0.4-0.2c0.3-0.3,0.3-0.7,0-0.9L21.7,101.7z"/>
<path class="st1" d="M26.3,106.3c-0.3-0.3-0.7-0.3-0.9,0c-0.3,0.3-0.3,0.7,0,0.9l1.5,1.5c0.1,0.1,0.3,0.2,0.4,0.2
	c0.2,0,0.3-0.1,0.4-0.2c0.3-0.3,0.3-0.7,0-0.9L26.3,106.3z"/>
<path class="st1" d="M22.2,106.3l-1.5,1.5c-0.3,0.3-0.3,0.7,0,0.9c0.1,0.1,0.3,0.2,0.4,0.2c0.2,0,0.3-0.1,0.4-0.2l1.5-1.5
	c0.3-0.3,0.3-0.7,0-0.9C22.9,106,22.4,106,22.2,106.3z"/>
<path class="st1" d="M26.8,101.7l-1.5,1.5c-0.3,0.3-0.3,0.7,0,0.9c0.1,0.1,0.3,0.2,0.4,0.2c0.2,0,0.3-0.1,0.4-0.2l1.5-1.5
	c0.3-0.3,0.3-0.7,0-0.9C27.4,101.5,27.1,101.5,26.8,101.7z"/>
<path class="st1" d="M13.7,12.7c0.1,0.1,0.3,0.2,0.4,0.2c0.2,0,0.3-0.1,0.4-0.2c0.3-0.3,0.3-0.7,0-0.9l-1.5-1.5
	c-0.3-0.3-0.7-0.3-0.9,0c-0.3,0.3-0.3,0.7,0,0.9L13.7,12.7z"/>
<path class="st1" d="M18.3,17.3c0.1,0.1,0.3,0.2,0.4,0.2c0.2,0,0.3-0.1,0.4-0.2c0.3-0.3,0.3-0.7,0-0.9L17.7,15
	c-0.3-0.3-0.7-0.3-0.9,0c-0.3,0.3-0.3,0.7,0,0.9L18.3,17.3z"/>
<path class="st1" d="M12.8,17.5c0.2,0,0.3-0.1,0.4-0.2l1.5-1.5c0.3-0.3,0.3-0.7,0-0.9c-0.3-0.3-0.7-0.3-0.9,0l-1.5,1.5
	c-0.3,0.3-0.3,0.7,0,0.9C12.4,17.4,12.6,17.5,12.8,17.5z"/>
<path class="st1" d="M17.3,12.9c0.2,0,0.3-0.1,0.4-0.2l1.5-1.5c0.3-0.3,0.3-0.7,0-0.9c-0.3-0.3-0.7-0.3-0.9,0l-1.5,1.5
	c-0.3,0.3-0.3,0.7,0,0.9C17.1,12.8,17.2,12.9,17.3,12.9z"/>
<path class="st1" d="M12.8,33.8h12.5c0.3,0,0.6-0.3,0.6-0.6c0-0.3-0.3-0.6-0.6-0.6H12.8c-0.3,0-0.6,0.3-0.6,0.6
	C12.1,33.5,12.4,33.8,12.8,33.8z"/>
<path class="st1" d="M4.6,33.8h4.1c0.3,0,0.6-0.3,0.6-0.6c0-0.3-0.3-0.6-0.6-0.6H4.6c-0.3,0-0.6,0.3-0.6,0.6
	C4,33.5,4.2,33.8,4.6,33.8z"/>
<path class="st1" d="M14,37.5c0-0.3-0.3-0.6-0.6-0.6H4.6c-0.3,0-0.6,0.3-0.6,0.6c0,0.3,0.3,0.6,0.6,0.6h8.7
	C13.6,38.1,14,37.8,14,37.5z"/>
<path class="st1" d="M20.5,37.5c0-0.3-0.3-0.6-0.6-0.6h-2.8c-0.3,0-0.6,0.3-0.6,0.6c0,0.3,0.3,0.6,0.6,0.6h2.8
	C20.2,38.1,20.5,37.8,20.5,37.5z"/>
<path class="st1" d="M103.8,108.8H91.3c-0.3,0-0.6,0.3-0.6,0.6c0,0.3,0.3,0.6,0.6,0.6h12.5c0.3,0,0.6-0.3,0.6-0.6
	C104.5,109.1,104.2,108.8,103.8,108.8z"/>
<path class="st1" d="M112,108.8h-4.1c-0.3,0-0.6,0.3-0.6,0.6c0,0.3,0.3,0.6,0.6,0.6h4c0.3,0,0.6-0.3,0.6-0.6
	C112.6,109.1,112.4,108.8,112,108.8z"/>
<path class="st1" d="M103.3,105.8h8.7c0.3,0,0.6-0.3,0.6-0.6c0-0.3-0.3-0.6-0.6-0.6h-8.7c-0.3,0-0.6,0.3-0.6,0.6
	C102.6,105.5,103,105.8,103.3,105.8z"/>
<path class="st1" d="M96.1,105.2c0,0.3,0.3,0.6,0.6,0.6h2.8c0.3,0,0.6-0.3,0.6-0.6c0-0.3-0.3-0.6-0.6-0.6h-2.8
	C96.4,104.6,96.1,104.8,96.1,105.2z"/>
<path class="st1" d="M96.1,9.6c0,0.3,0.3,0.6,0.6,0.6h2.8c0.3,0,0.6-0.3,0.6-0.6c0-0.3-0.3-0.6-0.6-0.6h-2.8
	C96.4,9,96.1,9.3,96.1,9.6z"/>
<g>
	<path class="st1" d="M54.2,45.9c0,0.4,0.3,0.6,0.6,0.6h15.3c0.4,0,0.6-0.3,0.6-0.6l0.4-6.1c0.2-2.3-0.3-4.1-1.3-5.4
		c-0.5-0.6-1.1-0.9-1.8-1c-0.7-0.1-1.5,0.1-1.9,0.6c-0.7,0.6-2.3,1.1-3.7,1.1s-2.9-0.5-3.7-1.1c-0.6-0.5-1.3-0.6-1.9-0.6
		c-0.7,0.1-1.4,0.5-1.8,1c-1,1.3-1.4,3.1-1.3,5.4L54.2,45.9z M56.1,35.2c0.2-0.3,0.6-0.5,0.9-0.5s0.7,0.1,0.9,0.3
		c1.2,1,3.1,1.4,4.6,1.4s3.4-0.5,4.6-1.4c0.3-0.2,0.6-0.3,0.9-0.3s0.7,0.2,0.9,0.5c0.7,1,1.1,2.6,1,4.5l-0.4,5.5H55.5l-0.4-5.5
		C55,37.8,55.3,36.2,56.1,35.2z"/>
	<path class="st1" d="M62.5,32.6c2.8,0,5.1-2.5,5.1-5.4c0-3-2.3-5.4-5.1-5.4c-2.8,0-5.1,2.5-5.1,5.4C57.3,30.2,59.7,32.6,62.5,32.6z
		 M62.5,23.1c2.1,0,3.8,1.8,3.8,4.1s-1.7,4.1-3.8,4.1c-2,0-3.8-1.8-3.8-4.1S60.4,23.1,62.5,23.1z"/>
</g>
<path class="st1" d="M107.7,62.6c1.9,0,3.3-1.5,3.3-3.3c0-1.9-1.5-3.3-3.3-3.3c-1.9,0-3.3,1.5-3.3,3.3
	C104.3,61.2,105.9,62.6,107.7,62.6z M107.7,57.2c1.1,0,2.1,0.9,2.1,2.1s-0.9,2.1-2.1,2.1c-1.1,0-2.1-0.9-2.1-2.1
	C105.6,58.2,106.6,57.2,107.7,57.2z"/>
<path class="st1" d="M11.3,90.8c-1.9,0-3.3,1.5-3.3,3.3c0,1.9,1.5,3.3,3.3,3.3c1.9,0,3.3-1.5,3.3-3.3C14.7,92.2,13.2,90.8,11.3,90.8
	z M11.3,96.2c-1.1,0-2.1-0.9-2.1-2.1c0-1.1,0.9-2.1,2.1-2.1s2.1,0.9,2.1,2.1C13.5,95.2,12.5,96.2,11.3,96.2z"/>
</svg>
