<?xml version="1.0" encoding="utf-8"?>
<!-- Generator: Adobe Illustrator 22.1.0, SVG Export Plug-In . SVG Version: 6.00 Build 0)  -->
<svg version="1.1" id="Layer_1" xmlns="http://www.w3.org/2000/svg" xmlns:xlink="http://www.w3.org/1999/xlink" x="0px" y="0px"
	 viewBox="0 0 116.8 115.6" style="enable-background:new 0 0 116.8 115.6;" xml:space="preserve">
<style type="text/css">
	.st0{fill:#F7F3FF;}
</style>
<g>
	<path class="st0" d="M3.5,4.5C3.6,4.7,3.8,4.7,4,4.7s0.4-0.1,0.5-0.2c0.3-0.3,0.3-0.8,0-1L2.9,2c-0.3-0.3-0.8-0.3-1,0
		c-0.3,0.3-0.3,0.8,0,1L3.5,4.5z"/>
	<path class="st0" d="M8.5,9.6C8.6,9.7,8.8,9.8,9,9.8s0.4-0.1,0.5-0.2c0.3-0.3,0.3-0.8,0-1L8,7.1c-0.3-0.3-0.8-0.3-1,0s-0.3,0.8,0,1
		L8.5,9.6z"/>
	<path class="st0" d="M2.5,9.8c0.2,0,0.4-0.1,0.5-0.2l1.5-1.5c0.3-0.3,0.3-0.8,0-1s-0.8-0.3-1,0L1.9,8.6c-0.3,0.3-0.3,0.8,0,1
		C2.1,9.7,2.3,9.8,2.5,9.8z"/>
	<path class="st0" d="M7.5,4.7c0.2,0,0.4-0.1,0.5-0.2L9.5,3c0.3-0.3,0.3-0.8,0-1c-0.3-0.3-0.8-0.3-1,0L6.9,3.5c-0.3,0.3-0.3,0.8,0,1
		C7.1,4.7,7.3,4.7,7.5,4.7z"/>
	<path class="st0" d="M111.5,70.9c-0.4,0-0.8,0.3-0.8,0.8v11.5c0,0.4,0.3,0.8,0.8,0.8c0.4,0,0.8-0.3,0.8-0.8V71.6
		C112.3,71.2,111.9,70.9,111.5,70.9z"/>
	<path class="st0" d="M111.5,87.7c-0.4,0-0.8,0.3-0.8,0.8v4.1c0,0.4,0.3,0.8,0.8,0.8c0.4,0,0.8-0.3,0.8-0.8v-4.1
		C112.3,88.1,111.9,87.7,111.5,87.7z"/>
	<path class="st0" d="M32.5,74.3c-1.9,0-3.4,1.5-3.4,3.4s1.5,3.4,3.4,3.4s3.4-1.5,3.4-3.4C35.9,75.8,34.4,74.3,32.5,74.3z
		 M32.5,79.6c-1,0-2-0.9-2-2c0-1,0.9-2,2-2c1,0,2,0.9,2,2S33.7,79.6,32.5,79.6z"/>
	<path class="st0" d="M111.7,2c-1.9,0-3.4,1.5-3.4,3.4s1.5,3.4,3.4,3.4s3.4-1.5,3.4-3.4C115.1,3.6,113.6,2,111.7,2z M111.7,7.4
		c-1,0-2-0.9-2-2c0-1,0.9-2,2-2c1,0,2,0.9,2,2C113.7,6.6,112.9,7.4,111.7,7.4z"/>
	<path class="st0" d="M52,10.6c0.4,0,0.8-0.3,0.8-0.8V-1.4c0-0.4-0.3-0.8-0.8-0.8c-0.4,0-0.8,0.3-0.8,0.8V9.8
		C51.3,10.2,51.6,10.6,52,10.6z"/>
	<path class="st0" d="M37.7,14c0.1,0.2,0.4,0.4,0.6,0.4c0.1,0,0.3,0,0.4-0.1c0.4-0.2,0.5-0.7,0.3-0.9l-5.7-9.7
		c-0.2-0.4-0.7-0.5-0.9-0.3C32,3.6,31.9,4,32,4.3L37.7,14z"/>
	<path class="st0" d="M18.5,18.5l9.8,5.5c0.1,0.1,0.2,0.1,0.4,0.1c0.3,0,0.5-0.1,0.7-0.4c0.2-0.4,0.1-0.8-0.3-0.9l-9.8-5.5
		c-0.4-0.2-0.8-0.1-0.9,0.3S18.2,18.4,18.5,18.5z"/>
	<path class="st0" d="M13.9,37.7L13.9,37.7l11.2-0.1c0.4,0,0.8-0.3,0.7-0.8c0-0.4-0.3-0.7-0.8-0.7l-11.2,0.1c-0.4,0-0.8,0.3-0.7,0.8
		C13.2,37.3,13.6,37.7,13.9,37.7z"/>
	<path class="st0" d="M28.4,49.7l-9.7,5.6c-0.4,0.2-0.5,0.7-0.3,0.9c0.1,0.2,0.4,0.4,0.7,0.4c0.1,0,0.3,0,0.4-0.1l9.7-5.6
		c0.4-0.2,0.5-0.7,0.3-0.9C29.2,49.6,28.7,49.5,28.4,49.7z"/>
	<path class="st0" d="M44.9,10.7c0.1,0.3,0.4,0.5,0.7,0.5c0.1,0,0.2,0,0.2,0c0.4-0.1,0.6-0.5,0.5-0.9l-2-6.4
		c-0.1-0.4-0.5-0.6-0.9-0.5S42.9,3.8,43,4.2L44.9,10.7z"/>
	<path class="st0" d="M32.9,17.7c0.1,0.1,0.3,0.2,0.5,0.2s0.4-0.1,0.6-0.2c0.3-0.3,0.3-0.8,0-1L29,12.1c-0.3-0.3-0.8-0.3-1,0
		c-0.3,0.3-0.3,0.8,0,1L32.9,17.7z"/>
	<path class="st0" d="M26.7,29.4c0.1-0.4-0.2-0.8-0.6-0.9l-6.5-1.4c-0.4-0.1-0.8,0.2-0.9,0.6c-0.1,0.4,0.2,0.8,0.6,0.9l6.5,1.4
		c0.1,0,0.1,0,0.2,0C26.5,29.9,26.7,29.6,26.7,29.4z"/>
	<path class="st0" d="M19.1,44.5c-0.4,0.1-0.6,0.5-0.5,0.9c0.1,0.3,0.4,0.5,0.7,0.5c0.1,0,0.2,0,0.2,0l6.4-2.1
		c0.4-0.1,0.6-0.5,0.5-0.9c-0.1-0.4-0.5-0.6-0.9-0.5L19.1,44.5z"/>
	<path class="st0" d="M32,55l-4.6,4.9c-0.3,0.3-0.3,0.8,0.1,1c0.1,0.1,0.3,0.2,0.5,0.2s0.4-0.1,0.6-0.2l4.6-4.9
		c0.3-0.3,0.3-0.8-0.1-1C32.7,54.7,32.2,54.7,32,55z"/>
	<path class="st0" d="M65.3,14.2c0.1,0.1,0.3,0.1,0.4,0.1c0.3,0,0.5-0.1,0.6-0.4L72,4.2c0.2-0.4,0.1-0.8-0.3-0.9
		c-0.4-0.2-0.8-0.1-0.9,0.3l-5.7,9.7C64.9,13.6,65,14,65.3,14.2z"/>
	<path class="st0" d="M58.1,11.2c0.1,0,0.2,0,0.2,0c0.3,0,0.6-0.2,0.7-0.5l2-6.4c0.1-0.4-0.1-0.8-0.5-0.9c-0.4-0.1-0.8,0.1-0.9,0.5
		l-2,6.4C57.6,10.7,57.8,11.1,58.1,11.2z"/>
	<path class="st0" d="M70.2,17.7c0.1,0.2,0.4,0.2,0.6,0.2c0.2,0,0.4-0.1,0.5-0.2l4.9-4.6c0.3-0.3,0.3-0.8,0-1c-0.3-0.3-0.8-0.3-1,0
		l-4.9,4.6C69.9,16.9,69.9,17.4,70.2,17.7z"/>
	<path class="st0" d="M99.5,48.2c-0.6-1.2-0.9-2.5-1.2-3.8l-0.9-5.3c-0.6-3.2-2.3-6.6-4.9-9.7c-8.2-9.5-18.8-10-19.3-10h-9.5
		c-2.9-2.1-6.4-3.4-10.2-3.6c-5.7-0.4-11,1.5-15.2,5.4c-4.1,3.8-6.4,9.2-6.4,14.7c0,3.1,0.7,6.2,2.1,8.9c0,0,0,0,0,0.1
		c0.5,0.9,0.9,1.8,1.6,2.7l0,0c3.1,5.5,5.3,11.7,6.5,18.2c0.4,1.8,0.7,3.7,0.9,5.5c0,0.1,0,0.1,0,0.2c0.5,1.2,1.4,2.1,2.7,2.4
		c0.3,1.8,1.7,3.3,3.7,4v1.8c0,0.4,0.3,0.8,0.8,0.8c0.4,0,0.8-0.3,0.8-0.8v-1.4c0.4,0.1,0.9,0.1,1.2,0.1c0.9,0,1.7-0.1,2.5-0.4v34.2
		c0,2.2-1.8,4-4,4h-37c-0.4,0-0.8,0.3-0.8,0.8c0,0.4,0.3,0.8,0.8,0.8h37c3,0,5.4-2.5,5.4-5.4V77.8c0-0.1-0.1-0.3-0.1-0.4
		c1.4-0.9,2.4-2.1,2.6-3.5c1.3-0.4,2.4-1.5,2.8-2.9c0.1-1.1,0.3-2.2,0.5-3.2c1.2-7.6,3.8-14.8,7.4-21c0.2-0.3,0.3-0.5,0.5-0.8
		c0,0,0-0.1,0.1-0.1c1.9-3.3,2.8-7.1,2.6-11c-0.3-5.5-2.8-10.5-6.7-13.9h7.7c0.1,0,10.4,0.5,18.2,9.5c2.5,2.8,4.1,6,4.6,9l0.9,5.3
		c0.3,1.4,0.7,2.8,1.3,4.2l6,12.4c0.2,0.4,0.2,0.9-0.1,1.3c-0.3,0.4-0.7,0.7-1.1,0.7h-5c-0.4,0-0.8,0.3-0.8,0.8v11.1
		c0,0.3-0.8,5.9-7,6.3h-10c-0.4,0-0.8,0.3-0.8,0.8c0,0.4,0.3,0.8,0.8,0.8h2.6v13.7c0,0.4,0.3,0.8,0.8,0.8c0.4,0,0.8-0.3,0.8-0.8
		V82.8h6.1c7.5-0.4,8.4-7.4,8.4-7.6V64.6h4.3c0.9,0,1.8-0.5,2.4-1.3c0.5-0.9,0.6-1.8,0.2-2.7L99.5,48.2z M52.1,45.6
		c1.2,0.9,3,2,4.9,2.5c-1.4,5.1-2.6,12.5-2.9,14.9h-4c-0.4-2.4-1.5-9.9-2.9-14.9C49,47.6,50.8,46.6,52.1,45.6z M50.4,41.5
		c0-0.1-0.2-2,1.4-2.3h0.5c1.6,0.3,1.4,2.2,1.4,2.3c-0.1,0.9-1,1.9-1.7,2.4C51.4,43.3,50.4,42.5,50.4,41.5z M49,64.5
		c0.2,0.1,0.3,0.2,0.5,0.1c0.1,0,0.2-0.1,0.3-0.1h4.4c0.1,0.1,0.2,0.1,0.3,0.1h0.1c0.2,0,0.3-0.1,0.4-0.1h5.7c-0.2,1-0.4,2-0.6,3
		c0,0.1,0,0.2-0.1,0.4H44c-0.1-0.8-0.2-1.5-0.4-2.2c-0.1-0.4-0.2-0.8-0.3-1.1L49,64.5L49,64.5z M52.1,77c-2.4,0-4.5-1.2-4.9-2.9h9.8
		C56.5,75.7,54.4,77,52.1,77z M57.3,72.6H46.8c-1,0-2-0.7-2.4-1.5c-0.1-0.6-0.2-1.2-0.2-1.8h15.7c-0.1,0.5-0.1,0.9-0.2,1.4
		C59.5,71.9,58.5,72.6,57.3,72.6z M70.7,35c0.2,3.6-0.7,7.1-2.4,10.1c0,0,0,0,0,0.1c-0.2,0.3-0.3,0.6-0.5,0.9
		c-3,5.1-5.2,10.9-6.7,17h-5.6c0.4-2.6,1.5-9.8,2.9-14.7c0.8,0.1,1.5,0.1,2.2-0.1c1.6-0.5,2.3-2.1,2.2-3.4c-0.1-1.2-0.9-2.1-1.9-2.3
		c-0.7-0.1-1.9,0.2-2.6,1.7c-0.3,0.7-0.6,1.5-0.9,2.5c-1.5-0.4-3.1-1.2-4.2-2c0.8-0.7,1.8-1.7,1.9-3.1c0.1-1.6-0.7-3.5-2.7-3.8h-0.1
		h-0.7h-0.1c-2,0.4-2.8,2.3-2.7,3.8c0.1,1.4,1.1,2.5,1.9,3.1c-1,0.8-2.7,1.6-4.2,2c-0.3-0.9-0.6-1.8-0.9-2.5
		c-0.7-1.5-1.9-1.8-2.6-1.7c-1,0.1-1.8,1-1.9,2.3c-0.1,1.3,0.6,2.9,2.2,3.4c0.7,0.2,1.4,0.2,2.2,0.1c1.3,4.8,2.6,12,2.9,14.7h-5.6
		c-1.3-5.8-3.4-11.2-6.2-16.1l0,0c-0.5-0.9-1-1.7-1.5-2.6c0,0,0-0.1-0.1-0.1c-1.2-2.6-1.9-5.4-1.9-8.3c0-5.1,2.2-10.1,6-13.7
		c3.8-3.6,8.8-5.3,14-5c3.5,0.3,6.8,1.4,9.6,3.4c0.1,0.1,0.2,0.2,0.3,0.2C67.4,24.1,70.4,29.2,70.7,35z M58.8,46.9
		c0.3-0.9,0.6-1.6,0.8-2.2c0.4-0.9,1-0.9,1-0.9c0.6,0.1,0.7,0.8,0.7,0.9c0.1,0.8-0.3,1.7-1.1,1.9C59.7,46.9,59.3,47,58.8,46.9z
		 M45.3,46.9c-0.5,0-0.9,0-1.3-0.1c-0.9-0.3-1.2-1.1-1.1-1.9c0-0.2,0.1-0.9,0.7-0.9l0,0c0.2,0,0.7,0.1,1,0.9
		C44.8,45.4,45,46.1,45.3,46.9z"/>
	<path class="st0" d="M50.1,84.3c0.4,0,0.8-0.3,0.8-0.8V83c0-0.4-0.3-0.8-0.8-0.8c-0.4,0-0.8,0.3-0.8,0.8v0.5
		C49.3,84,49.7,84.3,50.1,84.3z"/>
	<path class="st0" d="M49.3,94.4c0,0.4,0.3,0.8,0.8,0.8c0.4,0,0.8-0.3,0.8-0.8V91c0-0.1,0-0.2,0-0.2c0-0.1,0-0.1,0-0.2v-3.4
		c0-0.4-0.3-0.8-0.8-0.8c-0.4,0-0.8,0.3-0.8,0.8v3.4c0,0.1,0,0.2,0,0.2c0,0.1,0,0.1,0,0.2V94.4z"/>
	<path class="st0" d="M49.3,98.3c0,0.4,0.3,0.8,0.8,0.8c0.4,0,0.8-0.3,0.8-0.8v-0.5c0-0.4-0.3-0.8-0.8-0.8c-0.4,0-0.8,0.3-0.8,0.8
		V98.3z"/>
	<path class="st0" d="M76,111.9c-0.4,0-0.8,0.3-0.8,0.8v1.9c0,0.4,0.3,0.8,0.8,0.8c0.4,0,0.8-0.3,0.8-0.8v-1.9
		C76.7,112.3,76.3,111.9,76,111.9z"/>
	<path class="st0" d="M76,95.3c-0.4,0-0.8,0.3-0.8,0.8v0.5c0,0.4,0.3,0.8,0.8,0.8c0.4,0,0.8-0.3,0.8-0.8V96
		C76.7,95.6,76.3,95.3,76,95.3z"/>
	<path class="st0" d="M76,87.1c-0.4,0-0.8,0.3-0.8,0.8v1.9c0,0.1,0,0.2,0,0.3c0,0.1,0,0.2,0,0.3v3.8c0,0.4,0.3,0.8,0.8,0.8
		c0.4,0,0.8-0.3,0.8-0.8v-3.8c0-0.1,0-0.2,0-0.3c0-0.1,0-0.2,0-0.3v-1.9C76.7,87.5,76.3,87.1,76,87.1z"/>
	<path class="st0" d="M76,107.6c-0.4,0-0.8,0.3-0.8,0.8v0.5c0,0.4,0.3,0.8,0.8,0.8c0.4,0,0.8-0.3,0.8-0.8v-0.5
		C76.7,107.9,76.3,107.6,76,107.6z"/>
	<path class="st0" d="M76,99.6c-0.4,0-0.8,0.3-0.8,0.8v1.9c0,0.1,0,0.2,0,0.3c0,0.1,0,0.2,0,0.3v3.8c0,0.4,0.3,0.8,0.8,0.8
		c0.4,0,0.8-0.3,0.8-0.8v-3.8c0-0.1,0-0.2,0-0.3c0-0.1,0-0.2,0-0.3v-1.9C76.7,99.8,76.3,99.6,76,99.6z"/>
	<path class="st0" d="M92.5,46.6C92.5,46.6,92.6,46.6,92.5,46.6c0.4,0,0.8-0.3,0.8-0.7c0.9-12.9-10.3-18.1-10.4-18.1
		c-0.4-0.2-0.8,0-0.9,0.4c-0.2,0.4,0,0.8,0.4,0.9c0.1,0,10.3,4.8,9.6,16.7C91.8,46.2,92.1,46.5,92.5,46.6z"/>
</g>
</svg>
