<?xml version="1.0" encoding="utf-8"?>
<!-- Generator: Adobe Illustrator 22.1.0, SVG Export Plug-In . SVG Version: 6.00 Build 0)  -->
<svg version="1.1" id="Layer_1" xmlns="http://www.w3.org/2000/svg" xmlns:xlink="http://www.w3.org/1999/xlink" x="0px" y="0px"
	 viewBox="0 0 116.8 115.6" style="enable-background:new 0 0 116.8 115.6;" xml:space="preserve">
<style type="text/css">
	.st0{fill:#F7F3FF;}
</style>
<g>
	<path class="st0" d="M5.5,44.2c0.3,0,0.6-0.3,0.6-0.6v-8.9c0-0.3-0.3-0.6-0.6-0.6c-0.3,0-0.6,0.3-0.6,0.6v8.9
		C4.9,44,5.2,44.2,5.5,44.2z"/>
	<path class="st0" d="M5.5,51.6c0.3,0,0.6-0.3,0.6-0.6v-3.1c0-0.3-0.3-0.6-0.6-0.6c-0.3,0-0.6,0.3-0.6,0.6V51
		C4.9,51.3,5.2,51.6,5.5,51.6z"/>
	<path class="st0" d="M111.3,52.6c-0.3,0-0.6,0.3-0.6,0.6v8.9c0,0.3,0.3,0.6,0.6,0.6c0.3,0,0.6-0.3,0.6-0.6v-8.9
		C111.9,52.8,111.6,52.6,111.3,52.6z"/>
	<path class="st0" d="M111.3,65.7c-0.3,0-0.6,0.3-0.6,0.6v3.1c0,0.3,0.3,0.6,0.6,0.6c0.3,0,0.6-0.3,0.6-0.6v-3.1
		C111.9,65.9,111.6,65.7,111.3,65.7z"/>
	<path class="st0" d="M13.5,103.8c0-1.9-1.5-3.4-3.4-3.4s-3.3,1.5-3.3,3.4s1.5,3.3,3.3,3.3S13.5,105.6,13.5,103.8z M10.1,105.9
		c-1.2,0-2.1-0.9-2.1-2.1s0.9-2.1,2.1-2.1s2.1,0.9,2.1,2.1S11.2,105.9,10.1,105.9z"/>
	<path class="st0" d="M90.4,14.8h11c0.3,0,0.6-0.3,0.6-0.6c0-0.3-0.3-0.6-0.6-0.6h-11c-0.3,0-0.6,0.3-0.6,0.6
		C89.8,14.5,90,14.8,90.4,14.8z"/>
	<path class="st0" d="M108.7,13.5h-3.6c-0.3,0-0.6,0.3-0.6,0.6c0,0.3,0.3,0.6,0.6,0.6h3.6c0.3,0,0.6-0.3,0.6-0.6
		C109.3,13.8,109.1,13.5,108.7,13.5z"/>
	<path class="st0" d="M108.7,17.3H101c-0.3,0-0.6,0.3-0.6,0.6c0,0.3,0.3,0.6,0.6,0.6h7.7c0.3,0,0.6-0.3,0.6-0.6
		C109.3,17.6,109.1,17.3,108.7,17.3z"/>
	<path class="st0" d="M95.1,17.3c-0.3,0-0.6,0.3-0.6,0.6c0,0.3,0.3,0.6,0.6,0.6h2.5c0.3,0,0.6-0.3,0.6-0.6c0-0.3-0.3-0.6-0.6-0.6
		H95.1z"/>
	<path class="st0" d="M78.4,60.9c0.1,0.1,0.3,0.2,0.4,0.2s0.3-0.1,0.4-0.2c0.3-0.3,0.3-0.7,0-0.8l-1.4-1.4c-0.3-0.3-0.7-0.3-0.8,0
		c-0.3,0.3-0.3,0.7,0,0.8L78.4,60.9z"/>
	<path class="st0" d="M81.6,64.1l1.4,1.4c0.1,0.1,0.3,0.2,0.4,0.2s0.3-0.1,0.4-0.2c0.3-0.3,0.3-0.7,0-0.8l-1.4-1.4
		c-0.3-0.3-0.7-0.3-0.8,0C81.3,63.5,81.3,63.9,81.6,64.1z"/>
	<path class="st0" d="M76.9,65.6c0.1,0.1,0.3,0.2,0.4,0.2s0.3-0.1,0.4-0.2l1.4-1.4c0.3-0.3,0.3-0.7,0-0.8c-0.3-0.3-0.7-0.3-0.8,0
		l-1.4,1.4C76.7,64.9,76.7,65.3,76.9,65.6z"/>
	<path class="st0" d="M82,61.1c0.2,0,0.3-0.1,0.4-0.2l1.4-1.4c0.3-0.3,0.3-0.7,0-0.8c-0.3-0.3-0.7-0.3-0.8,0l-1.4,1.4
		c-0.3,0.3-0.3,0.7,0,0.8C81.7,61.1,81.9,61.1,82,61.1z"/>
	<path class="st0" d="M102.3,100.8c-0.3-0.3-0.7-0.3-0.8,0c-0.2,0.3-0.3,0.7,0,0.8l1.4,1.4c0.1,0.1,0.3,0.2,0.4,0.2s0.3-0.1,0.4-0.2
		c0.3-0.3,0.3-0.7,0-0.8L102.3,100.8z"/>
	<path class="st0" d="M106.8,105.5c-0.3-0.3-0.7-0.3-0.8,0c-0.3,0.3-0.3,0.7,0,0.8l1.4,1.4c0.1,0.1,0.3,0.2,0.4,0.2
		c0.2,0,0.3-0.1,0.4-0.2c0.3-0.3,0.3-0.7,0-0.8L106.8,105.5z"/>
	<path class="st0" d="M102.8,105.5l-1.4,1.4c-0.3,0.3-0.3,0.7,0,0.8c0.1,0.1,0.3,0.2,0.4,0.2s0.3-0.1,0.4-0.2l1.4-1.4
		c0.3-0.3,0.3-0.7,0-0.8C103.4,105.3,103,105.3,102.8,105.5z"/>
	<path class="st0" d="M107.4,100.8l-1.4,1.4c-0.3,0.3-0.3,0.7,0,0.8c0.1,0.1,0.3,0.2,0.4,0.2s0.3-0.1,0.4-0.2l1.4-1.4
		c0.3-0.3,0.3-0.7,0-0.8C108,100.6,107.6,100.6,107.4,100.8z"/>
	<path class="st0" d="M85.4,31.9c-0.1-0.1-0.2-0.1-0.3-0.1c-0.2-4.9-4.2-8.9-9.3-8.9c-1.2,0-2.5,0.3-3.6,0.7l2.4-10.7l0.8,0.2
		c0.2,0,0.3,0.1,0.4,0.1c0.4,0,0.8-0.1,1.1-0.3c0.4-0.3,0.8-0.8,0.9-1.3l0.1-0.5c0.1-0.5,0-1.1-0.3-1.5c-0.3-0.4-0.8-0.8-1.3-0.9
		L61,5.2c-1.1-0.3-2.2,0.4-2.5,1.6l-0.1,0.5c-0.1,0.5,0,1.1,0.3,1.5c0.3,0.4,0.8,0.8,1.3,0.9l0.8,0.2L53,46.1
		c-0.1,0.4,0,0.8,0.3,1.2s0.6,0.6,1,0.7l0.8,0.2l-1.2,11.4c-0.1,0.8,0.4,1.5,1.3,1.7l3.5,0.8c0.1,0,0.3,0,0.3,0
		c0.7,0,1.3-0.4,1.5-1.1l3.7-10.8l0.8,0.2c0.1,0,0.3,0,0.3,0c0.8,0,1.4-0.5,1.5-1.3l2.3-10.5c1.7,1.9,4.2,3,6.8,3
		c2.7,0,5.2-1.2,6.9-3.1c0.1,0.1,0.1,0.2,0.2,0.2c9,5.5,14.5,15.5,14.4,26c-0.2,13.3-9.2,25-22,28.6l-2.5-2.7
		c-0.7-0.8-1.6-1.4-2.5-1.9c-3-1.3-6.5-0.5-8.7,1.9l-2.5,2.7c-4.9-1.4-9.3-4-13-7.6h30.2c0.3,0,0.6-0.3,0.6-0.6v-3.6
		c0-0.3-0.3-0.6-0.6-0.6H30.7c-0.3,0-0.6,0.3-0.6,0.6V85c0,0.3,0.3,0.6,0.6,0.6h6.5c0,0.1,0,0.2,0.1,0.3c4.2,5.9,10,10.4,16.8,12.9
		l-8.2,9.1c-0.4,0.5-0.5,1.1-0.3,1.7s0.8,0.9,1.4,0.9h40.4c0.6,0,1.2-0.3,1.4-0.9s0.2-1.2-0.3-1.7l-8.2-9
		c14.1-5.4,23.7-19,23.9-34.2C104.5,51.1,97.2,38.6,85.4,31.9z M60.3,8.5c-0.2-0.1-0.4-0.2-0.5-0.3s-0.2-0.4-0.1-0.6L59.8,7
		c0.1-0.3,0.4-0.7,0.8-0.7c0.1,0,0.1,0,0.2,0l15.5,3.3c0.2,0.1,0.4,0.2,0.5,0.3c0.1,0.2,0.2,0.4,0.1,0.6l-0.1,0.5
		c-0.1,0.2-0.2,0.4-0.3,0.5s-0.4,0.2-0.6,0.1l-1.4-0.3l0,0L68.1,10L60.3,8.5z M59.3,60.5c-0.1,0.2-0.3,0.3-0.4,0.3l-3.4-0.8
		c-0.2,0-0.3-0.2-0.3-0.3l1.1-11.2l6.6,1.4L59.3,60.5z M65.6,48.8c0,0.2-0.3,0.3-0.4,0.3l-10.8-2.4c-0.1,0-0.2-0.1-0.2-0.2
		s-0.1-0.2-0.1-0.3L62,10.1l5.4,1.2l6,1.3l-2.5,11.7c-0.2,0.1-0.3,0.2-0.4,0.3s-0.3,0.3-0.4,0.3c-0.2,0.2-0.3,0.3-0.4,0.4
		c-0.2,0.1-0.3,0.3-0.4,0.4s-0.3,0.3-0.4,0.5c-0.1,0.2-0.3,0.3-0.3,0.4s-0.3,0.3-0.3,0.5s-0.2,0.3-0.3,0.4c-0.1,0.2-0.2,0.4-0.3,0.6
		c-0.1,0.2-0.2,0.3-0.3,0.4c-0.1,0.3-0.2,0.4-0.3,0.7c-0.1,0.2-0.1,0.3-0.2,0.4c-0.1,0.3-0.1,0.5-0.2,0.8c0,0.2-0.1,0.3-0.1,0.4
		c-0.1,0.4-0.1,0.8-0.1,1.2c0,0.3,0,0.4,0,0.7c0,0.1,0,0.2,0,0.3c0,0.2,0,0.3,0.1,0.4c0,0.1,0,0.2,0.1,0.3c0,0.2,0.1,0.3,0.1,0.4
		c0,0.1,0.1,0.2,0.1,0.3c0,0.2,0.1,0.3,0.1,0.4c0,0.1,0.1,0.2,0.1,0.3c0,0.1,0.1,0.3,0.2,0.3c0,0.1,0.1,0.2,0.1,0.3
		c0.1,0.1,0.1,0.3,0.2,0.3c0,0.1,0.1,0.2,0.2,0.3s0.1,0.3,0.2,0.3c0.1,0.1,0.1,0.2,0.2,0.3c0.1,0.1,0.1,0.2,0.1,0.2L65.6,48.8z
		 M75.9,40.2c-2.6,0-5.1-1.3-6.5-3.5c-0.9-1.4-1.4-2.9-1.4-4.5c0-2.8,1.4-5.4,3.9-6.9c1.3-0.8,2.6-1.1,4.1-1.1c4.4,0,8,3.6,8,8
		S80.3,40.2,75.9,40.2z M31.4,84.3V82h44.4v2.4L31.4,84.3L31.4,84.3z M38.7,85.5h5.9c0,0.1,0.1,0.1,0.1,0.2
		c3.7,3.9,8.5,6.8,13.7,8.4L55,97.8C48.5,95.3,42.8,91.2,38.7,85.5z M87.6,108.7c0.2,0.2,0.1,0.3,0.1,0.3s-0.1,0.2-0.3,0.2H47.1
		c-0.2,0-0.3-0.2-0.3-0.2c0-0.1-0.1-0.2,0.1-0.3l15.7-17.4c1.2-1.4,2.9-2.1,4.7-2.1c0.8,0,1.7,0.2,2.5,0.5c0.8,0.3,1.5,0.8,2.1,1.5
		L87.6,108.7z M79.6,97.8l-3.3-3.7c13-3.9,22.1-15.9,22.3-29.6c0.2-11-5.6-21.3-15-27h-0.1c0.8-1.3,1.4-2.7,1.6-4.2
		c11.2,6.5,18.1,18.5,17.9,31.4C102.8,79.4,93.4,92.7,79.6,97.8z"/>
	<path class="st0" d="M75.9,27.8c-2.5,0-4.4,2-4.4,4.4c0,2.5,2,4.4,4.4,4.4c2.5,0,4.4-2,4.4-4.4C80.3,29.7,78.4,27.8,75.9,27.8z
		 M75.9,35.4c-1.8,0-3.2-1.4-3.2-3.2c0-1.8,1.4-3.2,3.2-3.2s3.2,1.4,3.2,3.2C79.1,34,77.7,35.4,75.9,35.4z"/>
	<path class="st0" d="M67.2,94.6c-2.5,0-4.6,2-4.6,4.6s2,4.6,4.6,4.6s4.6-2,4.6-4.6C71.8,96.7,69.8,94.6,67.2,94.6z M67.2,102.5
		c-1.9,0-3.3-1.5-3.3-3.3c0-1.9,1.5-3.3,3.3-3.3c1.9,0,3.3,1.5,3.3,3.3C70.6,101,69.1,102.5,67.2,102.5z"/>
	<path class="st0" d="M17.9,28h3.4c0.3,0,0.6-0.3,0.6-0.6c0-0.3-0.3-0.6-0.6-0.6h-3.4c-0.3,0-0.6,0.3-0.6,0.6
		C17.4,27.8,17.6,28,17.9,28z"/>
	<path class="st0" d="M17.9,43.5h3.4c0.3,0,0.6-0.3,0.6-0.6s-0.3-0.6-0.6-0.6h-3.4c-0.3,0-0.6,0.3-0.6,0.6S17.6,43.5,17.9,43.5z"/>
	<path class="st0" d="M17.9,58.9h3.4c0.3,0,0.6-0.3,0.6-0.6s-0.3-0.6-0.6-0.6h-3.4c-0.3,0-0.6,0.3-0.6,0.6
		C17.4,58.6,17.6,58.9,17.9,58.9z"/>
	<path class="st0" d="M17.9,35.7h2.2c0.3,0,0.6-0.3,0.6-0.6c0-0.3-0.3-0.6-0.6-0.6h-2.2c-0.3,0-0.6,0.3-0.6,0.6
		C17.4,35.5,17.6,35.7,17.9,35.7z"/>
	<path class="st0" d="M17.9,51.2h2.2c0.3,0,0.6-0.3,0.6-0.6S20.5,50,20.2,50h-2.2c-0.3,0-0.6,0.3-0.6,0.6S17.6,51.2,17.9,51.2z"/>
	<path class="st0" d="M12.5,17.2h2v42.7c0,4.3,3.5,7.8,7.8,7.8s7.8-3.5,7.8-7.8V17.2h2c0.7,0,1.4-0.3,1.8-0.8
		c0.5-0.5,0.8-1.1,0.8-1.8c0-1.4-1.2-2.5-2.5-2.5H12.5c-0.7,0-1.4,0.3-1.8,0.8C10.2,13.3,10,14,10,14.7C10,16.1,11.1,17.2,12.5,17.2
		z M11.6,13.7c0.3-0.3,0.6-0.4,0.9-0.4h19.5c0.8,0,1.4,0.6,1.4,1.4c0,0.3-0.2,0.7-0.4,0.9c-0.3,0.3-0.6,0.4-0.9,0.4h-2.5
		c-0.3,0-0.6,0.3-0.6,0.6V60c0,3.7-3,6.5-6.5,6.5c-3.7,0-6.5-3-6.5-6.5V16.6c0-0.3-0.3-0.6-0.6-0.6h-2.5c-0.8,0-1.4-0.6-1.4-1.4
		C11.2,14.3,11.4,14,11.6,13.7z"/>
</g>
</svg>
