<?xml version="1.0" encoding="utf-8"?>
<!-- Generator: Adobe Illustrator 22.1.0, SVG Export Plug-In . SVG Version: 6.00 Build 0)  -->
<svg version="1.1" id="Layer_1" xmlns="http://www.w3.org/2000/svg" xmlns:xlink="http://www.w3.org/1999/xlink" x="0px" y="0px"
	 viewBox="0 0 300 300" style="enable-background:new 0 0 300 300;" xml:space="preserve">
<style type="text/css">
	.st0{fill:#0AAA64;}
	.st1{fill:#EE3045;}
	.st2{fill:#1B459B;}
	.st3{fill:#221E20;}
	.st4{fill:#FFFFFF;}
</style>
<g>
	<g>
		<path class="st0" d="M153.6,163.5l46.7-27c2.2-1.3,4.9-1.3,7.1,0l46.7,27c2.2,1.3,3.6,3.6,3.6,6.1v54c0,2.5-1.4,4.9-3.6,6.1
			l-46.7,27c-2.2,1.3-4.9,1.3-7.1,0l-46.7-27c-2.2-1.3-3.6-3.6-3.6-6.1v-54C150,167.1,151.4,164.8,153.6,163.5z"/>
		<path class="st1" d="M45.9,163.5l46.7-27c2.2-1.3,4.9-1.3,7.1,0l46.7,27c2.2,1.3,3.6,3.6,3.6,6.1v54c0,2.5-1.4,4.9-3.6,6.1
			l-46.7,27c-2.2,1.3-4.9,1.3-7.1,0l-46.7-27c-2.2-1.3-3.6-3.6-3.6-6.1v-54C42.3,167.1,43.7,164.8,45.9,163.5z"/>
		<path class="st2" d="M99.7,70.3l46.7-27c2.2-1.3,4.9-1.3,7.1,0l46.7,27c2.2,1.3,3.6,3.6,3.6,6.1v54c0,2.5-1.4,4.9-3.6,6.1
			l-46.7,27c-2.2,1.3-4.9,1.3-7.1,0l-46.7-27c-2.2-1.3-3.6-3.6-3.6-6.1v-54C96.2,73.9,97.5,71.5,99.7,70.3z"/>
		<path class="st3" d="M99.7,132.4l46.7-27c2.2-1.3,4.9-1.3,7.1,0l46.7,27c2.2,1.3,3.6,3.6,3.6,6.1v54c0,2.5-1.4,4.9-3.6,6.1
			l-46.7,27c-2.2,1.3-4.9,1.3-7.1,0l-46.7-27c-2.2-1.3-3.6-3.6-3.6-6.1v-54C96.2,136,97.5,133.7,99.7,132.4z"/>
	</g>
	<g>
		<g>
			<path class="st4" d="M122,145.3v4.6c0,0.5,0.4,0.8,0.8,0.8h9.5c0.5,0,0.8,0.4,0.8,0.8v3.2c0,0.5-0.4,0.8-0.8,0.8h-9.5
				c-0.5,0-0.8,0.4-0.8,0.8v8.4c0,0.5-0.4,0.8-0.8,0.8h-3.7c-0.5,0-0.8-0.4-0.8-0.8v-24.4c0-0.5,0.4-0.8,0.8-0.8h16.9
				c0.5,0,0.8,0.4,0.8,0.8v3.3c0,0.5-0.4,0.8-0.8,0.8h-11.5C122.4,144.5,122,144.9,122,145.3z"/>
			<path class="st4" d="M160.8,159.1v5.8c0,0.5-0.4,0.8-0.8,0.8h-3.7c-0.5,0-0.8-0.4-0.8-0.8v-5.1l-0.5-1.2h-10l-0.5,1.2v5.1
				c0,0.5-0.4,0.8-0.8,0.8H140c-0.5,0-0.8-0.4-0.8-0.8v-5.8c0-0.1,0-0.2,0.1-0.3l7.8-18.7c0.1-0.3,0.4-0.5,0.8-0.5h4.4
				c0.3,0,0.6,0.2,0.8,0.5l7.8,18.7C160.8,158.8,160.8,159,160.8,159.1z M147.8,153.8h4.3c0.6,0,1-0.6,0.8-1.1l-2.8-6.9h-0.2
				l-2.8,6.9C146.9,153.2,147.2,153.8,147.8,153.8z"/>
			<path class="st4" d="M165.6,140.4c0-0.5,0.4-0.8,0.8-0.8h11.1c4.4,0,6.9,1.8,6.9,6v2.3c0,1.5-0.5,3-1.8,3.9c-0.4,0.3-0.4,1,0,1.3
				c1.3,0.9,1.8,2.4,1.8,3.9v2.7c0,4.2-2.6,6-6.9,6h-11.1c-0.5,0-0.8-0.4-0.8-0.8V140.4z M176.8,150c1.7,0,2.3-0.7,2.3-2.1v-1.3
				c0-1.4-0.6-2.1-2.3-2.1h-5c-0.5,0-0.8,0.4-0.8,0.8v3.8c0,0.5,0.4,0.8,0.8,0.8H176.8z M176.8,160.6c1.7,0,2.3-0.6,2.3-2.1v-1.7
				c0-1.4-0.6-2.1-2.3-2.1h-5c-0.5,0-0.8,0.4-0.8,0.8v4.2c0,0.5,0.4,0.8,0.8,0.8H176.8z"/>
		</g>
	</g>
	<g>
		<path class="st4" d="M125.8,171.8h-5.2c-3.1,0-4.5,1.3-4.5,4.2v11.8c0,2.9,1.4,4.2,4.5,4.2h5.2c3.1,0,4.5-1.3,4.5-4.2v-1.2
			l-2.6-0.8v1.7c0,1.5-0.3,2-2.2,2h-4.7c-1.9,0-2.2-0.5-2.2-2v-11.2c0-1.6,0.3-2.1,2.2-2.1h4.7c1.9,0,2.2,0.5,2.2,2.1v1.6l2.6-0.8
			V176C130.3,173.1,128.9,171.8,125.8,171.8z"/>
		<path class="st4" d="M142.4,189.2v-14.5c0-0.2,0.2-0.4,0.4-0.4h4.9v-2.4h-13.2v2.4h4.9c0.2,0,0.4,0.2,0.4,0.4v14.5
			c0,0.2-0.2,0.4-0.4,0.4h-5.3v2.5H148v-2.5h-5.2C142.5,189.6,142.4,189.4,142.4,189.2z"/>
		<path class="st4" d="M150.8,174.2h6.5c0.2,0,0.4,0.2,0.4,0.4V192h2.6v-17.4c0-0.2,0.2-0.4,0.4-0.4h6.4v-2.4h-16.3V174.2z"/>
		<path class="st4" d="M181.8,171.8v4.5c0,0.1,0,0.2-0.1,0.3l-4.6,4.2c-0.1,0.1-0.4,0.1-0.5,0l-4.6-4.2c-0.1-0.1-0.1-0.2-0.1-0.3
			v-4.5h-2.6v5.1c0,0.3,0.1,0.7,0.4,0.9l5.7,5.2c0.1,0.1,0.1,0.2,0.1,0.3v8.6h2.6v-8.6c0-0.1,0-0.2,0.1-0.3l5.7-5.2
			c0.3-0.2,0.4-0.6,0.4-0.9v-5.1H181.8z"/>
	</g>
</g>
</svg>
