<?xml version="1.0" encoding="utf-8"?>
<!-- Generator: Adobe Illustrator 22.1.0, SVG Export Plug-In . SVG Version: 6.00 Build 0)  -->
<svg version="1.1" id="Layer_1" xmlns="http://www.w3.org/2000/svg" xmlns:xlink="http://www.w3.org/1999/xlink" x="0px" y="0px"
	 viewBox="0 0 68.4 44.9" style="enable-background:new 0 0 68.4 44.9;" xml:space="preserve">
<style type="text/css">
	.st0{fill:#ED2D27;}
	.st1{fill:#83BF44;}
	.st2{fill:#82BF44;}
	.st3{fill:#1E3A6F;}
</style>
<g>
	<path class="st0" d="M47.9,44.5c-2.7-1.5-5.1-3-7.6-4.4c-3.4-2-6.9-4-10.3-5.9c-0.5-0.3-0.7-0.6-0.7-1.3c0-5,0-10,0-15
		c0-0.8-0.3-1.3-1-1.7c-2.4-1.4-4.8-2.8-7.2-4.1c-0.4-0.2-0.6-0.4-0.6-0.9c0-3.4,0-6.9,0-10.3c0-0.1,0-0.2,0.1-0.3
		c0.4,0,0.6,0.2,0.8,0.3c5.7,3.3,11.3,6.5,17,9.8c0.6,0.3,0.8,0.7,0.8,1.3c0,5,0,10.1,0,15.1c0,0.7,0.2,1.1,0.8,1.4
		c2.5,1.4,5,2.8,7.4,4.3c0.3,0.2,0.6,0.3,0.6,0.8C47.9,37.2,47.9,40.8,47.9,44.5z"/>
	<path class="st1" d="M68.4,12.3c0,2.8,0,5.5,0,8.1c0,4.1,0,8.3,0,12.4c0,0.6-0.2,1-0.8,1.4c-5.7,3.2-11.3,6.5-17,9.8
		c-0.9,0.5-0.9,0.5-0.9-0.6c0-3.1,0-6.1,0-9.2c0-0.8,0.3-1.3,1-1.7c2.4-1.3,4.8-2.7,7.1-4.1c0.5-0.3,0.7-0.6,0.7-1.1
		c0-2.9,0-5.8,0-8.7c0-0.4,0-0.7,0.4-1C62,15.9,65.1,14.1,68.4,12.3z"/>
	<path class="st2" d="M18.6,0.5c0,1.2,0,2.3,0,3.4c0,2.3,0,4.7,0,7c0,0.6-0.2,0.9-0.7,1.2c-2.5,1.4-5,2.9-7.5,4.3
		c-0.5,0.3-0.6,0.6-0.6,1.1c0,2.9,0,5.8,0,8.8c0,0.4,0,0.7-0.5,1c-3,1.7-6,3.4-9,5.2c-0.1,0-0.2,0-0.2,0.1C-0.1,32.4,0,32.1,0,31.9
		c0-6.7,0-13.3,0-20c0-0.4,0-0.8,0.5-1.1C6.3,7.5,12.2,4.2,18,0.8C18.1,0.7,18.3,0.6,18.6,0.5z"/>
	<path class="st3" d="M67.4,10.7c-2,1.2-3.9,2.3-5.8,3.4c-1.1,0.7-2.3,1.3-3.4,2c-0.5,0.3-0.8,0.2-1.2,0c-2.5-1.5-5-2.9-7.5-4.4
		c-0.5-0.3-0.9-0.3-1.5,0c-2.1,1.2-4.2,2.4-6.3,3.7c-0.2,0.1-0.4,0.4-0.8,0.3c0-1.6,0-3.2,0-4.8c0-0.6-0.1-0.9-0.6-1.1
		C38.9,9,37.5,8.2,36,7.3c0.8-0.5,1.5-0.9,2.2-1.3c3.3-1.9,6.7-3.9,10-5.8c0.3-0.2,0.6-0.4,1-0.1C55.2,3.6,61.3,7.1,67.4,10.7z"/>
	<path class="st3" d="M27.4,29.2c0,1.8,0,3.4,0,4.9c0,0.5,0.2,0.8,0.6,1.1c1.4,0.8,2.8,1.6,4.1,2.4c0,0.4-0.3,0.4-0.5,0.5
		c-3.8,2.2-7.7,4.5-11.6,6.7c-0.3,0.2-0.5,0.3-0.9,0.1c-6-3.5-12-7-18.1-10.5c0.1-0.3,0.3-0.3,0.5-0.4c2.9-1.7,5.7-3.3,8.6-5
		c0.5-0.3,0.8-0.3,1.3,0c2.4,1.4,4.8,2.7,7.2,4.2c0.7,0.4,1.2,0.4,1.9,0C22.7,31.8,25,30.5,27.4,29.2z"/>
</g>
</svg>
