<?xml version="1.0" encoding="utf-8"?>
<!-- Generator: Adobe Illustrator 22.1.0, SVG Export Plug-In . SVG Version: 6.00 Build 0)  -->
<svg version="1.1" xmlns="http://www.w3.org/2000/svg" xmlns:xlink="http://www.w3.org/1999/xlink" x="0px" y="0px"
	 viewBox="0 0 116.8 115.6" style="enable-background:new 0 0 116.8 115.6;" xml:space="preserve">
<style type="text/css">
	.st0{fill:#44AA7D;}
	.st1{fill:none;stroke:#F7F3FF;stroke-width:1.4848;stroke-miterlimit:10;}
	.st2{fill:#F7F3FF;}
</style>
<g id="Layer_1">
	<circle class="st0" cx="57.8" cy="57.8" r="57.8"/>
	<path class="st1" d="M47.2,78.6c-4.5-4.4-8.9-8.7-13.4-13c0.2-0.2,0.4-0.5,0.6-0.7c3-3,6.1-6.1,9.1-9.1c1.8-1.7,3.9-2.6,6.3-2.6
		c7.6,0,15.2,0,22.8,0c1.9,0,2.6,0.9,2.6,3c0,1.7-0.9,2.6-2.6,2.6c-3.8,0-7.5,0-11.3,0c-1,0-1.7,0.4-2.1,1.3
		c-0.4,0.9-0.4,1.9,0.4,2.7c0.4,0.4,1.2,0.8,1.8,0.8c3.7,0.1,7.5,0.1,11.2,0c0.4,0,0.8-0.3,1.1-0.6c4-3.9,7.9-7.8,11.8-11.8
		c1.3-1.3,2.8-1.4,4.4-1.1c1.6,0.3,2.1,2,1.1,3.3c-4.4,5.7-8.9,11.3-13.3,17c-0.7,0.9-1.5,1.2-2.6,1.2c-6.6,0-13.2,0-19.9,0
		c-0.7,0-1.2,0.2-1.6,0.7C51.6,74.3,49.4,76.4,47.2,78.6z"/>
	<path class="st1" d="M45.5,83.6c-0.3,0.4-0.4,0.8-0.7,1.1c-2.1,2.1-4.2,4.2-6.3,6.3c-0.8,0.8-1.5,0.8-2.3,0
		C30.8,85.6,25.4,80.2,20,74.8c-0.7-0.8-0.8-1.5,0-2.3c2.1-2.1,4.2-4.2,6.3-6.3c0.8-0.8,1.5-0.7,2.3,0C34,71.6,39.4,77,44.8,82.4
		C45.1,82.7,45.3,83.1,45.5,83.6z"/>
	<g>
		<path class="st2" d="M47.5,97.4c-0.3-0.3-0.7-0.3-0.9,0c-0.3,0.3-0.3,0.7,0,0.9l1.5,1.5c0.1,0.1,0.3,0.2,0.4,0.2
			c0.2,0,0.3-0.1,0.4-0.2c0.3-0.3,0.3-0.7,0-0.9L47.5,97.4z"/>
		<path class="st2" d="M52.1,102c-0.3-0.3-0.7-0.3-0.9,0c-0.3,0.3-0.3,0.7,0,0.9l1.5,1.5c0.1,0.1,0.3,0.2,0.4,0.2
			c0.2,0,0.3-0.1,0.4-0.2c0.3-0.3,0.3-0.7,0-0.9L52.1,102z"/>
		<path class="st2" d="M48,102l-1.5,1.5c-0.3,0.3-0.3,0.7,0,0.9c0.1,0.1,0.3,0.2,0.4,0.2c0.2,0,0.3-0.1,0.4-0.2l1.5-1.5
			c0.3-0.3,0.3-0.7,0-0.9C48.7,101.7,48.2,101.7,48,102z"/>
		<path class="st2" d="M52.6,97.4l-1.5,1.5c-0.3,0.3-0.3,0.7,0,0.9c0.1,0.1,0.3,0.2,0.4,0.2c0.2,0,0.3-0.1,0.4-0.2l1.5-1.5
			c0.3-0.3,0.3-0.7,0-0.9C53.2,97.2,52.9,97.2,52.6,97.4z"/>
	</g>
	<g>
		<path class="st2" d="M99.7,63.6c-0.3-0.3-0.7-0.3-0.9,0c-0.3,0.3-0.3,0.7,0,0.9l1.5,1.5c0.1,0.1,0.3,0.2,0.4,0.2
			c0.2,0,0.3-0.1,0.4-0.2c0.3-0.3,0.3-0.7,0-0.9L99.7,63.6z"/>
		<path class="st2" d="M104.3,68.2c-0.3-0.3-0.7-0.3-0.9,0c-0.3,0.3-0.3,0.7,0,0.9l1.5,1.5c0.1,0.1,0.3,0.2,0.4,0.2
			c0.2,0,0.3-0.1,0.4-0.2c0.3-0.3,0.3-0.7,0-0.9L104.3,68.2z"/>
		<path class="st2" d="M100.2,68.2l-1.5,1.5c-0.3,0.3-0.3,0.7,0,0.9c0.1,0.1,0.3,0.2,0.4,0.2c0.2,0,0.3-0.1,0.4-0.2l1.5-1.5
			c0.3-0.3,0.3-0.7,0-0.9C100.9,67.9,100.4,67.9,100.2,68.2z"/>
		<path class="st2" d="M104.8,63.6l-1.5,1.5c-0.3,0.3-0.3,0.7,0,0.9c0.1,0.1,0.3,0.2,0.4,0.2c0.2,0,0.3-0.1,0.4-0.2l1.5-1.5
			c0.3-0.3,0.3-0.7,0-0.9C105.4,63.4,105.1,63.4,104.8,63.6z"/>
	</g>
	<g>
		<path class="st2" d="M30.5,21.1c0.1,0.1,0.3,0.2,0.4,0.2c0.2,0,0.3-0.1,0.4-0.2c0.3-0.3,0.3-0.7,0-0.9l-1.5-1.5
			c-0.3-0.3-0.7-0.3-0.9,0c-0.3,0.3-0.3,0.7,0,0.9L30.5,21.1z"/>
		<path class="st2" d="M35.1,25.7c0.1,0.1,0.3,0.2,0.4,0.2c0.2,0,0.3-0.1,0.4-0.2c0.3-0.3,0.3-0.7,0-0.9l-1.4-1.4
			c-0.3-0.3-0.7-0.3-0.9,0c-0.3,0.3-0.3,0.7,0,0.9L35.1,25.7z"/>
		<path class="st2" d="M29.6,25.9c0.2,0,0.3-0.1,0.4-0.2l1.5-1.5c0.3-0.3,0.3-0.7,0-0.9c-0.3-0.3-0.7-0.3-0.9,0l-1.5,1.5
			c-0.3,0.3-0.3,0.7,0,0.9C29.2,25.8,29.4,25.9,29.6,25.9z"/>
		<path class="st2" d="M34.1,21.3c0.2,0,0.3-0.1,0.4-0.2l1.5-1.5c0.3-0.3,0.3-0.7,0-0.9c-0.3-0.3-0.7-0.3-0.9,0l-1.5,1.5
			c-0.3,0.3-0.3,0.7,0,0.9C33.9,21.2,34,21.3,34.1,21.3z"/>
	</g>
	<g>
		<path class="st2" d="M86.7,22c0.1,0.1,0.3,0.2,0.4,0.2c0.2,0,0.3-0.1,0.4-0.2c0.3-0.3,0.3-0.7,0-0.9L86,19.6
			c-0.3-0.3-0.7-0.3-0.9,0c-0.3,0.3-0.3,0.7,0,0.9L86.7,22z"/>
		<path class="st2" d="M91.3,26.6c0.1,0.1,0.3,0.2,0.4,0.2c0.2,0,0.3-0.1,0.4-0.2c0.3-0.3,0.3-0.7,0-0.9l-1.4-1.4
			c-0.3-0.3-0.7-0.3-0.9,0c-0.3,0.3-0.3,0.7,0,0.9L91.3,26.6z"/>
		<path class="st2" d="M85.8,26.8c0.2,0,0.3-0.1,0.4-0.2l1.5-1.5c0.3-0.3,0.3-0.7,0-0.9c-0.3-0.3-0.7-0.3-0.9,0l-1.5,1.5
			c-0.3,0.3-0.3,0.7,0,0.9C85.4,26.7,85.6,26.8,85.8,26.8z"/>
		<path class="st2" d="M90.3,22.2c0.2,0,0.3-0.1,0.4-0.2l1.5-1.5c0.3-0.3,0.3-0.7,0-0.9c-0.3-0.3-0.7-0.3-0.9,0l-1.5,1.5
			c-0.3,0.3-0.3,0.7,0,0.9C90.1,22.1,90.2,22.2,90.3,22.2z"/>
	</g>
	<g>
		<path class="st2" d="M54.2,45.9c0,0.4,0.3,0.6,0.6,0.6h15.3c0.4,0,0.6-0.3,0.6-0.6l0.4-6.1c0.2-2.3-0.3-4.1-1.3-5.4
			c-0.5-0.6-1.1-0.9-1.8-1c-0.7-0.1-1.5,0.1-1.9,0.6c-0.7,0.6-2.3,1.1-3.7,1.1s-2.9-0.5-3.7-1.1c-0.6-0.5-1.3-0.6-1.9-0.6
			c-0.7,0.1-1.4,0.5-1.8,1c-1,1.3-1.4,3.1-1.3,5.4L54.2,45.9z M56.1,35.2c0.2-0.3,0.6-0.5,0.9-0.5s0.7,0.1,0.9,0.3
			c1.2,1,3.1,1.4,4.6,1.4s3.4-0.5,4.6-1.4c0.3-0.2,0.6-0.3,0.9-0.3s0.7,0.2,0.9,0.5c0.7,1,1.1,2.6,1,4.5l-0.4,5.5h-14l-0.4-5.5
			C55,37.8,55.3,36.2,56.1,35.2z"/>
		<path class="st2" d="M62.5,32.6c2.8,0,5.1-2.5,5.1-5.4c0-3-2.3-5.4-5.1-5.4c-2.8,0-5.1,2.5-5.1,5.4C57.3,30.2,59.7,32.6,62.5,32.6
			z M62.5,23.1c2.1,0,3.8,1.8,3.8,4.1s-1.7,4.1-3.8,4.1c-2,0-3.8-1.8-3.8-4.1S60.4,23.1,62.5,23.1z"/>
	</g>
	<path class="st2" d="M86.5,94.9c1.9,0,3.3-1.5,3.3-3.3c0-1.9-1.5-3.3-3.3-3.3c-1.9,0-3.3,1.5-3.3,3.3
		C83.1,93.5,84.7,94.9,86.5,94.9z M86.5,89.5c1.1,0,2.1,0.9,2.1,2.1s-0.9,2.1-2.1,2.1c-1.1,0-2.1-0.9-2.1-2.1
		C84.4,90.5,85.4,89.5,86.5,89.5z"/>
	<path class="st2" d="M11.3,47.9c-1.9,0-3.3,1.5-3.3,3.3c0,1.9,1.5,3.3,3.3,3.3c1.9,0,3.3-1.5,3.3-3.3
		C14.7,49.3,13.2,47.9,11.3,47.9z M11.3,53.3c-1.1,0-2.1-0.9-2.1-2.1c0-1.1,0.9-2.1,2.1-2.1s2.1,0.9,2.1,2.1
		C13.5,52.3,12.5,53.3,11.3,53.3z"/>
</g>
<g id="Layer_2">
</g>
</svg>
