<?xml version="1.0" encoding="utf-8"?>
<!-- Generator: Adobe Illustrator 22.1.0, SVG Export Plug-In . SVG Version: 6.00 Build 0)  -->
<svg version="1.1" id="Layer_1" xmlns="http://www.w3.org/2000/svg" xmlns:xlink="http://www.w3.org/1999/xlink" x="0px" y="0px"
	 viewBox="0 0 108.7 15" style="enable-background:new 0 0 108.7 15;" xml:space="preserve">
<style type="text/css">
	.st0{fill:#FFFFFF;}
</style>
<g>
	<g>
		<path class="st0" d="M7.7,14.8v-0.6c0-0.1,0-0.1-0.1-0.1l-1.4-0.8c0,0-0.1-0.1-0.1-0.1v-1.7c0.1,0,0.1,0,0.2-0.1
			c0.9-0.5,1.1-1.9,0.3-3.2C5.8,7,4.4,6.3,3.5,6.8C2.5,7.3,2.4,8.7,3.2,10c0.1,0.2,0.2,0.4,0.4,0.5c0,0,0,0.1,0,0.1v1.1
			c0,0.1-0.1,0.2-0.2,0.1l-1.7-0.9c0,0-0.1-0.1-0.1-0.1V4.4c0-0.1,0-0.1-0.1-0.1L1.1,4.1C1,4,0.9,4.1,0.8,4.1C0.3,5.1,0,6.2,0,7.4
			C0,11.4,3.4,14.7,7.7,14.8"/>
		<path class="st0" d="M3.5,3c0,0,0.1,0,0.2,0l1.6,0.9c0,0.1,0,0.1,0,0.2c0,1,1.3,1.8,2.9,1.8c1.6,0,2.9-0.8,2.9-1.8
			c0-1-1.3-1.8-2.9-1.8c-0.2,0-0.4,0-0.7,0c0,0-0.1,0-0.1,0l-1-0.5c-0.1-0.1-0.1-0.2,0-0.3L8,0.6c0,0,0.1,0,0.2,0l6,3.2
			c0,0,0.1,0,0.2,0l0.4-0.2c0.1,0,0.1-0.1,0.1-0.2c-0.7-0.9-1.6-1.7-2.7-2.3C8.4-1,3.7,0.1,1.3,3.3c-0.1,0.1,0,0.2,0.1,0.2l0.4,0.2
			c0,0,0.1,0,0.2,0L3.5,3z"/>
		<path class="st0" d="M14.6,6c0,0.1,0,0.1-0.1,0.1l-1.6,0.9c-0.1,0-0.1-0.1-0.2-0.1c-0.9-0.5-2.3,0.1-3.1,1.4
			c-0.8,1.3-0.7,2.7,0.2,3.2c0.9,0.5,2.3-0.1,3.1-1.4c0.1-0.2,0.2-0.4,0.3-0.5c0,0,0-0.1,0.1-0.1l1-0.5c0.1-0.1,0.2,0,0.2,0.1l0,1.8
			c0,0.1,0,0.1-0.1,0.1l-6,3.2c0,0-0.1,0.1-0.1,0.1v0.5c0,0.1,0.1,0.2,0.2,0.1c1.2-0.1,2.4-0.4,3.5-1c3.7-2,5.1-6.2,3.2-9.7
			c0-0.1-0.1-0.1-0.2-0.1l-0.5,0.2c0,0-0.1,0.1-0.1,0.1L14.6,6z"/>
	</g>
	<g>
		<g>
			<path class="st0" d="M20.9,5.9h-1.4V4.5h1.4V3.9c0-1.3,0.9-2.3,2.8-2.3c0.4,0,0.8,0,1.2,0.1v1.6c-0.3,0-0.5,0-0.8,0
				c-0.6,0-0.9,0.2-0.9,0.9v0.5h1.6v1.4h-1.6v6.2h-2.3V5.9z"/>
			<path class="st0" d="M25.8,6.9c0.1-2,2-2.5,3.9-2.5c1.7,0,3.6,0.3,3.6,2.2v4c0,0.7,0.1,1.4,0.3,1.7h-2.3
				c-0.1-0.2-0.1-0.5-0.2-0.7c-0.7,0.7-1.8,0.9-2.8,0.9c-1.6,0-2.8-0.7-2.8-2.3c0-1.7,1.4-2.1,2.8-2.3c1.4-0.2,2.7-0.1,2.7-1
				c0-0.9-0.7-1-1.5-1c-0.9,0-1.4,0.3-1.5,1.1H25.8z M31.1,8.4c-0.4,0.3-1.2,0.3-1.9,0.4C28.5,9,27.8,9.2,27.8,10c0,0.8,0.7,1,1.4,1
				c1.8,0,1.8-1.3,1.8-1.8V8.4z"/>
			<path class="st0" d="M35.3,1.6h2.3v3.8h0c0.6-0.8,1.6-1.1,2.6-1.1c1.7,0,3.4,1.2,3.4,4c0,2.8-1.8,4-3.4,4c-1.2,0-2.2-0.3-2.7-1.2
				h0v1h-2.2V1.6z M39.4,5.9c-1.3,0-1.9,1.2-1.9,2.4c0,1.3,0.6,2.4,1.9,2.4c1.3,0,1.9-1.2,1.9-2.4C41.4,7.1,40.8,5.9,39.4,5.9z"/>
			<path class="st0" d="M45.3,6.9c0.1-1.8,1.5-2.5,3.4-2.5c1.5,0,3,0.4,3,2.4v4c0,0.4,0.2,0.6,0.6,0.6c0.1,0,0.2,0,0.3-0.1v0.8
				c-0.2,0-0.4,0.1-0.7,0.1c-1,0-1.2-0.5-1.2-1.3h0c-0.7,1-1.4,1.5-3,1.5c-1.5,0-2.8-0.7-2.8-2.2c0-2.1,2.3-2.2,4.4-2.4
				c0.8-0.1,1.3-0.2,1.3-1c0-1.3-1-1.6-2.2-1.6c-1.3,0-2.2,0.5-2.2,1.8H45.3z M50.7,8L50.7,8c-0.2,0.2-0.6,0.3-0.9,0.3
				c-1.7,0.3-3.8,0.3-3.8,1.8c0,0.9,0.9,1.5,1.8,1.5c1.5,0,2.9-0.9,2.9-2.4V8z"/>
			<path class="st0" d="M59.7,6.9c-0.3-1.1-1-1.8-2.3-1.8c-1.9,0-2.9,1.6-2.9,3.2c0,1.6,1,3.2,2.9,3.2c1.2,0,2.3-0.9,2.4-2.2h1
				c-0.3,1.8-1.6,2.9-3.4,2.9c-2.5,0-3.9-1.8-3.9-4c0-2.2,1.4-4,3.9-4c1.8,0,3.1,0.9,3.4,2.6H59.7z"/>
			<path class="st0" d="M62.3,6.9c0.1-1.8,1.5-2.5,3.4-2.5c1.5,0,3,0.4,3,2.4v4c0,0.4,0.2,0.6,0.6,0.6c0.1,0,0.2,0,0.3-0.1v0.8
				c-0.2,0-0.4,0.1-0.7,0.1c-1,0-1.2-0.5-1.2-1.3h0c-0.7,1-1.4,1.5-3,1.5c-1.5,0-2.8-0.7-2.8-2.2c0-2.1,2.3-2.2,4.4-2.4
				c0.8-0.1,1.3-0.2,1.3-1c0-1.3-1-1.6-2.2-1.6c-1.3,0-2.2,0.5-2.2,1.8H62.3z M67.7,8L67.7,8c-0.2,0.2-0.6,0.3-0.9,0.3
				c-1.7,0.3-3.8,0.3-3.8,1.8c0,0.9,0.9,1.5,1.8,1.5c1.5,0,2.9-0.9,2.9-2.4V8z"/>
			<path class="st0" d="M78.2,12.1h-0.9v-1.4h0c-0.4,1-1.7,1.7-3,1.7c-2.5,0-3.7-1.9-3.7-4c0-2.1,1.2-4,3.7-4c1.2,0,2.4,0.6,2.9,1.7
				h0V1.6h1V12.1z M74.2,11.6c2.1,0,2.9-1.7,2.9-3.2c0-1.6-0.8-3.2-2.9-3.2c-1.9,0-2.7,1.7-2.7,3.2C71.5,9.9,72.3,11.6,74.2,11.6z"
				/>
			<path class="st0" d="M80.9,8.6c0,1.4,0.8,3,2.7,3c1.5,0,2.3-0.8,2.6-1.9h1c-0.4,1.7-1.5,2.7-3.6,2.7c-2.6,0-3.7-1.9-3.7-4
				c0-2,1.1-4,3.7-4c2.7,0,3.7,2.1,3.6,4.3H80.9z M86.2,7.8c0-1.4-1-2.7-2.6-2.7c-1.7,0-2.6,1.3-2.7,2.7H86.2z"/>
			<path class="st0" d="M88.8,4.5h0.9v1.3h0c0.5-0.9,1.4-1.5,2.7-1.5c1.1,0,2.1,0.5,2.4,1.5c0.5-1,1.5-1.5,2.6-1.5
				c1.8,0,2.7,0.9,2.7,2.7v5.2h-1V7c0-1.3-0.5-1.9-2-1.9c-1.7,0-2.2,1.3-2.2,2.7v4.3h-1V7c0-1-0.4-1.9-1.7-1.9
				c-1.7,0-2.5,1.2-2.5,2.8v4.2h-1V4.5z"/>
			<path class="st0" d="M101.4,4.5h1.1l2.7,6.5l2.5-6.5h1l-3.6,8.8c-0.6,1.3-0.9,1.6-2.2,1.6c-0.4,0-0.6,0-0.8-0.1v-0.8
				c0.2,0,0.5,0.1,0.7,0.1c0.9,0,1.1-0.5,1.4-1.2l0.4-0.9L101.4,4.5z"/>
		</g>
	</g>
</g>
</svg>
