<?xml version="1.0" encoding="utf-8"?>
<!-- Generator: Adobe Illustrator 22.1.0, SVG Export Plug-In . SVG Version: 6.00 Build 0)  -->
<svg version="1.1" id="Layer_1" xmlns="http://www.w3.org/2000/svg" xmlns:xlink="http://www.w3.org/1999/xlink" x="0px" y="0px"
	 viewBox="0 0 155 21.2" style="enable-background:new 0 0 155 21.2;" xml:space="preserve">
<style type="text/css">
	.st0{fill:#FFFFFF;}
</style>
<g>
	<path class="st0" d="M24.6,6.7H26V5.6c0-1,0.3-1.7,0.9-2.3c0.5-0.5,1.2-0.7,2.1-0.7c0.5,0,1.2,0.1,2,0.2l-0.5,1.8
		c-0.4-0.1-0.7-0.2-1-0.2c-0.3,0-0.6,0.1-0.8,0.2c-0.2,0.2-0.3,0.5-0.3,0.9v1.1h1.8v1.6h-1.8v8H26v-8h-1.4V6.7z"/>
	<path class="st0" d="M35.6,10.7c0.8,0,1.6,0.1,2.6,0.4v-0.9c0-0.7-0.1-1.2-0.4-1.5c-0.3-0.3-0.7-0.5-1.3-0.5s-1.1,0.1-1.4,0.4
		s-0.5,0.6-0.5,1h-2.5c0-1.1,0.4-1.9,1.2-2.4c0.8-0.5,1.8-0.7,3.2-0.7c2,0,3.3,0.7,3.8,2.1c0.2,0.5,0.3,1,0.3,1.7v6.1h-2L38.4,15
		c-0.6,1-1.6,1.6-2.8,1.6c-1.2,0-2.2-0.3-2.9-0.9c-0.6-0.6-0.9-1.3-0.9-2.2s0.3-1.6,1-2.1C33.4,10.9,34.4,10.7,35.6,10.7z
		 M38.3,12.5c-0.8-0.2-1.5-0.3-2.2-0.3c-1.3,0-1.9,0.4-1.9,1.3c0,0.4,0.1,0.7,0.4,0.9c0.3,0.3,0.8,0.4,1.4,0.4
		c0.6,0,1.2-0.2,1.6-0.6C38,13.7,38.2,13.2,38.3,12.5z"/>
	<path class="st0" d="M51.6,7.8c0.8,0.9,1.2,2.1,1.2,3.6s-0.4,2.7-1.3,3.7c-0.8,0.9-1.9,1.4-3.1,1.4c-0.6,0-1.1-0.2-1.6-0.5
		c-0.5-0.3-0.9-0.8-1.2-1.5l-0.6,1.7h-1.5V2.7h2.3v5.2c0.6-1,1.5-1.5,2.7-1.5S50.8,6.9,51.6,7.8z M45.9,10.9v1.3
		c0,0.7,0.3,1.2,0.7,1.7c0.4,0.4,1,0.6,1.6,0.6c0.6,0,1.2-0.3,1.6-0.8c0.4-0.5,0.7-1.3,0.7-2.2c0-0.9-0.2-1.6-0.7-2.1
		c-0.4-0.5-1-0.8-1.6-0.8c-0.7,0-1.2,0.2-1.6,0.7C46.1,9.6,45.9,10.2,45.9,10.9z"/>
	<path class="st0" d="M59.9,4.2c-0.4-0.2-0.8-0.3-1-0.3c-0.5,0-0.8,0.1-1.1,0.3c-0.3,0.2-0.4,0.6-0.4,1.2v1.4h2v1.1h-2v8.4h-1.5V7.9
		h-1.6V6.8h1.6V5.4c0-0.9,0.3-1.6,0.8-2.1c0.5-0.4,1.1-0.7,1.8-0.7s1.3,0.1,1.8,0.3L59.9,4.2z"/>
	<path class="st0" d="M65.1,6.6c1.3,0,2.4,0.4,3.2,1.3c0.8,0.9,1.2,2.1,1.2,3.7c0,1.6-0.4,2.8-1.2,3.7c-0.8,0.9-1.9,1.3-3.2,1.3
		c-1.3,0-2.4-0.4-3.2-1.3c-0.8-0.9-1.2-2.1-1.2-3.7c0-1.6,0.4-2.8,1.2-3.7C62.7,7,63.8,6.6,65.1,6.6z M67.9,11.6
		c0-1.1-0.2-2-0.7-2.6c-0.5-0.6-1.2-1-2.1-1s-1.6,0.3-2.1,1c-0.5,0.6-0.7,1.5-0.7,2.6s0.2,2,0.7,2.6s1.1,1,2.1,1
		c0.9,0,1.6-0.3,2.1-1S67.9,12.7,67.9,11.6z"/>
	<path class="st0" d="M78.4,14.4c-0.6,1.4-1.7,2.1-3.1,2.1c-1.1,0-1.9-0.3-2.6-0.9c-0.7-0.6-1-1.5-1-2.7v-6h1.6v5.9
		c0,1.6,0.7,2.4,2.2,2.4c0.9,0,1.6-0.3,2.1-1c0.5-0.7,0.8-1.5,0.8-2.5V6.8H80v9.5h-1.6V14.4z"/>
	<path class="st0" d="M85,8.7c0.6-1.4,1.7-2.1,3.2-2.1c1.1,0,2,0.4,2.6,1.1c0.6,0.7,0.9,1.7,0.9,3v5.6h-1.5v-5.6
		c0-0.9-0.2-1.6-0.6-2.1S88.6,8,87.8,8c-0.8,0-1.4,0.3-1.9,1c-0.5,0.6-0.7,1.5-0.8,2.7v4.6h-1.6V6.8h1.3L85,8.7z"/>
	<path class="st0" d="M101.2,8.2V2.8h1.5v13.5h-1.3l-0.2-1.6c-0.3,0.6-0.7,1-1.2,1.3s-1,0.5-1.6,0.5c-1.2,0-2.2-0.5-3-1.4
		c-0.8-0.9-1.2-2.1-1.2-3.6c0-1.5,0.4-2.7,1.2-3.6s1.8-1.3,3-1.3S100.5,7.2,101.2,8.2z M98.5,8c-0.8,0-1.4,0.3-1.9,1
		c-0.5,0.6-0.8,1.5-0.8,2.6s0.3,1.9,0.8,2.6c0.5,0.7,1.2,1,1.9,1c0.7,0,1.4-0.2,1.9-0.7c0.5-0.5,0.8-1.2,0.8-2v-1.5
		c0-0.9-0.3-1.6-0.8-2.1S99.3,8,98.5,8z"/>
	<path class="st0" d="M112.1,10.2c0-0.9-0.2-1.5-0.5-1.8s-0.9-0.6-1.6-0.6c-0.7,0-1.2,0.1-1.6,0.4c-0.4,0.3-0.6,0.7-0.6,1.3h-1.7
		c0-1.4,0.8-2.3,2.3-2.7c0.5-0.1,1-0.2,1.5-0.2c1.2,0,2.1,0.3,2.7,0.9s1,1.5,1,2.7v6.1h-1.3l-0.2-1.6c-0.6,1.2-1.6,1.8-3.1,1.8
		c-1,0-1.8-0.3-2.4-0.8c-0.6-0.6-0.9-1.3-0.9-2.1c0-0.8,0.3-1.5,1-2c0.7-0.5,1.5-0.7,2.5-0.7c1,0,2,0.2,2.9,0.5V10.2z M112.1,12.4
		c-0.9-0.3-1.8-0.4-2.4-0.4s-1.3,0.1-1.7,0.4c-0.4,0.3-0.7,0.6-0.7,1.2c0,1.2,0.7,1.8,2,1.8c0.8,0,1.4-0.3,2-0.8
		C111.8,13.9,112.1,13.2,112.1,12.4z"/>
	<path class="st0" d="M121.8,16c-1.1,0.5-2.2,0.6-3.1,0.3c-0.7-0.2-1.1-0.7-1.4-1.3c-0.1-0.3-0.2-0.7-0.2-1.2V8h-1.5V6.8h1.5V4.2
		h1.5v2.6h3V8h-3v5.8c0,1,0.4,1.4,1.3,1.4c0.5,0,1-0.1,1.6-0.4L121.8,16z"/>
	<path class="st0" d="M124.7,4.6c-0.3,0-0.6-0.1-0.7-0.3c-0.2-0.2-0.3-0.4-0.3-0.7s0.1-0.5,0.3-0.7c0.2-0.2,0.4-0.3,0.7-0.3
		c0.3,0,0.6,0.1,0.8,0.3c0.2,0.2,0.3,0.4,0.3,0.7s-0.1,0.5-0.3,0.7C125.3,4.5,125,4.6,124.7,4.6z M124,6.8h1.6v9.5H124V6.8z"/>
	<path class="st0" d="M132.7,6.6c1.3,0,2.4,0.4,3.2,1.3c0.8,0.9,1.2,2.1,1.2,3.7c0,1.6-0.4,2.8-1.2,3.7c-0.8,0.9-1.9,1.3-3.2,1.3
		c-1.3,0-2.4-0.4-3.2-1.3c-0.8-0.9-1.2-2.1-1.2-3.7c0-1.6,0.4-2.8,1.2-3.7C130.3,7,131.4,6.6,132.7,6.6z M135.5,11.6
		c0-1.1-0.2-2-0.7-2.6c-0.5-0.6-1.2-1-2.1-1c-0.9,0-1.6,0.3-2.1,1c-0.5,0.6-0.7,1.5-0.7,2.6s0.2,2,0.7,2.6c0.5,0.6,1.1,1,2.1,1
		s1.6-0.3,2.1-1S135.5,12.7,135.5,11.6z"/>
	<path class="st0" d="M141.1,8.7c0.6-1.4,1.7-2.1,3.2-2.1c1.1,0,2,0.4,2.6,1.1c0.6,0.7,0.9,1.7,0.9,3v5.6h-1.5v-5.6
		c0-0.9-0.2-1.6-0.6-2.1c-0.4-0.5-1-0.7-1.8-0.7s-1.4,0.3-1.9,1c-0.5,0.6-0.7,1.5-0.8,2.7v4.6h-1.6V6.8h1.3L141.1,8.7z"/>
</g>
<g>
	<path class="st0" d="M6.1,16.8v-2.2c0.2,0,0.5-0.1,0.7-0.2c0.9-0.6,0.9-2.1,0.1-3.5C6,9.5,4.6,8.9,3.7,9.5
		c-0.9,0.6-0.9,2.1-0.1,3.5c0.2,0.3,0.4,0.5,0.6,0.7v1.9l-2.5-1.4c-0.2-0.1-0.4-0.4-0.4-0.7l0-7.3L0.8,5.9C0.3,7,0,8.3,0,9.6
		c0,4.7,3.6,8.5,8.1,8.9l0-0.5L6.1,16.8z"/>
	<path class="st0" d="M11.4,5.1c0-1.1-1.3-2-2.9-2c-0.4,0-0.7,0-1,0.1L6,2.4L8.5,1C8.7,0.8,9,0.8,9.3,1l6.3,3.6l0.5-0.3
		c-1.6-2.2-4.2-3.7-7.2-3.7c-3,0-5.6,1.5-7.2,3.7l0.5,0.3l1.9-1.1l1.7,1C5.7,4.7,5.7,4.9,5.7,5.1c0,1.1,1.3,2,2.9,2
		S11.4,6.2,11.4,5.1z"/>
	<path class="st0" d="M17.8,9.4c0-1.3-0.3-2.5-0.8-3.6l-0.5,0.3l0,2.1l-1.8,1c-0.1-0.1-0.2-0.2-0.3-0.2c-0.9-0.6-2.3,0-3.1,1.3
		s-0.8,2.8,0.1,3.4c0.9,0.6,2.3,0,3.1-1.3c0.2-0.3,0.4-0.7,0.5-1l1.5-0.9l0,2.9c0,0.3-0.1,0.5-0.4,0.7l-6.2,3.6l0,0.6
		C11,18.3,12,18,13,17.5c2.8-1.4,4.7-4.3,4.8-7.7L17.8,9.4z"/>
</g>
</svg>
