<?xml version="1.0" encoding="utf-8"?>
<!-- Generator: Adobe Illustrator 22.1.0, SVG Export Plug-In . SVG Version: 6.00 Build 0)  -->
<svg version="1.1" id="Layer_1" xmlns="http://www.w3.org/2000/svg" xmlns:xlink="http://www.w3.org/1999/xlink" x="0px" y="0px"
	 viewBox="0 0 1194.3 130.9" style="enable-background:new 0 0 1194.3 130.9;" xml:space="preserve">
<style type="text/css">
	.st0{fill:none;stroke:#FFFFFF;stroke-width:7;stroke-miterlimit:10;}
	.st1{fill:#FFFFFF;}
</style>
<title>fabricademy-logo</title>
<g>
	<g id="Layer_2_1_">
		<g id="Layer_1-2">
			<path class="st0" d="M192.3,110.8l-48.6-49l15.2-15.2c4-4,4-10.5,0-14.5s-10.5-4-14.5,0l-15.2,15.2l-15.3-15.5L124.5,21
				c4-4,4-10.5,0-14.5c-4-4-10.5-4-14.5,0L99.4,17.1L88.1,5.5c-3-3.1-8.7-2.4-12.7,1.7c-4,4.1-4.8,9.8-1.8,13l11.2,11.5L69.7,46.6
				L55.1,31.9c-4-4-10.5-4-14.6,0s-4,10.5,0,14.6l14.6,14.6L6.5,109.8c-4,4-4,10.5,0,14.5s10.5,4,14.5,0l48.6-48.6l12,12l3.6,3.4
				l-18.7,18.7c-4,4-4,10.5,0,14.5s10.5,4,14.5,0l18.6-18.6l17.7,18c4.4,4.4,11.1,4.8,15.2,0.8s3.7-11-0.7-15.5l-17.7-17.9L129,76.3
				l48.7,49.1c3,3.1,8.7,2.4,12.7-1.6S195.3,113.9,192.3,110.8z M99.7,76.6l-3.4-3.6L84.3,61.2l15-15l15.3,15.5L99.7,76.6z"/>
		</g>
	</g>
	<g>
		<path class="st1" d="M238.1,111.5c-1.4,1.4-3.1,2.1-5.1,2.1s-3.7-0.7-5.1-2.1c-1.4-1.4-2.1-3.1-2.1-5.1V29.7c0-2,0.7-3.7,2.1-5.1
			s3.1-2.1,5.1-2.1h42.5c1.9,0,3.6,0.7,5,2.1s2.1,3.1,2.1,5.1s-0.7,3.6-2.1,5.1c-1.4,1.4-3.1,2.1-5,2.1h-35.2v23.8h30.3
			c1.9,0,3.6,0.7,5,2.1c1.4,1.4,2.1,3.1,2.1,5.1c0,1.9-0.7,3.6-2.1,5.1c-1.4,1.4-3.1,2.1-5.1,2.1h-30.2v31.3
			C240.3,108.4,239.6,110.1,238.1,111.5z"/>
		<path class="st1" d="M356.1,109l-6.4-16.9h-31.6l-6.4,16.9c-1.2,3-3.3,4.5-6.3,4.5s-5.1-1.1-6.4-3.2c-1.3-2.1-1.6-4.3-0.8-6.6
			l28.7-76.6c0.6-1.4,1.5-2.5,2.8-3.4s2.6-1.3,4.1-1.2c3.3-0.2,5.6,1.3,6.9,4.6l28.7,76.6c0.8,2.3,0.5,4.4-0.8,6.6
			c-1.3,2.1-3.4,3.2-6.4,3.2C359.3,113.5,357.2,112,356.1,109z M323.4,77.8h21.1L334,49.9L323.4,77.8z"/>
		<path class="st1" d="M393.8,113.5l-0.1-0.1c-0.1,0-0.2,0-0.4,0.1c-2,0-3.7-0.7-5.1-2.1c-1.4-1.4-2.1-3.1-2.1-5.1V29.7
			c0-2,0.7-3.7,2.1-5.1s3.1-2.1,5.1-2.1h18.5c6.8,0,12.7,2.4,17.5,7.2c4.8,4.8,7.2,10.3,7.2,16.4c0,6.2-1.6,11.4-4.9,15.9
			c4,2.5,7.2,5.8,9.6,10c2.4,4.2,3.6,8.7,3.6,13.5c0,7.7-2.7,14.3-8.1,19.8c-5.4,5.5-12,8.2-19.7,8.2H393.8z M400.6,37v20.8h11.2
			c2.9,0,5.3-1,7.3-3.1s3-4.5,3-7.4s-1-5.3-3-7.3s-4.4-3-7.3-3C411.8,37,400.6,37,400.6,37z M400.6,72.2v26.9h16.2
			c3.7-0.1,6.9-1.4,9.5-4s3.9-5.8,3.9-9.5s-1.3-6.9-3.9-9.4c-2.6-2.6-5.8-3.9-9.5-4C416.8,72.2,400.6,72.2,400.6,72.2z"/>
		<path class="st1" d="M508.5,71.8c5.9,4.5,8.8,10.8,8.8,18.8c-0.1,2.9,0.1,5.4,0.5,7.7c2.3,0.7,3.8,2.2,4.5,4.5
			c0.8,2.3,0.4,4.4-1,6.4c-1.5,2-3.6,3-6.4,3h-0.1c-3.9,0-7-2-9.2-6c-1.8-3.8-2.7-9-2.7-15.6c-0.2-4-2-7.1-5.5-9.4
			c-2.3-1.5-4.7-2.5-7.3-3.1h-15.3v28.3c0,2-0.7,3.7-2.1,5.1c-1.4,1.4-3.1,2.1-5.1,2.1s-3.7-0.7-5.1-2.1c-1.4-1.4-2.1-3.1-2.1-5.1
			V29.7c0-2,0.7-3.7,2.1-5.1c1.4-1.4,3.1-2.1,5.1-2.1h23.3c7.7,0,14.3,2.7,19.7,8.2c5.4,5.5,8.1,12.3,8.1,20.4
			C518.6,59.3,515.2,66.2,508.5,71.8z M490.8,63.8c3.7,0,6.9-1.3,9.5-3.9s3.9-5.7,3.9-9.4c0-3.7-1.3-6.8-3.9-9.5
			c-2.6-2.6-5.8-4-9.5-4h-16v26.8C474.8,63.8,490.8,63.8,490.8,63.8z"/>
		<path class="st1" d="M543.2,29.7c0-2,0.7-3.7,2.1-5.1c1.4-1.4,3.1-2.1,5.1-2.1s3.7,0.7,5.1,2.1c1.4,1.4,2.1,3.1,2.1,5.1v76.7
			c0,2-0.7,3.7-2.1,5.1c-1.4,1.4-3.1,2.1-5.1,2.1s-3.7-0.7-5.1-2.1c-1.4-1.4-2.1-3.1-2.1-5.1V29.7z"/>
		<path class="st1" d="M601,44.1c-6.3,6.5-9.5,14.1-9.5,22.9s3.2,16.2,9.7,22.4s13.9,9.3,22.4,9.3s15.7-2.4,21.7-7.2
			c1.5-1.1,3.2-1.6,5.3-1.3s3.8,1.2,5.1,2.7c1.2,1.6,1.7,3.5,1.4,5.5s-1.2,3.7-2.7,4.9c-8.7,6.8-18.7,10.1-30,10.1
			c-13,0-24.2-4.6-33.5-13.7c-9.4-9.1-14.1-20.2-14.2-33.1c0.1-12.8,4.8-23.8,14.2-33c9.4-9.1,20.5-13.8,33.5-13.8
			c11.4,0,21.4,3.4,30,10.1c1.6,1.3,2.5,2.9,2.7,4.9c0.3,2-0.2,3.8-1.5,5.5c-1.3,1.6-2.9,2.6-5,2.9s-3.9-0.2-5.3-1.4
			c-5.8-4.8-13-7.1-21.5-7.1C615.3,34.8,607.7,37.9,601,44.1z"/>
		<path class="st1" d="M732.6,109l-6.4-16.9h-31.6l-6.4,16.9c-1.2,3-3.3,4.5-6.3,4.5s-5.1-1.1-6.4-3.2c-1.3-2.1-1.6-4.3-0.8-6.6
			l28.7-76.6c0.6-1.4,1.5-2.5,2.8-3.4s2.6-1.3,4.1-1.2c3.3-0.2,5.6,1.3,6.9,4.6l28.7,76.6c0.8,2.3,0.5,4.4-0.8,6.6
			c-1.3,2.1-3.4,3.2-6.4,3.2C735.8,113.5,733.7,112,732.6,109z M699.8,77.8h21.1l-10.5-27.9L699.8,77.8z"/>
		<path class="st1" d="M762.6,106.4V29.7c0-2,0.7-3.7,2.1-5.1c1.4-1.4,3.1-2.1,5.1-2.1h15.3c12.6,0,23.3,4.4,32.1,13.3
			s13.3,19.6,13.3,32.2s-4.4,23.3-13.3,32.2c-8.8,8.9-19.5,13.3-32.1,13.3h-15.3c-2,0-3.7-0.7-5.1-2.1
			C763.3,110.1,762.6,108.4,762.6,106.4z M777,37v62.1h8.1C793.7,99,801,96,807,89.9c6-6,9-13.3,9-21.9s-3-15.9-9-22
			s-13.3-9.1-21.9-9.1L777,37L777,37z"/>
		<path class="st1" d="M862.1,113.5c-2,0-3.7-0.7-5.1-2.1c-1.4-1.4-2.1-3.1-2.1-5.1V29.7c0-2,0.7-3.7,2.1-5.1
			c1.4-1.4,3.1-2.1,5.1-2.1h42.5c1.9,0,3.6,0.7,5,2.1c1.4,1.4,2.1,3.1,2.1,5.1s-0.7,3.7-2.1,5.1s-3.1,2.1-5,2.1h-35.3v23.8h30.3
			c1.9,0,3.6,0.7,5,2.1c1.4,1.4,2.1,3.1,2.1,5.1c0,1.9-0.7,3.6-2.1,5.1c-1.4,1.4-3.1,2.1-5.1,2.1h-30.2V99h35.2c1.9,0,3.6,0.7,5,2.1
			c1.4,1.4,2.1,3.1,2.1,5.1s-0.7,3.6-2.1,5.1c-1.4,1.4-3.1,2.1-5,2.1h-42.1l-0.3-0.1L862.1,113.5z"/>
		<path class="st1" d="M970.1,80.7h-0.3c-2.5,0-4.5-1-6-3l-18.6-26v54.7c0,2-0.7,3.7-2.1,5.1c-1.4,1.4-3.1,2.1-5.1,2.1
			s-3.7-0.7-5.1-2.1c-1.4-1.4-2.1-3.1-2.1-5.1V29.7c0-2,0.7-3.7,2.1-5.1s3.1-2.1,5.1-2.1h0.4c2.5,0,4.4,1,5.7,3L970,61.4l25.9-35.9
			c1.5-2,3.4-3,5.9-3h0.1c2,0.1,3.7,0.8,5.1,2.2c1.4,1.4,2.1,3,2.1,4.9v76.8c0,1.9-0.7,3.6-2.1,5s-3.1,2.1-5.1,2.1s-3.7-0.7-5.1-2.1
			c-1.4-1.4-2.1-3.1-2.1-5.1V51.7l-18.7,26C974.5,79.7,972.5,80.7,970.1,80.7z"/>
		<path class="st1" d="M1095.9,23.5c2-0.3,3.7,0.1,5.3,1.3c1.6,1.2,2.5,2.7,2.8,4.7c0.3,1.9-0.1,3.7-1.2,5.3l-26.7,36.5v35.1
			c0,2-0.7,3.7-2.1,5.1c-1.4,1.4-3.1,2.1-5,2.1s-3.6-0.7-5.1-2.1c-1.4-1.4-2.1-3.1-2.1-5.1V71.3l-26.4-36.5
			c-1.2-1.6-1.7-3.3-1.4-5.2c0.3-1.9,1.2-3.5,2.9-4.7c1.6-1.2,3.4-1.7,5.3-1.4c1.9,0.3,3.4,1.3,4.5,2.9l22.2,30.4l22.2-30.4
			C1092.3,24.8,1093.9,23.8,1095.9,23.5z"/>
	</g>
</g>
</svg>
