<?xml version="1.0" encoding="utf-8"?>
<!-- Generator: Adobe Illustrator 22.1.0, SVG Export Plug-In . SVG Version: 6.00 Build 0)  -->
<svg version="1.1" id="Layer_1" xmlns="http://www.w3.org/2000/svg" xmlns:xlink="http://www.w3.org/1999/xlink" x="0px" y="0px"
	 viewBox="0 0 1024 414" style="enable-background:new 0 0 1024 414;" xml:space="preserve">
<style type="text/css">
	.st0{fill:#F0434F;}
	.st1{fill:#FFFFFF;}
	.st2{fill:#ED909F;}
	.st3{fill:#DC2140;}
	.st4{fill:#0071B2;}
	.st5{fill:#046FB0;}
</style>
<rect x="-10.5" y="-18" class="st0" width="1034.5" height="442.5"/>
<g>
	<g>
		<path class="st1" d="M843.2,213.3v2.7h-6v6h-3.5V207h10.4v2.7h-7v3.6L843.2,213.3L843.2,213.3z"/>
		<path class="st1" d="M848.3,222.2c-1,0-1.9-0.3-2.6-0.9c-0.7-0.6-0.9-1.4-0.9-2.4c0-1.1,0.4-2,1.2-2.6c0.8-0.6,2.1-0.9,3.7-0.9
			h1.3v-0.8c0-0.9-0.4-1.5-1.4-1.5c-0.8,0-1.2,0.3-1.2,1.1H845v-0.1c-0.1-1,0.3-1.9,1.3-2.6c0.9-0.7,2.1-1,3.5-1
			c1.5,0,2.6,0.3,3.4,1c0.9,0.7,1.2,1.6,1.2,2.9v4.2c0,1.1,0.2,2.2,0.6,3.2h-3.5c-0.2-0.4-0.3-0.8-0.4-1.3
			C850.4,221.8,849.5,222.2,848.3,222.2z M848.5,217.6c-0.3,0.3-0.4,0.6-0.4,0.9c0,0.3,0.1,0.7,0.3,0.9c0.2,0.2,0.5,0.3,0.9,0.3
			c0.7,0,1.2-0.3,1.6-0.8v-1.7h-1.2C849.2,217.3,848.8,217.4,848.5,217.6z"/>
		<path class="st1" d="M862.4,222.2c-1.2,0-2.1-0.5-2.8-1.6l-0.3,1.3h-3v-16h3.5v6c0.6-0.9,1.5-1.3,2.5-1.3c1.4,0,2.5,0.5,3.2,1.6
			c0.7,1,1.1,2.4,1.1,4.2v0.3c0,1.7-0.3,3.1-1.1,4.1C864.8,221.8,863.8,222.2,862.4,222.2z M863.2,216.7v-0.3c0-1-0.1-1.8-0.3-2.3
			c-0.3-0.5-0.7-0.8-1.4-0.8c-0.8,0-1.3,0.3-1.6,0.8v4.7c0.3,0.4,0.9,0.7,1.6,0.7s1.2-0.3,1.5-0.7
			C863.1,218.3,863.2,217.7,863.2,216.7z"/>
		<path class="st1" d="M871.6,222h-3.5V211h3.3l0.1,1.6c0.5-1.2,1.3-1.8,2.2-1.8c0.3,0,0.7,0,0.9,0.1l-0.3,3.1h-1.2
			c-0.8,0-1.3,0.3-1.6,0.8L871.6,222L871.6,222z"/>
		<path class="st1" d="M879.5,206v2.3h-3.5V206H879.5z M879.5,210.9V222h-3.5v-11.1H879.5z"/>
		<path class="st1" d="M884.7,216.6c0,0.9,0.2,1.7,0.4,2.2c0.3,0.5,0.8,0.8,1.4,0.8c0.9,0,1.4-0.5,1.4-1.5h3.2v0.1
			c0,1.2-0.4,2.2-1.2,2.9c-0.9,0.8-2,1.1-3.3,1.1c-1.6,0-2.9-0.5-3.9-1.6c-0.9-1-1.4-2.4-1.4-4.1v-0.3c0-1.7,0.4-3,1.4-4.1
			c0.9-1,2.2-1.6,3.9-1.6c1.4,0,2.5,0.4,3.4,1.2c0.9,0.8,1.2,1.8,1.2,3.2v0.1H888c0-0.5-0.1-0.9-0.3-1.3c-0.3-0.3-0.6-0.5-1-0.5
			c-0.6,0-1.1,0.3-1.4,0.8c-0.3,0.5-0.4,1.2-0.4,2.2v0.1h-0.1L884.7,216.6L884.7,216.6z"/>
		<path class="st1" d="M895.4,222.2c-1,0-1.9-0.3-2.6-0.9c-0.7-0.6-0.9-1.4-0.9-2.4c0-1.1,0.4-2,1.2-2.6c0.8-0.6,2.1-0.9,3.7-0.9
			h1.3v-0.8c0-0.9-0.4-1.5-1.4-1.5c-0.8,0-1.2,0.3-1.2,1.1h-3.4v-0.1c-0.1-1,0.3-1.9,1.3-2.6c0.9-0.7,2.1-1,3.5-1
			c1.5,0,2.6,0.3,3.4,1c0.9,0.7,1.2,1.6,1.2,2.9v4.2c0,1.1,0.2,2.2,0.6,3.2h-3.5c-0.2-0.4-0.3-0.8-0.4-1.3
			C897.6,221.8,896.7,222.2,895.4,222.2z M895.7,217.6c-0.3,0.3-0.4,0.6-0.4,0.9c0,0.3,0.1,0.7,0.3,0.9c0.2,0.2,0.5,0.3,0.9,0.3
			c0.7,0,1.2-0.3,1.6-0.8v-1.7h-1.2C896.4,217.3,896,217.4,895.7,217.6z"/>
		<path class="st1" d="M904.2,208.1h3.5v2.8h1.9v2.4h-1.9v5.1c0,0.8,0.3,1.1,0.9,1.1c0.3,0,0.7,0,1-0.1l0.3,2.6
			c-0.7,0.2-1.4,0.3-2.2,0.3c-1.1,0-2.1-0.3-2.6-0.9c-0.5-0.6-0.9-1.6-0.9-2.8v-5.1h-1.6V211h1.6V208.1z"/>
		<path class="st1" d="M914.8,206v2.3h-3.5V206H914.8z M914.8,210.9V222h-3.5v-11.1H914.8z"/>
		<path class="st1" d="M916.9,210.9h3.3l0.2,1.6c0.8-1.2,1.8-1.7,3.1-1.7c2.3,0,3.5,1.5,3.5,4.4v6.9h-3.5v-6.9c0-0.6-0.1-1-0.3-1.3
			c-0.3-0.3-0.7-0.4-1.2-0.4c-0.6,0-1,0.3-1.5,0.7v8H917V211h-0.1V210.9z"/>
		<path class="st1" d="M932.5,211.2c1.1,0,2,0.5,2.7,1.6l0.3-1.4h3V222c0,1.5-0.5,2.7-1.6,3.5c-1,0.9-2.4,1.3-4.2,1.3
			c-1.2,0-2.4-0.3-3.6-0.9l0.5-2.6c1,0.4,2,0.6,3,0.6c0.7,0,1.2-0.2,1.6-0.6c0.3-0.3,0.6-0.9,0.6-1.6v-0.4c-0.6,0.8-1.5,1.2-2.5,1.2
			c-1.4,0-2.4-0.5-3.2-1.5c-0.8-1-1.1-2.3-1.1-4.1v-0.2c0-1.7,0.3-3.2,1.1-4.2C930.1,211.7,931.2,211.2,932.5,211.2z M931.6,216.9
			v0.2c0,1.9,0.6,2.8,1.7,2.8c0.8,0,1.3-0.3,1.6-0.7v-4.7c-0.3-0.5-0.9-0.8-1.6-0.8C932.3,213.8,931.6,214.8,931.6,216.9z"/>
		<path class="st1" d="M837.2,245.3h-3.5v-14.9h5.7c1.7,0,3.1,0.4,4.2,1.2c1,0.8,1.5,1.9,1.5,3.3c0,1.6-0.8,2.7-2.4,3.4
			c0.9,0.3,1.6,0.7,2,1.3c0.4,0.6,0.6,1.4,0.6,2.2v0.9c0,0.4,0.1,0.9,0.2,1.4c0.1,0.4,0.3,0.8,0.6,1v0.2h-3.5
			c-0.4-0.3-0.7-1.2-0.7-2.6v-0.9c0-0.7-0.2-1.3-0.6-1.6c-0.3-0.3-0.9-0.5-1.6-0.5h-2.4L837.2,245.3L837.2,245.3L837.2,245.3z
			 M837.2,233.1v3.9h2.2c0.7,0,1.2-0.2,1.6-0.4c0.3-0.3,0.5-0.8,0.5-1.4s-0.2-1.1-0.6-1.5c-0.4-0.3-0.9-0.5-1.6-0.5L837.2,233.1
			L837.2,233.1L837.2,233.1z"/>
		<path class="st1" d="M847.1,240.1v-0.4c0-1.7,0.4-3.1,1.4-4.2c0.9-1,2.2-1.6,3.8-1.6c1.5,0,2.7,0.4,3.5,1.4
			c0.9,0.9,1.3,2.2,1.3,3.7v1.8h-6.3v0.1c0.1,0.6,0.3,1,0.7,1.4c0.3,0.3,0.9,0.5,1.6,0.5s1.1-0.1,1.6-0.2c0.3-0.1,0.9-0.3,1.6-0.5
			l0.8,2.1c-0.5,0.3-1.1,0.7-1.9,0.9c-0.8,0.3-1.6,0.3-2.4,0.3c-1.6,0-2.9-0.5-3.9-1.6C847.6,243,847.1,241.7,847.1,240.1z
			 M853.6,238.4c0-1.1-0.5-1.7-1.5-1.7c-0.9,0-1.5,0.7-1.6,2v0.1h2.9v-0.3H853.6z"/>
		<path class="st1" d="M862.9,243.2L862.9,243.2c0.9,0,1.4-0.3,1.4-1c0-0.3-0.2-0.5-0.5-0.8c-0.3-0.2-0.9-0.4-1.6-0.6
			c-1.3-0.3-2.3-0.7-2.9-1.2c-0.6-0.5-0.9-1.3-0.9-2.2c0-0.9,0.4-1.8,1.2-2.4c0.9-0.7,2-1,3.4-1c1.4,0,2.6,0.3,3.5,0.9
			c0.9,0.7,1.3,1.6,1.2,2.6v0.1h-3.4c0-0.4-0.1-0.8-0.3-1c-0.3-0.3-0.5-0.3-0.9-0.3c-0.4,0-0.8,0.1-1,0.3s-0.3,0.4-0.3,0.8
			c0,0.3,0.2,0.6,0.4,0.8c0.3,0.2,0.9,0.3,1.7,0.5c1.4,0.3,2.4,0.7,3,1.2s0.9,1.3,0.9,2.2s-0.4,1.8-1.3,2.4
			c-0.8,0.6-2.1,0.9-3.5,0.9s-2.7-0.3-3.5-1.1c-0.9-0.8-1.3-1.6-1.3-2.6v-0.1h3.1C861.2,242.7,861.7,243.2,862.9,243.2z"/>
		<path class="st1" d="M872.9,229.3v2.3h-3.5v-2.3H872.9z M872.9,234.2v11.1h-3.5v-11.1H872.9z"/>
		<path class="st1" d="M878.6,229.3v16h-3.5v-16H878.6z"/>
		<path class="st1" d="M884.4,229.3v2.3h-3.5v-2.3H884.4z M884.4,234.2v11.1h-3.5v-11.1H884.4z"/>
		<path class="st1" d="M886.2,240.1v-0.4c0-1.7,0.4-3.1,1.4-4.2c0.9-1,2.2-1.6,3.8-1.6c1.5,0,2.7,0.4,3.5,1.4
			c0.9,0.9,1.3,2.2,1.3,3.7v1.8h-6.3v0.1c0.1,0.6,0.3,1,0.7,1.4c0.3,0.3,0.9,0.5,1.6,0.5s1.1-0.1,1.6-0.2c0.3-0.1,0.9-0.3,1.6-0.5
			l0.8,2.1c-0.5,0.3-1.1,0.7-1.9,0.9c-0.8,0.3-1.6,0.3-2.4,0.3c-1.6,0-2.9-0.5-3.9-1.6C886.7,243,886.2,241.7,886.2,240.1z
			 M892.8,238.4c0-1.1-0.5-1.7-1.5-1.7c-0.9,0-1.5,0.7-1.6,2v0.1h2.9v-0.3H892.8z"/>
		<path class="st1" d="M897.5,234.2h3.3l0.2,1.6c0.8-1.2,1.8-1.7,3.1-1.7c2.3,0,3.5,1.5,3.5,4.4v6.9h-3.5v-7c0-0.6-0.1-1-0.3-1.3
			c-0.3-0.3-0.7-0.4-1.2-0.4c-0.6,0-1,0.3-1.5,0.7v8h-3.5v-11.1L897.5,234.2L897.5,234.2z"/>
		<path class="st1" d="M912.4,239.9c0,0.9,0.2,1.7,0.4,2.2c0.3,0.5,0.8,0.8,1.4,0.8c0.9,0,1.4-0.5,1.4-1.5h3.2v0.1
			c0,1.2-0.4,2.2-1.2,2.9c-0.9,0.8-2,1.1-3.3,1.1c-1.6,0-2.9-0.5-3.9-1.6c-0.9-1-1.4-2.4-1.4-4.1v-0.2c0-1.7,0.4-3,1.4-4.1
			c0.9-1,2.2-1.6,3.9-1.6c1.4,0,2.5,0.4,3.4,1.2c0.9,0.8,1.2,1.8,1.2,3.2v0.1h-3.2c0-0.5-0.1-0.9-0.3-1.3c-0.3-0.3-0.6-0.5-1-0.5
			c-0.6,0-1.1,0.3-1.4,0.8c-0.3,0.5-0.4,1.2-0.4,2.2v0.1h-0.1L912.4,239.9L912.4,239.9z"/>
		<path class="st1" d="M919.8,240.1v-0.4c0-1.7,0.4-3.1,1.4-4.2c0.9-1,2.2-1.6,3.8-1.6c1.5,0,2.7,0.4,3.5,1.4
			c0.9,0.9,1.3,2.2,1.3,3.7v1.8h-6.3v0.1c0.1,0.6,0.3,1,0.7,1.4c0.3,0.3,0.9,0.5,1.6,0.5c0.6,0,1.1-0.1,1.6-0.2
			c0.3-0.1,0.9-0.3,1.6-0.5l0.8,2.1c-0.5,0.3-1.1,0.7-1.9,0.9c-0.8,0.3-1.6,0.3-2.4,0.3c-1.6,0-2.9-0.5-3.9-1.6
			C920.3,243,919.8,241.7,919.8,240.1z M926.4,238.4c0-1.1-0.5-1.7-1.5-1.7s-1.5,0.7-1.6,2v0.1h2.9v-0.3H926.4z"/>
	</g>
	<g>
		<g>
			<path class="st1" d="M630.6,218.5v10.3c0,1.5-0.4,2.7-1.5,3.5c-1,0.9-2.2,1.3-3.9,1.3c-1.6,0-2.9-0.4-3.8-1.2s-1.3-1.9-1.3-3.5
				v-0.1h3.4c0,0.7,0.1,1.2,0.4,1.6c0.3,0.4,0.8,0.4,1.2,0.4c0.6,0,1-0.3,1.3-0.6c0.3-0.4,0.4-0.9,0.4-1.6v-10.3h3.7L630.6,218.5
				L630.6,218.5z"/>
			<path class="st1" d="M636.4,233.8c-1.2,0-2.2-0.3-2.8-1.1c-0.6-0.8-1-1.9-1-3.5v-6.8h3.5v6.8c0,1.2,0.4,1.9,1.3,1.9
				c0.8,0,1.3-0.3,1.6-0.7v-8h3.5v11.1h-3l-0.3-1.3C638.8,233.2,637.8,233.8,636.4,233.8z"/>
			<path class="st1" d="M648.3,217.5v16.1h-3.5v-16.1H648.3z"/>
			<path class="st1" d="M654.7,229.2L654.7,229.2l1.9-6.4h3.7l-4.5,12.9c-0.4,1.1-1,1.9-1.6,2.3c-0.6,0.3-1.3,0.6-2.2,0.6h-0.3
				c-0.1,0-0.1,0-0.3,0c-0.1,0-0.1,0-0.3,0c0,0-0.1,0-0.3,0c-0.1,0-0.3,0-0.3,0s-0.1,0-0.3-0.1c-0.1,0-0.3-0.1-0.3-0.1l0.4-2.5
				c0.3,0,0.3,0.1,0.3,0.1c0.6,0,0.9-0.1,1.2-0.3c0.3-0.1,0.4-0.4,0.6-0.8l0.3-0.7L649,223h3.7L654.7,229.2L654.7,229.2z"/>
			<path class="st1" d="M674.6,233.6h-3.5V222h-3.4v-2.5l6.8-1V233.6z"/>
			<path class="st1" d="M686.8,233.6h-3.5V222H680v-2.5l6.8-1V233.6z"/>
			<path class="st1" d="M704.4,225.1v2.7h-6.1v-2.7H704.4z"/>
			<path class="st1" d="M723.2,218.5v10.3c0,1.5-0.4,2.7-1.5,3.5c-1,0.9-2.2,1.3-3.9,1.3c-1.6,0-2.9-0.4-3.8-1.2
				c-0.9-0.8-1.3-1.9-1.3-3.5v-0.1h3.4c0,0.7,0.1,1.2,0.4,1.6c0.3,0.4,0.8,0.4,1.2,0.4c0.6,0,1-0.3,1.3-0.6c0.3-0.4,0.4-0.9,0.4-1.6
				v-10.3h3.7L723.2,218.5L723.2,218.5z"/>
			<path class="st1" d="M728.9,233.8c-1.2,0-2.2-0.3-2.8-1.1c-0.6-0.8-1-1.9-1-3.5v-6.8h3.5v6.8c0,1.2,0.4,1.9,1.3,1.9
				c0.8,0,1.3-0.3,1.6-0.7v-8h3.5v11.1h-3l-0.3-1.3C731.2,233.2,730.3,233.8,728.9,233.8z"/>
			<path class="st1" d="M740.8,217.5v16.1h-3.5v-16.1H740.8z"/>
			<path class="st1" d="M759.4,230.9v2.7h-10.5v-2.2l4.8-5c1.2-1.3,1.8-2.5,1.8-3.4c0-0.6-0.1-1.1-0.4-1.5c-0.3-0.3-0.7-0.6-1.2-0.6
				c-0.6,0-1,0.3-1.2,0.7c-0.2,0.4-0.4,1-0.4,1.6h-3.4v-0.1c0-1.5,0.4-2.6,1.3-3.5c1-1,2.2-1.5,3.8-1.5c1.6,0,2.9,0.4,3.8,1.2
				c0.9,0.8,1.3,1.9,1.3,3.4c0,0.9-0.3,1.6-0.7,2.3s-1.3,1.8-2.8,3.4l-2,2.2v0.1h5.8V230.9z"/>
			<path class="st1" d="M771.5,230.9v2.7H761v-2.2l4.8-5c1.2-1.3,1.8-2.5,1.8-3.4c0-0.6-0.1-1.1-0.4-1.5s-0.7-0.6-1.2-0.6
				s-1,0.3-1.2,0.7c-0.2,0.4-0.4,1-0.4,1.6H761v-0.1c0-1.5,0.4-2.6,1.3-3.5c1-1,2.2-1.5,3.8-1.5c1.6,0,2.9,0.4,3.8,1.2
				c0.9,0.8,1.3,1.9,1.3,3.4c0,0.9-0.3,1.6-0.7,2.3s-1.3,1.8-2.8,3.4l-2,2.2v0.1h5.8V230.9z"/>
		</g>
		<g>
			<path class="st1" d="M630.6,258.4v2h-9.9v-1.7l4.9-5.4c0.8-0.9,1.3-1.6,1.6-2.2s0.4-1.1,0.4-1.8c0-0.6-0.3-1.1-0.6-1.6
				c-0.4-0.4-0.9-0.7-1.6-0.7c-0.9,0-1.6,0.3-1.9,0.8c-0.4,0.4-0.7,1.1-0.7,2h-2.5v-0.1c0-1.3,0.4-2.5,1.3-3.4
				c0.9-0.9,2.2-1.3,3.5-1.3c1.5,0,2.7,0.4,3.5,1.2c0.9,0.8,1.2,1.8,1.2,3.1c0,0.8-0.3,1.6-0.7,2.3s-1.2,1.8-2.3,2.9l-3.4,3.5v0.1
				h6.8l0,0L630.6,258.4L630.6,258.4z"/>
			<path class="st1" d="M642.5,251.1v3.5c0,1.9-0.4,3.5-1.3,4.5c-0.9,1-2.2,1.6-3.5,1.6c-1.6,0-2.8-0.6-3.5-1.6
				c-0.8-1-1.3-2.6-1.3-4.5v-3.5c0-1.9,0.4-3.4,1.3-4.5c0.9-1,2.2-1.6,3.5-1.6c1.6,0,2.8,0.6,3.5,1.6
				C642,247.7,642.5,249.2,642.5,251.1z M640.1,254.9v-4.1c0-2.5-0.8-3.5-2.5-3.5c-1.6,0-2.5,1.2-2.5,3.5v4.1c0,2.5,0.8,3.7,2.5,3.7
				C639.2,258.6,640.1,257.4,640.1,254.9z"/>
			<path class="st1" d="M650.9,260.3h-2.5v-12.6h-3v-1.9l5.6-0.6L650.9,260.3L650.9,260.3z"/>
			<path class="st1" d="M658.2,246.2c0.8-0.8,1.9-1.1,3.4-1.1c1.5,0,2.6,0.3,3.4,1.1c0.8,0.8,1.2,1.8,1.2,3c0,0.8-0.3,1.5-0.6,2
				c-0.3,0.6-1,1-1.6,1.3c0.9,0.3,1.5,0.8,2,1.5c0.4,0.7,0.7,1.3,0.7,2.2c0,1.3-0.4,2.5-1.3,3.2c-0.9,0.8-2.2,1.1-3.7,1.1
				c-1.5,0-2.8-0.3-3.7-1.1c-0.9-0.8-1.3-1.8-1.3-3.2c0-0.8,0.3-1.6,0.7-2.2c0.4-0.7,1.1-1.1,2-1.5c-0.7-0.3-1.3-0.8-1.6-1.3
				c-0.4-0.6-0.6-1.2-0.6-2C657,248,657.5,247,658.2,246.2z M659.1,256.1c0,0.8,0.3,1.3,0.7,1.8c0.4,0.4,1,0.7,1.8,0.7
				s1.3-0.3,1.8-0.7c0.4-0.4,0.7-1,0.7-1.8c0-0.8-0.3-1.3-0.7-1.8c-0.4-0.4-1.1-0.7-1.8-0.7c-0.8,0-1.3,0.3-1.8,0.7
				C659.4,254.8,659.1,255.3,659.1,256.1z M659.4,249.4c0,0.7,0.3,1.2,0.6,1.6c0.3,0.4,0.9,0.6,1.6,0.6c0.7,0,1.1-0.3,1.6-0.7
				c0.3-0.4,0.6-1,0.6-1.6c0-0.7-0.3-1.2-0.6-1.6c-0.3-0.4-0.9-0.7-1.6-0.7c-0.7,0-1.1,0.3-1.6,0.6
				C659.6,247.9,659.4,248.6,659.4,249.4z"/>
		</g>
		<g>
			<path class="st1" d="M628.7,196.1v2.2h-4.9v4.9h-2.8V191h8.6v2.2h-5.8v3L628.7,196.1L628.7,196.1z"/>
			<path class="st1" d="M633.3,203.2h-2.8v-9.1h2.7l0.1,1.3c0.4-1,1-1.5,1.8-1.5c0.3,0,0.6,0,0.8,0.1l-0.3,2.5h-1
				c-0.6,0-1,0.3-1.3,0.6v6l0,0L633.3,203.2L633.3,203.2z"/>
			<path class="st1" d="M639.3,203.5c-0.9,0-1.6-0.3-2.1-0.7c-0.5-0.5-0.8-1.2-0.8-2c0-0.9,0.3-1.6,1-2.1c0.7-0.5,1.6-0.7,3.1-0.7h1
				v-0.6c0-0.8-0.4-1.2-1.1-1.2c-0.6,0-0.9,0.3-0.9,0.9h-2.7v-0.1c0-0.9,0.3-1.5,1-2.1c0.7-0.6,1.6-0.8,2.8-0.8
				c1.2,0,2.1,0.3,2.8,0.9c0.7,0.6,1,1.3,1,2.4v3.4c0,0.9,0.2,1.8,0.5,2.5h-2.8c-0.2-0.3-0.3-0.6-0.4-1
				C641.1,203,640.2,203.5,639.3,203.5z M639.5,199.8c-0.3,0.3-0.3,0.5-0.3,0.8c0,0.3,0.1,0.6,0.3,0.7c0.2,0.2,0.4,0.3,0.7,0.3
				c0.6,0,1-0.3,1.3-0.6v-1.5h-1C640.1,199.4,639.7,199.5,639.5,199.8z"/>
			<path class="st1" d="M645.8,194.2h2.7l0.1,1.3c0.6-0.9,1.5-1.5,2.5-1.5c1.9,0,2.8,1.2,2.8,3.6v5.6h-2.8v-5.6
				c0-0.5-0.1-0.9-0.3-1.1c-0.3-0.3-0.6-0.3-1-0.3c-0.5,0-0.9,0.2-1.2,0.6v6.5h-2.8v-9.1L645.8,194.2L645.8,194.2z"/>
			<path class="st1" d="M658,198.9c0,0.8,0.1,1.5,0.3,1.8c0.3,0.4,0.6,0.6,1.1,0.6c0.7,0,1.1-0.4,1.1-1.2h2.7v0.1
				c0,0.9-0.3,1.8-1,2.4s-1.6,0.9-2.7,0.9c-1.3,0-2.4-0.4-3.2-1.3c-0.8-0.9-1.1-2-1.1-3.4v-0.2c0-1.5,0.4-2.5,1.1-3.4
				c0.7-0.8,1.8-1.3,3.2-1.3c1.2,0,2.1,0.3,2.8,0.9s1,1.5,0.9,2.7v0.1h-2.7c0-0.5-0.1-0.8-0.3-1c-0.3-0.3-0.5-0.4-0.9-0.4
				c-0.6,0-0.9,0.3-1.1,0.6C658,197.4,657.9,198,658,198.9L658,198.9L658,198.9L658,198.9z"/>
			<path class="st1" d="M664.1,199v-0.3c0-1.5,0.4-2.5,1.1-3.4c0.7-0.9,1.8-1.3,3.1-1.3c1.2,0,2.2,0.4,2.8,1.1c0.6,0.8,1,1.8,1,3
				v1.5H667v0.1c0.1,0.5,0.3,0.9,0.6,1.2c0.3,0.3,0.7,0.5,1.3,0.5s0.9,0,1.3-0.1s0.7-0.3,1.3-0.5l0.6,1.8c-0.4,0.3-0.9,0.6-1.6,0.7
				c-0.6,0.2-1.3,0.3-2,0.3c-1.3,0-2.4-0.4-3.2-1.3C664.5,201.5,664.1,200.3,664.1,199z M669.5,197.6c0-0.9-0.4-1.5-1.2-1.5
				c-0.8,0-1.2,0.6-1.3,1.6v0.1h2.5V197.6z"/>
		</g>
	</g>
	<g>
		<path class="st1" d="M154.6,172.3c0,2.1-0.1,4.2,0.1,6.3c0.1,1.5-0.5,1.8-1.9,1.8c-6.5-0.1-12.9,0-19.4-0.1
			c-1.5,0-1.9,0.4-1.8,1.9c0.1,2.5-0.1,4.9,0.1,7.4c0.2,2-0.6,2.3-2.4,2.3c-6.7-0.1-13.4,0-20.1-0.1c-1.5,0-2.1,0.4-2.1,2
			c0.1,6.8,0.1,13.5,0,20.3c0,1.6,0.5,2,2,2c12.9-0.1,25.9,0,38.8-0.1c1.6,0,2.3,0.3,2.3,2.2c-0.2,4.9-0.2,9.8,0,14.7
			c0.1,1.9-0.6,2.2-2.3,2.2c-12.9-0.1-25.6,0-38.4-0.1c-2,0-2.5,0.5-2.5,2.5c0.1,13.9,0.1,27.8,0.2,41.8c-7.1,0-14.2,0-21.2,0
			c-0.4-0.7-0.3-1.5-0.3-2.2c0-34.2,0-68.4,0-102.6c0-0.7-0.2-1.5,0.3-2.2C108.9,172.3,131.7,172.3,154.6,172.3z"/>
		<path class="st1" d="M363.6,279.3c0-7.8-0.1-15.6-0.1-23.4c0-19.9,0-39.8,0.1-59.8c0-2-0.5-2.7-2.5-2.5c-2.7,0.2-5.4-0.1-8.1,0.1
			c-1.8,0.1-2.1-0.6-2.1-2.2c0.1-6.4,0-12.7,0-19.2c11.3,0,22.5,0,33.9,0c0,0.8-0.1,1.6-0.1,2.5c0,34.1,0,68.1,0,102.1
			c0,0.8,0.1,1.6,0.1,2.5C377.8,279.3,370.7,279.3,363.6,279.3z"/>
		<path class="st1" d="M570.5,225.1c-9.9,0-19.8,0.1-29.8,0c-2,0-2.5,0.4-2.5,2.5c0.1,9.2,0,18.5,0.1,27.7c0,1.6-0.3,2.4-2.2,2.3
			c-5.3-0.2-10.7-0.2-16,0c-1.8,0.1-2.1-0.5-2.1-2.2c0.1-9.3,0-18.7,0.1-28c0-1.8-0.4-2.7-2.3-2.3c-1.8,0.3-2.3-0.5-2.2-2.2
			c0.1-1.9,0.9-4.4-0.3-5.6c-1.2-1.2-3.7-0.3-5.6-0.3c-3.2-0.1-6.3,0.1-9.5-0.1c-1.9-0.1-2.3,0.6-2.2,2.3c0.2,1.5,0,2.8,0.1,4.3
			c0.1,1.2-0.2,1.8-1.6,1.8c-2.5-0.1-4.9-0.1-7.4,0c-1,0-1.5-0.3-1.5-1.5c0.1-5.8,0.1-11.6,0-17.3c0-1.6,0.8-1.6,2-1.6
			c9.4,0,18.8-0.1,28.2,0.1c1.9,0,2.5-0.5,2.3-2.4c-0.2-2.3,0-4.7-0.1-7c-0.1-1.3,0.4-1.6,1.6-1.6c2.5,0.1,4.9,0,7.4,0
			c0.8,1.6,2.2,2.2,3.9,2c1.6-0.1,3.3-0.1,4.9,0c2.7,0.1,3.1,0.6,3.2,3.3c0,0.6,0,1,0,1.6c0,3.1,0.2,3.3,3.4,3.3
			c8.2,0,16.3,0,24.6,0c1.2,0,2.4-0.2,3.4,0.7C570.5,211.5,570.5,218.3,570.5,225.1z"/>
		<path class="st1" d="M129.3,279.3c4.4-12.9,9-25.8,13.5-38.7c0.6-1.5,1.2-2,2.8-2c15.8,0.1,31.6,0,47.4,0.1c1.3,0,2.7,0.3,2.3-1.8
			c-0.2-0.9,0.6-0.9,1.1-0.9c4.9,0,9.8,0,14.7,0c0.8,0,1.1,0.3,1.5,1.1c1.3,4.1,2.8,8,4.2,12.2c-0.8,0.5-1.5,0.3-2.2,0.3
			c-1,0-1.6,0-1.6,1.3s0.7,1.5,1.6,1.3c2.7-0.6,3.7,0.9,4.4,3.3c2.4,7.5,5.1,14.9,7.7,22.3c0.2,0.5,0.3,1,0.3,1.5
			c-7.4,0-14.7,0-22.2,0c-1.1-0.6-1.3-1.8-1.6-2.8c-1.8-5.5-3.5-11-5.2-16.6c-0.6-1.9-1.6-2.5-3.6-2.5c-10.8,0.1-21.5,0.1-32.3,0
			c-2,0-2.8,0.8-3.4,2.7c-1.6,5.6-3.4,11.1-5.2,16.6c-0.3,1-0.6,2-1.5,2.7C144.4,279.3,136.8,279.3,129.3,279.3z"/>
		<path class="st1" d="M200.6,202c-2.8,9-5.8,17.9-8.4,27c-0.6,2.3-1.6,3-4,2.8c-5.3-0.3-10.5-0.2-15.8,0c-1.9,0.1-2.1-0.4-1.5-2.1
			c6.6-18.8,13-37.6,19.6-56.5c0.2-0.3,0.2-0.7,0.3-1.1c8,0,16,0,23.9,0c1.5,4.6,3.1,9.1,4.6,13.5c0.6,0.4,0.9,0.9,1.1,1.6
			c1.3,4.2,2.8,8.4,4.4,12.7c0.3,0.6,0.4,1.3,0.2,2c2.3,7,4.7,13.9,7,20.9c1.5,4.2,3,8.4,4.4,12.9c-6.8,0-13.4,0-19.9,0
			c-1.3,0-1.3-0.9-1.6-1.8c-3.1-10.1-6.2-20.1-9.4-30.1c-0.3-0.7-0.6-1.3-0.8-2.1c-1.6-1.8-1.6-4.2-2.2-6
			C202.2,197.9,202.1,200.1,200.6,202z"/>
		<path class="st1" d="M468.4,172.3c-0.5,4-0.1,8-0.3,11.9c0,0.8,0.3,1.6-1.1,1.6c-10.4,0-20.7,0-31.4,0c2.8-4.7,5.3-9.1,8-13.5
			C451.8,172.3,460.1,172.3,468.4,172.3z"/>
		<path class="st2" d="M547.9,172.3c0,6.5,0,12.9,0,19.4c0,0.7,0.5,1.6-0.5,2.2c-0.8-0.9-0.6-2.2-0.6-3.2c0-4.9,0-9.8,0-14.7
			c0-2.4-0.3-2.5-2.7-2.5c-4.4,0-8.9,0-13.3,0c-1.1,0-2.3,0.2-3.2-0.7c0-0.2,0-0.3,0-0.5C534.3,172.3,541.1,172.3,547.9,172.3z"/>
		<path class="st1" d="M527.6,172.7c6,0,12,0,17.9-0.1c1.5,0,1.9,0.4,1.9,1.9c-0.1,6.5-0.1,12.9-0.1,19.3c-6.6,0-13.2,0-19.8,0.1
			C527.6,186.9,527.6,179.8,527.6,172.7z"/>
		<path class="st3" d="M504.9,223.7c0.6,0.3,1.9-0.5,1.8,0.7c-0.1,1.5-1.5,0.6-2.2,0.7c-0.6,0.1-1.8,0.6-1.8-0.6
			C502.9,223,504.3,224.2,504.9,223.7z"/>
		<path class="st4" d="M225,202.2c-2.2-5.3-3.9-10.8-5.6-16.3c7.2,0,14.4,0,21.6-0.1c1.3,0,1.8,0.3,1.8,1.6c-0.1,4.3-0.1,8.5,0,12.9
			c0,1.3-0.3,1.8-1.8,1.8C235.7,202,230.3,202.2,225,202.2z"/>
		<path class="st3" d="M145.8,185.9c2.5,0,4.9,0,7.4,0c1,0,1.5,0.2,1.5,1.3s-0.3,1.5-1.5,1.5c-4.9-0.1-9.9-0.1-14.9,0
			c-1,0-1.5-0.2-1.5-1.3c0-1,0.3-1.5,1.5-1.5C140.8,185.9,143.3,185.9,145.8,185.9z"/>
		<path class="st5" d="M200.6,202c0.6-2.2,1.3-4.4,2-7.1c1,2.7,1.8,4.9,2.2,7.1C203.4,202,202,202,200.6,202z"/>
		<g>
			<g>
				<path class="st1" d="M318.6,225.4c-1-0.6-0.7-1.1,0.1-1.6c1-0.7,2.1-1.5,3-2.5c7.1-7.7,8.6-16.7,6.5-26.7
					c-0.4-2-1.5-2.7-3.5-2.7c-3.4,0.1-6.8,0-10.1,0c-1.2,0-2.1-0.3-2.1-1.8c0-3.4,0-6.8,0-10.1c0-0.9,0.3-1.6,1.3-1.8
					c0.6-0.1,1.6-0.1,1.6-0.9c0-0.6-0.8-1-1.3-1.5c-0.6-0.4-1.2-0.6-1.8-0.9c-3.3-1.6-6.8-2.3-10.4-2.7h-48.4
					c0.1,0.7,0.2,1.5,0.2,2.2c0,34.2,0,68.4,0,102.6c0,0.7-0.2,1.5-0.2,2.2h49.7c0.3-0.3,0.6-0.3,0.8-0.3c8.9-0.6,15.9-4.9,21-12
					C334.2,254.1,331.7,233.1,318.6,225.4z M274.9,203.5c0-3.6,0-7.3,0-10.8c0-0.8-0.3-1.8,1.1-1.8c7.3,0.2,14.7-0.5,22.1,0.3
					c5.6,0.6,8.7,4.2,9.2,9.9c0.3,2.4,0.1,4.8-0.6,7.2c-1.5,4.7-5.2,7.7-10.4,7.8c-6.6,0.2-13.2,0-19.8,0.1c-1.3,0-1.5-0.6-1.5-1.6
					C275,210.8,274.9,207.2,274.9,203.5z M305,256.7c-2.8,2.4-6.1,3.1-9.6,3.2c-6.1,0.1-12.3,0-18.5,0.1c-1.5,0-1.9-0.5-1.9-1.9
					c0.1-3.6,0-7.3,0-10.8c0-3.5,0.1-7.1,0-10.6c0-1.3,0.3-2,1.8-1.9c6.5,0.1,13,0,19.6,0.1c5.8,0.1,10.2,3,11.9,7.7
					C310,247.5,308.7,253.3,305,256.7z"/>
			</g>
		</g>
		<g>
			<g>
				<path class="st1" d="M481.1,241c0-1.3-0.5-1.6-1.6-1.6c-2.8,0.1-5.8-0.1-8.6,0.1c-2,0.1-2.7-0.4-2.7-2.5
					c0.1-15.4,0-30.8,0.1-46.2c0-1.8-0.5-2.2-2.2-2.2c-10.1,0.1-20.1,0.1-30.2,0c-1.3,0-2.2,0.5-2.8,1.6
					c-8.1,13.8-16,27.7-24.7,41.1c-4.9,7.6-7.7,15.3-6.5,24.2c0,0.1,0,0.2,0,0.3c-0.3,1.6,0.5,2,2,1.9c11.4-0.1,22.7,0,34.1,0
					c2.5,0,5.1,0,7.7,0c0.9,0,1.5,0.1,1.5,1.2c-0.2,6.8,0.3,13.7-0.3,20.5h21.7c-0.5-6.8-0.1-13.6-0.3-20.5c0-1.3,0.8-1.2,1.6-1.2
					c3.3,0,6.5-0.1,9.7,0c1.1,0,1.6-0.3,1.5-1.5C481,251.2,481,246.2,481.1,241z M447,237.3c0,1.8-0.6,2.2-2.3,2.2
					c-6.5-0.1-12.9-0.1-19.4,0c-1.1,0-2.1,0.1-1.1-1.5c7.4-13,14.7-26,22.2-39c0.1-0.1,0.3-0.1,0.4-0.2c0.5,0.5,0.3,1.1,0.3,1.6
					C447,212.8,446.9,225,447,237.3z"/>
			</g>
		</g>
	</g>
</g>
</svg>
