<?xml version="1.0" encoding="utf-8"?>
<!-- Generator: Adobe Illustrator 22.1.0, SVG Export Plug-In . SVG Version: 6.00 Build 0)  -->
<svg version="1.1" id="Layer_1" xmlns="http://www.w3.org/2000/svg" xmlns:xlink="http://www.w3.org/1999/xlink" x="0px" y="0px"
	 viewBox="0 0 144.5 30.5" style="enable-background:new 0 0 144.5 30.5;" xml:space="preserve">
<style type="text/css">
	.st0{fill:#E13541;}
	.st1{fill:#ED2D27;}
	.st2{fill:#83BF44;}
	.st3{fill:#82BF44;}
	.st4{fill:#1E3A6F;}
</style>
<g>
	<g>
		<path class="st0" d="M61.7,18.8h-3.2l-0.6,1.8h-2.5L59,11h2.2l3.6,9.6h-2.5L61.7,18.8z M59,17h2.1l-1-3.3L59,17z"/>
		<path class="st0" d="M73.9,17.4c0,0.7-0.2,1.3-0.5,1.8c-0.3,0.5-0.8,0.9-1.4,1.2c-0.6,0.3-1.3,0.4-2,0.4c-1.3,0-2.3-0.4-3-1.2
			c-0.7-0.8-1.1-2-1.1-3.5v-0.5c0-0.9,0.2-1.8,0.5-2.5c0.3-0.7,0.8-1.3,1.4-1.6c0.6-0.4,1.3-0.6,2.1-0.6c1.2,0,2.1,0.3,2.8,0.9
			c0.7,0.6,1.1,1.5,1.2,2.5h-2.3c0-0.6-0.2-1-0.4-1.3c-0.3-0.3-0.7-0.4-1.3-0.4c-0.6,0-1,0.2-1.3,0.6s-0.4,1.1-0.4,2.1v0.7
			c0,1,0.1,1.8,0.4,2.2s0.7,0.7,1.3,0.7c0.5,0,0.9-0.1,1.2-0.4c0.3-0.3,0.4-0.6,0.4-1.2H73.9z"/>
		<path class="st0" d="M81.2,18.8h-3.2l-0.6,1.8H75l3.5-9.6h2.2l3.6,9.6h-2.5L81.2,18.8z M78.6,17h2.1l-1-3.3L78.6,17z"/>
		<path class="st0" d="M85.8,20.6V11h3.1c0.8,0,1.6,0.2,2.3,0.6s1.2,0.9,1.6,1.6c0.4,0.7,0.6,1.5,0.6,2.4V16c0,0.9-0.2,1.7-0.6,2.4
			s-0.9,1.2-1.6,1.6c-0.7,0.4-1.4,0.6-2.3,0.6H85.8z M88.1,12.8v6.1h0.8c0.7,0,1.2-0.2,1.5-0.7C90.8,17.7,91,17,91,16v-0.4
			c0-0.9-0.2-1.6-0.5-2.1c-0.4-0.5-0.9-0.7-1.6-0.7H88.1z"/>
		<path class="st0" d="M101.3,16.5h-3.7v2.3h4.3v1.8h-6.6V11h6.6v1.8h-4.3v2h3.7V16.5z"/>
		<path class="st0" d="M106.8,11l2.1,6.7l2.1-6.7h3.1v9.6h-2.3v-2.2l0.2-4.6l-2.3,6.9h-1.5l-2.3-6.9l0.2,4.6v2.2h-2.3V11H106.8z"/>
		<path class="st0" d="M122,18.8h-3.2l-0.6,1.8h-2.5l3.5-9.6h2.2l3.6,9.6h-2.5L122,18.8z M119.4,17h2.1l-1-3.3L119.4,17z"/>
		<path class="st0" d="M134.6,20.6h-2.3l-3.4-6v6h-2.3V11h2.3l3.4,6v-6h2.3V20.6z"/>
		<path class="st0" d="M140.2,15.2L142,11h2.5l-3.1,6.2v3.5H139v-3.5l-3.1-6.2h2.5L140.2,15.2z"/>
	</g>
</g>
<g>
	<path class="st1" d="M32.6,30.2c-1.8-1-3.5-2-5.2-3c-2.3-1.3-4.7-2.7-7-4c-0.4-0.2-0.5-0.4-0.5-0.9c0-3.4,0-6.8,0-10.2
		c0-0.6-0.2-0.9-0.7-1.1c-1.6-0.9-3.3-1.9-4.9-2.8c-0.2-0.1-0.4-0.3-0.4-0.6c0-2.3,0-4.7,0-7c0-0.1,0-0.1,0-0.2
		c0.2,0,0.4,0.1,0.5,0.2c3.9,2.2,7.7,4.4,11.6,6.6c0.4,0.2,0.5,0.5,0.5,0.9c0,3.4,0,6.8,0,10.3c0,0.5,0.2,0.7,0.6,0.9
		c1.7,1,3.4,1.9,5,2.9c0.2,0.1,0.4,0.2,0.4,0.5C32.5,25.3,32.6,27.7,32.6,30.2z"/>
	<path class="st2" d="M46.4,8.3c0,1.9,0,3.7,0,5.5c0,2.8,0,5.6,0,8.5c0,0.4-0.1,0.7-0.5,0.9c-3.9,2.2-7.7,4.4-11.6,6.7
		c-0.6,0.3-0.6,0.3-0.6-0.4c0-2.1,0-4.2,0-6.2c0-0.6,0.2-0.9,0.7-1.1c1.6-0.9,3.2-1.9,4.9-2.8c0.3-0.2,0.5-0.4,0.5-0.8
		c0-2,0-3.9,0-5.9c0-0.3,0-0.5,0.3-0.7C42.1,10.8,44.2,9.6,46.4,8.3z"/>
	<path class="st3" d="M12.6,0.4c0,0.8,0,1.6,0,2.3c0,1.6,0,3.2,0,4.8c0,0.4-0.1,0.6-0.5,0.8c-1.7,1-3.4,2-5.1,2.9
		c-0.3,0.2-0.4,0.4-0.4,0.7c0,2,0,4,0,5.9c0,0.3,0,0.5-0.3,0.7c-2,1.2-4.1,2.3-6.1,3.5c0,0-0.1,0-0.2,0C0,22,0,21.8,0,21.7
		c0-4.5,0-9.1,0-13.6c0-0.3,0-0.5,0.3-0.7c4-2.3,7.9-4.6,11.9-6.8C12.3,0.5,12.4,0.4,12.6,0.4z"/>
	<path class="st4" d="M45.8,7.2c-1.4,0.8-2.7,1.5-4,2.3c-0.8,0.4-1.6,0.9-2.3,1.3c-0.3,0.2-0.5,0.2-0.8,0c-1.7-1-3.4-2-5.1-3
		c-0.4-0.2-0.6-0.2-1,0c-1.4,0.8-2.8,1.7-4.3,2.5c-0.2,0.1-0.3,0.2-0.6,0.2c0-1.1,0-2.2,0-3.2c0-0.4-0.1-0.6-0.4-0.8
		c-1-0.5-1.9-1.1-2.9-1.7c0.5-0.3,1-0.6,1.5-0.9c2.3-1.3,4.5-2.6,6.8-3.9C33,0,33.2-0.1,33.4,0.1C37.5,2.5,41.6,4.8,45.8,7.2z"/>
	<path class="st4" d="M18.6,19.8c0,1.2,0,2.3,0,3.4c0,0.4,0.1,0.6,0.4,0.7c1,0.5,1.9,1.1,2.8,1.6c0,0.2-0.2,0.3-0.4,0.3
		c-2.6,1.5-5.2,3-7.9,4.5c-0.2,0.1-0.4,0.2-0.6,0.1c-4.1-2.4-8.2-4.7-12.3-7.1c0-0.2,0.2-0.2,0.3-0.3c1.9-1.1,3.9-2.2,5.8-3.4
		c0.3-0.2,0.6-0.2,0.9,0c1.6,1,3.3,1.9,4.9,2.8c0.5,0.3,0.8,0.3,1.3,0C15.4,21.6,17,20.8,18.6,19.8z"/>
</g>
</svg>
