<?xml version="1.0" encoding="utf-8"?>
<!-- Generator: Adobe Illustrator 22.1.0, SVG Export Plug-In . SVG Version: 6.00 Build 0)  -->
<svg version="1.1" id="Layer_1" xmlns="http://www.w3.org/2000/svg" xmlns:xlink="http://www.w3.org/1999/xlink" x="0px" y="0px"
	 viewBox="0 0 146.3 20.1" style="enable-background:new 0 0 146.3 20.1;" xml:space="preserve">
<style type="text/css">
	.st0{fill:#FFFFFF;}
</style>
<g>
	<g>
		<path class="st0" d="M10.2,19.7v-0.8c0-0.1,0-0.1-0.1-0.2l-1.9-1c-0.1,0-0.1-0.1-0.1-0.2v-2.3c0.1,0,0.2-0.1,0.2-0.1
			c1.2-0.6,1.4-2.5,0.4-4.2C7.7,9.2,5.8,8.4,4.6,9c-1.2,0.6-1.4,2.5-0.4,4.2c0.1,0.2,0.3,0.5,0.5,0.7c0,0,0,0.1,0,0.1v1.4
			c0,0.1-0.2,0.2-0.3,0.2l-2.3-1.2c-0.1,0-0.1-0.1-0.1-0.2V5.9c0-0.1,0-0.1-0.1-0.2L1.4,5.4c-0.1-0.1-0.2,0-0.3,0.1
			C0.4,6.8,0,8.3,0,9.8C0,15.1,4.5,19.4,10.2,19.7"/>
		<path class="st0" d="M4.6,4c0.1,0,0.1,0,0.2,0l2.1,1.1c0,0.1,0,0.2,0,0.2c0,1.3,1.7,2.4,3.8,2.4c2.1,0,3.8-1,3.8-2.3
			c0-1.3-1.7-2.4-3.8-2.4c-0.3,0-0.6,0-0.9,0.1c0,0-0.1,0-0.1,0L8.4,2.3C8.2,2.2,8.2,2.1,8.4,2l2.3-1.2c0.1,0,0.1,0,0.2,0L18.8,5
			C18.9,5,19,5,19,5l0.6-0.3c0.1-0.1,0.1-0.2,0.1-0.3c-0.9-1.2-2.1-2.3-3.6-3.1C11.1-1.3,4.9,0.1,1.8,4.4c-0.1,0.1,0,0.2,0.1,0.3
			L2.4,5c0.1,0,0.1,0,0.2,0L4.6,4z"/>
		<path class="st0" d="M19.3,7.9c0,0.1,0,0.1-0.1,0.2l-2.1,1.1C17,9.1,17,9.1,16.9,9c-1.2-0.7-3.1,0.2-4.2,1.8
			c-1.1,1.7-0.9,3.6,0.3,4.2c1.2,0.7,3.1-0.2,4.2-1.8c0.2-0.2,0.3-0.5,0.4-0.7c0,0,0-0.1,0.1-0.1l1.4-0.7c0.1-0.1,0.3,0,0.3,0.2
			l0,2.4c0,0.1,0,0.1-0.1,0.2l-7.9,4.2c-0.1,0-0.1,0.1-0.1,0.2v0.6c0,0.1,0.1,0.2,0.2,0.2c1.6-0.1,3.2-0.5,4.7-1.3
			c4.9-2.6,6.7-8.3,4.3-12.9c-0.1-0.1-0.2-0.1-0.3-0.1l-0.6,0.3c-0.1,0-0.1,0.1-0.1,0.2L19.3,7.9z"/>
	</g>
	<g>
		<g>
			<path class="st0" d="M27,2.2h3v5.1h0c0.7-1,2.1-1.5,3.5-1.5c2.2,0,4.5,1.6,4.5,5.3c0,3.7-2.4,5.3-4.5,5.3c-1.6,0-3-0.4-3.6-1.6h0
				v1.3H27V2.2z M32.5,7.8c-1.8,0-2.6,1.5-2.6,3.2c0,1.7,0.8,3.2,2.6,3.2c1.8,0,2.6-1.5,2.6-3.2C35.1,9.4,34.3,7.8,32.5,7.8z"/>
			<path class="st0" d="M43.4,4.4h-3V2.2h3V4.4z M40.3,6h3v10.1h-3V6z"/>
			<path class="st0" d="M51.3,5.7c3.5,0,5.7,2.1,5.7,5.3c0,3.2-2.2,5.3-5.7,5.3c-3.4,0-5.7-2.1-5.7-5.3C45.6,7.8,47.9,5.7,51.3,5.7z
				 M51.3,14.3c2.1,0,2.7-1.6,2.7-3.2c0-1.6-0.6-3.2-2.7-3.2c-2,0-2.7,1.6-2.7,3.2C48.6,12.6,49.3,14.3,51.3,14.3z"/>
			<path class="st0" d="M69.1,16c-0.3,0.2-0.7,0.3-1.3,0.3c-0.9,0-1.5-0.5-1.5-1.6c-1,1.1-2.3,1.6-3.9,1.6c-2,0-3.6-0.8-3.6-2.8
				c0-2.3,1.8-2.8,3.7-3.1c2-0.4,3.7-0.2,3.7-1.5c0-1.4-1.3-1.7-2.4-1.7c-1.5,0-2.7,0.4-2.7,1.9h-1.8c0.1-2.5,2.2-3.4,4.7-3.4
				c2,0,4.1,0.4,4.1,2.8v5.2c0,0.8,0,1.1,0.6,1.1c0.1,0,0.3,0,0.6-0.1V16z M66.2,10.9c-0.7,0.5-2.1,0.5-3.3,0.7
				c-1.2,0.2-2.2,0.6-2.2,1.8c0,1.1,1,1.5,2.1,1.5c2.4,0,3.4-1.4,3.4-2.3V10.9z"/>
			<path class="st0" d="M78.5,9.2c-0.3-1.3-1.2-2-2.7-2c-2.6,0-3.4,1.9-3.4,3.9c0,1.9,0.9,3.7,3.2,3.7c1.7,0,2.8-0.9,3-2.5h1.8
				c-0.4,2.5-2.1,3.9-4.8,3.9c-3.4,0-5.1-2.1-5.1-5.1c0-3,1.7-5.4,5.2-5.4c2.5,0,4.5,1.1,4.7,3.5H78.5z"/>
			<path class="st0" d="M92.4,16c-0.3,0.2-0.7,0.3-1.3,0.3c-0.9,0-1.5-0.5-1.5-1.6c-1,1.1-2.3,1.6-3.9,1.6c-2,0-3.6-0.8-3.6-2.8
				c0-2.3,1.8-2.8,3.7-3.1c2-0.4,3.7-0.2,3.7-1.5c0-1.4-1.3-1.7-2.4-1.7c-1.5,0-2.7,0.4-2.7,1.9h-1.8c0.1-2.5,2.2-3.4,4.7-3.4
				c2,0,4.1,0.4,4.1,2.8v5.2c0,0.8,0,1.1,0.6,1.1c0.1,0,0.3,0,0.6-0.1V16z M89.5,10.9c-0.7,0.5-2.1,0.5-3.3,0.7
				C85,11.8,84,12.1,84,13.4c0,1.1,1,1.5,2.1,1.5c2.4,0,3.4-1.4,3.4-2.3V10.9z"/>
			<path class="st0" d="M104.1,16.1h-1.8v-1.4h0c-0.6,1.1-2,1.6-3.5,1.6c-3.4,0-5.1-2.5-5.1-5.3c0-2.8,1.7-5.2,5-5.2
				c1.1,0,2.7,0.4,3.5,1.6h0V2.2h1.8V16.1z M99,14.9c2.4,0,3.4-1.9,3.4-3.8c0-2-1-3.8-3.5-3.8c-2.5,0-3.3,1.9-3.3,3.9
				C95.6,13,96.7,14.9,99,14.9z"/>
			<path class="st0" d="M116.5,12.9c-0.5,2.2-2.2,3.4-4.7,3.4c-3.5,0-5.2-2.2-5.3-5.3c0-3,2.2-5.2,5.2-5.2c3.9,0,5.1,3.3,5,5.8h-8.2
				c-0.1,1.8,1,3.3,3.4,3.3c1.5,0,2.5-0.7,2.8-2H116.5z M114.8,10.1c-0.1-1.6-1.4-2.8-3.2-2.8c-1.9,0-3,1.3-3.1,2.8H114.8z"/>
			<path class="st0" d="M118.8,6h1.7v1.5h0c0.8-1.1,2-1.7,3.5-1.7c1.3,0,2.6,0.5,3,1.7c0.7-1.1,2-1.7,3.4-1.7c2.2,0,3.7,0.8,3.7,2.9
				v7.4h-1.8V9.5c0-1.2-0.4-2.2-2.1-2.2c-1.7,0-2.9,1-2.9,2.6v6.3h-1.8V9.5c0-1.3-0.4-2.2-2.1-2.2c-2.1,0-2.9,1.8-2.9,2.6v6.3h-1.8
				V6z"/>
			<path class="st0" d="M141.5,17.4c-0.8,2-1.6,2.7-3.2,2.7c-0.4,0-0.9,0-1.3-0.2v-1.5c0.3,0.1,0.7,0.2,1.1,0.2
				c0.7,0,1.1-0.3,1.5-0.9l0.7-1.7L136,6h2l3.2,8.2h0l3.1-8.2h1.9L141.5,17.4z"/>
		</g>
	</g>
</g>
</svg>
