<?xml version="1.0" encoding="utf-8"?>
<!-- Generator: Adobe Illustrator 22.1.0, SVG Export Plug-In . SVG Version: 6.00 Build 0)  -->
<svg version="1.1" id="Layer_1" xmlns="http://www.w3.org/2000/svg" xmlns:xlink="http://www.w3.org/1999/xlink" x="0px" y="0px"
	 viewBox="0 0 1125 370" style="enable-background:new 0 0 1125 370;" xml:space="preserve">
<style type="text/css">
	.st0{fill:#F0434F;}
	.st1{fill:#FFFFFF;}
	.st2{fill:#ED909F;}
	.st3{fill:#DC2140;}
	.st4{fill:#0071B2;}
	.st5{fill:#046FB0;}
</style>
<rect x="-10.5" y="-3.4" class="st0" width="1138.2" height="379.4"/>
<g>
	<g>
		<path class="st1" d="M893.7,191.3v2.7h-6v6h-3.5v-15h10.4v2.7h-7v3.6H893.7L893.7,191.3z"/>
		<path class="st1" d="M898.8,200.2c-1,0-1.9-0.3-2.6-0.9c-0.7-0.6-0.9-1.4-0.9-2.4c0-1.1,0.4-2,1.2-2.6s2.1-0.9,3.7-0.9h1.3v-0.8
			c0-0.9-0.4-1.5-1.4-1.5c-0.8,0-1.2,0.3-1.2,1.1h-3.4v-0.1c-0.1-1,0.3-1.9,1.3-2.6c0.9-0.7,2.1-1,3.5-1c1.5,0,2.6,0.3,3.4,1
			c0.9,0.7,1.2,1.6,1.2,2.9v4.2c0,1.1,0.2,2.2,0.6,3.2H902c-0.2-0.4-0.3-0.8-0.4-1.3C900.9,199.8,900,200.2,898.8,200.2z M899,195.6
			c-0.3,0.3-0.4,0.6-0.4,0.9c0,0.3,0.1,0.7,0.3,0.9s0.5,0.3,0.9,0.3c0.7,0,1.2-0.3,1.6-0.8v-1.7h-1.2
			C899.7,195.3,899.3,195.4,899,195.6z"/>
		<path class="st1" d="M912.9,200.2c-1.2,0-2.1-0.5-2.8-1.6l-0.3,1.3h-3v-16h3.5v6c0.6-0.9,1.5-1.3,2.5-1.3c1.4,0,2.5,0.5,3.2,1.6
			c0.7,1,1.1,2.4,1.1,4.2v0.3c0,1.7-0.3,3.1-1.1,4.1C915.3,199.8,914.3,200.2,912.9,200.2z M913.7,194.7v-0.3c0-1-0.1-1.8-0.3-2.3
			c-0.3-0.5-0.7-0.8-1.4-0.8c-0.8,0-1.3,0.3-1.6,0.8v4.7c0.3,0.4,0.9,0.7,1.6,0.7s1.2-0.3,1.5-0.7
			C913.6,196.3,913.7,195.7,913.7,194.7z"/>
		<path class="st1" d="M922.1,200h-3.5v-11h3.3l0.1,1.6c0.5-1.2,1.3-1.8,2.2-1.8c0.3,0,0.7,0,0.9,0.1l-0.3,3.1h-1.2
			c-0.8,0-1.3,0.3-1.6,0.8L922.1,200L922.1,200z"/>
		<path class="st1" d="M930,184v2.3h-3.5V184H930z M930,188.9V200h-3.5v-11.1H930z"/>
		<path class="st1" d="M935.2,194.6c0,0.9,0.2,1.7,0.4,2.2c0.3,0.5,0.8,0.8,1.4,0.8c0.9,0,1.4-0.5,1.4-1.5h3.2v0.1
			c0,1.2-0.4,2.2-1.2,2.9c-0.9,0.8-2,1.1-3.3,1.1c-1.6,0-2.9-0.5-3.9-1.6c-0.9-1-1.4-2.4-1.4-4.1v-0.3c0-1.7,0.4-3,1.4-4.1
			c0.9-1,2.2-1.6,3.9-1.6c1.4,0,2.5,0.4,3.4,1.2s1.2,1.8,1.2,3.2v0.1h-3.2c0-0.5-0.1-0.9-0.3-1.3c-0.3-0.3-0.6-0.5-1-0.5
			c-0.6,0-1.1,0.3-1.4,0.8c-0.3,0.5-0.4,1.2-0.4,2.2v0.1h-0.1L935.2,194.6L935.2,194.6z"/>
		<path class="st1" d="M945.9,200.2c-1,0-1.9-0.3-2.6-0.9c-0.7-0.6-0.9-1.4-0.9-2.4c0-1.1,0.4-2,1.2-2.6s2.1-0.9,3.7-0.9h1.3v-0.8
			c0-0.9-0.4-1.5-1.4-1.5c-0.8,0-1.2,0.3-1.2,1.1h-3.4v-0.1c-0.1-1,0.3-1.9,1.3-2.6c0.9-0.7,2.1-1,3.5-1c1.5,0,2.6,0.3,3.4,1
			c0.9,0.7,1.2,1.6,1.2,2.9v4.2c0,1.1,0.2,2.2,0.6,3.2h-3.5c-0.2-0.4-0.3-0.8-0.4-1.3C948.1,199.8,947.2,200.2,945.9,200.2z
			 M946.2,195.6c-0.3,0.3-0.4,0.6-0.4,0.9c0,0.3,0.1,0.7,0.3,0.9s0.5,0.3,0.9,0.3c0.7,0,1.2-0.3,1.6-0.8v-1.7h-1.2
			C946.9,195.3,946.5,195.4,946.2,195.6z"/>
		<path class="st1" d="M954.7,186.1h3.5v2.8h1.9v2.4h-1.9v5.1c0,0.8,0.3,1.1,0.9,1.1c0.3,0,0.7,0,1-0.1l0.3,2.6
			c-0.7,0.2-1.4,0.3-2.2,0.3c-1.1,0-2.1-0.3-2.6-0.9c-0.5-0.6-0.9-1.6-0.9-2.8v-5.1h-1.6V189h1.6V186.1z"/>
		<path class="st1" d="M965.3,184v2.3h-3.5V184H965.3z M965.3,188.9V200h-3.5v-11.1H965.3z"/>
		<path class="st1" d="M967.4,188.9h3.3l0.2,1.6c0.8-1.2,1.8-1.7,3.1-1.7c2.3,0,3.5,1.5,3.5,4.4v6.9H974v-6.9c0-0.6-0.1-1-0.3-1.3
			c-0.3-0.3-0.7-0.4-1.2-0.4c-0.6,0-1,0.3-1.5,0.7v8h-3.5V189h-0.1V188.9z"/>
		<path class="st1" d="M983,189.2c1.1,0,2,0.5,2.7,1.6l0.3-1.4h3V200c0,1.5-0.5,2.7-1.6,3.5c-1,0.9-2.4,1.3-4.2,1.3
			c-1.2,0-2.4-0.3-3.6-0.9l0.5-2.6c1,0.4,2,0.6,3,0.6c0.7,0,1.2-0.2,1.6-0.6c0.3-0.3,0.6-0.9,0.6-1.6v-0.4c-0.6,0.8-1.5,1.2-2.5,1.2
			c-1.4,0-2.4-0.5-3.2-1.5s-1.1-2.3-1.1-4.1v-0.2c0-1.7,0.3-3.2,1.1-4.2C980.6,189.7,981.7,189.2,983,189.2z M982.1,194.9v0.2
			c0,1.9,0.6,2.8,1.7,2.8c0.8,0,1.3-0.3,1.6-0.7v-4.7c-0.3-0.5-0.9-0.8-1.6-0.8C982.8,191.8,982.1,192.8,982.1,194.9z"/>
		<path class="st1" d="M887.7,223.3h-3.5v-14.9h5.7c1.7,0,3.1,0.4,4.2,1.2c1,0.8,1.5,1.9,1.5,3.3c0,1.6-0.8,2.7-2.4,3.4
			c0.9,0.3,1.6,0.7,2,1.3s0.6,1.4,0.6,2.2v0.9c0,0.4,0.1,0.9,0.2,1.4c0.1,0.4,0.3,0.8,0.6,1v0.2h-3.5c-0.4-0.3-0.7-1.2-0.7-2.6v-0.9
			c0-0.7-0.2-1.3-0.6-1.6c-0.3-0.3-0.9-0.5-1.6-0.5h-2.4L887.7,223.3L887.7,223.3L887.7,223.3z M887.7,211.1v3.9h2.2
			c0.7,0,1.2-0.2,1.6-0.4c0.3-0.3,0.5-0.8,0.5-1.4s-0.2-1.1-0.6-1.5c-0.4-0.3-0.9-0.5-1.6-0.5L887.7,211.1L887.7,211.1L887.7,211.1z
			"/>
		<path class="st1" d="M897.6,218.1v-0.4c0-1.7,0.4-3.1,1.4-4.2c0.9-1,2.2-1.6,3.8-1.6c1.5,0,2.7,0.4,3.5,1.4
			c0.9,0.9,1.3,2.2,1.3,3.7v1.8h-6.3v0.1c0.1,0.6,0.3,1,0.7,1.4c0.3,0.3,0.9,0.5,1.6,0.5s1.1-0.1,1.6-0.2c0.3-0.1,0.9-0.3,1.6-0.5
			l0.8,2.1c-0.5,0.3-1.1,0.7-1.9,0.9c-0.8,0.3-1.6,0.3-2.4,0.3c-1.6,0-2.9-0.5-3.9-1.6C898.1,221,897.6,219.7,897.6,218.1z
			 M904.1,216.4c0-1.1-0.5-1.7-1.5-1.7c-0.9,0-1.5,0.7-1.6,2v0.1h2.9v-0.3h0.2V216.4z"/>
		<path class="st1" d="M913.4,221.2L913.4,221.2c0.9,0,1.4-0.3,1.4-1c0-0.3-0.2-0.5-0.5-0.8c-0.3-0.2-0.9-0.4-1.6-0.6
			c-1.3-0.3-2.3-0.7-2.9-1.2c-0.6-0.5-0.9-1.3-0.9-2.2s0.4-1.8,1.2-2.4c0.9-0.7,2-1,3.4-1s2.6,0.3,3.5,0.9c0.9,0.7,1.3,1.6,1.2,2.6
			v0.1h-3.4c0-0.4-0.1-0.8-0.3-1c-0.3-0.3-0.5-0.3-0.9-0.3s-0.8,0.1-1,0.3s-0.3,0.4-0.3,0.8c0,0.3,0.2,0.6,0.4,0.8
			c0.3,0.2,0.9,0.3,1.7,0.5c1.4,0.3,2.4,0.7,3,1.2s0.9,1.3,0.9,2.2s-0.4,1.8-1.3,2.4c-0.8,0.6-2.1,0.9-3.5,0.9s-2.7-0.3-3.5-1.1
			c-0.9-0.8-1.3-1.6-1.3-2.6v-0.1h3.1C911.7,220.7,912.2,221.2,913.4,221.2z"/>
		<path class="st1" d="M923.4,207.3v2.3h-3.5v-2.3H923.4z M923.4,212.2v11.1h-3.5v-11.1H923.4z"/>
		<path class="st1" d="M929.1,207.3v16h-3.5v-16H929.1z"/>
		<path class="st1" d="M934.9,207.3v2.3h-3.5v-2.3H934.9z M934.9,212.2v11.1h-3.5v-11.1H934.9z"/>
		<path class="st1" d="M936.7,218.1v-0.4c0-1.7,0.4-3.1,1.4-4.2c0.9-1,2.2-1.6,3.8-1.6c1.5,0,2.7,0.4,3.5,1.4
			c0.9,0.9,1.3,2.2,1.3,3.7v1.8h-6.3v0.1c0.1,0.6,0.3,1,0.7,1.4c0.3,0.3,0.9,0.5,1.6,0.5s1.1-0.1,1.6-0.2c0.3-0.1,0.9-0.3,1.6-0.5
			l0.8,2.1c-0.5,0.3-1.1,0.7-1.9,0.9c-0.8,0.3-1.6,0.3-2.4,0.3c-1.6,0-2.9-0.5-3.9-1.6C937.2,221,936.7,219.7,936.7,218.1z
			 M943.3,216.4c0-1.1-0.5-1.7-1.5-1.7c-0.9,0-1.5,0.7-1.6,2v0.1h2.9v-0.3h0.2V216.4z"/>
		<path class="st1" d="M948,212.2h3.3l0.2,1.6c0.8-1.2,1.8-1.7,3.1-1.7c2.3,0,3.5,1.5,3.5,4.4v6.9h-3.5v-7c0-0.6-0.1-1-0.3-1.3
			c-0.3-0.3-0.7-0.4-1.2-0.4c-0.6,0-1,0.3-1.5,0.7v8h-3.5L948,212.2L948,212.2L948,212.2z"/>
		<path class="st1" d="M962.9,217.9c0,0.9,0.2,1.7,0.4,2.2c0.3,0.5,0.8,0.8,1.4,0.8c0.9,0,1.4-0.5,1.4-1.5h3.2v0.1
			c0,1.2-0.4,2.2-1.2,2.9c-0.9,0.8-2,1.1-3.3,1.1c-1.6,0-2.9-0.5-3.9-1.6c-0.9-1-1.4-2.4-1.4-4.1v-0.2c0-1.7,0.4-3,1.4-4.1
			c0.9-1,2.2-1.6,3.9-1.6c1.4,0,2.5,0.4,3.4,1.2s1.2,1.8,1.2,3.2v0.1h-3.2c0-0.5-0.1-0.9-0.3-1.3c-0.3-0.3-0.6-0.5-1-0.5
			c-0.6,0-1.1,0.3-1.4,0.8c-0.3,0.5-0.4,1.2-0.4,2.2v0.1H963L962.9,217.9L962.9,217.9z"/>
		<path class="st1" d="M970.3,218.1v-0.4c0-1.7,0.4-3.1,1.4-4.2c0.9-1,2.2-1.6,3.8-1.6c1.5,0,2.7,0.4,3.5,1.4
			c0.9,0.9,1.3,2.2,1.3,3.7v1.8H974v0.1c0.1,0.6,0.3,1,0.7,1.4c0.3,0.3,0.9,0.5,1.6,0.5c0.6,0,1.1-0.1,1.6-0.2
			c0.3-0.1,0.9-0.3,1.6-0.5l0.8,2.1c-0.5,0.3-1.1,0.7-1.9,0.9c-0.8,0.3-1.6,0.3-2.4,0.3c-1.6,0-2.9-0.5-3.9-1.6
			C970.8,221,970.3,219.7,970.3,218.1z M976.9,216.4c0-1.1-0.5-1.7-1.5-1.7s-1.5,0.7-1.6,2v0.1h2.9v-0.3h0.2V216.4z"/>
	</g>
	<g>
		<g>
			<path class="st1" d="M681.1,196.5v10.3c0,1.5-0.4,2.7-1.5,3.5c-1,0.9-2.2,1.3-3.9,1.3c-1.6,0-2.9-0.4-3.8-1.2s-1.3-1.9-1.3-3.5
				v-0.1h3.4c0,0.7,0.1,1.2,0.4,1.6c0.3,0.4,0.8,0.4,1.2,0.4c0.6,0,1-0.3,1.3-0.6c0.3-0.4,0.4-0.9,0.4-1.6v-10.3h3.7L681.1,196.5
				L681.1,196.5z"/>
			<path class="st1" d="M686.9,211.8c-1.2,0-2.2-0.3-2.8-1.1s-1-1.9-1-3.5v-6.8h3.5v6.8c0,1.2,0.4,1.9,1.3,1.9
				c0.8,0,1.3-0.3,1.6-0.7v-8h3.5v11.1h-3l-0.3-1.3C689.3,211.2,688.3,211.8,686.9,211.8z"/>
			<path class="st1" d="M698.8,195.5v16.1h-3.5v-16.1H698.8z"/>
			<path class="st1" d="M705.2,207.2L705.2,207.2l1.9-6.4h3.7l-4.5,12.9c-0.4,1.1-1,1.9-1.6,2.3c-0.6,0.3-1.3,0.6-2.2,0.6h-0.3
				c-0.1,0-0.1,0-0.3,0c-0.1,0-0.1,0-0.3,0c0,0-0.1,0-0.3,0c-0.1,0-0.3,0-0.3,0s-0.1,0-0.3-0.1c-0.1,0-0.3-0.1-0.3-0.1l0.4-2.5
				c0.3,0,0.3,0.1,0.3,0.1c0.6,0,0.9-0.1,1.2-0.3c0.3-0.1,0.4-0.4,0.6-0.8l0.3-0.7l-3.7-11.2h3.7L705.2,207.2L705.2,207.2z"/>
			<path class="st1" d="M799,207.2L799,207.2l1.9-6.4h3.7l-4.5,12.9c-0.4,1.1-1,1.9-1.6,2.3c-0.6,0.3-1.3,0.6-2.2,0.6H796
				c-0.1,0-0.1,0-0.3,0c-0.1,0-0.1,0-0.3,0c0,0-0.1,0-0.3,0c-0.1,0-0.3,0-0.3,0s-0.1,0-0.3-0.1c-0.1,0-0.3-0.1-0.3-0.1l0.4-2.5
				c0.3,0,0.3,0.1,0.3,0.1c0.6,0,0.9-0.1,1.2-0.3c0.3-0.1,0.4-0.4,0.6-0.8l0.3-0.7l-3.7-11.2h3.7L799,207.2L799,207.2z"/>
			<path class="st1" d="M725.1,211.6h-3.5V200h-3.4v-2.5l6.8-1v15.1H725.1z"/>
			<path class="st1" d="M737.3,211.6h-3.5V200h-3.3v-2.5l6.8-1V211.6z"/>
			<path class="st1" d="M754.9,203.1v2.7h-6.1v-2.7H754.9z"/>
			<path class="st1" d="M773.7,196.5v10.3c0,1.5-0.4,2.7-1.5,3.5c-1,0.9-2.2,1.3-3.9,1.3c-1.6,0-2.9-0.4-3.8-1.2
				c-0.9-0.8-1.3-1.9-1.3-3.5v-0.1h3.4c0,0.7,0.1,1.2,0.4,1.6c0.3,0.4,0.8,0.4,1.2,0.4c0.6,0,1-0.3,1.3-0.6c0.3-0.4,0.4-0.9,0.4-1.6
				v-10.3h3.7L773.7,196.5L773.7,196.5z"/>
			<path class="st1" d="M779.4,211.8c-1.2,0-2.2-0.3-2.8-1.1s-1-1.9-1-3.5v-6.8h3.5v6.8c0,1.2,0.4,1.9,1.3,1.9
				c0.8,0,1.3-0.3,1.6-0.7v-8h3.5v11.1h-3l-0.3-1.3C781.7,211.2,780.8,211.8,779.4,211.8z"/>
			<path class="st1" d="M791.3,195.5v16.1h-3.5v-16.1H791.3z"/>
			<path class="st1" d="M823.9,208.9v2.7h-10.5v-2.2l4.8-5c1.2-1.3,1.8-2.5,1.8-3.4c0-0.6-0.1-1.1-0.4-1.5c-0.3-0.3-0.7-0.6-1.2-0.6
				c-0.6,0-1,0.3-1.2,0.7s-0.4,1-0.4,1.6h-3.4v-0.1c0-1.5,0.4-2.6,1.3-3.5c1-1,2.2-1.5,3.8-1.5s2.9,0.4,3.8,1.2
				c0.9,0.8,1.3,1.9,1.3,3.4c0,0.9-0.3,1.6-0.7,2.3s-1.3,1.8-2.8,3.4l-2,2.2v0.1h5.8L823.9,208.9L823.9,208.9z"/>
			<path class="st1" d="M836,208.9v2.7h-10.5v-2.2l4.8-5c1.2-1.3,1.8-2.5,1.8-3.4c0-0.6-0.1-1.1-0.4-1.5s-0.7-0.6-1.2-0.6
				s-1,0.3-1.2,0.7s-0.4,1-0.4,1.6h-3.4v-0.1c0-1.5,0.4-2.6,1.3-3.5c1-1,2.2-1.5,3.8-1.5s2.9,0.4,3.8,1.2c0.9,0.8,1.3,1.9,1.3,3.4
				c0,0.9-0.3,1.6-0.7,2.3s-1.3,1.8-2.8,3.4l-2,2.2v0.1h5.8L836,208.9L836,208.9z"/>
		</g>
		<g>
			<path class="st1" d="M681.1,236.4v2h-9.9v-1.7l4.9-5.4c0.8-0.9,1.3-1.6,1.6-2.2s0.4-1.1,0.4-1.8c0-0.6-0.3-1.1-0.6-1.6
				c-0.4-0.4-0.9-0.7-1.6-0.7c-0.9,0-1.6,0.3-1.9,0.8c-0.4,0.4-0.7,1.1-0.7,2h-2.5v-0.1c0-1.3,0.4-2.5,1.3-3.4
				c0.9-0.9,2.2-1.3,3.5-1.3c1.5,0,2.7,0.4,3.5,1.2c0.9,0.8,1.2,1.8,1.2,3.1c0,0.8-0.3,1.6-0.7,2.3s-1.2,1.8-2.3,2.9l-3.4,3.5v0.1
				h6.8l0,0L681.1,236.4L681.1,236.4z"/>
			<path class="st1" d="M693,229.1v3.5c0,1.9-0.4,3.5-1.3,4.5c-0.9,1-2.2,1.6-3.5,1.6c-1.6,0-2.8-0.6-3.5-1.6
				c-0.8-1-1.3-2.6-1.3-4.5v-3.5c0-1.9,0.4-3.4,1.3-4.5c0.9-1,2.2-1.6,3.5-1.6c1.6,0,2.8,0.6,3.5,1.6
				C692.5,225.7,693,227.2,693,229.1z M690.6,232.9v-4.1c0-2.5-0.8-3.5-2.5-3.5c-1.6,0-2.5,1.2-2.5,3.5v4.1c0,2.5,0.8,3.7,2.5,3.7
				C689.7,236.6,690.6,235.4,690.6,232.9z"/>
			<path class="st1" d="M701.4,238.3h-2.5v-12.6h-3v-1.9l5.6-0.6L701.4,238.3L701.4,238.3z"/>
			<path class="st1" d="M708.7,224.2c0.8-0.8,1.9-1.1,3.4-1.1s2.6,0.3,3.4,1.1c0.8,0.8,1.2,1.8,1.2,3c0,0.8-0.3,1.5-0.6,2
				c-0.3,0.6-1,1-1.6,1.3c0.9,0.3,1.5,0.8,2,1.5c0.4,0.7,0.7,1.3,0.7,2.2c0,1.3-0.4,2.5-1.3,3.2c-0.9,0.8-2.2,1.1-3.7,1.1
				s-2.8-0.3-3.7-1.1c-0.9-0.8-1.3-1.8-1.3-3.2c0-0.8,0.3-1.6,0.7-2.2c0.4-0.7,1.1-1.1,2-1.5c-0.7-0.3-1.3-0.8-1.6-1.3
				c-0.4-0.6-0.6-1.2-0.6-2C707.5,226,708,225,708.7,224.2z M709.6,234.1c0,0.8,0.3,1.3,0.7,1.8c0.4,0.4,1,0.7,1.8,0.7
				s1.3-0.3,1.8-0.7c0.4-0.4,0.7-1,0.7-1.8c0-0.8-0.3-1.3-0.7-1.8c-0.4-0.4-1.1-0.7-1.8-0.7c-0.8,0-1.3,0.3-1.8,0.7
				C709.9,232.8,709.6,233.3,709.6,234.1z M709.9,227.4c0,0.7,0.3,1.2,0.6,1.6c0.3,0.4,0.9,0.6,1.6,0.6c0.7,0,1.1-0.3,1.6-0.7
				c0.3-0.4,0.6-1,0.6-1.6c0-0.7-0.3-1.2-0.6-1.6c-0.3-0.4-0.9-0.7-1.6-0.7c-0.7,0-1.1,0.3-1.6,0.6
				C710.1,225.9,709.9,226.6,709.9,227.4z"/>
		</g>
		<g>
			<path class="st1" d="M679.2,174.1v2.2h-4.9v4.9h-2.8V169h8.6v2.2h-5.8v3L679.2,174.1L679.2,174.1z"/>
			<path class="st1" d="M683.8,181.2H681v-9.1h2.7l0.1,1.3c0.4-1,1-1.5,1.8-1.5c0.3,0,0.6,0,0.8,0.1l-0.3,2.5h-1
				c-0.6,0-1,0.3-1.3,0.6V181.2L683.8,181.2L683.8,181.2L683.8,181.2z"/>
			<path class="st1" d="M689.8,181.5c-0.9,0-1.6-0.3-2.1-0.7c-0.5-0.5-0.8-1.2-0.8-2c0-0.9,0.3-1.6,1-2.1s1.6-0.7,3.1-0.7h1v-0.6
				c0-0.8-0.4-1.2-1.1-1.2c-0.6,0-0.9,0.3-0.9,0.9h-2.7V175c0-0.9,0.3-1.5,1-2.1s1.6-0.8,2.8-0.8s2.1,0.3,2.8,0.9
				c0.7,0.6,1,1.3,1,2.4v3.4c0,0.9,0.2,1.8,0.5,2.5h-2.8c-0.2-0.3-0.3-0.6-0.4-1C691.6,181,690.7,181.5,689.8,181.5z M690,177.8
				c-0.3,0.3-0.3,0.5-0.3,0.8s0.1,0.6,0.3,0.7c0.2,0.2,0.4,0.3,0.7,0.3c0.6,0,1-0.3,1.3-0.6v-1.5h-1
				C690.6,177.4,690.2,177.5,690,177.8z"/>
			<path class="st1" d="M696.3,172.2h2.7l0.1,1.3c0.6-0.9,1.5-1.5,2.5-1.5c1.9,0,2.8,1.2,2.8,3.6v5.6h-2.8v-5.6
				c0-0.5-0.1-0.9-0.3-1.1c-0.3-0.3-0.6-0.3-1-0.3c-0.5,0-0.9,0.2-1.2,0.6v6.5h-2.8V172.2L696.3,172.2L696.3,172.2z"/>
			<path class="st1" d="M708.5,176.9c0,0.8,0.1,1.5,0.3,1.8c0.3,0.4,0.6,0.6,1.1,0.6c0.7,0,1.1-0.4,1.1-1.2h2.7v0.1
				c0,0.9-0.3,1.8-1,2.4s-1.6,0.9-2.7,0.9c-1.3,0-2.4-0.4-3.2-1.3c-0.8-0.9-1.1-2-1.1-3.4v-0.2c0-1.5,0.4-2.5,1.1-3.4
				c0.7-0.8,1.8-1.3,3.2-1.3c1.2,0,2.1,0.3,2.8,0.9s1,1.5,0.9,2.7v0.1H711c0-0.5-0.1-0.8-0.3-1c-0.3-0.3-0.5-0.4-0.9-0.4
				c-0.6,0-0.9,0.3-1.1,0.6C708.5,175.4,708.4,176,708.5,176.9L708.5,176.9L708.5,176.9L708.5,176.9z"/>
			<path class="st1" d="M714.6,177v-0.3c0-1.5,0.4-2.5,1.1-3.4c0.7-0.9,1.8-1.3,3.1-1.3c1.2,0,2.2,0.4,2.8,1.1c0.6,0.8,1,1.8,1,3
				v1.5h-5.1v0.1c0.1,0.5,0.3,0.9,0.6,1.2s0.7,0.5,1.3,0.5s0.9,0,1.3-0.1s0.7-0.3,1.3-0.5l0.6,1.8c-0.4,0.3-0.9,0.6-1.6,0.7
				c-0.6,0.2-1.3,0.3-2,0.3c-1.3,0-2.4-0.4-3.2-1.3C715,179.5,714.6,178.3,714.6,177z M720,175.6c0-0.9-0.4-1.5-1.2-1.5
				s-1.2,0.6-1.3,1.6v0.1h2.5V175.6z"/>
		</g>
	</g>
	<g>
		<path class="st1" d="M205.1,150.3c0,2.1-0.1,4.2,0.1,6.3c0.1,1.5-0.5,1.8-1.9,1.8c-6.5-0.1-12.9,0-19.4-0.1
			c-1.5,0-1.9,0.4-1.8,1.9c0.1,2.5-0.1,4.9,0.1,7.4c0.2,2-0.6,2.3-2.4,2.3c-6.7-0.1-13.4,0-20.1-0.1c-1.5,0-2.1,0.4-2.1,2
			c0.1,6.8,0.1,13.5,0,20.3c0,1.6,0.5,2,2,2c12.9-0.1,25.9,0,38.8-0.1c1.6,0,2.3,0.3,2.3,2.2c-0.2,4.9-0.2,9.8,0,14.7
			c0.1,1.9-0.6,2.2-2.3,2.2c-12.9-0.1-25.6,0-38.4-0.1c-2,0-2.5,0.5-2.5,2.5c0.1,13.9,0.1,27.8,0.2,41.8c-7.1,0-14.2,0-21.2,0
			c-0.4-0.7-0.3-1.5-0.3-2.2c0-34.2,0-68.4,0-102.6c0-0.7-0.2-1.5,0.3-2.2C159.4,150.3,182.2,150.3,205.1,150.3z"/>
		<path class="st1" d="M414.1,257.3c0-7.8-0.1-15.6-0.1-23.4c0-19.9,0-39.8,0.1-59.8c0-2-0.5-2.7-2.5-2.5c-2.7,0.2-5.4-0.1-8.1,0.1
			c-1.8,0.1-2.1-0.6-2.1-2.2c0.1-6.4,0-12.7,0-19.2c11.3,0,22.5,0,33.9,0c0,0.8-0.1,1.6-0.1,2.5c0,34.1,0,68.1,0,102.1
			c0,0.8,0.1,1.6,0.1,2.5C428.3,257.3,421.2,257.3,414.1,257.3z"/>
		<path class="st1" d="M621,203.1c-9.9,0-19.8,0.1-29.8,0c-2,0-2.5,0.4-2.5,2.5c0.1,9.2,0,18.5,0.1,27.7c0,1.6-0.3,2.4-2.2,2.3
			c-5.3-0.2-10.7-0.2-16,0c-1.8,0.1-2.1-0.5-2.1-2.2c0.1-9.3,0-18.7,0.1-28c0-1.8-0.4-2.7-2.3-2.3c-1.8,0.3-2.3-0.5-2.2-2.2
			c0.1-1.9,0.9-4.4-0.3-5.6c-1.2-1.2-3.7-0.3-5.6-0.3c-3.2-0.1-6.3,0.1-9.5-0.1c-1.9-0.1-2.3,0.6-2.2,2.3c0.2,1.5,0,2.8,0.1,4.3
			c0.1,1.2-0.2,1.8-1.6,1.8c-2.5-0.1-4.9-0.1-7.4,0c-1,0-1.5-0.3-1.5-1.5c0.1-5.8,0.1-11.6,0-17.3c0-1.6,0.8-1.6,2-1.6
			c9.4,0,18.8-0.1,28.2,0.1c1.9,0,2.5-0.5,2.3-2.4c-0.2-2.3,0-4.7-0.1-7c-0.1-1.3,0.4-1.6,1.6-1.6c2.5,0.1,4.9,0,7.4,0
			c0.8,1.6,2.2,2.2,3.9,2c1.6-0.1,3.3-0.1,4.9,0c2.7,0.1,3.1,0.6,3.2,3.3c0,0.6,0,1,0,1.6c0,3.1,0.2,3.3,3.4,3.3
			c8.2,0,16.3,0,24.6,0c1.2,0,2.4-0.2,3.4,0.7C621,189.5,621,196.3,621,203.1z"/>
		<path class="st1" d="M179.8,257.3c4.4-12.9,9-25.8,13.5-38.7c0.6-1.5,1.2-2,2.8-2c15.8,0.1,31.6,0,47.4,0.1c1.3,0,2.7,0.3,2.3-1.8
			c-0.2-0.9,0.6-0.9,1.1-0.9c4.9,0,9.8,0,14.7,0c0.8,0,1.1,0.3,1.5,1.1c1.3,4.1,2.8,8,4.2,12.2c-0.8,0.5-1.5,0.3-2.2,0.3
			c-1,0-1.6,0-1.6,1.3s0.7,1.5,1.6,1.3c2.7-0.6,3.7,0.9,4.4,3.3c2.4,7.5,5.1,14.9,7.7,22.3c0.2,0.5,0.3,1,0.3,1.5
			c-7.4,0-14.7,0-22.2,0c-1.1-0.6-1.3-1.8-1.6-2.8c-1.8-5.5-3.5-11-5.2-16.6c-0.6-1.9-1.6-2.5-3.6-2.5c-10.8,0.1-21.5,0.1-32.3,0
			c-2,0-2.8,0.8-3.4,2.7c-1.6,5.6-3.4,11.1-5.2,16.6c-0.3,1-0.6,2-1.5,2.7C194.9,257.3,187.3,257.3,179.8,257.3z"/>
		<path class="st1" d="M251.1,180c-2.8,9-5.8,17.9-8.4,27c-0.6,2.3-1.6,3-4,2.8c-5.3-0.3-10.5-0.2-15.8,0c-1.9,0.1-2.1-0.4-1.5-2.1
			c6.6-18.8,13-37.6,19.6-56.5c0.2-0.3,0.2-0.7,0.3-1.1c8,0,16,0,23.9,0c1.5,4.6,3.1,9.1,4.6,13.5c0.6,0.4,0.9,0.9,1.1,1.6
			c1.3,4.2,2.8,8.4,4.4,12.7c0.3,0.6,0.4,1.3,0.2,2c2.3,7,4.7,13.9,7,20.9c1.5,4.2,3,8.4,4.4,12.9c-6.8,0-13.4,0-19.9,0
			c-1.3,0-1.3-0.9-1.6-1.8c-3.1-10.1-6.2-20.1-9.4-30.1c-0.3-0.7-0.6-1.3-0.8-2.1c-1.6-1.8-1.6-4.2-2.2-6
			C252.7,175.9,252.6,178.1,251.1,180z"/>
		<path class="st1" d="M518.9,150.3c-0.5,4-0.1,8-0.3,11.9c0,0.8,0.3,1.6-1.1,1.6c-10.4,0-20.7,0-31.4,0c2.8-4.7,5.3-9.1,8-13.5
			C502.3,150.3,510.6,150.3,518.9,150.3z"/>
		<path class="st2" d="M598.4,150.3c0,6.5,0,12.9,0,19.4c0,0.7,0.5,1.6-0.5,2.2c-0.8-0.9-0.6-2.2-0.6-3.2c0-4.9,0-9.8,0-14.7
			c0-2.4-0.3-2.5-2.7-2.5c-4.4,0-8.9,0-13.3,0c-1.1,0-2.3,0.2-3.2-0.7c0-0.2,0-0.3,0-0.5C584.8,150.3,591.6,150.3,598.4,150.3z"/>
		<path class="st1" d="M578.1,150.7c6,0,12,0,17.9-0.1c1.5,0,1.9,0.4,1.9,1.9c-0.1,6.5-0.1,12.9-0.1,19.3c-6.6,0-13.2,0-19.8,0.1
			C578.1,164.9,578.1,157.8,578.1,150.7z"/>
		<path class="st3" d="M555.4,201.7c0.6,0.3,1.9-0.5,1.8,0.7c-0.1,1.5-1.5,0.6-2.2,0.7c-0.6,0.1-1.8,0.6-1.8-0.6
			C553.4,201,554.8,202.2,555.4,201.7z"/>
		<path class="st4" d="M275.5,180.2c-2.2-5.3-3.9-10.8-5.6-16.3c7.2,0,14.4,0,21.6-0.1c1.3,0,1.8,0.3,1.8,1.6
			c-0.1,4.3-0.1,8.5,0,12.9c0,1.3-0.3,1.8-1.8,1.8C286.2,180,280.8,180.2,275.5,180.2z"/>
		<path class="st3" d="M196.3,163.9c2.5,0,4.9,0,7.4,0c1,0,1.5,0.2,1.5,1.3s-0.3,1.5-1.5,1.5c-4.9-0.1-9.9-0.1-14.9,0
			c-1,0-1.5-0.2-1.5-1.3c0-1,0.3-1.5,1.5-1.5C191.3,163.9,193.8,163.9,196.3,163.9z"/>
		<path class="st5" d="M251.1,180c0.6-2.2,1.3-4.4,2-7.1c1,2.7,1.8,4.9,2.2,7.1C253.9,180,252.5,180,251.1,180z"/>
		<g>
			<g>
				<path class="st1" d="M369.1,203.4c-1-0.6-0.7-1.1,0.1-1.6c1-0.7,2.1-1.5,3-2.5c7.1-7.7,8.6-16.7,6.5-26.7
					c-0.4-2-1.5-2.7-3.5-2.7c-3.4,0.1-6.8,0-10.1,0c-1.2,0-2.1-0.3-2.1-1.8c0-3.4,0-6.8,0-10.1c0-0.9,0.3-1.6,1.3-1.8
					c0.6-0.1,1.6-0.1,1.6-0.9c0-0.6-0.8-1-1.3-1.5c-0.6-0.4-1.2-0.6-1.8-0.9c-3.3-1.6-6.8-2.3-10.4-2.7H304c0.1,0.7,0.2,1.5,0.2,2.2
					c0,34.2,0,68.4,0,102.6c0,0.7-0.2,1.5-0.2,2.2h49.7c0.3-0.3,0.6-0.3,0.8-0.3c8.9-0.6,15.9-4.9,21-12
					C384.7,232.1,382.2,211.1,369.1,203.4z M325.4,181.5c0-3.6,0-7.3,0-10.8c0-0.8-0.3-1.8,1.1-1.8c7.3,0.2,14.7-0.5,22.1,0.3
					c5.6,0.6,8.7,4.2,9.2,9.9c0.3,2.4,0.1,4.8-0.6,7.2c-1.5,4.7-5.2,7.7-10.4,7.8c-6.6,0.2-13.2,0-19.8,0.1c-1.3,0-1.5-0.6-1.5-1.6
					C325.5,188.8,325.4,185.2,325.4,181.5z M355.5,234.7c-2.8,2.4-6.1,3.1-9.6,3.2c-6.1,0.1-12.3,0-18.5,0.1c-1.5,0-1.9-0.5-1.9-1.9
					c0.1-3.6,0-7.3,0-10.8s0.1-7.1,0-10.6c0-1.3,0.3-2,1.8-1.9c6.5,0.1,13,0,19.6,0.1c5.8,0.1,10.2,3,11.9,7.7
					C360.5,225.5,359.2,231.3,355.5,234.7z"/>
			</g>
		</g>
		<g>
			<g>
				<path class="st1" d="M531.6,219c0-1.3-0.5-1.6-1.6-1.6c-2.8,0.1-5.8-0.1-8.6,0.1c-2,0.1-2.7-0.4-2.7-2.5
					c0.1-15.4,0-30.8,0.1-46.2c0-1.8-0.5-2.2-2.2-2.2c-10.1,0.1-20.1,0.1-30.2,0c-1.3,0-2.2,0.5-2.8,1.6
					c-8.1,13.8-16,27.7-24.7,41.1c-4.9,7.6-7.7,15.3-6.5,24.2c0,0.1,0,0.2,0,0.3c-0.3,1.6,0.5,2,2,1.9c11.4-0.1,22.7,0,34.1,0
					c2.5,0,5.1,0,7.7,0c0.9,0,1.5,0.1,1.5,1.2c-0.2,6.8,0.3,13.7-0.3,20.5h21.7c-0.5-6.8-0.1-13.6-0.3-20.5c0-1.3,0.8-1.2,1.6-1.2
					c3.3,0,6.5-0.1,9.7,0c1.1,0,1.6-0.3,1.5-1.5C531.5,229.2,531.5,224.2,531.6,219z M497.5,215.3c0,1.8-0.6,2.2-2.3,2.2
					c-6.5-0.1-12.9-0.1-19.4,0c-1.1,0-2.1,0.1-1.1-1.5c7.4-13,14.7-26,22.2-39c0.1-0.1,0.3-0.1,0.4-0.2c0.5,0.5,0.3,1.1,0.3,1.6
					C497.5,190.8,497.4,203,497.5,215.3z"/>
			</g>
		</g>
	</g>
</g>
</svg>
