<?xml version="1.0" encoding="utf-8"?>
<!-- Generator: Adobe Illustrator 22.1.0, SVG Export Plug-In . SVG Version: 6.00 Build 0)  -->
<svg version="1.1" id="Layer_1" xmlns="http://www.w3.org/2000/svg" xmlns:xlink="http://www.w3.org/1999/xlink" x="0px" y="0px"
	 viewBox="0 0 116.8 115.6" style="enable-background:new 0 0 116.8 115.6;" xml:space="preserve">
<style type="text/css">
	.st0{fill:#F7F3FF;}
</style>
<g>
	<path class="st0" d="M89.1,90.2l5.6-5.6c0.3-0.3,0.3-0.7,0-1l-5.4-6.8c3.3-4.6,5.4-9.8,6.4-15.3l8.7-0.9c0.4,0,0.7-0.4,0.7-0.7v-8
		c0-0.4-0.3-0.7-0.7-0.7l-8.7-0.9c-0.9-5.5-3-10.8-6.4-15.3l5.5-6.8c0.2-0.3,0.2-0.7,0-1l-5.7-5.7c-0.3-0.3-0.7-0.3-1,0l-6.8,5.5
		c-4.6-3.3-9.8-5.4-15.3-6.4l-0.9-8.7c0-0.4-0.4-0.7-0.7-0.7h-8c-0.4,0-0.7,0.3-0.7,0.7L55,20.9c-5.5,0.9-10.8,3-15.3,6.4l-6.9-5.5
		c-0.3-0.2-0.7-0.2-1,0l-5.6,5.7c-0.3,0.3-0.3,0.7,0,1l5.5,6.8c-3.3,4.6-5.4,9.8-6.3,15.3l-8.8,0.8c-0.4,0-0.7,0.4-0.7,0.7v8
		c0,0.4,0.3,0.7,0.7,0.7l8.7,0.9c0.9,5.5,3,10.8,6.3,15.3l-5.4,6.9c-0.2,0.3-0.2,0.7,0,1l5.6,5.6c0.3,0.3,0.7,0.3,1,0l6.8-5.5
		c4.6,3.3,9.8,5.4,15.3,6.4l0.9,8.7c0,0.4,0.4,0.7,0.7,0.7h8.1c0.4,0,0.7-0.3,0.7-0.7l0.9-8.7c5.5-0.9,10.8-3,15.3-6.4l6.8,5.5
		C88.4,90.5,88.8,90.5,89.1,90.2z M81,83.2c-4.6,3.4-10,5.7-15.6,6.5c-0.3,0-0.6,0.3-0.6,0.7L63.9,99h-6.8l-0.9-8.6
		c0-0.3-0.3-0.6-0.6-0.7c-5.6-0.8-11-3-15.6-6.5c-0.3-0.2-0.6-0.2-0.9,0l-6.7,5.4l-4.8-4.8l5.4-6.7c0.2-0.3,0.2-0.6,0-0.9
		c-3.4-4.6-5.7-10-6.5-15.6c0-0.3-0.3-0.6-0.7-0.6l-8.6-0.9v-6.8l8.6-0.9c0.3,0,0.6-0.3,0.7-0.6c0.8-5.6,3-11,6.5-15.6
		c0.2-0.3,0.2-0.6,0-0.9L27.8,28l4.8-4.8l6.7,5.4c0.3,0.2,0.6,0.2,0.9,0c4.6-3.4,10-5.7,15.6-6.5c0.3,0,0.6-0.3,0.6-0.7l0.9-8.6h6.8
		l0.9,8.6c0,0.3,0.3,0.6,0.6,0.7c5.6,0.8,11,3,15.6,6.5c0.3,0.2,0.6,0.2,0.9,0l6.7-5.4l4.8,4.8l-5.4,6.7c-0.2,0.3-0.2,0.6,0,0.9
		c3.4,4.6,5.7,10,6.5,15.6c0,0.3,0.3,0.6,0.7,0.6l8.6,0.9v6.8L95,60.2c-0.3,0-0.6,0.3-0.7,0.6c-0.8,5.6-3,11-6.5,15.6
		c-0.2,0.3-0.2,0.6,0,0.9l5.4,6.7l-4.8,4.8l-6.7-5.4C81.6,83.1,81.2,83.1,81,83.2z"/>
	<path class="st0" d="M37.6,101.1H15.4V78.9c0-0.4-0.3-0.7-0.7-0.7c-0.4,0-0.7,0.3-0.7,0.7v22.9c0,0.4,0.3,0.7,0.7,0.7h22.9
		c0.4,0,0.7-0.3,0.7-0.7C38.2,101.3,37.9,101.1,37.6,101.1z"/>
	<path class="st0" d="M83.4,10.9h22.2v22.2c0,0.4,0.3,0.7,0.7,0.7c0.4,0,0.7-0.3,0.7-0.7V10.2c0-0.4-0.3-0.7-0.7-0.7H83.4
		c-0.4,0-0.7,0.3-0.7,0.7C82.7,10.6,83,10.9,83.4,10.9z"/>
	<path class="st0" d="M107,101.7V78.9c0-0.4-0.3-0.7-0.7-0.7s-0.7,0.3-0.7,0.7v22.2H83.4c-0.4,0-0.7,0.3-0.7,0.7
		c0,0.4,0.3,0.7,0.7,0.7h22.9C106.6,102.5,107,102.1,107,101.7z"/>
	<path class="st0" d="M14,10.2v22.9c0,0.4,0.3,0.7,0.7,0.7c0.4,0,0.7-0.3,0.7-0.7V10.9h22.2c0.4,0,0.7-0.3,0.7-0.7
		c0-0.4-0.3-0.7-0.7-0.7H14.7C14.3,9.5,14,9.8,14,10.2z"/>
	<path class="st0" d="M116.1,60.5c-0.4,0-0.7,0.3-0.7,0.7v10.7c0,0.4,0.3,0.7,0.7,0.7c0.4,0,0.7-0.3,0.7-0.7V61.2
		C116.8,60.9,116.5,60.5,116.1,60.5z"/>
	<path class="st0" d="M116.1,74.7c-0.4,0-0.7,0.3-0.7,0.7v3.5c0,0.4,0.3,0.7,0.7,0.7c0.4,0,0.7-0.3,0.7-0.7v-3.4
		C116.8,75.1,116.5,74.7,116.1,74.7z"/>
	<path class="st0" d="M4.1,40.2c-0.4,0-0.7,0.3-0.7,0.7v10.7c0,0.4,0.3,0.7,0.7,0.7s0.7-0.3,0.7-0.7V40.9
		C4.8,40.5,4.5,40.2,4.1,40.2z"/>
	<path class="st0" d="M4.1,54.4c-0.4,0-0.7,0.3-0.7,0.7v3.4c0,0.4,0.3,0.7,0.7,0.7s0.7-0.3,0.7-0.7v-3.4C4.8,54.7,4.5,54.4,4.1,54.4
		z"/>
	<path class="st0" d="M1.2,87.5c-0.3-0.3-0.8-0.3-1,0c-0.3,0.3-0.3,0.8,0,1l1.6,1.6c0.1,0.1,0.3,0.2,0.5,0.2s0.4-0.1,0.5-0.2
		c0.3-0.3,0.3-0.8,0-1L1.2,87.5z"/>
	<path class="st0" d="M6.4,92.8c-0.3-0.3-0.8-0.3-1,0c-0.3,0.3-0.3,0.8,0,1l1.6,1.6c0.1,0.1,0.3,0.2,0.5,0.2s0.4-0.1,0.5-0.2
		c0.3-0.3,0.3-0.8,0-1L6.4,92.8z"/>
	<path class="st0" d="M1.8,92.8l-1.6,1.6c-0.3,0.3-0.3,0.8,0,1c0.1,0.1,0.3,0.2,0.5,0.2s0.4-0.1,0.5-0.2l1.6-1.6
		c0.3-0.3,0.3-0.8,0-1S2.1,92.5,1.8,92.8z"/>
	<path class="st0" d="M7.1,87.5l-1.6,1.6c-0.3,0.3-0.3,0.8,0,1c0.1,0.1,0.3,0.2,0.5,0.2c0.2,0,0.4-0.1,0.5-0.2L8,88.5
		c0.3-0.3,0.3-0.8,0-1C7.7,87.3,7.4,87.2,7.1,87.5z"/>
	<path class="st0" d="M28.9,108.8c-1.9,0-3.4,1.5-3.4,3.4s1.5,3.4,3.4,3.4c1.9,0,3.4-1.5,3.4-3.4C32.3,110.4,30.7,108.8,28.9,108.8z
		 M28.9,114.2c-1.1,0-2-0.9-2-2c0-1.1,0.9-2,2-2c1.1,0,2,0.9,2,2C30.9,113.3,29.9,114.2,28.9,114.2z"/>
	<path class="st0" d="M69.7,6.9c1.9,0,3.4-1.5,3.4-3.4S71.7,0,69.7,0c-1.9,0-3.4,1.5-3.4,3.4S67.8,6.9,69.7,6.9z M69.7,1.4
		c1.1,0,2,0.9,2,2s-0.9,2-2,2c-1.1,0-2-0.9-2-2C67.7,2.3,68.6,1.4,69.7,1.4z"/>
	<path class="st0" d="M106.8,110c0-0.4-0.3-0.7-0.7-0.7H93.3c-0.4,0-0.7,0.3-0.7,0.7s0.3,0.7,0.7,0.7h12.9
		C106.5,110.8,106.8,110.4,106.8,110z"/>
	<path class="st0" d="M114.4,109.3h-4.2c-0.4,0-0.7,0.3-0.7,0.7s0.3,0.7,0.7,0.7h4.2c0.4,0,0.7-0.3,0.7-0.7
		C115.2,109.6,114.8,109.3,114.4,109.3z"/>
	<path class="st0" d="M77.2,46.3L77.2,46.3c-0.1-0.1-0.1-0.2-0.2-0.2l0,0l-16.1-9.3c-0.2-0.1-0.5-0.1-0.7,0l-16.1,9.3l0,0
		c-0.1,0.1-0.2,0.1-0.2,0.2l0,0c-0.1,0.1-0.1,0.2-0.1,0.3l0,0v18.7c0,0.3,0.1,0.5,0.4,0.6l16.1,9.3c0.1,0.1,0.2,0.1,0.4,0.1
		c0.1,0,0.3,0,0.4-0.1l16.1-9.3c0.2-0.1,0.4-0.4,0.4-0.6V46.7l0,0C77.3,46.5,77.3,46.4,77.2,46.3z M60.5,38.2l14.8,8.5l-14.8,8.5
		l-14.8-8.5L60.5,38.2z M45.1,47.9l14.7,8.5v17L45,65L45.1,47.9L45.1,47.9z M61.2,73.3v-17l14.8-8.5v17L61.2,73.3z"/>
	<path class="st0" d="M60.5,27c-16,0-29.1,13-29.1,29.1s13,29,29.1,29s29-13,29-29S76.4,27,60.5,27z M60.5,83.5
		c-15.2,0-27.6-12.4-27.6-27.6s12.4-27.6,27.6-27.6s27.6,12.4,27.6,27.6S75.7,83.5,60.5,83.5z"/>
</g>
</svg>
