<?xml version="1.0" encoding="utf-8"?>
<!-- Generator: Adobe Illustrator 22.1.0, SVG Export Plug-In . SVG Version: 6.00 Build 0)  -->
<svg version="1.1" id="Layer_1" xmlns="http://www.w3.org/2000/svg" xmlns:xlink="http://www.w3.org/1999/xlink" x="0px" y="0px"
	 viewBox="0 0 44.5 44.9" style="enable-background:new 0 0 44.5 44.9;" xml:space="preserve">
<style type="text/css">
	.st0{fill:#0B9174;stroke:#0B9174;stroke-miterlimit:10;}
	.st1{fill:#EC3653;stroke:#EC3653;stroke-miterlimit:10;}
	.st2{fill:#1E4CA7;stroke:#1E4CA7;stroke-miterlimit:10;}
</style>
<path class="st0" d="M21.7,44.9l0-1.9c0,0,0-0.3-0.3-0.3l-3.9-2.2l-0.3-0.3l0-5.2c0.3,0,0.3,0,0.6-0.3c2.6-1.6,2.9-5.8,0.6-9.7
	c-2.3-3.9-6.2-5.8-8.7-4.5c-2.6,1.6-2.9,5.8-0.6,9.7c0.3,0.6,0.7,1.3,1,1.6l0,0.3l0,3.2c0,0.3-0.3,0.6-0.6,0.3l-4.9-2.9l-0.3-0.3
	L4.1,13.1c0,0,0-0.3-0.3-0.3l-1-0.6c-0.3,0-0.6,0-0.6,0.3c-1.3,2.9-2.2,6.5-2.2,10C0,34.8,9.8,44.4,21.7,44.9"/>
<path class="st1" d="M9.7,8.9H10l4.5,2.6c0,0.3,0,0.3,0,0.6c0,2.9,3.5,5.5,8.1,5.5s8.1-2.3,8.1-5.5c0-2.9-3.5-5.5-8.1-5.5
	c-0.6,0-1.3,0-1.9,0h-0.3L17.7,5c-0.3-0.3-0.3-0.6,0-0.6l4.8-2.6h0.3l16.8,9.7H40l1.3-0.6c0.3,0,0.3-0.3,0-0.6
	c-1.9-2.9-4.5-5.2-7.4-7.1c-10.3-6.1-23.6-2.9-30,6.8c0,0.3,0,0.6,0,0.6l1.3,0.6h0.3L9.7,8.9z"/>
<path class="st2" d="M40.6,17.9c0,0,0,0.3-0.3,0.3l-4.5,2.6l-0.3-0.3c-2.6-1.3-6.5,0.6-8.7,4.2c-2.3,3.9-1.9,8.1,0.6,9.7
	c2.6,1.6,6.5-0.3,8.7-4.2c0.3-0.6,0.6-1,0.6-1.6c0,0,0-0.3,0.3-0.3l2.9-1.6c0.3-0.3,0.6,0,0.6,0.3v5.5c0,0,0,0.3-0.3,0.3l-16.8,9.7
	l-0.3,0.3V44c0,0.3,0.3,0.3,0.3,0.3c3.2-0.3,6.8-1.3,9.7-2.9c10.3-6.1,14.2-19,9-29.7c0-0.3-0.3-0.3-0.6-0.3l-1.3,0.6L40,12.4
	L40.6,17.9z"/>
</svg>
