<?xml version="1.0" encoding="UTF-8" standalone="no"?>
<!-- Created with Inkscape (http://www.inkscape.org/) -->

<svg
   xmlns:dc="http://purl.org/dc/elements/1.1/"
   xmlns:cc="http://creativecommons.org/ns#"
   xmlns:rdf="http://www.w3.org/1999/02/22-rdf-syntax-ns#"
   xmlns:svg="http://www.w3.org/2000/svg"
   xmlns="http://www.w3.org/2000/svg"
   xmlns:sodipodi="http://sodipodi.sourceforge.net/DTD/sodipodi-0.dtd"
   xmlns:inkscape="http://www.inkscape.org/namespaces/inkscape"
   version="1.1"
   id="svg29"
   xml:space="preserve"
   width="169.96904"
   height="53.516266"
   viewBox="0 0 169.96904 53.516266"
   sodipodi:docname="fflogo.svg"
   inkscape:version="0.92.2 5c3e80d, 2017-08-06"><metadata
     id="metadata35"><rdf:RDF><cc:Work
         rdf:about=""><dc:format>image/svg+xml</dc:format><dc:type
           rdf:resource="http://purl.org/dc/dcmitype/StillImage" /><dc:title></dc:title></cc:Work></rdf:RDF></metadata><defs
     id="defs33"><clipPath
       clipPathUnits="userSpaceOnUse"
       id="clipPath47"><path
         d="M 0.06,0.06 H 194.99 V 240.238 H 0.06 Z"
         id="path45"
         inkscape:connector-curvature="0" /></clipPath><clipPath
       clipPathUnits="userSpaceOnUse"
       id="clipPath59"><path
         d="M 0,0 H 195 V 241 H 0 Z"
         id="path57"
         inkscape:connector-curvature="0" /></clipPath></defs><sodipodi:namedview
     pagecolor="#ffffff"
     bordercolor="#666666"
     borderopacity="1"
     objecttolerance="10"
     gridtolerance="10"
     guidetolerance="10"
     inkscape:pageopacity="0"
     inkscape:pageshadow="2"
     inkscape:window-width="1445"
     inkscape:window-height="854"
     id="namedview31"
     showgrid="false"
     inkscape:zoom="3.8271676"
     inkscape:cx="84.98452"
     inkscape:cy="26.758133"
     inkscape:window-x="0"
     inkscape:window-y="0"
     inkscape:window-maximized="0"
     inkscape:current-layer="g55" /><g
     id="g37"
     inkscape:groupmode="layer"
     inkscape:label="fflogo"
     transform="matrix(1.3333333,0,0,-1.3333333,-44.547893,276.66467)"><g
       id="g39" /><g
       id="g53"><g
         id="g55"
         clip-path="url(#clipPath59)"><path
           d="m 59.794,56.312 h 1.08 v 0.855 c 0,0.75 0.22,1.325 0.66,1.725 0.4,0.36 0.92,0.54 1.561,0.54 0.409,0 0.915,-0.06 1.514,-0.18 l -0.345,-1.365 c -0.28,0.1 -0.533,0.15 -0.757,0.15 -0.225,0 -0.423,-0.062 -0.593,-0.187 -0.17,-0.126 -0.255,-0.358 -0.255,-0.698 v -0.84 h 1.335 v -1.185 h -1.335 v -6.105 h -1.785 v 6.105 h -1.08 v 1.185"
           style="fill:#ffffff;fill-opacity:1;fill-rule:nonzero;stroke:none"
           id="path61"
           inkscape:connector-curvature="0" /><path
           d="m 70.174,51.872 c -0.59,0.16 -1.14,0.24 -1.65,0.24 -0.96,0 -1.44,-0.32 -1.44,-0.96 0,-0.27 0.11,-0.502 0.33,-0.697 0.22,-0.196 0.572,-0.293 1.057,-0.293 0.486,0 0.885,0.162 1.201,0.488 0.314,0.324 0.482,0.732 0.502,1.222 z m -2.01,1.41 c 0.58,0 1.25,-0.095 2.01,-0.285 v 0.72 c 0,0.51 -0.103,0.888 -0.308,1.133 -0.205,0.244 -0.54,0.367 -1.005,0.367 -0.465,0 -0.822,-0.092 -1.072,-0.277 -0.25,-0.185 -0.375,-0.448 -0.375,-0.788 h -1.935 c 0,0.83 0.292,1.43 0.877,1.8 0.585,0.37 1.403,0.555 2.453,0.555 1.5,0 2.47,-0.525 2.909,-1.575 0.151,-0.36 0.226,-0.785 0.226,-1.275 v -4.635 h -1.545 l -0.136,0.975 c -0.469,-0.79 -1.189,-1.185 -2.159,-1.185 -0.94,0 -1.671,0.23 -2.19,0.69 -0.48,0.44 -0.72,0.998 -0.72,1.673 0,0.675 0.265,1.194 0.795,1.56 0.53,0.365 1.255,0.547 2.175,0.547"
           style="fill:#ffffff;fill-opacity:1;fill-rule:nonzero;stroke:none"
           id="path63"
           inkscape:connector-curvature="0" /><path
           d="m 75.979,53.117 v -0.96 c 0.02,-0.51 0.205,-0.93 0.555,-1.26 0.33,-0.32 0.732,-0.48 1.208,-0.48 0.475,0 0.882,0.208 1.223,0.623 0.34,0.414 0.509,0.962 0.509,1.642 0,0.68 -0.168,1.223 -0.503,1.628 -0.334,0.405 -0.752,0.607 -1.251,0.607 -0.501,0 -0.915,-0.165 -1.246,-0.495 -0.33,-0.33 -0.495,-0.765 -0.495,-1.305 z m 4.358,2.34 c 0.615,-0.7 0.923,-1.62 0.923,-2.76 0,-1.14 -0.326,-2.08 -0.976,-2.82 -0.63,-0.71 -1.415,-1.065 -2.354,-1.065 -0.451,0 -0.863,0.12 -1.238,0.36 -0.375,0.24 -0.673,0.61 -0.892,1.11 l -0.436,-1.26 h -1.155 v 10.29 h 1.77 v -3.915 c 0.46,0.74 1.148,1.11 2.063,1.11 0.915,0 1.679,-0.35 2.295,-1.05"
           style="fill:#ffffff;fill-opacity:1;fill-rule:nonzero;stroke:none"
           id="path65"
           inkscape:connector-curvature="0" /><path
           d="m 86.704,58.232 c -0.33,0.13 -0.59,0.195 -0.78,0.195 -0.35,0 -0.625,-0.085 -0.826,-0.255 -0.2,-0.17 -0.299,-0.47 -0.299,-0.9 v -1.08 h 1.485 v -0.81 h -1.485 v -6.36 h -1.17 v 6.36 h -1.185 v 0.81 h 1.185 v 1.095 c 0,0.71 0.195,1.233 0.585,1.568 0.389,0.335 0.839,0.502 1.35,0.502 0.51,0 0.96,-0.065 1.35,-0.195 l -0.21,-0.93"
           style="fill:#ffffff;fill-opacity:1;fill-rule:nonzero;stroke:none"
           id="path67"
           inkscape:connector-curvature="0" /><path
           d="m 92.778,52.614 c 0,0.855 -0.181,1.525 -0.54,2.011 -0.36,0.485 -0.888,0.727 -1.583,0.727 -0.695,0 -1.227,-0.242 -1.598,-0.727 -0.369,-0.486 -0.554,-1.156 -0.554,-2.011 0,-0.855 0.175,-1.524 0.525,-2.009 0.35,-0.486 0.872,-0.728 1.568,-0.728 0.694,0 1.232,0.242 1.612,0.728 0.38,0.485 0.57,1.154 0.57,2.009 z m -2.145,3.758 c 1,0 1.807,-0.325 2.422,-0.975 0.616,-0.65 0.923,-1.58 0.923,-2.79 0,-1.2 -0.307,-2.125 -0.923,-2.775 -0.615,-0.65 -1.422,-0.975 -2.422,-0.975 -1,0 -1.808,0.325 -2.422,0.975 -0.615,0.65 -0.923,1.575 -0.923,2.775 0,1.21 0.308,2.14 0.923,2.79 0.614,0.65 1.422,0.975 2.422,0.975"
           style="fill:#ffffff;fill-opacity:1;fill-rule:nonzero;stroke:none"
           id="path69"
           inkscape:connector-curvature="0" /><path
           d="m 100.802,50.447 c -0.489,-1.04 -1.285,-1.56 -2.384,-1.56 -0.81,0 -1.462,0.225 -1.957,0.675 -0.495,0.45 -0.743,1.145 -0.743,2.085 v 4.56 h 1.185 v -4.47 c 0,-1.21 0.56,-1.815 1.68,-1.815 0.65,0 1.178,0.25 1.583,0.75 0.404,0.5 0.617,1.14 0.636,1.92 v 3.615 h 1.186 v -7.185 h -1.186 v 1.425"
           style="fill:#ffffff;fill-opacity:1;fill-rule:nonzero;stroke:none"
           id="path71"
           inkscape:connector-curvature="0" /><path
           d="m 105.843,54.812 c 0.469,1.04 1.274,1.56 2.415,1.56 0.849,0 1.511,-0.28 1.987,-0.84 0.474,-0.56 0.712,-1.325 0.712,-2.295 v -4.215 h -1.17 v 4.215 c 0,0.69 -0.162,1.21 -0.487,1.56 -0.326,0.35 -0.788,0.525 -1.388,0.525 -0.6,0 -1.085,-0.245 -1.455,-0.735 -0.369,-0.49 -0.565,-1.17 -0.585,-2.04 v -3.525 h -1.185 v 7.17 h 1.02 l 0.136,-1.38"
           style="fill:#ffffff;fill-opacity:1;fill-rule:nonzero;stroke:none"
           id="path73"
           inkscape:connector-curvature="0" /><path
           d="m 116.088,55.322 c -0.58,0 -1.068,-0.245 -1.463,-0.735 -0.395,-0.49 -0.592,-1.145 -0.592,-1.965 0,-0.82 0.199,-1.477 0.6,-1.972 0.4,-0.495 0.879,-0.743 1.44,-0.743 0.56,0 1.037,0.187 1.433,0.562 0.394,0.375 0.601,0.878 0.622,1.508 v 1.17 c 0,0.67 -0.196,1.2 -0.585,1.59 -0.39,0.39 -0.875,0.585 -1.455,0.585 z m 2.04,-0.195 v 4.11 h 1.17 V 49.022 h -0.96 l -0.151,1.2 c -0.229,-0.45 -0.534,-0.79 -0.914,-1.02 -0.381,-0.23 -0.796,-0.345 -1.245,-0.345 -0.91,0 -1.673,0.35 -2.288,1.05 -0.615,0.7 -0.922,1.613 -0.922,2.738 0,1.125 0.302,2.027 0.907,2.707 0.605,0.68 1.37,1.02 2.295,1.02 0.925,0 1.628,-0.415 2.108,-1.245"
           style="fill:#ffffff;fill-opacity:1;fill-rule:nonzero;stroke:none"
           id="path75"
           inkscape:connector-curvature="0" /><path
           d="m 126.468,52.007 c -0.71,0.2 -1.331,0.3 -1.861,0.3 -0.53,0 -0.96,-0.095 -1.29,-0.285 -0.33,-0.19 -0.495,-0.49 -0.495,-0.9 0,-0.9 0.511,-1.35 1.53,-1.35 0.58,0 1.077,0.208 1.492,0.623 0.416,0.414 0.624,0.952 0.624,1.612 z m 0,1.665 c 0,0.65 -0.135,1.115 -0.406,1.395 -0.269,0.28 -0.662,0.42 -1.177,0.42 -0.515,0 -0.93,-0.103 -1.245,-0.307 -0.315,-0.205 -0.472,-0.528 -0.472,-0.968 h -1.306 c 0,1.1 0.59,1.78 1.771,2.04 0.36,0.08 0.75,0.12 1.169,0.12 0.89,0 1.585,-0.225 2.085,-0.675 0.5,-0.45 0.75,-1.135 0.75,-2.055 v -4.62 h -1.019 l -0.12,1.2 c -0.441,-0.91 -1.236,-1.365 -2.386,-1.365 -0.769,0 -1.387,0.215 -1.852,0.645 -0.465,0.43 -0.698,0.965 -0.698,1.605 0,0.64 0.258,1.14 0.773,1.5 0.515,0.36 1.157,0.54 1.927,0.54 0.77,0 1.505,-0.13 2.206,-0.39 v 0.915"
           style="fill:#ffffff;fill-opacity:1;fill-rule:nonzero;stroke:none"
           id="path77"
           inkscape:connector-curvature="0" /><path
           d="m 133.863,49.232 c -0.859,-0.4 -1.644,-0.485 -2.354,-0.255 -0.51,0.16 -0.871,0.495 -1.081,1.005 -0.11,0.25 -0.165,0.55 -0.165,0.9 v 4.41 h -1.155 v 0.9 h 1.155 v 1.995 h 1.17 v -1.995 h 2.25 v -0.9 h -2.25 v -4.395 c 0,-0.73 0.34,-1.095 1.021,-1.095 0.369,0 0.784,0.09 1.244,0.27 l 0.165,-0.84"
           style="fill:#ffffff;fill-opacity:1;fill-rule:nonzero;stroke:none"
           id="path79"
           inkscape:connector-curvature="0" /><path
           d="m 135.512,56.207 h 1.186 v -7.185 h -1.186 z m 0.585,1.68 c -0.24,0 -0.427,0.068 -0.562,0.203 -0.135,0.135 -0.202,0.315 -0.202,0.54 0,0.225 0.067,0.405 0.202,0.54 0.135,0.135 0.322,0.202 0.562,0.202 0.241,0 0.433,-0.067 0.579,-0.202 0.144,-0.135 0.216,-0.315 0.216,-0.54 0,-0.225 -0.072,-0.405 -0.216,-0.54 -0.146,-0.135 -0.338,-0.203 -0.579,-0.203"
           style="fill:#ffffff;fill-opacity:1;fill-rule:nonzero;stroke:none"
           id="path81"
           inkscape:connector-curvature="0" /><path
           d="m 144.334,52.614 c 0,0.855 -0.181,1.525 -0.54,2.011 -0.361,0.485 -0.888,0.727 -1.583,0.727 -0.696,0 -1.228,-0.242 -1.598,-0.727 -0.369,-0.486 -0.555,-1.156 -0.555,-2.011 0,-0.855 0.175,-1.524 0.526,-2.009 0.349,-0.486 0.872,-0.728 1.567,-0.728 0.694,0 1.233,0.242 1.612,0.728 0.38,0.485 0.571,1.154 0.571,2.009 z m -2.146,3.758 c 1,0 1.808,-0.325 2.423,-0.975 0.615,-0.65 0.923,-1.58 0.923,-2.79 0,-1.2 -0.308,-2.125 -0.923,-2.775 -0.615,-0.65 -1.423,-0.975 -2.423,-0.975 -1,0 -1.807,0.325 -2.422,0.975 -0.615,0.65 -0.922,1.575 -0.922,2.775 0,1.21 0.307,2.14 0.922,2.79 0.615,0.65 1.422,0.975 2.422,0.975"
           style="fill:#ffffff;fill-opacity:1;fill-rule:nonzero;stroke:none"
           id="path83"
           inkscape:connector-curvature="0" /><path
           d="m 148.623,54.812 c 0.47,1.04 1.274,1.56 2.415,1.56 0.849,0 1.512,-0.28 1.987,-0.84 0.475,-0.56 0.712,-1.325 0.712,-2.295 v -4.215 h -1.17 v 4.215 c 0,0.69 -0.162,1.21 -0.487,1.56 -0.325,0.35 -0.787,0.525 -1.388,0.525 -0.599,0 -1.085,-0.245 -1.455,-0.735 -0.369,-0.49 -0.564,-1.17 -0.585,-2.04 v -3.525 h -1.184 v 7.17 h 1.019 l 0.136,-1.38"
           style="fill:#ffffff;fill-opacity:1;fill-rule:nonzero;stroke:none"
           id="path85"
           inkscape:connector-curvature="0" /><path
           d="m 49.481,47.122 v 0.6 c 0,0.049 -0.025,0.094 -0.067,0.118 l -1.232,0.718 c -0.042,0.025 -0.068,0.07 -0.068,0.118 v 1.608 c 0.052,0.021 0.104,0.044 0.153,0.073 0.81,0.459 0.913,1.803 0.231,2.999 -0.681,1.198 -1.889,1.796 -2.697,1.335 -0.81,-0.459 -0.913,-1.803 -0.23,-3 0.097,-0.171 0.205,-0.33 0.32,-0.474 0.019,-0.024 0.029,-0.053 0.029,-0.083 v -1.022 c 0,-0.105 -0.114,-0.171 -0.205,-0.118 l -1.488,0.866 c -0.042,0.024 -0.067,0.069 -0.067,0.117 v 5.959 c 0,0.049 -0.026,0.094 -0.068,0.118 l -0.388,0.224 c -0.068,0.039 -0.157,0.013 -0.192,-0.058 -0.463,-0.936 -0.722,-1.985 -0.722,-3.1 0,-3.764 2.967,-6.835 6.691,-6.998"
           style="fill:#ffffff;fill-opacity:1;fill-rule:nonzero;stroke:none"
           id="path87"
           inkscape:connector-curvature="0" /><path
           d="m 45.781,58.294 c 0.042,0.024 0.094,0.024 0.136,0 l 1.392,-0.805 c -0.007,-0.055 -0.011,-0.112 -0.011,-0.169 -0.006,-0.931 1.104,-1.692 2.481,-1.701 1.378,-0.008 2.499,0.739 2.505,1.67 0.005,0.93 -1.107,1.69 -2.483,1.7 -0.197,0.001 -0.388,-0.013 -0.572,-0.042 -0.03,-0.004 -0.059,10e-4 -0.086,0.016 l -0.884,0.512 c -0.092,0.053 -0.091,0.184 0,0.236 l 1.493,0.857 c 0.042,0.024 0.094,0.024 0.136,0 l 5.191,-2.998 c 0.042,-0.025 0.094,-0.025 0.136,0 l 0.374,0.215 c 0.067,0.039 0.09,0.129 0.047,0.195 -0.581,0.881 -1.366,1.638 -2.342,2.201 -3.228,1.864 -7.318,0.87 -9.343,-2.197 -0.043,-0.066 -0.021,-0.156 0.047,-0.195 l 0.382,-0.22 c 0.042,-0.025 0.093,-0.025 0.135,-0.001 l 1.266,0.726"
           style="fill:#ffffff;fill-opacity:1;fill-rule:nonzero;stroke:none"
           id="path89"
           inkscape:connector-curvature="0" /><path
           d="m 55.419,55.505 c 0,-0.049 -0.026,-0.094 -0.068,-0.118 l -1.392,-0.805 c -0.044,0.036 -0.09,0.069 -0.14,0.097 -0.803,0.47 -2.019,-0.111 -2.714,-1.3 -0.695,-1.189 -0.609,-2.533 0.194,-3.003 0.801,-0.471 2.017,0.112 2.713,1.301 0.099,0.168 0.183,0.341 0.25,0.514 0.01,0.028 0.03,0.051 0.056,0.067 l 0.887,0.51 c 0.092,0.053 0.205,-0.013 0.205,-0.118 l -0.007,-1.721 c 0,-0.048 -0.026,-0.093 -0.068,-0.118 L 50.179,47.833 C 50.137,47.809 50.11,47.764 50.11,47.715 v -0.448 c 0,-0.078 0.067,-0.143 0.146,-0.137 1.041,0.067 2.078,0.367 3.042,0.923 3.218,1.86 4.405,5.88 2.779,9.165 -0.035,0.07 -0.124,0.097 -0.192,0.057 L 55.493,57.05 c -0.042,-0.025 -0.068,-0.07 -0.068,-0.118 l -0.006,-1.427"
           style="fill:#ffffff;fill-opacity:1;fill-rule:nonzero;stroke:none"
           id="path91"
           inkscape:connector-curvature="0" /><g
           id="g208"
           transform="translate(5.2911194,-37.233803)"><path
             d="m 55.308625,227.26856 h 1.118 v 0.885 c 0,0.777 0.228,1.372 0.684,1.786 0.414,0.372 0.952,0.559 1.614,0.559 0.425,0 0.949,-0.063 1.57,-0.187 l -0.358,-1.413 c -0.29,0.104 -0.552,0.156 -0.784,0.156 -0.233,0 -0.437,-0.065 -0.613,-0.195 -0.177,-0.129 -0.264,-0.37 -0.264,-0.721 v -0.87 h 1.382 v -1.227 h -1.382 v -6.32 h -1.849 v 6.32 h -1.118 v 1.227"
             style="fill:#2c2935;fill-opacity:1;fill-rule:nonzero;stroke:none"
             id="path160"
             inkscape:connector-curvature="0" /><path
             d="m 65.713625,222.67156 c -0.611,0.165 -1.18,0.249 -1.708,0.249 -0.994,0 -1.491,-0.332 -1.491,-0.994 0,-0.28 0.114,-0.521 0.341,-0.722 0.229,-0.202 0.593,-0.304 1.096,-0.304 0.502,0 0.916,0.169 1.242,0.505 0.326,0.337 0.499,0.759 0.52,1.266 z m -2.08,1.46 c 0.599,0 1.293,-0.099 2.08,-0.295 v 0.745 c 0,0.528 -0.106,0.919 -0.319,1.173 -0.212,0.253 -0.558,0.38 -1.04,0.38 -0.481,0 -0.851,-0.095 -1.11,-0.287 -0.259,-0.192 -0.389,-0.464 -0.389,-0.816 h -2.003 c 0,0.86 0.303,1.481 0.909,1.864 0.606,0.383 1.452,0.575 2.539,0.575 1.553,0 2.557,-0.544 3.012,-1.631 0.156,-0.372 0.234,-0.813 0.234,-1.32 v -4.798 h -1.6 l -0.14,1.009 c -0.486,-0.818 -1.232,-1.227 -2.236,-1.227 -0.973,0 -1.729,0.238 -2.268,0.714 -0.496,0.456 -0.745,1.033 -0.745,1.732 0,0.699 0.275,1.237 0.824,1.615 0.548,0.378 1.298,0.567 2.252,0.567"
             style="fill:#2c2935;fill-opacity:1;fill-rule:nonzero;stroke:none"
             id="path162"
             inkscape:connector-curvature="0" /><path
             d="m 71.380625,223.96056 v -0.994 c 0.022,-0.528 0.213,-0.963 0.576,-1.304 0.341,-0.332 0.759,-0.498 1.25,-0.498 0.491,0 0.914,0.215 1.265,0.645 0.353,0.43 0.529,0.997 0.529,1.701 0,0.703 -0.174,1.265 -0.521,1.685 -0.346,0.419 -0.779,0.629 -1.297,0.629 -0.517,0 -0.947,-0.171 -1.289,-0.513 -0.341,-0.342 -0.513,-0.792 -0.513,-1.351 z m 4.512,2.423 c 0.637,-0.725 0.955,-1.677 0.955,-2.858 0,-1.18 -0.336,-2.153 -1.009,-2.92 -0.652,-0.734 -1.465,-1.102 -2.438,-1.102 -0.466,0 -0.893,0.124 -1.281,0.373 -0.389,0.248 -0.697,0.631 -0.924,1.149 l -0.451,-1.304 h -1.196 v 10.652 h 1.832 v -4.053 c 0.477,0.766 1.189,1.15 2.136,1.15 0.947,0 1.74,-0.363 2.376,-1.087"
             style="fill:#2c2935;fill-opacity:1;fill-rule:nonzero;stroke:none"
             id="path164"
             inkscape:connector-curvature="0" /><path
             d="m 82.143625,229.25656 c -0.342,0.134 -0.61,0.201 -0.807,0.201 -0.363,0 -0.647,-0.088 -0.854,-0.264 -0.208,-0.175 -0.31,-0.486 -0.31,-0.931 v -1.119 h 1.537 v -0.838 h -1.537 v -6.584 h -1.212 v 6.584 h -1.227 v 0.838 h 1.227 v 1.134 c 0,0.735 0.202,1.276 0.605,1.623 0.404,0.347 0.87,0.52 1.398,0.52 0.528,0 0.994,-0.067 1.398,-0.201 l -0.218,-0.963"
             style="fill:#2c2935;fill-opacity:1;fill-rule:nonzero;stroke:none"
             id="path166"
             inkscape:connector-curvature="0" /><path
             d="m 88.091625,223.44056 c 0,0.885 -0.186,1.578 -0.559,2.081 -0.372,0.502 -0.919,0.753 -1.638,0.753 -0.719,0 -1.271,-0.251 -1.654,-0.753 -0.383,-0.503 -0.574,-1.196 -0.574,-2.081 0,-0.885 0.18,-1.579 0.543,-2.081 0.362,-0.503 0.903,-0.754 1.623,-0.754 0.719,0 1.275,0.251 1.67,0.754 0.392,0.502 0.589,1.196 0.589,2.081 z m -2.22,3.89 c 1.035,0 1.871,-0.336 2.508,-1.01 0.636,-0.673 0.955,-1.636 0.955,-2.888 0,-1.243 -0.319,-2.2 -0.955,-2.873 -0.637,-0.673 -1.473,-1.009 -2.508,-1.009 -1.035,0 -1.871,0.336 -2.508,1.009 -0.637,0.673 -0.955,1.63 -0.955,2.873 0,1.252 0.318,2.215 0.955,2.888 0.637,0.674 1.473,1.01 2.508,1.01"
             style="fill:#2c2935;fill-opacity:1;fill-rule:nonzero;stroke:none"
             id="path168"
             inkscape:connector-curvature="0" /><path
             d="m 96.057625,221.19656 c -0.507,-1.077 -1.33,-1.615 -2.469,-1.615 -0.838,0 -1.514,0.233 -2.026,0.698 -0.512,0.467 -0.769,1.186 -0.769,2.159 v 4.721 h 1.226 v -4.628 c 0,-1.252 0.58,-1.879 1.74,-1.879 0.673,0 1.219,0.259 1.638,0.777 0.42,0.517 0.64,1.18 0.66,1.987 v 3.743 h 1.228 v -7.438 h -1.228 v 1.475"
             style="fill:#2c2935;fill-opacity:1;fill-rule:nonzero;stroke:none"
             id="path170"
             inkscape:connector-curvature="0" /><path
             d="m 100.93362,225.71556 c 0.487,1.076 1.321,1.615 2.5,1.615 0.881,0 1.567,-0.29 2.059,-0.87 0.491,-0.58 0.737,-1.372 0.737,-2.376 v -4.363 h -1.211 v 4.363 c 0,0.715 -0.169,1.253 -0.505,1.615 -0.337,0.362 -0.815,0.544 -1.436,0.544 -0.621,0 -1.124,-0.254 -1.507,-0.761 -0.383,-0.507 -0.585,-1.212 -0.605,-2.112 v -3.649 h -1.226995 v 7.422 h 1.055995 l 0.139,-1.428"
             style="fill:#2c2935;fill-opacity:1;fill-rule:nonzero;stroke:none"
             id="path172"
             inkscape:connector-curvature="0" /><path
             d="m 111.19962,226.24356 c -0.601,0 -1.106,-0.254 -1.515,-0.761 -0.409,-0.507 -0.613,-1.186 -0.613,-2.035 0,-0.849 0.207,-1.529 0.621,-2.042 0.414,-0.512 0.911,-0.768 1.491,-0.768 0.579,0 1.074,0.194 1.483,0.582 0.409,0.388 0.624,0.908 0.644,1.561 v 1.211 c 0,0.693 -0.201,1.242 -0.605,1.646 -0.404,0.404 -0.906,0.606 -1.506,0.606 z m 2.111,-0.202 v 4.255 h 1.212 v -10.575 h -0.994 l -0.155,1.242 c -0.239,-0.466 -0.554,-0.819 -0.948,-1.056 -0.393,-0.238 -0.823,-0.357 -1.289,-0.357 -0.942,0 -1.731,0.362 -2.368,1.087 -0.636,0.724 -0.955,1.669 -0.955,2.834 0,1.165 0.314,2.099 0.94,2.803 0.626,0.704 1.418,1.056 2.376,1.056 0.957,0 1.685,-0.43 2.181,-1.289"
             style="fill:#2c2935;fill-opacity:1;fill-rule:nonzero;stroke:none"
             id="path174"
             inkscape:connector-curvature="0" /><path
             d="m 121.60362,222.81056 c -0.734,0.208 -1.377,0.312 -1.926,0.312 -0.548,0 -0.993,-0.099 -1.335,-0.296 -0.341,-0.197 -0.512,-0.507 -0.512,-0.932 0,-0.931 0.528,-1.397 1.584,-1.397 0.6,0 1.115,0.215 1.545,0.644 0.429,0.43 0.644,0.986 0.644,1.669 z m 0,1.725 c 0,0.672 -0.139,1.154 -0.419,1.444 -0.279,0.289 -0.685,0.435 -1.219,0.435 -0.534,0 -0.962,-0.106 -1.289,-0.318 -0.326,-0.213 -0.489,-0.547 -0.489,-1.002 h -1.351 c 0,1.138 0.611,1.842 1.833,2.111 0.372,0.084 0.776,0.125 1.211,0.125 0.921,0 1.641,-0.233 2.159,-0.699 0.517,-0.466 0.776,-1.175 0.776,-2.127 v -4.783 h -1.056 l -0.125,1.242 c -0.455,-0.943 -1.278,-1.413 -2.468,-1.413 -0.798,0 -1.437,0.222 -1.918,0.667 -0.482,0.445 -0.723,1 -0.723,1.662 0,0.662 0.267,1.18 0.8,1.553 0.533,0.373 1.198,0.559 1.996,0.559 0.797,0 1.558,-0.135 2.282,-0.404 v 0.948"
             style="fill:#2c2935;fill-opacity:1;fill-rule:nonzero;stroke:none"
             id="path176"
             inkscape:connector-curvature="0" /><path
             d="m 128.91862,219.93856 c -0.891,-0.414 -1.703,-0.503 -2.438,-0.264 -0.528,0.165 -0.901,0.512 -1.119,1.04 -0.113,0.259 -0.17,0.57 -0.17,0.932 v 4.566 h -1.196 v 0.931 h 1.196 v 2.066 h 1.211 v -2.066 h 2.329 v -0.931 h -2.329 v -4.55 c 0,-0.756 0.352,-1.134 1.056,-1.134 0.383,0 0.813,0.093 1.289,0.279 l 0.171,-0.869"
             style="fill:#2c2935;fill-opacity:1;fill-rule:nonzero;stroke:none"
             id="path178"
             inkscape:connector-curvature="0" /><path
             d="m 130.28562,227.15956 h 1.226 v -7.439 h -1.226 z m 0.605,1.739 c -0.249,0 -0.442,0.071 -0.582,0.21 -0.14,0.14 -0.21,0.326 -0.21,0.559 0,0.233 0.07,0.419 0.21,0.56 0.14,0.139 0.333,0.208 0.582,0.208 0.248,0 0.448,-0.069 0.598,-0.208 0.15,-0.141 0.226,-0.327 0.226,-0.56 0,-0.233 -0.076,-0.419 -0.226,-0.559 -0.15,-0.139 -0.35,-0.21 -0.598,-0.21"
             style="fill:#2c2935;fill-opacity:1;fill-rule:nonzero;stroke:none"
             id="path180"
             inkscape:connector-curvature="0" /><path
             d="m 139.07462,223.44056 c 0,0.885 -0.187,1.578 -0.559,2.081 -0.373,0.502 -0.919,0.753 -1.638,0.753 -0.72,0 -1.272,-0.251 -1.655,-0.753 -0.382,-0.503 -0.574,-1.196 -0.574,-2.081 0,-0.885 0.181,-1.579 0.543,-2.081 0.363,-0.503 0.903,-0.754 1.623,-0.754 0.72,0 1.277,0.251 1.67,0.754 0.394,0.502 0.59,1.196 0.59,2.081 z m -2.221,3.89 c 1.035,0 1.871,-0.336 2.508,-1.01 0.637,-0.673 0.955,-1.636 0.955,-2.888 0,-1.243 -0.318,-2.2 -0.955,-2.873 -0.637,-0.673 -1.473,-1.009 -2.508,-1.009 -1.035,0 -1.871,0.336 -2.508,1.009 -0.636,0.673 -0.955,1.63 -0.955,2.873 0,1.252 0.319,2.215 0.955,2.888 0.637,0.674 1.473,1.01 2.508,1.01"
             style="fill:#2c2935;fill-opacity:1;fill-rule:nonzero;stroke:none"
             id="path182"
             inkscape:connector-curvature="0" /><path
             d="m 143.17462,225.71556 c 0.486,1.076 1.32,1.615 2.5,1.615 0.88,0 1.566,-0.29 2.058,-0.87 0.491,-0.58 0.737,-1.372 0.737,-2.376 v -4.363 h -1.211 v 4.363 c 0,0.715 -0.168,1.253 -0.504,1.615 -0.337,0.362 -0.816,0.544 -1.437,0.544 -0.621,0 -1.124,-0.254 -1.507,-0.761 -0.383,-0.507 -0.585,-1.212 -0.605,-2.112 v -3.649 h -1.227 v 7.422 h 1.056 l 0.14,-1.428"
             style="fill:#2c2935;fill-opacity:1;fill-rule:nonzero;stroke:none"
             id="path184"
             inkscape:connector-curvature="0" /><path
             d="m 44.772625,218.00056 v 0.601 c 0,0.048 -0.025,0.093 -0.067,0.117 l -1.233,0.718 c -0.042,0.025 -0.067,0.07 -0.067,0.118 v 1.609 c 0.052,0.02 0.104,0.043 0.152,0.072 0.81,0.459 0.913,1.804 0.231,2.999 -0.68,1.198 -1.889,1.796 -2.696,1.335 -0.81,-0.459 -0.914,-1.803 -0.231,-3 0.098,-0.171 0.205,-0.33 0.32,-0.474 0.02,-0.024 0.03,-0.053 0.03,-0.083 v -1.022 c 0,-0.105 -0.115,-0.171 -0.205,-0.118 l -1.488,0.866 c -0.042,0.024 -0.068,0.069 -0.068,0.117 v 5.959 c 0,0.049 -0.025,0.094 -0.068,0.118 l -0.387,0.224 c -0.069,0.039 -0.157,0.013 -0.193,-0.058 -0.462,-0.935 -0.721,-1.985 -0.721,-3.1 0,-3.764 2.966,-6.835 6.691,-6.998"
             style="fill:#ee2047;fill-opacity:1;fill-rule:nonzero;stroke:none"
             id="path186"
             inkscape:connector-curvature="0" /><path
             d="m 41.072625,229.17256 c 0.042,0.024 0.094,0.024 0.136,0 l 1.391,-0.804 c -0.007,-0.056 -0.011,-0.113 -0.011,-0.17 -0.005,-0.93 1.105,-1.692 2.482,-1.701 1.377,-0.008 2.499,0.739 2.504,1.67 0.006,0.93 -1.106,1.69 -2.483,1.7 -0.196,0.002 -0.387,-0.013 -0.571,-0.042 -0.03,-0.004 -0.06,0.001 -0.087,0.016 l -0.884,0.512 c -0.091,0.053 -0.091,0.184 10e-4,0.236 l 1.492,0.857 c 0.043,0.024 0.094,0.024 0.136,0 l 5.191,-2.998 c 0.043,-0.025 0.095,-0.025 0.137,0 l 0.373,0.215 c 0.068,0.04 0.09,0.129 0.047,0.195 -0.581,0.881 -1.366,1.639 -2.341,2.201 -3.228,1.864 -7.318,0.87 -9.343,-2.197 -0.044,-0.066 -0.022,-0.156 0.047,-0.195 l 0.381,-0.22 c 0.043,-0.025 0.094,-0.025 0.136,-0.001 l 1.266,0.726"
             style="fill:#3851ab;fill-opacity:1;fill-rule:nonzero;stroke:none"
             id="path188"
             inkscape:connector-curvature="0" /><path
             d="m 50.710625,226.38356 c 0,-0.049 -0.027,-0.094 -0.069,-0.118 l -1.391,-0.805 c -0.044,0.037 -0.09,0.069 -0.14,0.098 -0.803,0.469 -2.019,-0.112 -2.715,-1.301 -0.695,-1.189 -0.609,-2.534 0.194,-3.003 0.802,-0.47 2.017,0.112 2.713,1.301 0.1,0.168 0.183,0.341 0.249,0.514 0.012,0.028 0.032,0.052 0.058,0.067 l 0.887,0.51 c 0.091,0.053 0.205,-0.013 0.204,-0.118 l -0.006,-1.721 c 0,-0.048 -0.026,-0.093 -0.068,-0.118 l -5.158,-2.978 c -0.042,-0.024 -0.067,-0.069 -0.067,-0.118 v -0.448 c 0,-0.078 0.067,-0.143 0.146,-0.137 1.04,0.067 2.077,0.367 3.041,0.923 3.219,1.86 4.405,5.88 2.779,9.165 -0.035,0.07 -0.124,0.097 -0.191,0.057 l -0.392,-0.225 c -0.042,-0.025 -0.068,-0.07 -0.068,-0.118 l -0.006,-1.427"
             style="fill:#319f68;fill-opacity:1;fill-rule:nonzero;stroke:none"
             id="path190"
             inkscape:connector-curvature="0" /></g></g></g></g></svg>