<svg xmlns="http://www.w3.org/2000/svg" width="320px" height="312px" viewBox="0 0 475 463"><g fill="#fff"><path d="M220.32 9.22c13.04-.31 26.24-1.12 39.17.97l7.83 32.84c13.63 2.34 26.97 6.07 40.02 10.62 8.38-7.83 16.14-16.33 24.74-23.91 12.21 4.86 23.75 11.55 34.52 19.09l-9.35 32.36c10.9 8.65 21.05 18.23 30.15 28.75 10.53-3.56 20.8-7.94 31.23-11.82 7.99 10.31 14.97 21.38 21.21 32.83l-23.41 24.1c4.84 12.05 9.9 24.07 12.53 36.85l33.72 4.54a244.7 244.7 0 0 1 3.65 38.39l-31.98 10.59c-1.34 13.04-2.61 26.18-5.95 38.89 9.07 7.16 19.03 13.12 27.93 20.5-3.72 12.84-9.13 25.12-15.32 36.95l-32.98-7.13c-5.02 8.39-10.33 16.62-16.25 24.42-11.01-8.19-21.61-16.91-31.99-25.88 24.13-30.9 36.56-70.98 32.75-110.1-2.66-31.35-15.45-61.7-35.74-85.72-22.54-26.85-54.36-45.88-88.84-52.46-20.1-3.8-40.98-4.13-61.03.21-30.51 6.14-58.86 22.04-80.45 44.4-24.63 25.25-40.24 59.19-43.05 94.38-3.84 39.69 10.67 79.55 34.62 110.84-1.2 1.25-2.45 2.46-3.81 3.54-9.39 7.28-18.38 15.06-27.72 22.41-6.8-7.59-12.25-16.23-17.72-24.78-11.34 1.05-22.68 4.12-34.09 5.56-1.32-.24-1.58-1.89-2.29-2.82-5.49-11.08-9.91-22.66-13.57-34.46 9.37-6.21 19.24-11.63 28.61-17.83 1.51-.79.27-2.64.2-3.87-3.07-12.46-5.07-25.22-5.2-38.08-11.05-3.53-22.24-6.64-33.39-9.84-.39-13.17.81-26.43 3.92-39.24a1401.3 1401.3 0 0 0 34.73-4.37c3.23-12.98 7.4-25.81 13.26-37.85-7.76-8.65-16.32-16.53-24.2-25.07 6.42-12.21 14.06-23.82 23.17-34.21l30.58 14.4c9.55-10.2 19.9-19.65 30.86-28.32-3.18-10.69-6.95-21.2-10.35-31.81.57-1.43 2.26-1.94 3.4-2.84 10.21-6.24 20.5-12.52 31.54-17.22 1.41-.99 2.39.91 3.36 1.62l20.88 23.38c13.12-4.87 26.81-7.95 40.62-10.05 3.36-11.19 6.17-22.54 9.48-33.75m23.46 46.11l-.57 14.63 3.3-.08c.09-4.9.47-9.78.43-14.68l-3.16.13m-20.29.49l.57 12.3c-.37 2.1 1.6 2.38 3.21 2.27-.16-3.41-.29-6.81-.65-10.2 2.03 2.82 3.73 5.86 5.7 8.72.75 1.24 2.49.65 3.67 1 .05-4.88-.41-9.74-.55-14.62l-2.99.01c.07 3.07.26 6.14.35 9.21-2.15-2.87-4.04-5.92-5.91-8.98l-3.4.29m26.53-.44c-.38 4.81-1.14 9.6-1.23 14.43l2.82.68.95-9.71c1.83 3.17 3.05 6.65 4.77 9.88a10.2 10.2 0 0 0 3.27.3c.36-4.83.9-9.65 1.26-14.49l-3.03-.06c-.23 3.2-.53 6.4-1.12 9.56-1.35-3.42-2.52-6.96-4.54-10.05l-3.15-.54m-37.59 1.81l-3.06 15.06 3.13-.54c.28-1.05.67-2.05 1.18-3 1.61-.33 3.25-.43 4.89-.59l1.24 2.7 3.5-.47c-2.52-4.54-4.75-9.23-7.07-13.87l-3.81.71m-9.9 1.57c.81 4.71 1.86 9.37 2.57 14.1l3.34-.16-2.74-14.49-3.17.55m61.46 3.19c.16 3.71 4.87 4.14 7.31 5.99.72 3.79-5.36 2.12-5.7-.71l-3.06-.5c-.21 5.11 5.99 7.7 10.09 5.57 2.32-1.17 3.13-5.06.86-6.64-2.13-1.46-4.55-2.43-6.74-3.77l2.37-1.77c2.67.47 3.55 3.94 6.64 3.52-.55-1.52-.53-3.42-1.85-4.56-3-2.81-9.83-2.1-9.92 2.87m13.41.29l3.94.85c-.82 3.83-1.85 7.62-2.9 11.39l3.09 1.12a176 176 0 0 0 2.95-11.55l4.44.98.45-2.78-11.62-2.86-.35 2.85m-89.34-.06l3.66 14.2c3.44-1.1 8.01-1.02 10.02-4.54 1.25-3.86.22-9.35-3.79-11.19-3.38-.59-6.65.81-9.89 1.53m102.94.76l-4.36 13.91 3.12 1 4.36-14.02-3.12-.89m-109.23 1.19l3.02 8.9a133.4 133.4 0 0 1-8.16-7.05l-3.31 1.36c1.77 4.52 3.28 9.13 4.87 13.72l2.89-1.18-3.16-9.09c2.88 2.32 5.65 4.76 8.39 7.23l3.14-.93c-1.45-4.62-3.2-9.14-4.61-13.77l-3.07.81m113.94.16l-.91 2.6 4.01 1.65c-1.26 3.69-3.05 7.24-3.82 11.09l2.44 1c2.18-3.33 2.87-7.42 4.51-11.04l4.03 1.51.95-2.72-11.21-4.09m-150.9 6.8c-1.03 2.46 1.65 3.99 3.08 5.49-9.96 5.55-19.36 12.21-27.79 19.88-.06 2.73 2.78 1.07 3.74-.19l2.2 2.71-.58 3.06 5.75-.01-.94-3.02 2.66-2.2c1.61 2.07 3.1 4.24 4.98 6.08 1.29-.92 2.53-2.05 4.26-1.83-.55 3.15-3.46 4.14-6.3 4.24l.07 1.66c3.77 1.21 8.87-1.81 8.46-6.04-.86-2.7-3.97-2.75-6.2-1.98l-6.99-8.89 8.19-5.91 3.22 5.13-4.54.27 2.71-2.29c-1.6-2.18-3.89-.07-4.92 1.56-1.62 2.33.2 6.11 3.04 6.22 2.47.52 4.15-1.55 5.83-2.96l1.51 2.8 2.43-1.7c-2.36-3.47-4.57-7.04-6.94-10.5 2.59-1.58 5.13-3.3 7.94-4.47 1.18 3.01-5.19 2.44-4.17 5.81 2.11 3.05 6.38 2.47 8.95.33l-.4 3.38-4.77.49.03 2.61c3.3-.24 6.6-.26 9.88.3l.74-2.37-3.64.08c.67-2.42 1.42-5.94-1.43-7.24-2.2.17-3.85 2.04-5.98 2.6.2-2.47 2.9-3.03 4.6-4.23l-1.79-3.06 2.33-1.33-1.01-2.12-3.18 1.97c-1.02-.82-2.05-1.64-2.91-2.63.46-1.49 1.67-2.6 2.43-3.93-1.53.53-3.85.43-4.55 2.23m22.86-1.93c1.52 4.77 3.69 9.28 5.53 13.92l3.04-1.25c-1.86-4.33-3.44-8.78-5.48-13.03l-3.09.36m141.18.06c-1.39 3.32-3.22 6.47-4.32 9.91-1.92 5.48 7.64 9.87 10.5 4.86 1.81-3.09 2.99-6.49 4.68-9.63-1.02-.25-2.22-1.93-3.17-1-1.76 3.15-3 6.56-4.72 9.74a8.4 8.4 0 0 1-4.4-1.93c1.13-3.64 2.77-7.08 4.48-10.47l-3.05-1.48m11.29 8.42l3.8 2.12c-1.82 3.44-3.95 6.71-5.58 10.25.87.6 1.76 1.19 2.67 1.75l5.8-10.35 4.07 2.06.89-2.55c-3.25-2.11-6.79-3.72-10.08-5.75l-1.57 2.47m5.76 16.47c2.51 2.28 5.46 4.07 8.42 5.7 1.17 1.07 3.2-1.94 1.32-2.34-1.85-1.36-3.81-2.56-5.71-3.83.65-.87 1.28-1.77 2.02-2.58 2.08 1.05 3.97 2.43 5.95 3.66l1.36-2.45-5.76-3.57 1.41-2.42c2.11 1.33 4.21 2.69 6.29 4.09l1.69-2.27-9.09-6.05c-2.62 4.02-5.45 7.92-7.9 12.06m-201.44-7.38l1.83 2.21 2.57-1.88-1.81-2.46-2.59 2.13m222.89 9.52c-2.63 1.63-4.94 4.53-4.63 7.79-.03 4.79 5.98 8.3 10.13 5.86 2.71-1.7 4.99-4.56 4.92-7.9-.19-4.82-6.21-8.41-10.42-5.75m4.74 18.05l2.18 2.43 4.53-4.34 4.34 4.35 1.89-2.2c-1.31-1.45-3.4-2.56-4-4.46l1.52-1.95 4.98 4.99 2.42-1.78-7.45-7.5c-3.74 3.22-6.84 7.07-10.41 10.46m-247.78-3.92c-4.84 5.64-10.24 10.99-14.02 17.38.86 1.71 2.21.09 3.32-.42 1.26 1.05 2.63 2.01 3.75 3.22 1.22 2.49-.19 4.97-2.04 6.62-.3-2.02.16-4.48-1.49-6.03-1.19-1.33-3.13-1.34-4.76-1.08-2.05.67-2.54 2.9-3.25 4.65 1.34 2.69 4.09 2.77 6.32.95l-3.56-1.76c0-2.56 2.95-1.78 3.52.02.86 1.1-.07 2.4-.25 3.57l-3.36 2.09c.48.74.97 1.48 1.47 2.21 1.33-2.44 4.07-1.84 6.24-2.62 2.53-1.23 3.6-4.03 4.1-6.62l3.32 2.3 1.32-2.44c-3.43-2.4-6.72-5-10.05-7.54l2-2.25 9.94 8.01 1.53-2.33-9.83-8.04 7.52-8.5a47.3 47.3 0 0 1 1.97 2.28c-1.28 2.39-4.15 3.94-4.75 6.62 1.06 1.95 3.92.69 5.73.97a111 111 0 0 0-1.42-3.58 41.4 41.4 0 0 1 2.49-2.07c1.94 1.36 3.49 3.18 5.16 4.85l1.81-2.34c-2.91-2.79-5.91-5.51-8.72-8.4l.87-2.35c-2.19-1.33-3.49 1.43-4.88 2.63m270.06 5.77l-2.21 1.8 2.73 3.33-9.07 7.6 2.16 2.46c3.06-2.38 5.84-5.1 9.03-7.31.99.89 1.77 1.98 2.6 3.03l2.49-1.7c-2.64-3.02-5.16-6.14-7.73-9.21m-3.06 19.43l6.63 9.18 2.13-2.15c-1.54-1.96-3.02-3.95-4.5-5.94l2.69-2.16a164.1 164.1 0 0 1 4.09 5.7l2.34-1.73c-.93-2.11-5.36-4.75-2.6-6.88 2.4.69 3.21 3.97 5.05 5.65l2.53-1.22-6.33-9c-4.12 2.69-8.08 5.62-12.03 8.55m-288.98 3.79c-4.38 7.18-8.41 14.62-11.5 22.45l1.66 1.38 2.59-5.8 3.94 1.81c-1.6.93-3.72 1.61-3.42 3.91 3.84-.45 7.74-.8 11.45-1.98l.11-2.64-5.64 1.48c-.9-2.46-3.14-3.84-5-5.49.5-1.19 1.09-2.32 1.67-3.46 1.06 1.12 4.81 1.72 2.36 3.86l1.55 1.73 1.4-2.5c2.03.85 3.89 2.1 6.01 2.73l1.44-2.07c-3.77-2.08-7.56-4.11-11.43-5.99 1.32-2.16 2.13-4.87 4.13-6.49a23.3 23.3 0 0 1 3.03 2.31c-1.76.58-3.68 1.17-3.36 3.45 3.84-.2 7.74-.19 11.52-.97l.24-2.49-5.66.72c-.58-2.37-2.45-3.97-4.22-5.48l.09-3.46c-1.25.71-2.28 1.72-2.96 2.99m298.22 9.58c.57 4.26 5.21 6.56 9.14 5.18l-1.68-3.01c-1.63.21-3.98-.13-4.21-2.13-.87-3.44 3.2-5.49 6.04-5.75 2.76.5 3.21 3.7 1.99 5.83l1.54 2.69c2.57-2.31 3.19-6.25.93-9.01-4.18-5.87-15.11-.72-13.75 6.2m-309.22-1.31l2.7 1.44 1.55-2.67-2.56-1.65-1.69 2.88m315.76 9.52c-2.1.53-.34 2.44-.06 3.68l5.95-2.96 2.34 4.85-5.88 2.95 1.66 2.73c4.36-2.11 8.77-4.12 13.04-6.42l-1.49-2.88-4.81 2.32-2.33-4.63 4.82-2.6-1.36-2.81c-4 1.85-7.93 3.83-11.88 5.77m4.69 13.35c.5.97 1.04 1.92 1.56 2.88a98.2 98.2 0 0 1 8.69-3.46 201.5 201.5 0 0 1-6.93 8.53l.98 3.18c4.68-1.68 9.3-3.5 13.91-5.37l-1.29-2.62c-3.01.86-5.86 2.17-8.77 3.29 2.08-3.01 4.77-5.6 6.64-8.74l-1.08-3.06c-4.54 1.88-9.14 3.6-13.71 5.37m-327.52 6.92c-4.18-.45-9.14 1.84-9.03 6.62.16 3.2 3.88 3.27 6.28 3.33a126.7 126.7 0 0 0-3.41 13.45c-4.13 3.05-10.01 7.07-8.29 13.05.51 2.77 3.79 2.75 5.96 2.71.8 5-4.52 6.54-7.67 9.03l1.43 2.44c1.86-1.79 3.75-3.54 5.72-5.2-.33 7.04.01 14.1.3 21.14l-6.63 4.25 1.3 2.51c1.88-1.81 3.82-3.59 6.07-4.93-1.14 2.29-2.92 4.14-4.39 6.2 1.67 3.12 3-.95 3.95-2.26 1.16 3.56 1.01 7.39 2.1 10.96l1.48.48.66-2.27c2.82-.76 6.48-1.16 6.88-4.78 1.22 1.35 2.5 2.65 3.84 3.89 2.02-3.37-2.85-4.91-4.55-7.14 1.89-.64 6.44.25 4.7-3.33-4.29.12-8.51 1.07-12.79 1.39l-.21-2.95a343.6 343.6 0 0 1 12.39-1.17l.11-2.9c-4.32.47-8.64 1.04-12.99 1.01l-.02-7.82 1.24-.17c.14 1.61-.12 3.33.52 4.87 1.51 1.48 3.31-.18 4.83-.7 1.43-.11 3.24.49 4.17-.98 2.02-2.89.47-6.48-1.08-9.19l2.91.03-.14-2.83c-4.24.3-8.49.43-12.74.34l.37-3.57 12.75.65-.07-2.76c-4.17-.14-8.32-.47-12.49-.63l.01-3.68c4.22.38 8.42 1.11 12.67 1.14l.55-2.54-12.76-1.34.55-4.12 3.61.53c-.23 4.55 5.35.7 4.5-1.89-2.51-.71-5.11-1.04-7.67-1.47l.67-3.42c4.23.79 8.42 1.76 12.65 2.51l.4-2.73a266.5 266.5 0 0 1-12.49-2.65 193 193 0 0 0 2.15-8.52c2.24.52 4.58.81 6.66 1.82.43 1.16.7 3.61-1.19 3.5-2.46.25-2.26-2.56-2.64-4.14l-1.82.57c-1.52 3.37 1.72 7.2 5.27 5.97 2.55-.46 3.06-3.22 3.07-5.38l3.19.76.39-2.56c-2.59-1.27-8.18-.79-7.15-5.15 2.46-1.14 4.01 1.88 5.7 3.15 3.08-2.38-1.48-6.18-4.21-6.08-3.08-.29-4.1 3.1-4.13 5.56l-2.31-.79 2.17-8.26c4.17 1.26 8.24 2.81 12.38 4.16l.53-2.6c-3.58-1.6-7.38-2.62-11.06-3.98-.41-1-.88-1.97-1.41-2.9l-1.74 1.76m338.92 3.9c-4.24 1-6.52 6.07-4.42 9.91 3 7.13 15.96 3.52 14.7-4.22-.19-5.03-5.97-7.7-10.28-5.69m-2.14 16.98l2.08 10.37 2.51-.69c-.02-2.31-.73-4.54-1.22-6.77 3.71-1.1 7.51-1.83 11.35-2.35l-.26-3.44-14.46 2.88m7.34 10.1c-5.16 1.21-6.2 8.47-2.65 11.87 3.81 3.15 10.67 2.03 12.87-2.52.81-2.6.63-5.89-1.44-7.87-2.22-2.36-5.89-2.23-8.78-1.48m-.02 16.05c-3.64 1.69-4.55 6.99-1.96 9.96l-1.14 3.07 8.28-.31-.31-6.18h-2.72l.29 3.38c-2.37-.58-4.01-3.04-2.72-5.37 2.16-3.12 8.19-2.9 9.52.96-.17 2.61-2.95 4.3-2.45 7.11 5.25-.19 6.58-7.28 3.72-10.81-2.44-3.12-7.12-3.32-10.51-1.81m-3.03 18.03l-.14 3.12c1.91.2 3.84.27 5.73.68 2.96 1.42 5.62 3.4 8.61 4.79l.19-3.57a212.5 212.5 0 0 1-5.8-3.02l6.1-2.56-.06-3.8c-4.65 2.16-9.15 5.9-14.63 4.36m-1.91 24.2c.85 2.97 4.84 3.52 7.05 1.71 1.74 1.5 4.67 2.51 6.23.2 1.54-2.87 1.33-6.34 2.09-9.46-4.74-1.03-9.57-1.53-14.33-2.45-.7 3.27-1.57 6.64-1.04 10m.99 4.83c-3.79 1.29-5.49 6.2-3.83 9.73 2.78 5.76 13.58 5.85 14.6-1.26 1.82-6.12-5.59-10.19-10.77-8.47m-340.38 8.49l-2.22-2.08-.43 1.8c1.04 5.08 2.68 10.04 4.25 14.98-1.98 1.62-4.32 3.42-4.54 6.19-.3 2.46 1.06 5.82 3.93 5.9 1.68-.23 2.9-1.53 4.27-2.39 4.15 9.31 8.48 18.61 14.13 27.11l1.85.73-.38-3.28 3.62-1.94 1.45 2.55c-1.84 1.13-3.47 2.55-4.79 4.26.5 2.29 2.57 5.68 5.24 3.56 2.4-1.58-1.01-2.95-2.54-2 .9-2.27 3.52-4.35 5.65-2.01 1.66-1.11 1.27-3.7 1.52-5.46-1.67-.91-4.06.42-4.98-2.02l5.31-3.23-1.42-2.51-10.84 6.66-1.54-2.59c3.56-2.1 7.28-3.92 10.71-6.21l-.87-2.63-11.26 6.38-3.5-6.76a36 36 0 0 1 4.32-1.34l-1.06 4.26 2.08 1.07c2.14-3.56 4.02-7.27 5.58-11.11l-2.43-1.01-2.23 5.71c-2.15-2.71-5.09-1.36-7.66-.1-1.4-3.49-3.04-6.87-4.32-10.4 4.3-.81 2.8 6.76 7.14 6.42 3.86.12 4.86-4.54 6.27-7.31l-2.06-.99c-1.13 2.39-2.09 5.35-4.96 6.13l-2.35-5.34 7.81-3.17-1.07-2.58-11.74 4.73-1.32-3.24c3.9-1.57 8.02-2.6 11.85-4.34l-.49-2.59-12.21 4.27c-.48-2-3.07-5.29-.03-6.38 1.79-1.06 2.49 1.66 3.48 2.61 1.28-1 2.88-1.86 3.45-3.49.92-2.17-.37-4.39-1.02-6.43 2.5.1 3.33-1.27 2.53-3.56l-12.18 3.17m334.27 4.93l-.8 2.96c3.2 1.08 6.47 2.06 9.49 3.61l-10.25-1.38-1.2 2.95c2.86 1.85 5.82 3.57 8.55 5.62l-9.32-3.24-1.02 2.83a322.9 322.9 0 0 0 13.93 4.85l1.41-4.28a219.3 219.3 0 0 0-9.13-5.63c3.63 0 7.23.53 10.84.84l1.49-4.26a462.7 462.7 0 0 0-13.99-4.87m-8.7 25.98c.82 2.55 3.77 3.16 6.06 2.42 1.26 2.1 4.17 3.66 6.24 1.63 2.05-2.5 2.97-5.7 4.23-8.63-4.46-1.88-8.83-3.94-13.23-5.92-1.38 3.36-3.97 6.67-3.3 10.5m-2.03.8l-1.38 3.04 2.03 2.14c-1.21 1.49-1.61 4.68-4.12 4.27-1.9-.49-2.42 1.55-3.3 2.7l15.44 2.65 1.83-3.26c-3.54-3.81-6.68-7.99-10.5-11.54m-10.36 17.43c1.54 1.04 3.17 1.97 4.58 3.2 2.03 2.59 3.11 5.76 4.93 8.5 1.18-.4 1.57-1.76 2.33-2.63-1.2-1.83-2.36-3.68-3.48-5.54 2.18.25 4.36.54 6.54.84l1.99-3.27c-5.01-.54-10.8.45-14.58-3.68l-2.31 2.58zM213.9 65.87l.93-5.11 2.3 4.74-3.23.37zm-21.99-1.95c1.9-.24 4.36-1.53 5.75.48 1.32 2.08 2.27 5.44.15 7.31-1.15.56-2.39.92-3.59 1.32l-2.31-9.11zm-53.52 27.26c1.19-.73 2.39-.77 3.61-.1.72 2.02-4.42 2.16-3.61.1z"/><path d="M125.79 94.23l3.19-2.19c.88.91 1.67 1.91 2.49 2.89l-2.88 2.62-2.8-3.32zm222.56 5.28c1.89-1.83 5.38-1.26 6.13 1.42.6 2.97-1.87 5.64-4.45 6.68a4 4 0 0 1-4.39-3.56c.36-1.75 1.3-3.42 2.71-4.54zm-109.96 18.5c5.73 5.19 8.51 12.66 10.79 19.84 4.3 13.32 4.22 28.16-.95 41.22-1.54 4.04-4.23 7.88-8.25 9.73-2.95.94-5.55-1.34-7.67-3.06-4.45-4.52-6.47-10.84-7.62-16.93-2.64-14.53.95-29.55 7.66-42.5 1.58-3.06 3.68-5.81 6.04-8.3zm-27.53 2.25c6.57 1.48 12.4 6.98 13.66 13.63-2.64 7.42-4.46 15.13-5.08 22.99-.56 10.93 2.12 22.29 9.24 30.83-10.51-.99-17.85-10.15-20.75-19.66-3.41-9.26-1.13-19.18.37-28.58 1.22-6.35 1.9-12.78 2.56-19.21zm41.03 12.1c3.88-4.59 8.77-9.42 15.14-9.73-4.92 15.15 1.09 31.08-2.07 46.44-1.31 8.01-5.81 15.87-13.24 19.62-1.41 1.16-2.99.24-4.41-.32 5.15-6.74 8.12-14.98 8.88-23.4 1.46-11.03-.92-22.14-4.3-32.61zm-62.69-.34c6.26-.8 10.76 4.46 14.05 9.01-1.62 11.38-2.88 23.64 2.49 34.28 3.06 6.77 9.21 11.21 15.2 15.19-7.06.45-14.29-2.11-19.18-7.28-4.98-5.34-8.55-12.05-9.92-19.25-2.12-10.54-.85-21.37-2.64-31.95zm80.86 9.93c2.46-4.52 7.8-6.96 12.73-7.84.29 4.37-.83 8.64-1.24 12.97-1.41 11.05-2.05 22.74-8.01 32.51-3.54 6.25-9.99 10.76-17.22 11.39 3.49-3.44 7.39-6.64 9.48-11.2 6.02-11.68 4.9-25.17 4.26-37.83zm-98.84.66c6.21-.55 12.68 3.08 15.29 8.75 0 11.99 3.27 24.52 11.7 33.4 3.1 3.48 7.14 5.86 10.91 8.53-9.98.39-19.19-5.83-24.1-14.26-4.51-8.39-6.52-17.82-9.24-26.88-1.07-3.38-3.15-6.31-4.56-9.54zm114.38 7.1c3.92-2.82 8.75-4.52 13.62-3.94-1.97 3.96-4.22 7.83-5.36 12.14-2.22 7.87-3.9 16.22-9.07 22.8-4.09 5.83-9.88 11.38-17.44 11.61a43 43 0 0 0 14.15-20.95c1.99-7.09 2.63-14.48 4.1-21.66zm-126.31 9.1c5.15-2.41 12.06-1.23 15.6 3.34 2.6 7.44 3.9 15.64 8.99 21.94 2.74 3.68 6.48 6.39 10.08 9.16-6.26.41-13.03-1.07-17.47-5.79-6.05-6.39-7.45-15.54-12.24-22.73-1.5-2.1-3.33-3.92-4.96-5.92zm138.51 5.97c3.53-3.15 8.37-5.28 13.16-4.27-1.89 2.93-4.08 5.66-5.81 8.68-3.42 5.87-5.81 12.43-10.42 17.54a23.8 23.8 0 0 1-19.76 7.92c6.96-4.45 12.55-10.8 16.62-17.95 2.25-3.89 2.66-8.85 6.21-11.92zM57.06 183.71c.68-3.06 3.64-4.19 6.52-3.57l-1.32 4.67c-1.8-.02-3.59-.24-5.2-1.1zm348.13.45c1.87-.55 4.25-.11 5.1 1.87 2.23 5.24-8.09 8.47-9.25 2.98-.74-2.6 1.92-4.45 4.15-4.85zm-172.75 9.44c6.07-1.13 12.78-.72 18.01 2.85 4.88 3.23 9.05 8.49 9.21 14.55-.03 7.09-8.12 11.86-14.6 10.35-2.53-.18-4.57-2.03-6.95-2.48-3.86 1.38-7.93 3.11-12.12 2.14-6.48-1.03-11.58-8.53-8.73-14.8 2.79-6.19 8.26-11.55 15.18-12.61zm-43.36 5.25c9.42-3.09 19.51-1.73 29.24-1.86-2.76 3.59-4.69 7.7-6.68 11.73-1.73 4.01-6.37 5.26-10.09 6.7-9.12 2.68-19.24 3.52-28.37.46 6.84-4.2 7.95-14.12 15.9-17.03zm69.98-1.38c6 .64 11.99 1.44 18.03 1.62 2.57.12 5.29.75 7.22 2.56 4.12 3.69 6.64 8.73 10.2 12.9 2.02 2.33 4.73 3.88 6.96 5.98-10.87 6.07-24.43 3.26-34.97-2.18-1.88-1.12-1.42-3.61-1.81-5.43-.34-5.61-3.2-10.54-5.63-15.45zM51.72 212.12c-.27-3.53 3.24-5.65 5.55-7.71l-1.41 9.82c-1.48-.27-4.15.11-4.14-2.11zm357.66-.58c2.81-1.08 7-.14 7 3.52-.87 3.76-6.16 4.81-8.97 2.59-1.93-2.05-.77-5.57 1.97-6.11zm-199.6 12.19c.33-3-1.58-7.5 2.28-8.74.17 3.1 1.38 7.27-2.28 8.74zm-5.65-5.39l3.02-1.18.15 8.06-3.15 1.11-.02-7.99zm-5.05.78l2.78-.14v7.07c.36 1.7-1.82 1.64-2.8 2.21l.02-9.14zm-23.16 1.52l4.11.46-.12 3.43c-1.53-1.08-3.04-2.25-3.99-3.89zm17.36-.31l2.98-.38c.33 2.68.42 5.38.44 8.08l-3.22.78c-.39-2.81-.41-5.65-.2-8.48zm-10.9.86l3.24-.01.01 5.98-3.3-1.31.05-4.66zm5.62-.13l3-.21v7.41l-3-.29v-6.91zm30.28 1.39l2.65.9.06 4.79-2.58-2.51-.13-3.18zm37.08.87l2.76-1.27c.09 1.75.28 3.52.07 5.27-.78 1.04-1.83 1.83-2.77 2.71l-.06-6.71zm9.38.1c.94-1.67 2.42.38 3.6.65l-.2 5.81-3.11-2.01c-.62-1.37-.35-3-.29-4.45zm-40.7.69l2.91.28-.06 7.7-3.01-1.85.16-6.13zm12.35 1.17l1.73-1.55 2.16 1.13-.02 9.8-4.21-.14.34-9.24zm6.72-.11l3.35-.66c.55 3.07.47 6.21.42 9.32l-3.89.59.12-9.25zm6.26-.93l3.49-.3.02 8.16-3.52 1.01.01-8.87z"/><path d="M229.72 224.92l3.91.32-.04 8.75-3.74-.87-.13-8.2zm40.96.33l3.57 1.04.03 5.28-3.36-.85c-.34-1.81-.2-3.65-.24-5.47zm21.2 3.74c.21-3.04 3.49-2.8 5.72-3.27-1.48 1.71-3.25 3.46-5.72 3.27zm-15.18-1.84l3.21.08-.08 5.36-3.17-.89.04-4.55zm5.68.55l2.89.07-.01 4.14-2.81.52-.07-4.73zm5.39-.22l2.05-.31.23 3.65-2.41.65.13-3.99zm-230.68 1.79c2.44.01 4.92-.27 7.33.2 1.46 1.87 3.93 5.05 1.39 7.1-1.86-.64-1.38-2.77-1.73-4.27-2.64.76-1.5 3.62-1.77 5.62-2.53-.6-1.19-3.81-1.65-5.67l-2.96.07-.61-3.05zm179.01 8.95l4.44.22c-1.67 5.75-3.58 11.55-3.63 17.6-.28 5.52.78 10.97 1.74 16.37-2.06-.33-5.2-.89-5.54-3.41-1.99-10.24-1.46-21.24 2.99-30.78zM58.78 251.93c1.66-.45 3.39-.56 5.1-.75.3 1.17.91 2.33.76 3.58-1.67.93-3.65.98-5.49 1.35-.15-1.39-.4-2.78-.37-4.18zm347.63 8.32l3.75.61-1.27 5.39c-3.79.32-2.71-3.56-2.48-6zm6.12 1.08l3.11.26-1.22 5.33c-3.1-.36-2.02-3.36-1.89-5.59zm-173.41 13.8c9.53-6.24 22.15-7.05 32.61-2.75 6.79 2.61 14.07 3.95 21.35 3.24 5.85 10.14 12.64 19.79 17.73 30.33-15.51.63-30.39-5.15-45.84-5.32-5.33-.06-10.77-.04-15.9 1.55-3.96 1.09-7.39 3.43-11.13 5.04-.12-10.72 1.39-21.37 1.18-32.09m4.99 2.3l1.42 1.97a222.8 222.8 0 0 1 5.08-1.99l-1.02-2-5.48 2.02m7.71-2.23c.41 2.45 2.9 2.11 4.79 2.4l.23-2.33c-1.68-.06-3.35-.1-5.02-.07m7.58.14l-.28 2.18c1.83.36 3.65.75 5.48 1.14l.23-2.29-5.43-1.03m7.05 1.92l.06 2.11 4.15.37-.15-2.19-4.06-.29m6.99.92l-.22 2.15 4.8.69c.19-.46.59-1.37.79-1.83-1.77-.48-3.57-.79-5.37-1.01m7.71 3.32l4.63-.06c.09-3.08-5.42-3.23-4.63.06m-36.12.99l1.5 1.86c2.44-.92 4.99-1.48 7.57-1.85l.24-2.06a23.4 23.4 0 0 0-9.31 2.05m12.18-2.21l.02 2.33 4.68.6.38-2.21-5.08-.72m7.91 1.14l-.85 2.07 5.22 1.11.32-2.23-4.69-.95m6.79 3.42l5.9.81.25-2.3-5.4-.66-.75 2.15m9.78-1.05c-.29.51-.85 1.54-1.13 2.06 2.72.43 5.48.64 8.24.72l-.35-2.08c-2.26-.24-4.5-.64-6.76-.7m-27.51 1.64l.23 2.26 5.87.01.19-2.24c-2.1-.11-4.2-.11-6.29-.03m-4.74 1.13c-1.16.49-2.91.62-3.21 2.1 1.55 1.89 3.73.41 5.48-.29.44-1.38-.97-2.8-2.27-1.81m13.37-.86c-1.03 3.37 2.87 2.62 4.9 3.2l.19-2.34-5.09-.86m6.97 1.37c-.5 3.42 3.23 2.74 5.44 3.31.96-3.54-3.37-2.63-5.44-3.31m8.32 1.27l-.1 2.39c2.11-.17 6.55 2.13 6.22-1.63l-6.12-.76m8.83.76l-.44 2.33c2.25-.04 5.48 1.19 6.97-1.08-1.18-2.18-4.46-.73-6.53-1.25m-30.77 1.31l-.06 2.53 4.93-.16-.11-2.57-4.76.2m-9.45 2.63l2.27 2.13c1.88-1.07 5.42-1.3 4.03-4.36-2.16.57-4.26 1.34-6.3 2.23m16.57.23l5.43.65.13-2.4-4.62-.93-.94 2.68m7.98-1.08l-.36 2.54 6.49.92.34-2.46-6.47-1m8.98 1.22l-.59 2.62a122.8 122.8 0 0 0 6.64.52l-.1-2.43a193.2 193.2 0 0 1-5.95-.71m8.29 2.89c1.53 1.96 4.55 1.02 6.74 1.44l-.08-2.44c-2.17.28-5.78-2.05-6.66 1zm-77.52-24.22c8.28-1.96 17.66-1.83 24.9 3.16l-1.44 31.53c-8.78-5.47-19.34-7.34-29.56-6.2-15.57.76-30.71 5.93-46.38 5.25 1.36-2.29 2.97-4.4 4.65-6.45l20.13-25.25c9.27.5 18.65.17 27.7-2.04m6.64 3.74c-.35 2.77 2.86 1.74 4.54 2.18.96-3.01-2.7-2.82-4.54-2.18m-7.86 3.27a48.8 48.8 0 0 0 6.31-1.33l-1.24-1.73c-2 .36-5.59-.01-5.07 3.06m14.24-1.09c2.1.9 5.04 3.16 6.63.32-1.92-.49-6.29-3.93-6.63-.32m-20.65.96c.84 1.75 3.09.68 4.6.9l-.29-2.51c-1.44.46-3.4.17-4.31 1.61m-14.06-.46l-.16 2.25 3.62-.03-.08-2.22h-3.38m6.79-.07l-.09 2.41c1.76-.24 3.8.3 5.36-.73-.2-2.74-3.49-1.25-5.27-1.68m16.01 2.88l.34 2.29c1.59-.55 4.91.34 5.01-2.04-1.48-1.2-3.62-.18-5.35-.25m7.89-.46l-.01 2.19c2.68.35 5.26 1.18 7.88 1.85l1.62-1.64c-2.98-1.43-6.2-2.21-9.49-2.4m-15.51 1.76l.21 2.19c1.92-.24 3.83-.56 5.73-.99-.96-2.82-3.79-1.41-5.94-1.2m-19.13.83l-.4 2.28c2.92.14 5.85.35 8.77-.01l-.45-1.91c-2.65-.05-5.29-.21-7.92-.36m11.08-.02l.05 2.31 5.99-.59c-.08-3.51-3.84-1.54-6.04-1.72m9.4 3.69l.96 2.36c1.83-.62 5.32-.37 4.33-3.33l-5.29.97m7.14-.83c1.02 2.85 4.17 1.83 6.52 2.02l.46-2.28a56.1 56.1 0 0 0-6.98.26m-14.66 2.2l.95 2.11 5.03-.79-.56-2.43-5.42 1.11m23.58.37c2.08.8 4.91 2.82 6.1-.24-1.68-.68-3.38-1.33-5.09-1.93l-1.01 2.17m-32.23.3c.15 3.58 4.18 1.56 6.4 1.82l-.3-2.41-6.1.59m-8.93-.15c-.31 3.63 4.1 1.86 6.26 2.53.06-.81.44-1.65.08-2.43-2.11-.17-4.23-.12-6.34-.1m31.46 2.08l.87 2.31c1.42 0 2.85.03 4.28.07l.43-2.48c-1.86-.21-3.74-.24-5.58.1m-7.5.78l.61 2.62 5.16-.99-.67-2.44-5.1.81m16.32-.49l-.97 2.33 4.91 2.08 1.77-2.12a78.1 78.1 0 0 0-5.71-2.29m-25.03 1.9l.22 2.57c2.24-.26 4.46-.6 6.68-1l-.71-2.36-6.19.79m-8.92.9l.33 2.44 6.53-.54-.29-2.49-6.57.59m-9.82.09l.01 2.67a69.3 69.3 0 0 0 7.49-.2l-.01-2.46-7.49-.01zm227.03-19.17c3.12-1.96 9.6.44 8.01 4.83-1.29 3.26-5.75 2.62-8.08.91-2.05-1.27-1.81-4.44.07-5.74zm-339.83 7.72l6.49-1.75c1.22 1.66 2.82 3.58 1.26 5.62-1.81-2.56-4.75-2.02-7.13-.67l-.62-3.2zm1.99 14.4l1.82 4.82c-1.42.67-3.19 3.23-4.63 1.29-2.01-2.37 1.3-4.59 2.81-6.11zm104.6 10.77c13.35-1.46 26.48-5.25 40-4.99 6.4.03 12.98 1.06 18.64 4.19 1.22.52 2.12 1.48 2.44 2.79-3.13-1.05-6.05-2.68-9.25-3.55-6.81-1.91-13.99-1.82-20.97-1.12-12.31 1.58-24.56 3.76-36.95 4.58-2.76 0-5.86.56-8.11-1.43 4.73-.17 9.48.04 14.2-.47zm69.9.96c7.2-5.15 16.46-6.28 25.09-5.84 15.4 1.01 30.38 6.11 45.91 5.53l-1.96 1.15c-15.21.92-29.82-5.22-45.02-4.93-7.93-.3-15.85 2.08-22.37 6.58-.67-.76-1.22-1.59-1.65-2.49zm153.13-4.55l3.32 1.58-2.82 4.96c-3.35-1.07-1.61-4.35-.5-6.54zm-222.21 6.89c15.67-1.29 31.25-6.21 47.06-3.84 3.91.8 8.29 1.62 11.02 4.81-4.33-1.12-8.51-2.99-13.01-3.35-16.1-2.07-31.9 2.91-47.87 3.97-3.17.05-6.38.21-9.51-.43 4.06-.76 8.21-.7 12.31-1.16zm80.71-2.68c6.59-2.24 13.65-1.63 20.48-1.46 12.39 1.31 24.51 5.26 37.08 4.58a22.5 22.5 0 0 1-9.3.71c-14.56-1.07-29.12-6.44-43.76-3.01-4.82.78-8.94 3.59-13.62 4.79 1.9-3.27 5.8-4.37 9.12-5.61zm146.94-1.44l2.97.96c-.91 1.66-1.49 3.75-3.3 4.68-1.95-1.5-.1-3.85.33-5.64zm-238.62 7.65c15.88.84 31.27-4.19 47.07-4.71 6.98-.1 14.04 1.1 20.4 4.04l-1.05 2.26c-7.24-2.18-14.66-4.14-22.27-4.05-9.13.4-17.91 3.42-27.05 3.7-5.7.24-11.59.4-17.1-1.24zm75.35-5.16c3.79 3.52 7.04 8.16 7.78 13.36-.52 3.66-5.1 3.94-8.02 3.93-2.78.28-6.46-.68-7.03-3.83.1-5.36 4.09-9.52 7.27-13.46zm20.17 1.94c18.04-4.35 35.85 4.09 53.98 2.8-.82 1.01-1.98 1.73-3.34 1.59-5.81.47-11.53-.72-17.21-1.77-10.93-1.54-22.17-2.82-33.09-.48-3.81.73-7.39 2.22-11.08 3.34 2.38-3.53 6.94-4.31 10.74-5.48zM186 317.21c7.66-1.19 15.31-3.35 23.14-2.74 5.69.55 11.39 1.65 16.78 3.61l.45 1.98c-9.29-2.2-18.85-4.03-28.43-2.85-11.59 1.45-23.4 3.46-35.04 1.34l-1.21-1.16c8.07.91 16.27 1.13 24.31-.18zm68.09-.9c14.11-4.08 28.91-1.25 43.06 1.06 4.04.81 8.17.56 12.26.73-1.15 1.19-2.92 1.09-4.43 1.2-12.06.27-23.91-3.07-36-2.44-7.75-.42-15.14 2.17-22.7 3.28 1.85-2.47 5.09-2.88 7.81-3.83zm-58.17 3.04c7.38-.6 14.91-.7 22.2.82 2.71.58 5.65.82 7.93 2.58-6.34-.95-12.69.12-19.05-.1-14.97-.12-29.94.15-44.91-.01l.02-2.13c11.24 1.79 22.64.49 33.81-1.16zm56.96 1.48c13.43-3.23 27.41-2.12 40.94-.16 5.51.83 11.09.4 16.64.4l-.87 1.49c-20.28.13-40.57.14-60.86-.01 1.3-.76 2.66-1.43 4.15-1.72zm135.59 1.15l1.88-2.88 3.46 3.9-5.34-1.02zm-285.68 68.33a339.5 339.5 0 0 1 198.14-20.62c23.4 4.36 46.04 11.96 68.06 20.87-4.36 10.46-9.48 20.59-14.11 30.94-36.77-13.23-75.76-20.64-114.88-20.62-41.76-.73-83.54 6.22-123.12 19.41-4.72-9.98-9.86-19.78-14.09-29.98m183.37-21.49l.52 3.17c2.12 1.19 3.23 3.26 3.74 5.58-4.28-.62-8.56-1.15-12.85-1.61l1.34 3.04c1.68.29 3.37.6 5.03 1.03-1.21 1.43-3.03 1.8-4.75 2.22l.66 3.02c-2.24 1.04-5.74 2.71-7.32-.23 1.21-2.01 3.6-.9 5.45-1.04-.36-1.69-1.34-2.55-2.96-2.56.85-.74 2.49-.97 2.48-2.35.08-3.03-3.96-4.37-6.12-2.7-1.5 1.54.01 3.37.55 4.97-.55 1.67-1.89 3.58-.47 5.21 1.64 3.14 7.29 4.08 8.96.57 1.72 1.93 4.12 2.66 6.67 2.4-.47 2.18 1.4 3.36 2.75 4.67l2.05-13.35a159.4 159.4 0 0 1 7.49 1.43c-.83 1.92-3.07 1.81-4.78 2.32.6 2.12.42 4.84 2.33 6.34 1.39 1.29 3.4 1.1 5.16 1.31-.52 2.15.95 3.57 2.4 4.88l3.12-12.98 5.14 1.04a22.4 22.4 0 0 1-1 3.67c-.5.98-2.3 1.72-1.51 2.98.65 1.14 1.09 3.39 2.76 3.16l1.83-1.68 4.12.95-1.07 3.7.99 1.46c-1.12.92-1.35 2.79.17 3.46 2.43 1.36 3.33 4.1 4.93 6.22-.41-3.01-1.63-5.84-3.45-8.26 1.04-4.27 2.15-8.53 3.54-12.7l3.33 1-.46-3.22c-11.58-3.15-23.25-6.03-35.08-8.07-.96-3.46-1.4-8.24-5.69-9.05m-81.34 6.77c.7 1.32 1.2 3.03 3.05 2.94.41 2.29.01 5.01 1.68 6.89 1.81 1.6 4.26 1.37 6.42.77-.1 2.45 1.29 4.03 3.57 4.83-.12-4.54-.58-9.06-.49-13.6l5.31.08-.2 3.51-3.55-.33c.31 4.18 4.04 6.85 6.55 9.83 3.45-1.57-2.16-3.91-1.69-5.73 2.58-1.72 1.99-4.86 2.04-7.52l4.33-.03c-.06 2.08.22 4.41-1.69 5.81a33.5 33.5 0 0 0 3.84 4.06l1.46-2.72 4.12.15-.15 3.82 3.3 1.98.02-13.35 3.15.08c-.03 2.12-.05 4.33-1.6 5.98.41 1.8 2.15 2.85 3.41 4.06l1.67-2.37 3.77.01c.11 1.88-.09 3.99 1.51 5.36l-1.8.07 1.25 2.35c3.31-.01 4.89 3.1 7.32 4.77-1.06-2.73-3.06-4.92-5.12-6.94l.48-12.88 3.4.03-1.38-3.01c-17.99-.47-36.03-.31-53.98 1.1m-61.93 13.68l2.72 2.21c3.46-1.55 6.96-3.24 10.79-3.56-2.11 3.1-7.86 2.08-8.67 5.91 2.28-.15 4.86 0 5.46 2.66l-3.65.5.47 2.71c2.52.59 4.97 1.41 7.27 2.59.64-1.65-1.07-2.25-1.83-3.26.48-1.81.82-3.62-.7-5.05-1.45-1.4 1.42-1.71 2.08-2.32l2.31 6.88 3.59.94-4.02-12.68 2.47-.92 2.95 10.98 3.75 1.19c-1.26-4.31-2.4-8.66-3.54-13l11.16-2.6.68 2.73c-2.65.59-5.37 1-7.92 1.96-1.87 2.19 1.64 4.07 3.41 4.88.26-2.86 2.43-3.83 5-4l.98 5.51 3.63 1.71-2.39-13.25 3.36-.6c.27 2.08 1.23 4.46-.87 5.95a17.6 17.6 0 0 0 4.53 3.66l.97-2.76 3.9-.56c.38 1.64.56 3.43 1.77 4.72.17 1.01.22 2.63 1.6 2.68 2.86.19 4.94 2.2 7.13 3.82-1.1-2.92-3.75-4.8-6.36-6.27-.66-4.23-1.14-8.5-1.71-12.74l3.25-.61-1.58-2.55c-17.75 2.01-35.47 5.56-51.99 12.54zm68.22-11.08l4.58-.56.06 5.07c-1.16.68-2.29 1.44-3.53 1.94-1.34-1.69-.66-4.38-1.11-6.45zm23.85-1.23l4.62.13-.08 4.39-4.42.15-.12-4.67zm14.08.23l4.49.09v4.45l-4.53.06.04-4.6zm25.1.13c2.22-.57 1.84 3.25-.21 2.74-1.6-.26-1.2-2.55.21-2.74zm-88.77 3.74l4.53-.89.79 4.47-4.59.77-.73-4.35zm99.99-1.15l3.43.44c-.34 1.76-.58 3.56-1.16 5.28-1.89 1.34-4.23.79-6.26.18 1.98-1.68 5.05-2.68 3.99-5.9zm15.89 2.65l3.42.91c-.91 1.74-.47 4.78-2.82 5.37-1.86.85-3.84-.06-5.21-1.36 2.64-.57 5-1.78 4.61-4.92zm13.8 8l.81-4.64 5.06 1.39-1.02 4.04-4.85-.79zM97.71 409.88l4.31-1.93c5.88 12.06 11.6 24.2 16.88 36.53l-3.13 1.35-18.06-35.95zm255.11 34.82l16.94-36.57 4.36 2-18.07 35.99-3.23-1.42zM90.03 413.71l4.1-2.11 17.93 35.53-3.59 1.75c-6.28-11.65-12.53-23.33-18.44-35.17zm285.98 1.35c.57-1.03 1-2.2 1.9-2.99 1.38.58 2.69 1.3 4.03 1.99l-18.38 34.95-3.76-1.36c5.06-11.03 10.8-21.74 16.21-32.59zm-292.95 2.83c.96-.97 2.25-1.48 3.43-2.1l18.02 34.52-3.25 1.75-18.2-34.17zM367.97 450c5.58-11.39 11.66-22.56 17.67-33.74l2.6 1.75c-5.77 11.44-12.03 22.63-18.05 33.94l-2.22-1.95zm-251.12-19.89l4.89 1.12 4.32 10.57-3.35 1.43c-2.02-4.35-4.12-8.66-5.86-13.12zm233.24 1.21l4.97-1.08c-1.8 4.47-3.91 8.81-5.97 13.16l-3.37-1.31c1.28-3.66 2.84-7.21 4.37-10.77zm-223.44.97l4.31.96c.92 2.04 1.71 4.15 2.25 6.33l-3.49.95c-1.16-2.7-2.3-5.41-3.07-8.24zm214.09 1.44c1.35-.86 3.07-.8 4.58-1.22l-3.34 8.26-3.43-.98c.6-2.06 1.07-4.21 2.19-6.06zm-204.86.61c2.53.53 5.19.77 7.53 1.98l-6.43 1.87-1.1-3.85zm192.06 2.13c2.67-.85 5.4-1.48 8.19-1.81l-1.42 3.69-6.77-1.88z"/></g><g fill="#004f9f"><path d="M229.3 0h14.27c7.53.44 15.07.9 22.55 1.93l8.1 33.54a237.8 237.8 0 0 1 30.61 8.21l25.23-24.57c16.31 6.96 32.12 15.35 46.26 26.09l-9.43 32.66c8.22 6.68 15.71 14.18 22.96 21.89l31.28-12.03c11.31 13.67 20.86 28.76 29.07 44.48l-23.91 24.77c3.74 8.84 7.12 17.84 9.53 27.14 11.31 1.5 22.65 2.81 33.9 4.7 3.6 16.68 4.86 33.74 5.28 50.75v1.31l-32.94 11.09c-.82 9.63-2.22 19.2-4.12 28.67 9.38 6.95 19.26 13.27 28.08 20.95-4.69 17.46-11.99 34.11-20.62 49.96l-33.21-7.32c-5.92 9.33-12.34 18.34-19.25 26.97l-19.77-15.42-25.96-21.64c3.88-4.79 8.04-9.35 11.49-14.47 16.46-24.57 26.06-54.01 25.57-83.69a144.7 144.7 0 0 0-25.56-81.63c-18.78-27.49-47.14-48.36-79.13-57.7-29.44-8.73-61.68-8.28-90.6 2.27-30.6 10.72-57.14 32.16-74.7 59.35-6.76 10.6-12.01 22.15-16.02 34.06-5.78 17.28-7.71 35.69-6.79 53.83 2.97 33.1 17.17 64.73 38.59 89.99l-45.12 36.69c-6.7-8.3-13.59-16.5-19.28-25.55-.73-.79-1.27-2.56-2.68-2.03l-33.76 5.93c-9.04-16.08-15.8-33.37-20.73-51.13l29.79-18.33c-2.16-10.26-3.84-20.62-4.6-31.08L.35 240.88 0 237.61v-9.29c.55-13.74 2.21-27.44 5.45-40.82l34.99-4.32c2.92-9.62 5.96-19.23 9.98-28.45-8.01-8.57-16.28-16.9-24.47-25.3 8.51-16.69 18.68-32.71 31.7-46.27l30.64 14.6c7.26-7.39 15.02-14.26 22.82-21.08l-10.75-32.73c15.59-10.32 31.67-20.22 49.15-27.03l23.17 25.91c10.13-3.62 20.75-5.44 31.16-7.87 3.38-11.15 6.28-22.46 9.43-33.69A318.4 318.4 0 0 1 229.3 0m-8.98 9.22c-3.31 11.21-6.12 22.56-9.48 33.75-13.81 2.1-27.5 5.18-40.62 10.05-7.13-7.63-13.87-15.62-20.88-23.38-.97-.71-1.95-2.61-3.36-1.62-11.04 4.7-21.33 10.98-31.54 17.22-1.14.9-2.83 1.41-3.4 2.84 3.4 10.61 7.17 21.12 10.35 31.81-10.96 8.67-21.31 18.12-30.86 28.32-10.28-4.62-20.43-9.51-30.58-14.4-9.11 10.39-16.75 22-23.17 34.21 7.88 8.54 16.44 16.42 24.2 25.07-5.86 12.04-10.03 24.87-13.26 37.85a1401.3 1401.3 0 0 1-34.73 4.37c-3.11 12.81-4.31 26.07-3.92 39.24l33.39 9.84c.13 12.86 2.13 25.62 5.2 38.08.07 1.23 1.31 3.08-.2 3.87-9.37 6.2-19.24 11.62-28.61 17.83 3.66 11.8 8.08 23.38 13.57 34.46.71.93.97 2.58 2.29 2.82 11.41-1.44 22.75-4.51 34.09-5.56 5.47 8.55 10.92 17.19 17.72 24.78l27.72-22.41c1.36-1.08 2.61-2.29 3.81-3.54-23.95-31.29-38.46-71.15-34.62-110.84 2.81-35.19 18.42-69.13 43.05-94.38 21.59-22.36 49.94-38.26 80.45-44.4 20.05-4.34 40.93-4.01 61.03-.21 34.48 6.58 66.3 25.61 88.84 52.46 20.29 24.02 33.08 54.37 35.74 85.72 3.81 39.12-8.62 79.2-32.75 110.1 10.38 8.97 20.98 17.69 31.99 25.88 5.92-7.8 11.23-16.03 16.25-24.42l32.98 7.13c6.19-11.83 11.6-24.11 15.32-36.95-8.9-7.38-18.86-13.34-27.93-20.5 3.34-12.71 4.61-25.85 5.95-38.89l31.98-10.59a244.7 244.7 0 0 0-3.65-38.39l-33.72-4.54c-2.63-12.78-7.69-24.8-12.53-36.85l23.41-24.1c-6.24-11.45-13.22-22.52-21.21-32.83-10.43 3.88-20.7 8.26-31.23 11.82-9.1-10.52-19.25-20.1-30.15-28.75l9.35-32.36c-10.77-7.54-22.31-14.23-34.52-19.09-8.6 7.58-16.36 16.08-24.74 23.91-13.05-4.55-26.39-8.28-40.02-10.62l-7.83-32.84c-12.93-2.09-26.13-1.28-39.17-.97zm23.46 46.11l3.16-.13c.04 4.9-.34 9.78-.43 14.68l-3.3.08.57-14.63zm-20.29.49l3.4-.29c1.87 3.06 3.76 6.11 5.91 8.98l-.35-9.21 2.99-.01c.14 4.88.6 9.74.55 14.62-1.18-.35-2.92.24-3.67-1-1.97-2.86-3.67-5.9-5.7-8.72.36 3.39.49 6.79.65 10.2-1.61.11-3.58-.17-3.21-2.27l-.57-12.3zm26.53-.44l3.15.54c2.02 3.09 3.19 6.63 4.54 10.05.59-3.16.89-6.36 1.12-9.56l3.03.06-1.26 14.49a10.2 10.2 0 0 1-3.27-.3c-1.72-3.23-2.94-6.71-4.77-9.88l-.95 9.71-2.82-.68c.09-4.83.85-9.62 1.23-14.43zm-37.59 1.81l3.81-.71c2.32 4.64 4.55 9.33 7.07 13.87l-3.5.47-1.24-2.7c-1.64.16-3.28.26-4.89.59-.51.95-.9 1.95-1.18 3l-3.13.54c.94-5.03 2.11-10.02 3.06-15.06m1.47 8.68l3.23-.37a94 94 0 0 0-2.3-4.74c-.38 1.69-.67 3.4-.93 5.11zm-11.37-7.11l3.17-.55 2.74 14.49-3.34.16c-.71-4.73-1.76-9.39-2.57-14.1zm61.46 3.19c.09-4.97 6.92-5.68 9.92-2.87 1.32 1.14 1.3 3.04 1.85 4.56-3.09.42-3.97-3.05-6.64-3.52l-2.37 1.77c2.19 1.34 4.61 2.31 6.74 3.77 2.27 1.58 1.46 5.47-.86 6.64-4.1 2.13-10.3-.46-10.09-5.57l3.06.5c.34 2.83 6.42 4.5 5.7.71-2.44-1.85-7.15-2.28-7.31-5.99zm13.41.29l.35-2.85 11.62 2.86-.45 2.78-4.44-.98a176 176 0 0 1-2.95 11.55l-3.09-1.12c1.05-3.77 2.08-7.56 2.9-11.39l-3.94-.85zm-89.34-.06c3.24-.72 6.51-2.12 9.89-1.53 4.01 1.84 5.04 7.33 3.79 11.19-2.01 3.52-6.58 3.44-10.02 4.54l-3.66-14.2m3.85 1.74l2.31 9.11c1.2-.4 2.44-.76 3.59-1.32 2.12-1.87 1.17-5.23-.15-7.31-1.39-2.01-3.85-.72-5.75-.48zm99.09-.98l3.12.89-4.36 14.02-3.12-1L291 62.94zm-109.23 1.19l3.07-.81c1.41 4.63 3.16 9.15 4.61 13.77l-3.14.93c-2.74-2.47-5.51-4.91-8.39-7.23l3.16 9.09-2.89 1.18-4.87-13.72c1.09-.47 2.2-.91 3.31-1.36a133.4 133.4 0 0 0 8.16 7.05c-.96-2.98-2.01-5.93-3.02-8.9zm113.94.16l11.21 4.09-.95 2.72-4.03-1.51c-1.64 3.62-2.33 7.71-4.51 11.04l-2.44-1c.77-3.85 2.56-7.4 3.82-11.09l-4.01-1.65.91-2.6zm-150.9 6.8c.7-1.8 3.02-1.7 4.55-2.23-.76 1.33-1.97 2.44-2.43 3.93.86.99 1.89 1.81 2.91 2.63l3.18-1.97 1.01 2.12-2.33 1.33 1.79 3.06c-1.7 1.2-4.4 1.76-4.6 4.23 2.13-.56 3.78-2.43 5.98-2.6 2.85 1.3 2.1 4.82 1.43 7.24l3.64-.08-.74 2.37c-3.28-.56-6.58-.54-9.88-.3l-.03-2.61 4.77-.49.4-3.38c-2.57 2.14-6.84 2.72-8.95-.33-1.02-3.37 5.35-2.8 4.17-5.81-2.81 1.17-5.35 2.89-7.94 4.47 2.37 3.46 4.58 7.03 6.94 10.5l-2.43 1.7-1.51-2.8c-1.68 1.41-3.36 3.48-5.83 2.96-2.84-.11-4.66-3.89-3.04-6.22 1.03-1.63 3.32-3.74 4.92-1.56l-2.71 2.29 4.54-.27-3.22-5.13-8.19 5.91c2.3 2.99 4.65 5.93 6.99 8.89 2.23-.77 5.34-.72 6.2 1.98.41 4.23-4.69 7.25-8.46 6.04l-.07-1.66c2.84-.1 5.75-1.09 6.3-4.24-1.73-.22-2.97.91-4.26 1.83-1.88-1.84-3.37-4.01-4.98-6.08l-2.66 2.2.94 3.02a183.7 183.7 0 0 1-5.75.01l.58-3.06-2.2-2.71c-.96 1.26-3.8 2.92-3.74.19 8.43-7.67 17.83-14.33 27.79-19.88-1.43-1.5-4.11-3.03-3.08-5.49m-6.42 20.09c-.81 2.06 4.33 1.92 3.61-.1-1.22-.67-2.42-.63-3.61.1m-12.6 3.05l2.8 3.32 2.88-2.62c-.82-.98-1.61-1.98-2.49-2.89-1.12.65-2.14 1.43-3.19 2.19zm41.88-25.07l3.09-.36c2.04 4.25 3.62 8.7 5.48 13.03l-3.04 1.25c-1.84-4.64-4.01-9.15-5.53-13.92zm141.18.06l3.05 1.48c-1.71 3.39-3.35 6.83-4.48 10.47a8.4 8.4 0 0 0 4.4 1.93c1.72-3.18 2.96-6.59 4.72-9.74.95-.93 2.15.75 3.17 1-1.69 3.14-2.87 6.54-4.68 9.63-2.86 5.01-12.42.62-10.5-4.86 1.1-3.44 2.93-6.59 4.32-9.91zm11.29 8.42l1.57-2.47c3.29 2.03 6.83 3.64 10.08 5.75l-.89 2.55-4.07-2.06-5.8 10.35c-.91-.56-1.8-1.15-2.67-1.75 1.63-3.54 3.76-6.81 5.58-10.25l-3.8-2.12z"/><path d="M325.9 94.11c2.45-4.14 5.28-8.04 7.9-12.06l9.09 6.05-1.69 2.27c-2.08-1.4-4.18-2.76-6.29-4.09l-1.41 2.42 5.76 3.57-1.36 2.45c-1.98-1.23-3.87-2.61-5.95-3.66-.74.81-1.37 1.71-2.02 2.58 1.9 1.27 3.86 2.47 5.71 3.83 1.88.4-.15 3.41-1.32 2.34-2.96-1.63-5.91-3.42-8.42-5.7zm-201.44-7.38l2.59-2.13 1.81 2.46-2.57 1.88-1.83-2.21zm222.89 9.52c4.21-2.66 10.23.93 10.42 5.75.07 3.34-2.21 6.2-4.92 7.9-4.15 2.44-10.16-1.07-10.13-5.86-.31-3.26 2-6.16 4.63-7.79m1 3.26c-1.41 1.12-2.35 2.79-2.71 4.54a4 4 0 0 0 4.39 3.56c2.58-1.04 5.05-3.71 4.45-6.68-.75-2.68-4.24-3.25-6.13-1.42zm3.74 14.79c3.57-3.39 6.67-7.24 10.41-10.46l7.45 7.5-2.42 1.78-4.98-4.99-1.52 1.95c.6 1.9 2.69 3.01 4 4.46l-1.89 2.2-4.34-4.35-4.53 4.34-2.18-2.43zm-247.78-3.92c1.39-1.2 2.69-3.96 4.88-2.63l-.87 2.35c2.81 2.89 5.81 5.61 8.72 8.4l-1.81 2.34c-1.67-1.67-3.22-3.49-5.16-4.85a41.4 41.4 0 0 0-2.49 2.07l1.42 3.58c-1.81-.28-4.67.98-5.73-.97.6-2.68 3.47-4.23 4.75-6.62a47.3 47.3 0 0 0-1.97-2.28l-7.52 8.5 9.83 8.04-1.53 2.33c-3.36-2.61-6.64-5.32-9.94-8.01l-2 2.25c3.33 2.54 6.62 5.14 10.05 7.54l-1.32 2.44-3.32-2.3c-.5 2.59-1.57 5.39-4.1 6.62-2.17.78-4.91.18-6.24 2.62l-1.47-2.21 3.36-2.09c.18-1.17 1.11-2.47.25-3.57-.57-1.8-3.52-2.58-3.52-.02l3.56 1.76c-2.23 1.82-4.98 1.74-6.32-.95.71-1.75 1.2-3.98 3.25-4.65 1.63-.26 3.57-.25 4.76 1.08 1.65 1.55 1.19 4.01 1.49 6.03 1.85-1.65 3.26-4.13 2.04-6.62-1.12-1.21-2.49-2.17-3.75-3.22-1.11.51-2.46 2.13-3.32.42 3.78-6.39 9.18-11.74 14.02-17.38zm123.21 15.18c3.41-5.62 6.49-11.56 11.13-16.29 4.35 5.42 8.16 11.27 11.18 17.55 6.07-6.48 14.97-11.01 24.02-8.77-1.83 5.13-2.95 10.48-3.52 15.9 5.72-3.59 12.97-6.53 19.66-3.93-1.67 4.46-2.82 9.08-3.59 13.78 6.35-2.13 14.28-4.6 20.19-.09-3.34 4.18-6.54 8.56-8.05 13.77 5.8-2.21 12.54-3.02 18.35-.41 1.78.73 2.98 2.27 3.89 3.9-10.36 4.18-14.13 15.44-19.79 24.07-3.64 5.98-9.48 10.47-16.21 12.41 1.98 1.57 4.08 3.05 5.67 5.05 3.1 3.62 4.83 8.32 8.6 11.37 2.87 2.67 7.08 2.18 10.67 2.91-1.76 6.62-7.19 11.48-12.76 15.04-9.19 5.77-20.82 5.22-30.83 2.08-2.22-.62-3.97-2.14-5.63-3.66-3.04 5.41-9.43 6.71-14.89 8.29-4.32 9.43-5.16 20.35-3.02 30.45 5.04-1.22 10.08-2.67 15.32-2.69 9.13-.42 17.19 4.76 26.08 5.83 3.63.58 7.3.13 10.92-.25l21.2 35.88c-1.65 3.51-3.74 7.19-3.3 11.21.41 3.1 3.27 4.84 5.25 6.93h-68.02c-4.46 3.03-9.54 5.62-15.12 5.05-4.55-.04-8.4-2.57-12.1-4.9-4.56-.77-9.23-.02-13.84-.04-17.67 0-35.35 0-53.02-.01 1.18-2.13 3.33-4.26 2.7-6.91-1.06-4.23-4.05-7.57-6.39-11.14 9.65-12.66 19.73-24.98 29.7-37.39 10.02 1.01 20.18.18 29.96-2.12 5.37-1.21 10.95-1.22 16.35-.2-1.56-10.2-.88-20.8 3.01-30.42-3.67-1.25-7.43-2.36-10.76-4.36-2.25-1.38-3.95-3.44-6.01-5.05-8.21 2.34-16.65 5.86-25.38 3.86-9.26-2.34-18.61-7.96-22.38-17.14 3.05-1.92 6.38-3.79 8.09-7.12 2.33-4.42 5.46-8.34 9.21-11.64-4.27-1.42-8.4-3.58-11.35-7.06-5.61-6.46-6.88-15.38-11.93-22.2-1.87-2.99-4.96-4.83-7.79-6.78 3.04-7.58 12.3-8.56 19.19-6.39-1.41-4.52-3.99-8.5-7.26-11.89-1.84-1.38.55-2.76 1.87-3.14 6.81-2.11 14.34.29 19.33 5.2-.31-5.72-2.2-11.13-4.04-16.5 7.87-2.3 16.45.74 21.96 6.6 1.03-6.18 2.52-12.58.62-18.75 8.66-.5 17.79 2.79 22.86 10.11m10.87-7.55c-2.36 2.49-4.46 5.24-6.04 8.3-6.71 12.95-10.3 27.97-7.66 42.5 1.15 6.09 3.17 12.41 7.62 16.93 2.12 1.72 4.72 4 7.67 3.06 4.02-1.85 6.71-5.69 8.25-9.73 5.17-13.06 5.25-27.9.95-41.22-2.28-7.18-5.06-14.65-10.79-19.84m-27.53 2.25c-.66 6.43-1.34 12.86-2.56 19.21-1.5 9.4-3.78 19.32-.37 28.58 2.9 9.51 10.24 18.67 20.75 19.66-7.12-8.54-9.8-19.9-9.24-30.83.62-7.86 2.44-15.57 5.08-22.99-1.26-6.65-7.09-12.15-13.66-13.63m41.03 12.1c3.38 10.47 5.76 21.58 4.3 32.61-.76 8.42-3.73 16.66-8.88 23.4 1.42.56 3 1.48 4.41.32 7.43-3.75 11.93-11.61 13.24-19.62 3.16-15.36-2.85-31.29 2.07-46.44-6.37.31-11.26 5.14-15.14 9.73m-62.69-.34c1.79 10.58.52 21.41 2.64 31.95 1.37 7.2 4.94 13.91 9.92 19.25 4.89 5.17 12.12 7.73 19.18 7.28-5.99-3.98-12.14-8.42-15.2-15.19-5.37-10.64-4.11-22.9-2.49-34.28-3.29-4.55-7.79-9.81-14.05-9.01m80.86 9.93c.64 12.66 1.76 26.15-4.26 37.83-2.09 4.56-5.99 7.76-9.48 11.2 7.23-.63 13.68-5.14 17.22-11.39 5.96-9.77 6.6-21.46 8.01-32.51.41-4.33 1.53-8.6 1.24-12.97-4.93.88-10.27 3.32-12.73 7.84m-98.84.66c1.41 3.23 3.49 6.16 4.56 9.54 2.72 9.06 4.73 18.49 9.24 26.88 4.91 8.43 14.12 14.65 24.1 14.26-3.77-2.67-7.81-5.05-10.91-8.53-8.43-8.88-11.7-21.41-11.7-33.4-2.61-5.67-9.08-9.3-15.29-8.75m114.38 7.1c-1.47 7.18-2.11 14.57-4.1 21.66a43 43 0 0 1-14.15 20.95c7.56-.23 13.35-5.78 17.44-11.61 5.17-6.58 6.85-14.93 9.07-22.8 1.14-4.31 3.39-8.18 5.36-12.14-4.87-.58-9.7 1.12-13.62 3.94m-126.31 9.1c1.63 2 3.46 3.82 4.96 5.92 4.79 7.19 6.19 16.34 12.24 22.73 4.44 4.72 11.21 6.2 17.47 5.79-3.6-2.77-7.34-5.48-10.08-9.16-5.09-6.3-6.39-14.5-8.99-21.94-3.54-4.57-10.45-5.75-15.6-3.34m138.51 5.97c-3.55 3.07-3.96 8.03-6.21 11.92-4.07 7.15-9.66 13.5-16.62 17.95a23.8 23.8 0 0 0 19.76-7.92c4.61-5.11 7-11.67 10.42-17.54 1.73-3.02 3.92-5.75 5.81-8.68-4.79-1.01-9.63 1.12-13.16 4.27m-65.36 28.82c-6.92 1.06-12.39 6.42-15.18 12.61-2.85 6.27 2.25 13.77 8.73 14.8 4.19.97 8.26-.76 12.12-2.14 2.38.45 4.42 2.3 6.95 2.48 6.48 1.51 14.57-3.26 14.6-10.35-.16-6.06-4.33-11.32-9.21-14.55-5.23-3.57-11.94-3.98-18.01-2.85m-43.36 5.25c-7.95 2.91-9.06 12.83-15.9 17.03 9.13 3.06 19.25 2.22 28.37-.46 3.72-1.44 8.36-2.69 10.09-6.7 1.99-4.03 3.92-8.14 6.68-11.73-9.73.13-19.82-1.23-29.24 1.86m69.98-1.38c2.43 4.91 5.29 9.84 5.63 15.45.39 1.82-.07 4.31 1.81 5.43 10.54 5.44 24.1 8.25 34.97 2.18-2.23-2.1-4.94-3.65-6.96-5.98-3.56-4.17-6.08-9.21-10.2-12.9-1.93-1.81-4.65-2.44-7.22-2.56-6.04-.18-12.03-.98-18.03-1.62m-49.28 26.26c3.66-1.47 2.45-5.64 2.28-8.74-3.86 1.24-1.95 5.74-2.28 8.74m-5.65-5.39l.02 7.99 3.15-1.11c-.01-2.69-.04-5.37-.15-8.06l-3.02 1.18m-5.05.78a146.6 146.6 0 0 0-.02 9.14c.98-.57 3.16-.51 2.8-2.21.11-2.36.02-4.72 0-7.07l-2.78.14m-23.16 1.52c.95 1.64 2.46 2.81 3.99 3.89l.12-3.43-4.11-.46m17.36-.31c-.21 2.83-.19 5.67.2 8.48l3.22-.78c-.02-2.7-.11-5.4-.44-8.08l-2.98.38m-10.9.86l-.05 4.66 3.3 1.31-.01-5.98-3.24.01m5.62-.13v6.91l3 .29v-7.41l-3 .21m30.28 1.39l.13 3.18 2.58 2.51-.06-4.79-2.65-.9m37.08.87a214.7 214.7 0 0 0 .06 6.71c.94-.88 1.99-1.67 2.77-2.71.21-1.75.02-3.52-.07-5.27l-2.76 1.27m9.38.1c-.06 1.45-.33 3.08.29 4.45.97.76 2.05 1.36 3.11 2.01l.2-5.81c-1.18-.27-2.66-2.32-3.6-.65m-40.7.69l-.16 6.13 3.01 1.85c.1-2.57.11-5.14.06-7.7l-2.91-.28m12.35 1.17c-.03 3.08-.19 6.16-.34 9.24l4.21.14.02-9.8-2.16-1.13-1.73 1.55m6.72-.11l-.12 9.25 3.89-.59c.05-3.11.13-6.25-.42-9.32l-3.35.66m6.26-.93l-.01 8.87 3.52-1.01-.02-8.16-3.49.3m-19.65.68c-.01 2.73.02 5.47.13 8.2l3.74.87c.05-2.91.05-5.83.04-8.75l-3.91-.32m40.96.33c.04 1.82-.1 3.66.24 5.47l3.36.85-.03-5.28-3.57-1.04m21.2 3.74c2.47.19 4.24-1.56 5.72-3.27-2.23.47-5.51.23-5.72 3.27m-15.18-1.84l-.04 4.55 3.17.89c.08-1.79.1-3.58.08-5.36l-3.21-.08m5.68.55l.07 4.73 2.81-.52.01-4.14-2.89-.07m5.39-.22l-.13 3.99 2.41-.65-.23-3.65-2.05.31m-51.67 10.74c-4.45 9.54-4.98 20.54-2.99 30.78.34 2.52 3.48 3.08 5.54 3.41-.96-5.4-2.02-10.85-1.74-16.37.05-6.05 1.96-11.85 3.63-17.6l-4.44-.22m3.02 36.91c.21 10.72-1.3 21.37-1.18 32.09 3.74-1.61 7.17-3.95 11.13-5.04 5.13-1.59 10.57-1.61 15.9-1.55 15.45.17 30.33 5.95 45.84 5.32-5.09-10.54-11.88-20.19-17.73-30.33-7.28.71-14.56-.63-21.35-3.24-10.46-4.3-23.08-3.49-32.61 2.75m-28.11-3.05c-9.05 2.21-18.43 2.54-27.7 2.04l-20.13 25.25c-1.68 2.05-3.29 4.16-4.65 6.45 15.67.68 30.81-4.49 46.38-5.25 10.22-1.14 20.78.73 29.56 6.2l1.44-31.53c-7.24-4.99-16.62-5.12-24.9-3.16m-39.96 35.9c-4.72.51-9.47.3-14.2.47 2.25 1.99 5.35 1.43 8.11 1.43 12.39-.82 24.64-3 36.95-4.58 6.98-.7 14.16-.79 20.97 1.12 3.2.87 6.12 2.5 9.25 3.55-.32-1.31-1.22-2.27-2.44-2.79-5.66-3.13-12.24-4.16-18.64-4.19-13.52-.26-26.65 3.53-40 4.99m69.9.96c.43.9.98 1.73 1.65 2.49 6.52-4.5 14.44-6.88 22.37-6.58 15.2-.29 29.81 5.85 45.02 4.93l1.96-1.15c-15.53.58-30.51-4.52-45.91-5.53-8.63-.44-17.89.69-25.09 5.84m-69.08 2.34c-4.1.46-8.25.4-12.31 1.16 3.13.64 6.34.48 9.51.43 15.97-1.06 31.77-6.04 47.87-3.97 4.5.36 8.68 2.23 13.01 3.35-2.73-3.19-7.11-4.01-11.02-4.81-15.81-2.37-31.39 2.55-47.06 3.84m80.71-2.68c-3.32 1.24-7.22 2.34-9.12 5.61 4.68-1.2 8.8-4.01 13.62-4.79 14.64-3.43 29.2 1.94 43.76 3.01a22.5 22.5 0 0 0 9.3-.71c-12.57.68-24.69-3.27-37.08-4.58-6.83-.17-13.89-.78-20.48 1.46m-91.68 6.21c5.51 1.64 11.4 1.48 17.1 1.24 9.14-.28 17.92-3.3 27.05-3.7 7.61-.09 15.03 1.87 22.27 4.05l1.05-2.26c-6.36-2.94-13.42-4.14-20.4-4.04-15.8.52-31.19 5.55-47.07 4.71m75.35-5.16c-3.18 3.94-7.17 8.1-7.27 13.46.57 3.15 4.25 4.11 7.03 3.83 2.92.01 7.5-.27 8.02-3.93-.74-5.2-3.99-9.84-7.78-13.36m20.17 1.94c-3.8 1.17-8.36 1.95-10.74 5.48 3.69-1.12 7.27-2.61 11.08-3.34 10.92-2.34 22.16-1.06 33.09.48 5.68 1.05 11.4 2.24 17.21 1.77 1.36.14 2.52-.58 3.34-1.59-18.13 1.29-35.94-7.15-53.98-2.8M186 317.21c-8.04 1.31-16.24 1.09-24.31.18l1.21 1.16c11.64 2.12 23.45.11 35.04-1.34 9.58-1.18 19.14.65 28.43 2.85l-.45-1.98c-5.39-1.96-11.09-3.06-16.78-3.61-7.83-.61-15.48 1.55-23.14 2.74m68.09-.9c-2.72.95-5.96 1.36-7.81 3.83 7.56-1.11 14.95-3.7 22.7-3.28 12.09-.63 23.94 2.71 36 2.44 1.51-.11 3.28-.01 4.43-1.2-4.09-.17-8.22.08-12.26-.73-14.15-2.31-28.95-5.14-43.06-1.06m-58.17 3.04c-11.17 1.65-22.57 2.95-33.81 1.16l-.02 2.13 44.91.01c6.36.22 12.71-.85 19.05.1-2.28-1.76-5.22-2-7.93-2.58-7.29-1.52-14.82-1.42-22.2-.82m56.96 1.48c-1.49.29-2.85.96-4.15 1.72l60.86.01.87-1.49c-5.55 0-11.13.43-16.64-.4-13.53-1.96-27.51-3.07-40.94.16zm121.49-204.68l7.73 9.21-2.49 1.7c-.83-1.05-1.61-2.14-2.6-3.03-3.19 2.21-5.97 4.93-9.03 7.31l-2.16-2.46 9.07-7.6-2.73-3.33 2.21-1.8zm-3.06 19.43c3.95-2.93 7.91-5.86 12.03-8.55l6.33 9-2.53 1.22c-1.84-1.68-2.65-4.96-5.05-5.65-2.76 2.13 1.67 4.77 2.6 6.88l-2.34 1.73a164.1 164.1 0 0 0-4.09-5.7l-2.69 2.16 4.5 5.94-2.13 2.15-6.63-9.18zm-288.98 3.79c.68-1.27 1.71-2.28 2.96-2.99l-.09 3.46c1.77 1.51 3.64 3.11 4.22 5.48l5.66-.72-.24 2.49c-3.78.78-7.68.77-11.52.97-.32-2.28 1.6-2.87 3.36-3.45a23.3 23.3 0 0 0-3.03-2.31c-2 1.62-2.81 4.33-4.13 6.49 3.87 1.88 7.66 3.91 11.43 5.99l-1.44 2.07c-2.12-.63-3.98-1.88-6.01-2.73l-1.4 2.5a83.4 83.4 0 0 1-1.55-1.73c2.45-2.14-1.3-2.74-2.36-3.86-.58 1.14-1.17 2.27-1.67 3.46 1.86 1.65 4.1 3.03 5 5.49l5.64-1.48-.11 2.64c-3.71 1.18-7.61 1.53-11.45 1.98-.3-2.3 1.82-2.98 3.42-3.91l-3.94-1.81-2.59 5.8-1.66-1.38c3.09-7.83 7.12-15.27 11.5-22.45zm298.22 9.58c-1.36-6.92 9.57-12.07 13.75-6.2 2.26 2.76 1.64 6.7-.93 9.01l-1.54-2.69c1.22-2.13.77-5.33-1.99-5.83-2.84.26-6.91 2.31-6.04 5.75.23 2 2.58 2.34 4.21 2.13l1.68 3.01c-3.93 1.38-8.57-.92-9.14-5.18zm-309.22-1.31l1.69-2.88 2.56 1.65-1.55 2.67-2.7-1.44zm315.76 9.52l11.88-5.77 1.36 2.81-4.82 2.6 2.33 4.63 4.81-2.32 1.49 2.88c-4.27 2.3-8.68 4.31-13.04 6.42l-1.66-2.73 5.88-2.95-2.34-4.85-5.95 2.96c-.28-1.24-2.04-3.15.06-3.68zm4.69 13.35l13.71-5.37 1.08 3.06c-1.87 3.14-4.56 5.73-6.64 8.74 2.91-1.12 5.76-2.43 8.77-3.29l1.29 2.62-13.91 5.37-.98-3.18a201.5 201.5 0 0 0 6.93-8.53 98.2 98.2 0 0 0-8.69 3.46l-1.56-2.88zm-327.52 6.92l1.74-1.76c.53.93 1 1.9 1.41 2.9 3.68 1.36 7.48 2.38 11.06 3.98l-.53 2.6c-4.14-1.35-8.21-2.9-12.38-4.16l-2.17 8.26 2.31.79c.03-2.46 1.05-5.85 4.13-5.56 2.73-.1 7.29 3.7 4.21 6.08-1.69-1.27-3.24-4.29-5.7-3.15-1.03 4.36 4.56 3.88 7.15 5.15l-.39 2.56-3.19-.76c-.01 2.16-.52 4.92-3.07 5.38-3.55 1.23-6.79-2.6-5.27-5.97l1.82-.57c.38 1.58.18 4.39 2.64 4.14 1.89.11 1.62-2.34 1.19-3.5-2.08-1.01-4.42-1.3-6.66-1.82a193 193 0 0 1-2.15 8.52 266.5 266.5 0 0 0 12.49 2.65l-.4 2.73c-4.23-.75-8.42-1.72-12.65-2.51l-.67 3.42c2.56.43 5.16.76 7.67 1.47.85 2.59-4.73 6.44-4.5 1.89l-3.61-.53-.55 4.12 12.76 1.34-.55 2.54c-4.25-.03-8.45-.76-12.67-1.14l-.01 3.68 12.49.63.07 2.76-12.75-.65-.37 3.57c4.25.09 8.5-.04 12.74-.34l.14 2.83c-.73 0-2.18-.02-2.91-.03 1.55 2.71 3.1 6.3 1.08 9.19-.93 1.47-2.74.87-4.17.98-1.52.52-3.32 2.18-4.83.7-.64-1.54-.38-3.26-.52-4.87l-1.24.17.02 7.82c4.35.03 8.67-.54 12.99-1.01l-.11 2.9-12.39 1.17.21 2.95c4.28-.32 8.5-1.27 12.79-1.39 1.74 3.58-2.81 2.69-4.7 3.33 1.7 2.23 6.57 3.77 4.55 7.14-1.34-1.24-2.62-2.54-3.84-3.89-.4 3.62-4.06 4.02-6.88 4.78l-.66 2.27-1.48-.48c-1.09-3.57-.94-7.4-2.1-10.96-.95 1.31-2.28 5.38-3.95 2.26 1.47-2.06 3.25-3.91 4.39-6.2-2.25 1.34-4.19 3.12-6.07 4.93l-1.3-2.51 6.63-4.25c-.29-7.04-.63-14.1-.3-21.14-1.97 1.66-3.86 3.41-5.72 5.2l-1.43-2.44c3.15-2.49 8.47-4.03 7.67-9.03-2.17.04-5.45.06-5.96-2.71-1.72-5.98 4.16-10 8.29-13.05a126.7 126.7 0 0 1 3.41-13.45c-2.4-.06-6.12-.13-6.28-3.33-.11-4.78 4.85-7.07 9.03-6.62m-7.2 6.28c1.61.86 3.4 1.08 5.2 1.1l1.32-4.67c-2.88-.62-5.84.51-6.52 3.57m-5.34 28.41c-.01 2.22 2.66 1.84 4.14 2.11.41-3.28.93-6.55 1.41-9.82-2.31 2.06-5.82 4.18-5.55 7.71m5.37 17.15l.61 3.05 2.96-.07c.46 1.86-.88 5.07 1.65 5.67.27-2-.87-4.86 1.77-5.62.35 1.5-.13 3.63 1.73 4.27 2.54-2.05.07-5.23-1.39-7.1-2.41-.47-4.89-.19-7.33-.2m1.69 22.66c-.03 1.4.22 2.79.37 4.18 1.84-.37 3.82-.42 5.49-1.35.15-1.25-.46-2.41-.76-3.58-1.71.19-3.44.3-5.1.75zm344.4-70.6c4.31-2.01 10.09.66 10.28 5.69 1.26 7.74-11.7 11.35-14.7 4.22-2.1-3.84.18-8.91 4.42-9.91m2.01 2.83c-2.23.4-4.89 2.25-4.15 4.85 1.16 5.49 11.48 2.26 9.25-2.98-.85-1.98-3.23-2.42-5.1-1.87zm-4.15 14.15c4.83-.89 9.63-1.93 14.46-2.88l.26 3.44c-3.84.52-7.64 1.25-11.35 2.35.49 2.23 1.2 4.46 1.22 6.77l-2.51.69-2.08-10.37z"/><path d="M408.38 208.41c2.89-.75 6.56-.88 8.78 1.48 2.07 1.98 2.25 5.27 1.44 7.87-2.2 4.55-9.06 5.67-12.87 2.52-3.55-3.4-2.51-10.66 2.65-11.87m1 3.13c-2.74.54-3.9 4.06-1.97 6.11 2.81 2.22 8.1 1.17 8.97-2.59 0-3.66-4.19-4.6-7-3.52zm-1.02 12.92c3.39-1.51 8.07-1.31 10.51 1.81 2.86 3.53 1.53 10.62-3.72 10.81-.5-2.81 2.28-4.5 2.45-7.11-1.33-3.86-7.36-4.08-9.52-.96-1.29 2.33.35 4.79 2.72 5.37l-.29-3.38h2.72l.31 6.18-8.28.31 1.14-3.07c-2.59-2.97-1.68-8.27 1.96-9.96zm-3.03 18.03c5.48 1.54 9.98-2.2 14.63-4.36l.06 3.8-6.1 2.56a212.5 212.5 0 0 0 5.8 3.02l-.19 3.57c-2.99-1.39-5.65-3.37-8.61-4.79-1.89-.41-3.82-.48-5.73-.68l.14-3.12zm-1.91 24.2c-.53-3.36.34-6.73 1.04-10 4.76.92 9.59 1.42 14.33 2.45-.76 3.12-.55 6.59-2.09 9.46-1.56 2.31-4.49 1.3-6.23-.2-2.21 1.81-6.2 1.26-7.05-1.71m2.99-6.44c-.23 2.44-1.31 6.32 2.48 6 .46-1.79.87-3.59 1.27-5.39l-3.75-.61m6.12 1.08c-.13 2.23-1.21 5.23 1.89 5.59.44-1.77.85-3.55 1.22-5.33l-3.11-.26zm-8.12 10.19c5.18-1.72 12.59 2.35 10.77 8.47-1.02 7.11-11.82 7.02-14.6 1.26-1.66-3.53.04-8.44 3.83-9.73m-.12 3.57c-1.88 1.3-2.12 4.47-.07 5.74 2.33 1.71 6.79 2.35 8.08-.91 1.59-4.39-4.89-6.79-8.01-4.83zm-186.64.73c1.84-.64 5.5-.83 4.54 2.18-1.68-.44-4.89.59-4.54-2.18zm26.46 1.61l5.48-2.02 1.02 2-5.08 1.99-1.42-1.97zm7.71-2.23l5.02.07-.23 2.33c-1.89-.29-4.38.05-4.79-2.4zm7.58.14l5.43 1.03-.23 2.29-5.48-1.14.28-2.18zm-49.61 3.75c-.52-3.07 3.07-2.7 5.07-3.06l1.24 1.73a48.8 48.8 0 0 1-6.31 1.33zm14.24-1.09c.34-3.61 4.71-.17 6.63.32-1.59 2.84-4.53.58-6.63-.32zm-160 2.01l12.18-3.17c.8 2.29-.03 3.66-2.53 3.56.65 2.04 1.94 4.26 1.02 6.43-.57 1.63-2.17 2.49-3.45 3.49-.99-.95-1.69-3.67-3.48-2.61-3.04 1.09-.45 4.38.03 6.38 4.03-1.54 8.12-2.92 12.21-4.27l.49 2.59c-3.83 1.74-7.95 2.77-11.85 4.34l1.32 3.24 11.74-4.73 1.07 2.58-7.81 3.17 2.35 5.34c2.87-.78 3.83-3.74 4.96-6.13l2.06.99c-1.41 2.77-2.41 7.43-6.27 7.31-4.34.34-2.84-7.23-7.14-6.42 1.28 3.53 2.92 6.91 4.32 10.4 2.57-1.26 5.51-2.61 7.66.1l2.23-5.71 2.43 1.01c-1.56 3.84-3.44 7.55-5.58 11.11l-2.08-1.07a132.4 132.4 0 0 0 1.06-4.26 36 36 0 0 0-4.32 1.34l3.5 6.76 11.26-6.38.87 2.63c-3.43 2.29-7.15 4.11-10.71 6.21l1.54 2.59 10.84-6.66 1.42 2.51-5.31 3.23c.92 2.44 3.31 1.11 4.98 2.02-.25 1.76.14 4.35-1.52 5.46-2.13-2.34-4.75-.26-5.65 2.01 1.53-.95 4.94.42 2.54 2-2.67 2.12-4.74-1.27-5.24-3.56 1.32-1.71 2.95-3.13 4.79-4.26l-1.45-2.55-3.62 1.94.38 3.28-1.85-.73c-5.65-8.5-9.98-17.8-14.13-27.11-1.37.86-2.59 2.16-4.27 2.39-2.87-.08-4.23-3.44-3.93-5.9.22-2.77 2.56-4.57 4.54-6.19-1.57-4.94-3.21-9.9-4.25-14.98l.43-1.8 2.22 2.08m.43 2.8l.62 3.2c2.38-1.35 5.32-1.89 7.13.67 1.56-2.04-.04-3.96-1.26-5.62l-6.49 1.75m1.99 14.4c-1.51 1.52-4.82 3.74-2.81 6.11 1.44 1.94 3.21-.62 4.63-1.29l-1.82-4.82zm136.93-18.25c.91-1.44 2.87-1.15 4.31-1.61l.29 2.51c-1.51-.22-3.76.85-4.6-.9zm63.07-1.7l4.06.29.15 2.19-4.15-.37-.06-2.11zm-77.13 1.24h3.38l.08 2.22-3.62.03.16-2.25zm6.79-.07c1.78.43 5.07-1.06 5.27 1.68-1.56 1.03-3.6.49-5.36.73l.09-2.41zm77.33-.25c1.8.22 3.6.53 5.37 1.01l-.79 1.83-4.8-.69.22-2.15zm7.71 3.32c-.79-3.29 4.72-3.14 4.63-.06l-4.63.06zm-36.12.99a23.4 23.4 0 0 1 9.31-2.05l-.24 2.06c-2.58.37-5.13.93-7.57 1.85l-1.5-1.86zm12.18-2.21l5.08.72-.38 2.21-4.68-.6-.02-2.33zm-45.09 1.03c1.73.07 3.87-.95 5.35.25-.1 2.38-3.42 1.49-5.01 2.04l-.34-2.29zm7.89-.46c3.29.19 6.51.97 9.49 2.4l-1.62 1.64c-2.62-.67-5.2-1.5-7.88-1.85l.01-2.19zm45.11.57l4.69.95-.32 2.23-5.22-1.11.85-2.07zm-60.62 1.19c2.15-.21 4.98-1.62 5.94 1.2-1.9.43-3.81.75-5.73.99l-.21-2.19zm-19.13.83l7.92.36.45 1.91c-2.92.36-5.85.15-8.77.01l.4-2.28zm11.08-.02c2.2.18 5.96-1.79 6.04 1.72l-5.99.59-.05-2.31zm75.46 1.42l.75-2.15 5.4.66-.25 2.3-5.9-.81zm9.78-1.05c2.26.06 4.5.46 6.76.7l.35 2.08c-2.76-.08-5.52-.29-8.24-.72l1.13-2.06zm-27.51 1.64l6.29.03-.19 2.24c-1.96.02-3.92.01-5.87-.01l-.23-2.26zm144.12-.49l13.99 4.87-1.49 4.26c-3.61-.31-7.21-.84-10.84-.84a219.3 219.3 0 0 1 9.13 5.63l-1.41 4.28a322.9 322.9 0 0 1-13.93-4.85l1.02-2.83 9.32 3.24c-2.73-2.05-5.69-3.77-8.55-5.62l1.2-2.95 10.25 1.38c-3.02-1.55-6.29-2.53-9.49-3.61l.8-2.96zm-192.45 2.17l5.29-.97c.99 2.96-2.5 2.71-4.33 3.33l-.96-2.36zm7.14-.83a56.1 56.1 0 0 1 6.98-.26l-.46 2.28c-2.35-.19-5.5.83-6.52-2.02zm36.45.28c1.3-.99 2.71.43 2.27 1.81-1.75.7-3.93 2.18-5.48.29.3-1.48 2.05-1.61 3.21-2.1zm13.37-.86l5.09.86-.19 2.34c-2.03-.58-5.93.17-4.9-3.2zm-64.48 2.78l5.42-1.11.56 2.43-5.03.79-.95-2.11zm23.58.37l1.01-2.17 5.09 1.93c-1.19 3.06-4.02 1.04-6.1.24zm47.87-1.78c2.07.68 6.4-.23 5.44 3.31-2.21-.57-5.94.11-5.44-3.31zm-80.1 2.08l6.1-.59.3 2.41c-2.22-.26-6.25 1.76-6.4-1.82zm88.42-.81l6.12.76c.33 3.76-4.11 1.46-6.22 1.63l.1-2.39zm-97.35.66l6.34.1c.36.78-.02 1.62-.08 2.43-2.16-.67-6.57 1.1-6.26-2.53zm106.18.1c2.07.52 5.35-.93 6.53 1.25-1.49 2.27-4.72 1.04-6.97 1.08l.44-2.33zm-74.72 1.98c1.84-.34 3.72-.31 5.58-.1l-.43 2.48-4.28-.07-.87-2.31zm43.95-.67l4.76-.2.11 2.57-4.93.16.06-2.53zm-51.45 1.45l5.1-.81.67 2.44-5.16.99-.61-2.62zm16.32-.49l5.71 2.29-1.77 2.12-4.91-2.08.97-2.33zm25.68 1.67c2.04-.89 4.14-1.66 6.3-2.23 1.39 3.06-2.15 3.29-4.03 4.36l-2.27-2.13zm16.57.23l.94-2.68 4.62.93-.13 2.4-5.43-.65zm-67.28 0l6.19-.79.71 2.36-6.68 1-.22-2.57z"/><path d="M271.26 292.19l6.47 1-.34 2.46-6.49-.92.36-2.54zm-84.18 1.98l6.57-.59.29 2.49-6.53.54-.33-2.44zm93.16-.76l5.95.71.1 2.43-6.64-.52.59-2.62zm-102.98.85l7.49.01.01 2.46-7.49.2-.01-2.67zm111.27 2.04c.88-3.05 4.49-.72 6.66-1l.08 2.44c-2.19-.42-5.21.52-6.74-1.44zm101.07 14.62c-.67-3.83 1.92-7.14 3.3-10.5l13.23 5.92c-1.26 2.93-2.18 6.13-4.23 8.63-2.07 2.03-4.98.47-6.24-1.63-2.29.74-5.24.13-6.06-2.42m4.48-6.53c-1.11 2.19-2.85 5.47.5 6.54a93.1 93.1 0 0 0 2.82-4.96l-3.32-1.58m5.44 2.77c-.43 1.79-2.28 4.14-.33 5.64 1.81-.93 2.39-3.02 3.3-4.68l-2.97-.96zm-11.95 4.56c3.82 3.55 6.96 7.73 10.5 11.54l-1.83 3.26-15.44-2.65c.88-1.15 1.4-3.19 3.3-2.7 2.51.41 2.91-2.78 4.12-4.27l-2.03-2.14 1.38-3.04m.9 10.26l5.34 1.02-3.46-3.9-1.88 2.88zm-11.26 7.17l2.31-2.58c3.78 4.13 9.57 3.14 14.58 3.68l-1.99 3.27-6.54-.84c1.12 1.86 2.28 3.71 3.48 5.54-.76.87-1.15 2.23-2.33 2.63-1.82-2.74-2.9-5.91-4.93-8.5-1.41-1.23-3.04-2.16-4.58-3.2zM91.44 386.39c41.18-19.04 86.2-29.57 131.52-31.21 53.84-1.98 107.98 9.04 156.99 31.32-1.97 4.86-4.28 9.56-6.47 14.32 9.25 3.75 17.93 8.74 26.33 14.1-8.68 16.02-16.85 32.33-26.02 48.08h-.47c-2.53-1.78-5.38-3-8.2-4.2-14.84-6.49-30.07-12.24-45.83-16.06-1.25-.46-2.8-.5-3.76-1.48 1.3-7.29 3.51-14.38 5.18-21.59-55.36-14.45-114.19-13.79-169.72-.6l5.49 22.38a281.7 281.7 0 0 0-48.61 16.65c-3.17 1.47-6.67 2.51-9.29 4.9H97.3l-.05-.66c-8.16-15.97-16.86-31.68-25.37-47.47 8.23-5.63 17.12-10.24 26.25-14.22l-6.69-14.26m11.35 3.92c4.23 10.2 9.37 20 14.09 29.98 39.58-13.19 81.36-20.14 123.12-19.41 39.12-.02 78.11 7.39 114.88 20.62l14.11-30.94c-22.02-8.91-44.66-16.51-68.06-20.87a339.5 339.5 0 0 0-198.14 20.62m-5.08 19.57l18.06 35.95 3.13-1.35c-5.28-12.33-11-24.47-16.88-36.53l-4.31 1.93m255.11 34.82l3.23 1.42 18.07-35.99-4.36-2-16.94 36.57M90.03 413.71c5.91 11.84 12.16 23.52 18.44 35.17l3.59-1.75-17.93-35.53-4.1 2.11m285.98 1.35c-5.41 10.85-11.15 21.56-16.21 32.59l3.76 1.36 18.38-34.95c-1.34-.69-2.65-1.41-4.03-1.99-.9.79-1.33 1.96-1.9 2.99m-292.95 2.83l18.2 34.17 3.25-1.75-18.02-34.52c-1.18.62-2.47 1.13-3.43 2.1M367.97 450l2.22 1.95 18.05-33.94-2.6-1.75c-6.01 11.18-12.09 22.35-17.67 33.74m-251.12-19.89c1.74 4.46 3.84 8.77 5.86 13.12l3.35-1.43c-1.37-3.55-2.83-7.07-4.32-10.57l-4.89-1.12m233.24 1.21c-1.53 3.56-3.09 7.11-4.37 10.77l3.37 1.31c2.06-4.35 4.17-8.69 5.97-13.16l-4.97 1.08m-223.44.97c.77 2.83 1.91 5.54 3.07 8.24l3.49-.95c-.54-2.18-1.33-4.29-2.25-6.33l-4.31-.96m214.09 1.44c-1.12 1.85-1.59 4-2.19 6.06l3.43.98c1.17-2.73 2.32-5.47 3.34-8.26-1.51.42-3.23.36-4.58 1.22m-204.86.61a117.9 117.9 0 0 0 1.1 3.85 153.2 153.2 0 0 0 6.43-1.87c-2.34-1.21-5-1.45-7.53-1.98m192.06 2.13l6.77 1.88 1.42-3.69c-2.79.33-5.52.96-8.19 1.81z"/><path d="M286.16 368.82c4.29.81 4.73 5.59 5.69 9.05 11.83 2.04 23.5 4.92 35.08 8.07l.46 3.22-3.33-1c-1.39 4.17-2.5 8.43-3.54 12.7 1.82 2.42 3.04 5.25 3.45 8.26-1.6-2.12-2.5-4.86-4.93-6.22-1.52-.67-1.29-2.54-.17-3.46l-.99-1.46 1.07-3.7-4.12-.95-1.83 1.68c-1.67.23-2.11-2.02-2.76-3.16-.79-1.26 1.01-2 1.51-2.98a22.4 22.4 0 0 0 1-3.67l-5.14-1.04c-.98 4.34-2.09 8.65-3.12 12.98-1.45-1.31-2.92-2.73-2.4-4.88-1.76-.21-3.77-.02-5.16-1.31-1.91-1.5-1.73-4.22-2.33-6.34 1.71-.51 3.95-.4 4.78-2.32a159.4 159.4 0 0 0-7.49-1.43l-2.05 13.35c-1.35-1.31-3.22-2.49-2.75-4.67-2.55.26-4.95-.47-6.67-2.4-1.67 3.51-7.32 2.57-8.96-.57-1.42-1.63-.08-3.54.47-5.21-.54-1.6-2.05-3.43-.55-4.97 2.16-1.67 6.2-.33 6.12 2.7.01 1.38-1.63 1.61-2.48 2.35 1.62.01 2.6.87 2.96 2.56-1.85.14-4.24-.97-5.45 1.04 1.58 2.94 5.08 1.27 7.32.23l-.66-3.02c1.72-.42 3.54-.79 4.75-2.22-1.66-.43-3.35-.74-5.03-1.03l-1.34-3.04 12.85 1.61c-.51-2.32-1.62-4.39-3.74-5.58l-.52-3.17m-12.02 8.5c-1.41.19-1.81 2.48-.21 2.74 2.05.51 2.43-3.31.21-2.74m11.22 2.59c1.06 3.22-2.01 4.22-3.99 5.9 2.03.61 4.37 1.16 6.26-.18.58-1.72.82-3.52 1.16-5.28l-3.43-.44m15.89 2.65c.39 3.14-1.97 4.35-4.61 4.92 1.37 1.3 3.35 2.21 5.21 1.36 2.35-.59 1.91-3.63 2.82-5.37l-3.42-.91m13.8 8l4.85.79 1.02-4.04-5.06-1.39c-.29 1.54-.57 3.08-.81 4.64zm-110.23-14.97c17.95-1.41 35.99-1.57 53.98-1.1l1.38 3.01-3.4-.03c-.07 4.3-.28 8.59-.48 12.88 2.06 2.02 4.06 4.21 5.12 6.94-2.43-1.67-4.01-4.78-7.32-4.77l-1.25-2.35 1.8-.07c-1.6-1.37-1.4-3.48-1.51-5.36l-3.77-.01-1.67 2.37c-1.26-1.21-3-2.26-3.41-4.06 1.55-1.65 1.57-3.86 1.6-5.98l-3.15-.08-.02 13.35-3.3-1.98.15-3.82-4.12-.15-1.46 2.72a33.5 33.5 0 0 1-3.84-4.06c1.91-1.4 1.63-3.73 1.69-5.81l-4.33.03c-.05 2.66.54 5.8-2.04 7.52-.47 1.82 5.14 4.16 1.69 5.73-2.51-2.98-6.24-5.65-6.55-9.83l3.55.33.2-3.51-5.31-.08c-.09 4.54.37 9.06.49 13.6-2.28-.8-3.67-2.38-3.57-4.83-2.16.6-4.61.83-6.42-.77-1.67-1.88-1.27-4.6-1.68-6.89-1.85.09-2.35-1.62-3.05-2.94m6.29 2.6c.45 2.07-.23 4.76 1.11 6.45 1.24-.5 2.37-1.26 3.53-1.94l-.06-5.07-4.58.56m23.85-1.23l.12 4.67 4.42-.15.08-4.39-4.62-.13m14.08.23l-.04 4.6 4.53-.06v-4.45l-4.49-.09zm-106.15 12.08c16.52-6.98 34.24-10.53 51.99-12.54l1.58 2.55-3.25.61 1.71 12.74c2.61 1.47 5.26 3.35 6.36 6.27-2.19-1.62-4.27-3.63-7.13-3.82-1.38-.05-1.43-1.67-1.6-2.68-1.21-1.29-1.39-3.08-1.77-4.72l-3.9.56-.97 2.76a17.6 17.6 0 0 1-4.53-3.66c2.1-1.49 1.14-3.87.87-5.95l-3.36.6c.72 4.43 1.6 8.83 2.39 13.25l-3.63-1.71-.98-5.51c-2.57.17-4.74 1.14-5 4-1.77-.81-5.28-2.69-3.41-4.88 2.55-.96 5.27-1.37 7.92-1.96l-.68-2.73-11.16 2.6 3.54 13-3.75-1.19-2.95-10.98-2.47.92 4.02 12.68-3.59-.94c-.83-2.28-1.58-4.58-2.31-6.88-.66.61-3.53.92-2.08 2.32 1.52 1.43 1.18 3.24.7 5.05.76 1.01 2.47 1.61 1.83 3.26-2.3-1.18-4.75-2-7.27-2.59l-.47-2.71 3.65-.5c-.6-2.66-3.18-2.81-5.46-2.66.81-3.83 6.56-2.81 8.67-5.91-3.83.32-7.33 2.01-10.79 3.56l-2.72-2.21m42.48-8.21l.73 4.35 4.59-.77-.79-4.47-4.53.89z"/></g></svg>