<?xml version="1.0" encoding="utf-8"?>
<!-- Generator: Adobe Illustrator 22.1.0, SVG Export Plug-In . SVG Version: 6.00 Build 0)  -->
<svg version="1.1" id="Layer_1" xmlns="http://www.w3.org/2000/svg" xmlns:xlink="http://www.w3.org/1999/xlink" x="0px" y="0px"
	 viewBox="0 0 116.8 115.6" style="enable-background:new 0 0 116.8 115.6;" xml:space="preserve">
<style type="text/css">
	.st0{fill:#F7F3FF;}
</style>
<g>
	<path class="st0" d="M98.8,65.4c0-5.8-1.2-11.5-3.5-16.8c4.6-7.5,12.6-21.1,12.8-27.1c0.2-4.1-1.3-8-4.1-11
		c-2.8-3-6.7-4.7-10.8-4.9c-4.1-0.2-8,1.3-11,4.1s-4.7,6.7-4.9,10.8c-0.1,2.3,0.9,5.7,2.3,9.5C72.7,25.4,64.7,23,56.4,23
		c-23.3,0-42.3,19-42.3,42.3s19,42.3,42.3,42.3S98.8,88.8,98.8,65.4z M97.5,65.4c0,6-1.3,11.8-3.6,16.9l0,0h-9.6
		c1.6-5.2,2.6-10.8,2.6-16.9s-0.9-11.7-2.6-16.9h4c1.5,3,2.7,5,2.7,5.1c0.1,0.2,0.4,0.4,0.5,0.4l0,0c0.3,0,0.5-0.1,0.5-0.3
		c0.2-0.2,1-1.5,2.3-3.6C96.4,55,97.5,60.1,97.5,65.4z M67.6,47.2H45.3c2.1-13.4,6.4-22.7,11.1-22.7C61.3,24.5,65.6,33.8,67.6,47.2z
		 M60.5,24.9c9.6,1.9,17.6,10.5,21.8,22.3H69C67.4,36.4,64.4,28.3,60.5,24.9z M69,65.4c0,6-0.5,11.7-1.2,16.9H45
		c-0.7-5.2-1.2-10.9-1.2-16.9s0.5-11.7,1.2-16.9h22.7C68.6,53.8,69,59.4,69,65.4z M43.9,47.2H30.6c4.2-11.8,12.2-20.3,21.8-22.3
		C48.6,28.3,45.5,36.4,43.9,47.2z M43.7,48.6c-0.7,5.1-1.1,10.8-1.1,16.9s0.4,11.8,1.1,16.9H30.1c-1.6-5.2-2.6-10.8-2.6-16.9
		s0.9-11.8,2.6-16.9H43.7z M43.9,83.7c1.6,10.8,4.7,18.9,8.5,22.3c-9.6-1.9-17.6-10.5-21.8-22.3H43.9z M45.3,83.7h22.3
		c-2.1,13.3-6.4,22.7-11.1,22.7C51.7,106.4,47.4,97.1,45.3,83.7z M69,83.7h13.3C78.1,95.4,70.1,104,60.5,106
		C64.4,102.5,67.4,94.4,69,83.7z M69.2,82.3c0.7-5.2,1.1-10.8,1.1-16.9s-0.4-11.8-1.1-16.9h13.6c1.6,5.2,2.6,10.8,2.6,16.9
		s-0.9,11.8-2.6,16.9H69.2z M83.1,10.8c2.6-2.5,6-3.7,9.6-3.7c0.2,0,0.4,0,0.5,0c3.7,0.1,7.2,1.7,9.8,4.5c2.6,2.7,3.9,6.3,3.7,10
		c-0.3,6.9-12.2,25.9-15.1,30.4c-0.5-0.9-1.4-2.6-2.4-4.5c-4-7.7-10.7-21.3-10.5-26.9C78.9,16.9,80.4,13.4,83.1,10.8z M80.5,32.3
		c2.1,5.2,4.8,10.8,7,14.9h-3.7c-3.4-9.7-9.2-17.3-16.5-21.2C72,27.2,76.5,29.3,80.5,32.3z M45.5,26c-7.2,3.9-13,11.6-16.4,21.2
		h-9.3C24.9,36.9,34.3,29.1,45.5,26z M19.2,48.6L19.2,48.6h9.6c-1.6,5.1-2.6,10.8-2.6,16.9s0.9,11.7,2.6,16.9h-9.6l0,0
		c-2.4-5.2-3.6-10.8-3.6-16.9S16.8,53.7,19.2,48.6z M19.8,83.7h9.3c3.3,9.7,9.2,17.3,16.4,21.2C34.3,101.8,24.9,94,19.8,83.7z
		 M67.4,104.9c7.2-3.9,13-11.6,16.4-21.2h9.3C88,94,78.7,101.8,67.4,104.9z"/>
	<path class="st0" d="M111.9,61.2c0-0.4-0.3-0.7-0.7-0.7c-0.4,0-0.7,0.3-0.7,0.7v13.1c0,0.4,0.3,0.7,0.7,0.7c0.4,0,0.7-0.3,0.7-0.7
		V61.2z"/>
	<path class="st0" d="M111.2,78.1c-0.4,0-0.7,0.3-0.7,0.7v4.3c0,0.4,0.3,0.7,0.7,0.7c0.4,0,0.7-0.3,0.7-0.7v-4.3
		C111.9,78.4,111.6,78.1,111.2,78.1z"/>
	<path class="st0" d="M110.6,37.5c0.1,0.1,0.3,0.2,0.5,0.2s0.4-0.1,0.5-0.2c0.3-0.3,0.3-0.7,0-1l-1.5-1.5c-0.3-0.3-0.7-0.3-1,0
		c-0.3,0.3-0.3,0.7,0,1L110.6,37.5z"/>
	<path class="st0" d="M115,40.2c-0.3-0.3-0.7-0.3-1,0s-0.3,0.7,0,1l1.5,1.5c0.1,0.1,0.3,0.2,0.5,0.2s0.4-0.1,0.5-0.2
		c0.3-0.3,0.3-0.7,0-1L115,40.2z"/>
	<path class="st0" d="M109.5,42.9c0.2,0,0.4-0.1,0.5-0.2l1.5-1.5c0.3-0.3,0.3-0.7,0-1s-0.7-0.3-1,0l-1.5,1.5c-0.3,0.3-0.3,0.7,0,1
		C109.1,42.8,109.3,42.9,109.5,42.9z"/>
	<path class="st0" d="M114.6,37.7c0.2,0,0.4-0.1,0.5-0.2l1.5-1.5c0.3-0.3,0.3-0.7,0-1s-0.7-0.3-1,0l-1.5,1.5c-0.3,0.3-0.3,0.7,0,1
		C114.2,37.7,114.4,37.7,114.6,37.7z"/>
	<path class="st0" d="M2.3,82.5c-0.3-0.3-0.7-0.3-1,0c-0.3,0.3-0.3,0.7,0,1L2.8,85c0.1,0.1,0.3,0.2,0.5,0.2s0.4-0.1,0.5-0.2
		c0.3-0.3,0.3-0.7,0-1L2.3,82.5z"/>
	<path class="st0" d="M8,90.2c0.1,0.1,0.3,0.2,0.5,0.2s0.4-0.1,0.5-0.2c0.3-0.3,0.3-0.7,0-1l-1.5-1.5c-0.3-0.3-0.7-0.3-1,0
		c-0.3,0.3-0.3,0.7,0,1L8,90.2z"/>
	<path class="st0" d="M2.9,87.7l-1.6,1.5c-0.3,0.3-0.3,0.7,0,1c0.1,0.1,0.3,0.2,0.5,0.2s0.4-0.1,0.5-0.2l1.5-1.5
		c0.3-0.3,0.3-0.7,0-1C3.6,87.4,3.2,87.4,2.9,87.7z"/>
	<path class="st0" d="M6.9,85.3c0.2,0,0.4-0.1,0.5-0.2L9,83.6c0.3-0.3,0.3-0.7,0-1c-0.3-0.3-0.7-0.3-1,0l-1.5,1.5
		c-0.3,0.3-0.3,0.7,0,1C6.6,85.2,6.8,85.3,6.9,85.3z"/>
	<path class="st0" d="M43.2,18.3c2.1,0,3.7-1.6,3.7-3.7s-1.6-3.7-3.7-3.7c-2.1,0-3.7,1.6-3.7,3.7C39.5,16.7,41.1,18.3,43.2,18.3z
		 M43.2,12.2c1.3,0,2.4,1.1,2.4,2.4s-1.1,2.4-2.4,2.4c-1.3,0-2.4-1.1-2.4-2.4S41.9,12.2,43.2,12.2z"/>
	<path class="st0" d="M5.2,109h9.9c0.4,0,0.7-0.3,0.7-0.7c0-0.4-0.3-0.7-0.7-0.7H5.2c-0.4,0-0.7,0.3-0.7,0.7S4.8,109,5.2,109z"/>
	<path class="st0" d="M22.5,109c0.4,0,0.7-0.3,0.7-0.7c0-0.4-0.3-0.7-0.7-0.7h-3.2c-0.4,0-0.7,0.3-0.7,0.7c0,0.4,0.3,0.7,0.7,0.7
		H22.5z"/>
	<path class="st0" d="M92.6,29.8c1.8,0,3.6-0.7,4.9-1.9c1.5-1.4,2.3-3.1,2.3-5.1c0.2-4-3-7.4-7-7.6c-4-0.2-7.4,3-7.6,7
		c-0.2,4,3,7.4,7,7.6C92.5,29.8,92.6,29.8,92.6,29.8z M86.8,22.2c0.1-3.2,2.7-5.7,5.9-5.7c0.1,0,0.2,0,0.2,0
		c3.3,0.1,5.8,2.8,5.7,6.1c-0.1,1.5-0.7,3-1.9,4.1c-1.2,1.1-2.6,1.6-4.2,1.5C89.2,28.2,86.6,25.5,86.8,22.2z"/>
</g>
</svg>
