<?xml version="1.0" encoding="utf-8"?>
<!-- Generator: Adobe Illustrator 22.1.0, SVG Export Plug-In . SVG Version: 6.00 Build 0)  -->
<svg version="1.1" id="Layer_1" xmlns="http://www.w3.org/2000/svg" xmlns:xlink="http://www.w3.org/1999/xlink" x="0px" y="0px"
	 viewBox="0 0 116.8 115.6" style="enable-background:new 0 0 116.8 115.6;" xml:space="preserve">
<style type="text/css">
	.st0{fill:#F7F3FF;}
</style>
<path class="st0" d="M12.6,47.6l7.3,10.6h-2.1c-1.4,0-2.4,1.1-2.4,2.4v1.5h-2.4c-0.4,0-0.8,0.3-0.8,0.8c0,0.4,0.3,0.8,0.8,0.8H16
	h10.5h3.1c0.4,0,0.8-0.3,0.8-0.8c0-0.4-0.3-0.8-0.8-0.8h-2.4v-1.5c0-1.4-1.1-2.4-2.4-2.4h-3.1l-7.5-10.8c0.9-0.5,1.5-1.4,1.5-2.3
	c0-1.1-0.6-1.9-1.5-2.3l7.3-10.6l1.9,1.4l4.1,10.3c0.1,0.3,0.3,0.4,0.6,0.5h0.1c0.2,0,0.5-0.1,0.6-0.3l2.4-3.4
	c0.5,0.2,1.1,0.4,1.6,0.4c1.6,0,3.4-0.9,4.5-2.5c0.9-1.2,1.3-2.5,1.2-3.9c-0.1-1.1-0.5-2-1.2-2.7l2.4-3.4c0.2-0.2,0.2-0.5,0.1-0.8
	c-0.1-0.2-0.4-0.4-0.6-0.4l-11-0.5l-4.2-3c-0.9-0.7-2-0.9-3.1-0.7s-2,0.8-2.7,1.7c-1.4,1.8-0.9,4.5,1,5.8l1,0.7l-7.6,11
	c-1.3,0.2-2.2,1.3-2.2,2.6C10.4,46.3,11.3,47.4,12.6,47.6z M25.8,60.6v1.5h-9v-1.5c0-0.6,0.5-1,1-1h7C25.3,59.7,25.8,60.1,25.8,60.6
	z M37.1,34.4c0.1,1-0.3,2-1,2.9c-1.1,1.5-2.8,2.2-4.2,1.8l4.5-6.4C36.9,33.3,37.1,33.8,37.1,34.4z M19.5,25.4c0.4-0.6,1.1-1,1.7-1.1
	c0.2,0,0.3,0,0.5,0c0.6,0,1.1,0.2,1.5,0.5l4.4,3.1C27.7,28,27.9,28,28,28l9.9,0.5L28.3,42l-3.6-9.3c-0.1-0.1-0.1-0.3-0.3-0.3
	l-4.4-3.1C18.9,28.3,18.6,26.7,19.5,25.4z M13,43.8L13,43.8L13,43.8c0.7,0,1.3,0.6,1.3,1.2c0,0.7-0.6,1.2-1.2,1.2
	c-0.7,0-1.2-0.6-1.2-1.2C11.8,44.3,12.3,43.8,13,43.8z"/>
<path class="st0" d="M6.2,32.8C6.6,32.8,7,32.5,7,32v-4c0-0.4-0.3-0.8-0.8-0.8c-0.4,0-0.8,0.3-0.8,0.8v4C5.4,32.5,5.7,32.8,6.2,32.8
	z"/>
<path class="st0" d="M113.6,94.8c-0.4,0-0.8,0.3-0.8,0.8v4c0,0.4,0.3,0.8,0.8,0.8c0.4,0,0.8-0.3,0.8-0.8v-4
	C114.3,95.1,113.9,94.8,113.6,94.8z"/>
<path class="st0" d="M107.8,19.9c0.1,0.1,0.3,0.2,0.5,0.2c0.2,0,0.4-0.1,0.5-0.2c0.3-0.3,0.3-0.8,0-1.1l-1.5-1.5
	c-0.3-0.3-0.8-0.3-1.1,0c-0.3,0.3-0.3,0.8,0,1.1L107.8,19.9z"/>
<path class="st0" d="M113.7,24.7c0.3-0.3,0.3-0.8,0-1.1l-1.5-1.5c-0.3-0.3-0.8-0.3-1.1,0c-0.3,0.3-0.3,0.8,0,1.1l1.5,1.5
	c0.1,0.1,0.3,0.2,0.5,0.2C113.4,24.9,113.6,24.9,113.7,24.7z"/>
<path class="st0" d="M106.8,24.9c0.2,0,0.4-0.1,0.5-0.2l1.5-1.5c0.3-0.3,0.3-0.8,0-1.1c-0.3-0.3-0.8-0.3-1.1,0l-1.5,1.5
	c-0.3,0.3-0.3,0.8,0,1.1C106.5,24.9,106.7,24.9,106.8,24.9z"/>
<path class="st0" d="M111.6,20.1c0.2,0,0.4-0.1,0.5-0.2l1.5-1.5c0.3-0.3,0.3-0.8,0-1.1c-0.3-0.3-0.8-0.3-1.1,0l-1.5,1.5
	c-0.3,0.3-0.3,0.8,0,1.1C111.3,20.1,111.5,20.1,111.6,20.1z"/>
<path class="st0" d="M33,99.4c-0.3-0.3-0.8-0.3-1.1,0c-0.3,0.3-0.3,0.8,0,1.1l1.5,1.5c0.1,0.1,0.3,0.2,0.5,0.2
	c0.2,0,0.4-0.1,0.5-0.2c0.3-0.3,0.3-0.8,0-1.1L33,99.4z"/>
<path class="st0" d="M37.9,104.2c-0.3-0.3-0.8-0.3-1.1,0c-0.3,0.3-0.3,0.8,0,1.1l1.5,1.5c0.1,0.1,0.3,0.2,0.5,0.2
	c0.2,0,0.4-0.1,0.5-0.2c0.3-0.3,0.3-0.8,0-1.1L37.9,104.2z"/>
<path class="st0" d="M33.5,104.2l-1.5,1.5c-0.3,0.3-0.3,0.8,0,1.1c0.1,0.1,0.3,0.2,0.5,0.2c0.2,0,0.4-0.1,0.5-0.2l1.5-1.5
	c0.3-0.3,0.3-0.8,0-1.1C34.2,103.9,33.8,103.9,33.5,104.2z"/>
<path class="st0" d="M38.3,99.4l-1.5,1.5c-0.3,0.3-0.3,0.8,0,1.1c0.1,0.1,0.3,0.2,0.5,0.2s0.4-0.1,0.5-0.2l1.5-1.5
	c0.3-0.3,0.3-0.8,0-1.1C39,99.1,38.6,99.1,38.3,99.4z"/>
<path class="st0" d="M70.6,19.4c2,0,3.6-1.6,3.6-3.6c0-2-1.6-3.6-3.6-3.6c-2,0-3.6,1.6-3.6,3.6C67,17.8,68.6,19.4,70.6,19.4z
	 M70.6,13.6c1.2,0,2.1,1,2.1,2.1s-1,2.1-2.1,2.1c-1.2,0-2.1-1-2.1-2.1C68.5,14.6,69.4,13.6,70.6,13.6z"/>
<path class="st0" d="M30.9,10.2h13.4c0.4,0,0.8-0.3,0.8-0.8c0-0.5-0.3-0.8-0.8-0.8H30.9c-0.4,0-0.8,0.3-0.8,0.8
	C30.1,9.9,30.5,10.2,30.9,10.2z"/>
<path class="st0" d="M86,104h-9.3c-0.4,0-0.8,0.3-0.8,0.8c0,0.4,0.3,0.8,0.8,0.8H86c0.4,0,0.8-0.3,0.8-0.8
	C86.7,104.3,86.4,104,86,104z"/>
<path class="st0" d="M90.9,85.3L81.2,81c-0.2-0.1-0.3-0.1-0.5,0h-0.1H29.3c-2.7,0-4.8,2.2-4.8,4.8v0.4c0,2.7,2.2,4.8,4.8,4.8h5.1
	l0,0l0,0h4.1l0,0l0,0h42h0.1c0.1,0,0.1,0,0.2,0c0.1,0,0.2,0,0.3-0.1l9.7-4.4c0.3-0.1,0.4-0.4,0.4-0.7C91.3,85.7,91.1,85.4,90.9,85.3
	z M37.9,82.3v7.2h-2.6v-7.2H37.9z M26,86.2v-0.4c0-1.8,1.5-3.4,3.4-3.4h4.4v7.2h-4.4C27.5,89.6,26,88,26,86.2z M79.9,89.6H39.3v-7.2
	h40.6V89.6z M81.3,89.3v-6.7l7.5,3.4L81.3,89.3z"/>
<path class="st0" d="M45.8,86.7h3.9c0.4,0,0.8-0.3,0.8-0.8c0-0.5-0.3-0.8-0.8-0.8h-3.9c-0.4,0-0.8,0.3-0.8,0.8
	C45,86.4,45.4,86.7,45.8,86.7z"/>
<path class="st0" d="M65.3,86.7h3.9c0.4,0,0.8-0.3,0.8-0.8c0-0.5-0.3-0.8-0.8-0.8h-3.9c-0.4,0-0.8,0.3-0.8,0.8
	C64.5,86.4,64.9,86.7,65.3,86.7z"/>
<path class="st0" d="M55.6,86.7h3.9c0.4,0,0.8-0.3,0.8-0.8c0-0.5-0.3-0.8-0.8-0.8h-3.9c-0.4,0-0.8,0.3-0.8,0.8
	C54.8,86.4,55.2,86.7,55.6,86.7z"/>
<path class="st0" d="M108.4,65.7H2.7C2.3,65.7,2,66,2,66.5v5c0,0.4,0.3,0.8,0.8,0.8h6.6v29.5H7.6c-0.4,0-0.8,0.3-0.8,0.8
	c0,0.4,0.3,0.8,0.8,0.8H10h3.1h2.7c0.4,0,0.8-0.3,0.8-0.8c0-0.4-0.3-0.8-0.8-0.8h-1.9l1.4-29.5h80.7l1.4,29.5h-1.9
	c-0.4,0-0.8,0.3-0.8,0.8c0,0.4,0.3,0.8,0.8,0.8h2.7h3h2.4c0.4,0,0.8-0.3,0.8-0.8c0-0.4-0.3-0.8-0.8-0.8h-1.7V72.2h6.6
	c0.4,0,0.8-0.3,0.8-0.8v-5C109.1,66.1,108.8,65.7,108.4,65.7z M12.4,101.7h-1.5V72.2h2.9L12.4,101.7z M100.3,101.7h-1.5l-1.4-29.5
	h2.9V101.7z M107.7,70.7h-6.6h-4.5H14.5h-4.5H3.5v-3.6h104.2V70.7z"/>
<path class="st0" d="M48,30.6c-0.1,0.2-0.2,0.5-0.1,0.7l1.2,3.3c0.1,0.3,0.4,0.5,0.7,0.5h0.7c0.3,0,0.6,0.1,0.8,0.3s0.3,0.5,0.3,0.8
	l-0.7,9.6c0,0.5-0.5,1-1,1h-1.2c-0.3,0-0.6,0.2-0.7,0.5l-1.4,4c-0.1,0.2,0,0.5,0.1,0.7c0.1,0.2,0.4,0.3,0.6,0.3h6.9v10.7
	c0,0.4,0.3,0.8,0.8,0.8c0.4,0,0.8-0.3,0.8-0.8V52.1h6.7c0.2,0,0.5-0.1,0.6-0.3s0.2-0.5,0.1-0.7l-1.4-4c-0.1-0.3-0.4-0.5-0.7-0.5
	h-1.2c-0.5,0-1-0.4-1-1l-0.6-9.6c0-0.3,0.1-0.6,0.3-0.8c0.2-0.2,0.5-0.3,0.8-0.3h0.7c0.3,0,0.6-0.2,0.7-0.5l1.2-3.3
	c0.1-0.2,0-0.5-0.1-0.7c-0.1-0.2-0.4-0.3-0.6-0.3H48.7C48.3,30.3,48.1,30.4,48,30.6z M60.1,31.8l-0.6,1.8h-0.2
	c-0.7,0-1.4,0.3-1.8,0.8s-0.7,1.2-0.7,1.8l0.6,9.6c0.1,1.3,1.2,2.3,2.4,2.3h0.7l0.9,2.5H55c-0.1,0-0.1,0-0.2,0c-0.1,0-0.1,0-0.2,0
	h-6.4l0.9-2.5h0.7c1.3,0,2.3-1.1,2.4-2.3l0.6-9.6c0-0.7-0.2-1.4-0.7-1.8s-1.2-0.8-1.8-0.8h-0.2l-0.6-1.8L60.1,31.8L60.1,31.8z"/>
<path class="st0" d="M80.6,30.8l-1.1,19.4h-7.9c-0.4,0-0.8,0.3-0.8,0.8v8.1c0,0.1-0.1,0.2,0,0.4v0.1v3.3c0,0.4,0.3,0.8,0.8,0.8h26.1
	c0.4,0,0.8-0.3,0.8-0.8V51c0-0.4-0.3-0.8-0.8-0.8h-7.9l-1.1-19.4c2.2-0.9,3.5-2.4,3.5-4.2c0-2.8-3.3-4.9-7.6-4.9
	c-4.3,0-7.6,2.2-7.6,4.9C77,28.3,78.3,30,80.6,30.8z M72.2,62.1V60c8.2-1.1,16.5-1.1,24.7,0v2.1H72.2z M96.9,58.4
	c-8.2-1.1-16.5-1.1-24.7,0v-6.8h7.9h8.9H97L96.9,58.4L96.9,58.4z M84.5,23.1c3.3,0,6.1,1.6,6.1,3.5c0,1.2-1.2,2.4-3.1,3
	C87.2,29.7,87,30,87,30.3l1.2,19.8h-7.4L82,30.3c0-0.3-0.2-0.6-0.5-0.8c-1.8-0.6-3.1-1.8-3.1-3C78.4,24.7,81.2,23.1,84.5,23.1z"/>
</svg>
