<?xml version="1.0" encoding="utf-8"?>
<!-- Generator: Adobe Illustrator 22.1.0, SVG Export Plug-In . SVG Version: 6.00 Build 0)  -->
<svg version="1.1" id="Layer_1" xmlns="http://www.w3.org/2000/svg" xmlns:xlink="http://www.w3.org/1999/xlink" x="0px" y="0px"
	 viewBox="0 0 207.3 27.1" style="enable-background:new 0 0 207.3 27.1;" xml:space="preserve">
<style type="text/css">
	.st0{fill:#ED314B;stroke:#ED314B;stroke-width:0.25;stroke-miterlimit:10;}
	.st1{fill:#FE9191;stroke:#231F20;stroke-width:0.25;stroke-miterlimit:10;}
	.st2{fill:#0B9A6B;stroke:#0B9A6B;stroke-width:0.25;stroke-miterlimit:10;}
	.st3{fill:#3158A6;stroke:#3158A6;stroke-miterlimit:10;}
	.st4{fill:#231E3A;}
</style>
<path class="st0" d="M64.5,0c0.5,0.3,1,0.2,1.5,0.4c3.3,0.8,6,2.5,8,5.3c0.2,0.2,0.7,0.6,0.3,0.9c-0.4,0.3-0.8,0.8-1.5,0.4
	c-1.8-1.1-3.6-2.1-5.4-3.1c-1.3-0.7-2.6-1.5-3.8-2.2c-0.4-0.2-0.6-0.3-1,0c-0.9,0.6-1.9,1.1-2.9,1.7c0.7,0.6,1.5,0.9,2.4,0.8
	c1.5-0.2,2.9,0.1,4.2,0.9c1.7,1.2,1.8,3,0.1,4.3c-2.1,1.6-6,1.4-7.7-0.4C58.2,8.3,57.9,7.7,58,7c0.1-0.5-0.2-0.7-0.5-0.9
	c-1-0.8-1.9-0.8-2.8,0c-0.4,0.3-0.9,0.6-1.4,0.8C53.1,7,52.9,7.1,52.6,7c-1-0.5-1-0.6-0.3-1.5c2.3-3,5.3-4.8,9.1-5.4
	c0.1,0,0.2,0,0.3-0.2c0.2,0,0.5,0,0.7,0c0.5,0.1,1,0.1,1.5,0C64.1,0,64.3,0,64.5,0z"/>
<path class="st1" d="M63.9,0c-0.5,0.2-1,0.2-1.5,0C62.9,0,63.4,0,63.9,0z"/>
<path class="st2" d="M55.6,21.5c0-1.2,0.2-2.3-0.6-3.4c-0.7-1-1-2.2-0.9-3.4c0.1-2.1,1.8-3.1,3.7-2.3c2.1,1,3.2,2.8,3.6,5
	c0.2,1.3,0,2.6-1.3,3.4c-0.2,0.1-0.2,0.4-0.2,0.6c0,0.9-0.3,1.9,0.1,2.5c0.3,0.6,1.3,1,2.1,1.3c0.7,0.3,0.6,0.9,0.6,1.5
	c0,0.4-0.4,0.3-0.6,0.2c-2.3-0.2-4.5-0.9-6.4-2.2c-5.5-3.7-7.5-10.8-4.7-16.9C51,7.7,51,7.1,51.5,7.3c0.4,0.2,1.1,0.2,1,1
	c0,0.2,0,0.3,0,0.5c0,3.4,0,6.9,0,10.3c0,0.5,0.1,0.7,0.5,0.9C53.9,20.5,54.7,21,55.6,21.5z"/>
<path class="st3" d="M73.8,15.7c-0.9,0.5-1.7,0.8-2.1,1.8c-0.7,1.7-1.8,2.9-3.7,3.4c-1.3,0.3-2.4-0.3-2.9-1.5
	c-1-2.7,1.4-6.9,4.2-7.3c0.7-0.1,1.3,0,1.8,0.4c0.3,0.2,0.5,0.2,0.9,0.1c1.7-0.9,1.7-0.9,1.7-2.8c0-0.5,0-1,0-1.5
	c0-0.3,0.1-0.4,0.3-0.6C75,7.1,75,7.1,75.5,8.1c3.7,8.3-1.8,17.9-10.9,18.9c-0.3,0-0.9,0.3-1-0.2c-0.1-0.5-0.2-1.1,0.5-1.4
	c3-1.7,6-3.5,9-5.2c0.5-0.3,0.7-0.6,0.6-1.1C73.7,17.9,73.8,16.9,73.8,15.7z"/>
<g>
	<path class="st4" d="M132.4,27.1c-0.5-0.3-1.1-0.3-1.7-0.4c-2.3-0.6-4.3-1.8-6-3.4c-0.3-0.3-0.3-0.5,0-0.8c0.7-0.8,1.4-1.6,2-2.5
		c0.4-0.5,0.6-0.5,1-0.1c2,2.1,4.4,3.2,7.4,2.9c2.3-0.3,3.6-1.9,3-4c-0.2-0.9-0.9-1.5-1.7-1.9c-1.1-0.6-2.4-1-3.6-1.5
		c-1.4-0.5-2.8-1.1-4-1.8c-2.4-1.5-3.7-3.6-3.5-6.4c0.2-2.7,1.6-4.7,4-5.9c2.9-1.5,5.8-1.3,8.8-0.3c1.4,0.5,2.6,1.2,3.8,2
		c0.4,0.3,0.5,0.4,0.2,0.8c-0.7,0.9-1.4,1.7-2,2.7c-0.3,0.4-0.5,0.3-0.8,0.1c-1.1-0.9-2.4-1.7-3.8-2.1c-1.3-0.4-2.6-0.4-3.9,0.2
		c-1.7,0.8-2.3,3.5-0.2,4.8c1.3,0.7,2.7,1.2,4.1,1.8c1.2,0.5,2.3,0.9,3.5,1.5c2.7,1.3,4.3,3.4,4.2,6.5c-0.1,3.2-1.7,5.4-4.5,6.8
		c-1,0.5-2,0.7-3,0.9c-0.1,0-0.3,0-0.4,0.1c-0.2,0-0.5,0-0.7,0c-0.3-0.1-0.7-0.1-1,0C133,27.1,132.7,27.1,132.4,27.1z"/>
	<path class="st4" d="M0,22.8c0.9-1.1,1.8-2.2,2.8-3.4c0.3,0.3,0.5,0.6,0.8,0.8c2,1.9,4.4,2.9,7.2,2.5c2.2-0.3,3.4-1.8,3-3.7
		c-0.1-0.9-0.7-1.5-1.5-2c-1.1-0.7-2.3-1.1-3.5-1.5c-1.4-0.5-2.9-1.1-4.2-1.8C2,12.2,0.6,9.9,1,6.7c0.4-3,2.3-4.9,5-6
		c3-1.1,6-0.6,8.8,0.7c1,0.4,1.9,1,2.8,1.7c0.3,0.2,0.3,0.4,0.1,0.7c-0.7,0.9-1.4,1.8-2.1,2.8c-0.2,0.3-0.4,0.3-0.7,0.1
		c-1.3-1.1-2.8-2-4.5-2.3C9.3,4.2,8.2,4.2,7.2,4.7c-1,0.5-1.6,1.4-1.6,2.5C5.5,8.3,6.1,9,7,9.6c1.6,0.9,3.4,1.5,5.1,2.2
		c1.2,0.5,2.3,1,3.4,1.6c4.3,2.5,3.7,8.4,1.3,10.8c-1.6,1.6-3.4,2.4-5.6,2.8c-0.2,0-0.4-0.1-0.4,0.2c-0.2,0-0.5,0-0.7,0
		c-0.3-0.1-0.7-0.1-1,0c-0.3,0-0.6,0-0.9,0c-2.8-0.2-5.2-1.4-7.4-3.2C0.3,23.6-0.1,23.4,0,22.8z"/>
	<path class="st4" d="M207.3,3.4c-4.2,0-8.5,0-12.7,0c-0.6,0-0.8,0.1-0.8,0.8c0,2.6,0,5.1,0,7.7c0,0.6,0.2,0.8,0.8,0.8
		c3.3,0,6.7,0,10,0c0.5,0,0.8,0.1,0.7,0.7c-0.1,0.6,0,1.1,0,1.7c0,0.5-0.2,0.7-0.7,0.7c-3.3,0-6.7,0-10,0c-0.6,0-0.8,0.1-0.8,0.8
		c0,3.2,0,6.4,0,9.6c0,0.5-0.1,0.8-0.7,0.8c-0.6-0.1-1.2-0.1-1.8,0c-0.6,0.1-0.7-0.2-0.7-0.8c0-8.3,0-16.6,0-24.9
		c0-0.7,0.2-0.7,0.8-0.7c5.3,0,10.7,0,16,0C207.3,1.4,207.3,2.4,207.3,3.4z"/>
	<path class="st4" d="M36.5,27c0,0,0,0.1,0,0.1c-0.6,0-1.2,0-1.8,0c0,0,0-0.1,0-0.1C35.3,26.6,35.9,26.6,36.5,27z"/>
	<path class="st4" d="M8.9,27.1c0.3-0.2,0.7-0.2,1,0C9.6,27.1,9.3,27.1,8.9,27.1z"/>
	<path class="st4" d="M133.3,27.1c0.3-0.2,0.7-0.2,1,0C134,27.1,133.6,27.1,133.3,27.1z"/>
	<path class="st4" d="M103.6,13.6c0-4.1,0-8.2,0-12.4c0-0.6,0.1-0.8,0.7-0.8c5,0,10.1,0,15.1,0c0.6,0,0.8,0.2,0.7,0.7
		c0,0.9,0,1.8,0,2.7c0,0.5-0.1,0.7-0.7,0.7c-3.5,0-7.1,0-10.6,0c-0.7,0-0.8,0.2-0.8,0.9c0,1.9,0,3.8,0,5.7c0,0.5,0.1,0.7,0.7,0.7
		c2.8,0,5.5,0,8.3,0c0.6,0,0.8,0.1,0.8,0.8c-0.1,0.8-0.1,1.7,0,2.5c0,0.6-0.1,0.8-0.8,0.8c-2.8,0-5.5,0-8.3,0
		c-0.5,0-0.7,0.1-0.7,0.7c0,1.9,0,3.8,0,5.6c0,0.6,0.2,0.7,0.8,0.7c3.8,0,7.6,0,11.3,0c0.6,0,0.8,0.1,0.8,0.8c-0.1,0.9,0,1.8,0,2.7
		c0,0.4-0.1,0.6-0.5,0.6c-5.4,0-10.9,0-16.3,0c-0.6,0-0.5-0.3-0.5-0.7C103.6,21.9,103.6,17.8,103.6,13.6z"/>
	<path class="st4" d="M36.5,27c-0.6,0-1.2,0-1.8,0c-4.3-0.3-7.9-2-10.3-5.7C21.1,16.2,21.6,7,27.3,2.7c5.5-4.1,14.1-3.1,18.4,2.1
		C46,5.2,46,5.3,45.7,5.5c-0.8,0.6-1.6,1.2-2.3,1.9C42.9,8,42.6,8,42.1,7.4c-2.5-2.6-5.5-3.6-9-2.6c-2.2,0.6-3.9,2-4.9,4.1
		c-1.5,3.2-1.6,6.4,0,9.5c2.4,4.8,9.1,5.9,13.2,2.1c0,0,0.1-0.1,0.1-0.1c0.5-0.3,0.7-1.2,1.3-1.1c0.5,0.1,0.9,0.7,1.4,1.1
		c0.5,0.4,1,0.9,1.5,1.2c0.4,0.3,0.3,0.5,0,0.8C43.2,25.2,40.2,26.7,36.5,27z"/>
	<path class="st4" d="M152.4,16.3c-1.6,0-3.3,0-4.9,0c-0.5,0-0.6-0.1-0.6-0.6c0-1.5,0-1.5,1.4-1.5c2.9,0,5.9,0,8.8,0
		c0.6,0,0.8,0.2,0.7,0.7c0,1.3,0,1.3-1.3,1.3C155.2,16.3,153.8,16.3,152.4,16.3z"/>
	<g>
		<g>
			<path class="st4" d="M98.8,8.1c-0.2-4.2-2.9-7-7-7.5c-2-0.2-3.9-0.1-5.6-0.1c-2,0-3.6,0-5.3,0c-0.4,0-0.6,0.1-0.6,0.6
				c0,8.4,0,16.8,0,25.3c0,0.5,0.2,0.6,0.6,0.6c1.1,0,2.2,0,3.3,0c0.5,0,0.7-0.1,0.7-0.7c0-2.6,0-5.3,0-7.9c0-0.6,0.1-0.8,0.8-0.8
				c2.1,0,4.2,0.2,6.4-0.2c2.6-0.5,4.8-1.6,6-4C98.7,11.6,98.9,9.8,98.8,8.1z M90.4,13.2c-1,0.2-2,0.1-2.9,0.1c-0.9,0-1.5,0-2.2,0
				c-0.4,0-0.6-0.1-0.6-0.5c0-2.6,0-5.2,0-7.8c0-0.4,0.1-0.6,0.5-0.6c1.6,0.1,3.3-0.1,4.9,0.1c2.4,0.3,3.9,1.8,4,4.1
				C94.2,11.1,92.8,12.8,90.4,13.2z"/>
		</g>
	</g>
	<g>
		<g>
			<path class="st4" d="M183.2,6.6c-2.4-4.1-6.3-5.9-10.9-6.1c-2.7-0.1-5.4,0-8.1-0.1c-0.6,0-0.8,0.1-0.8,0.8c0,4.1,0,8.2,0,12.4
				c0,4.2,0,8.4,0,12.6c0,0.4-0.1,0.7,0.5,0.7c3.2-0.1,6.4,0.2,9.5-0.1c3.2-0.3,6.1-1.5,8.3-3.9C185.5,18.6,186.1,11.5,183.2,6.6z
				 M181.5,14.9c-0.7,5.5-4.6,8.9-10.2,9c-1.3,0-2.7,0-4,0c-0.5,0-0.6-0.2-0.6-0.7c0-3.2,0-6.4,0-9.6s0-6.4,0-9.6
				c0-0.5,0.1-0.7,0.7-0.7c2.1,0.1,4.3-0.2,6.4,0.2C179.5,4.8,182.1,9.9,181.5,14.9z"/>
		</g>
	</g>
</g>
</svg>
