<?xml version="1.0" encoding="utf-8"?>
<!-- Generator: Adobe Illustrator 22.1.0, SVG Export Plug-In . SVG Version: 6.00 Build 0)  -->
<svg version="1.1" id="Layer_1" xmlns="http://www.w3.org/2000/svg" xmlns:xlink="http://www.w3.org/1999/xlink" x="0px" y="0px"
	 viewBox="0 0 116.8 115.6" style="enable-background:new 0 0 116.8 115.6;" xml:space="preserve">
<style type="text/css">
	.st0{fill:#F7F3FF;}
</style>
<g>
	<path class="st0" d="M92,97c-0.3-0.3-0.8-0.3-1,0c-0.3,0.3-0.3,0.8,0,1l1.7,1.7c0.1,0.1,0.3,0.2,0.5,0.2s0.4-0.1,0.5-0.2
		c0.3-0.3,0.3-0.8,0-1L92,97z"/>
	<path class="st0" d="M98.5,105.2c0.2,0,0.4-0.1,0.5-0.2c0.3-0.3,0.3-0.8,0-1l-1.7-1.7c-0.3-0.3-0.8-0.3-1,0c-0.3,0.3-0.3,0.8,0,1
		L98,105C98.1,105.1,98.3,105.2,98.5,105.2z"/>
	<path class="st0" d="M92.6,102.2l-1.7,1.7c-0.3,0.3-0.3,0.8,0,1c0.1,0.1,0.3,0.2,0.5,0.2s0.4-0.1,0.5-0.2l1.7-1.7
		c0.3-0.3,0.3-0.8,0-1C93.3,101.9,92.9,101.9,92.6,102.2z"/>
	<path class="st0" d="M98,97l-1.7,1.7c-0.3,0.3-0.3,0.8,0,1c0.1,0.1,0.3,0.2,0.5,0.2s0.4-0.1,0.5-0.2L99,98c0.3-0.3,0.3-0.8,0-1
		C98.7,96.8,98.3,96.7,98,97z"/>
	<path class="st0" d="M6.7,31.6h14.5c0.4,0,0.7-0.3,0.7-0.7c0-0.4-0.3-0.7-0.7-0.7H6.7c-0.4,0-0.7,0.3-0.7,0.7
		C5.9,31.3,6.3,31.6,6.7,31.6z"/>
	<path class="st0" d="M-2.9,31.6h4.8c0.4,0,0.7-0.3,0.7-0.7c0-0.4-0.3-0.7-0.7-0.7h-4.8c-0.4,0-0.7,0.3-0.7,0.7
		C-3.5,31.3-3.2,31.6-2.9,31.6z"/>
	<path class="st0" d="M8,35.9c0-0.4-0.3-0.7-0.7-0.7H-2.9c-0.4,0-0.7,0.3-0.7,0.7s0.3,0.7,0.7,0.7H7.2C7.6,36.6,8,36.3,8,35.9z"/>
	<path class="st0" d="M15.6,35.9c0-0.4-0.3-0.7-0.7-0.7h-3.3c-0.4,0-0.7,0.3-0.7,0.7s0.3,0.7,0.7,0.7h3.3
		C15.3,36.6,15.6,36.3,15.6,35.9z"/>
	<path class="st0" d="M78,100.7c-0.8-0.1-1.6,0.1-2.1,0.6c-0.8,0.7-2.5,1.2-4,1.2c-1.5,0-3.2-0.5-4-1.2c-0.6-0.5-1.4-0.7-2.1-0.6
		c-0.8,0.1-1.5,0.5-2,1.1c-1.1,1.4-1.5,3.4-1.4,5.8l0.4,6.6c0,0.4,0.3,0.7,0.7,0.7h16.5c0.4,0,0.7-0.3,0.7-0.7l0.4-6.6
		c0.2-2.5-0.3-4.5-1.4-5.8C79.4,101.1,78.8,100.7,78,100.7z M79.8,107.6L79.8,107.6l-0.4,5.9H64.3l-0.4-5.9
		c-0.1-2.2,0.2-3.8,1.1-4.9c0.2-0.3,0.6-0.5,1-0.5s0.8,0.1,1,0.3c1.3,1.1,3.4,1.5,5,1.5c1.6,0,3.7-0.5,5-1.5c0.3-0.2,0.7-0.3,1-0.3
		c0.4,0,0.8,0.2,1,0.5C79.6,103.8,80,105.4,79.8,107.6z"/>
	<path class="st0" d="M71.9,100c3.1,0,5.5-2.7,5.5-5.8c0-3.3-2.5-5.8-5.5-5.8s-5.5,2.7-5.5,5.8C66.4,97.3,68.8,100,71.9,100z
		 M71.9,89.7c2.3,0,4.1,2,4.1,4.5c0,2.5-1.9,4.5-4.1,4.5c-2.3,0-4.1-2-4.1-4.5C67.8,91.6,69.6,89.7,71.9,89.7z"/>
	<path class="st0" d="M52.6,100.7c-0.8-0.1-1.6,0.1-2.1,0.6c-0.8,0.7-2.5,1.2-4,1.2s-3.2-0.5-4-1.2c-0.6-0.5-1.4-0.7-2.1-0.6
		c-0.8,0.1-1.5,0.5-2,1.1c-1.1,1.4-1.5,3.4-1.4,5.8l0.4,6.6c0,0.4,0.3,0.7,0.7,0.7h16.5c0.4,0,0.7-0.3,0.7-0.7l0.4-6.6
		c0.2-2.5-0.3-4.5-1.4-5.8C54.1,101.1,53.4,100.7,52.6,100.7z M54.5,107.6l-0.4,5.9H38.9l-0.4-5.9c-0.1-2.2,0.2-3.8,1.1-4.9
		c0.2-0.3,0.6-0.5,1-0.5c0.4,0,0.8,0.1,1,0.3c1.3,1.1,3.4,1.5,5,1.5c1.6,0,3.7-0.5,5-1.5c0.3-0.2,0.7-0.3,1-0.3c0.4,0,0.8,0.2,1,0.5
		C54.3,103.8,54.6,105.4,54.5,107.6z"/>
	<path class="st0" d="M46.5,100c3.1,0,5.5-2.7,5.5-5.8c0-3.3-2.5-5.8-5.5-5.8s-5.5,2.7-5.5,5.8C40.9,97.3,43.4,100,46.5,100z
		 M46.5,89.7c2.3,0,4.1,2,4.1,4.5c0,2.5-1.9,4.5-4.1,4.5c-2.3,0-4.1-2-4.1-4.5C42.4,91.6,44.3,89.7,46.5,89.7z"/>
	<path class="st0" d="M90.6,13.1c-0.8-0.1-1.6,0.1-2.1,0.6c-0.8,0.7-2.5,1.2-4,1.2c-1.5,0-3.2-0.5-4-1.2c-0.6-0.5-1.4-0.7-2.1-0.6
		c-0.8,0.1-1.5,0.5-2,1.1c-1.1,1.4-1.5,3.4-1.4,5.8l0.4,6.6c0,0.4,0.3,0.7,0.7,0.7h16.5c0.4,0,0.7-0.3,0.7-0.7l0.4-6.6
		c0.2-2.5-0.3-4.5-1.4-5.8C92.2,13.6,91.4,13.2,90.6,13.1z M92.5,20L92.5,20L92.1,26H77L76.6,20c-0.1-2.2,0.2-3.8,1.1-4.9
		c0.2-0.3,0.6-0.5,1-0.5s0.8,0.1,1,0.3c1.3,1.1,3.4,1.5,5,1.5c1.6,0,3.7-0.5,5-1.5c0.3-0.2,0.7-0.3,1-0.3c0.4,0,0.8,0.2,1,0.5
		C92.3,16.2,92.7,17.9,92.5,20z"/>
	<path class="st0" d="M84.6,12.3c3.1,0,5.5-2.7,5.5-5.8c0-3.3-2.5-5.8-5.5-5.8S79,3.3,79,6.5C79,9.7,81.5,12.3,84.6,12.3z M84.6,2
		c2.3,0,4.1,2,4.1,4.5s-1.9,4.5-4.1,4.5c-2.3,0-4.1-2-4.1-4.5S82.3,2,84.6,2z"/>
	<path class="st0" d="M50.2,26.7c0,0.4,0.3,0.7,0.7,0.7h16.5c0.4,0,0.7-0.3,0.7-0.7l0.4-6.6c0.2-2.5-0.3-4.5-1.4-5.8
		c-0.5-0.6-1.2-1-2-1.1c-0.8-0.1-1.6,0.1-2.1,0.6c-0.8,0.7-2.5,1.2-4,1.2s-3.2-0.5-4-1.2c-0.6-0.5-1.4-0.7-2.1-0.6
		c-0.8,0.1-1.5,0.5-2,1.1c-1.1,1.4-1.5,3.4-1.4,5.8L50.2,26.7z M52.3,15.1c0.2-0.3,0.6-0.5,1-0.5c0.4,0,0.8,0.1,1,0.3
		c1.3,1.1,3.4,1.5,5,1.5c1.6,0,3.7-0.5,5-1.5c0.3-0.2,0.6-0.3,1-0.3c0.4,0,0.8,0.2,1,0.5c0.8,1.1,1.2,2.8,1.1,4.9l-0.4,5.9H51.6
		l-0.4-5.9C51.1,17.9,51.4,16.2,52.3,15.1z"/>
	<path class="st0" d="M59.1,12.3c3.1,0,5.5-2.7,5.5-5.8c0-3.3-2.5-5.8-5.5-5.8s-5.5,2.7-5.5,5.8C53.6,9.7,56.2,12.3,59.1,12.3z
		 M59.1,2c2.3,0,4.1,2,4.1,4.5s-1.9,4.5-4.1,4.5s-4.1-2-4.1-4.5S57,2,59.1,2z"/>
	<path class="st0" d="M42.8,26.7l0.4-6.6c0.2-2.5-0.3-4.5-1.4-5.8c-0.5-0.6-1.2-1-2-1.1c-0.8-0.1-1.6,0.1-2.1,0.6
		c-0.8,0.7-2.5,1.2-4,1.2c-1.5,0-3.2-0.5-4-1.2c-0.6-0.5-1.4-0.7-2.1-0.6c-0.8,0.1-1.5,0.5-2,1.1c-1.1,1.4-1.5,3.4-1.4,5.8l0.4,6.6
		c0,0.4,0.3,0.7,0.7,0.7H42C42.5,27.4,42.8,27.1,42.8,26.7z M41.8,20L41.8,20L41.4,26H26.3L25.9,20c-0.1-2.2,0.2-3.8,1.1-4.9
		c0.2-0.3,0.6-0.5,1-0.5s0.8,0.1,1,0.3c1.3,1.1,3.4,1.5,5,1.5c1.6,0,3.7-0.5,5-1.5c0.3-0.2,0.7-0.3,1-0.3c0.4,0,0.8,0.2,1,0.5
		C41.6,16.2,41.9,17.9,41.8,20z"/>
	<path class="st0" d="M33.8,12.3c3.1,0,5.5-2.7,5.5-5.8c0-3.3-2.5-5.8-5.5-5.8s-5.5,2.7-5.5,5.8C28.2,9.7,30.7,12.3,33.8,12.3z
		 M33.8,2c2.3,0,4.1,2,4.1,4.5s-1.9,4.5-4.1,4.5s-4.1-2-4.1-4.5S31.5,2,33.8,2z"/>
	<path class="st0" d="M106,62c0.2-8.5-2.7-16.6-8.2-23l5,0.7c0.4,0.1,0.8-0.2,0.8-0.6c0.1-0.4-0.2-0.8-0.6-0.8L96,37.5
		c-0.2,0-0.4,0-0.6,0.2s-0.2,0.4-0.2,0.6l0.5,7c0,0.4,0.4,0.7,0.7,0.7c0,0,0,0,0.1,0c0.4,0,0.7-0.4,0.7-0.8l-0.4-5
		c5.2,6,8,13.8,7.8,21.9c-0.3,8.5-3.8,16.4-10,22.4c-0.3,0.3-0.3,0.7,0,1c0.1,0.2,0.3,0.2,0.5,0.2s0.4-0.1,0.5-0.2
		C101.9,79.3,105.7,70.9,106,62z"/>
	<path class="st0" d="M22.6,85.6c0.2,0,0.4-0.1,0.5-0.2c0.2-0.2,0.2-0.4,0.2-0.6l-0.5-7c0-0.4-0.4-0.7-0.8-0.7s-0.7,0.4-0.7,0.8
		l0.4,5c-5.2-6-8-13.8-7.8-21.9c0.3-8.5,3.8-16.4,10-22.4c0.3-0.3,0.3-0.7,0-1c-0.3-0.3-0.7-0.3-1,0C16.4,43.7,12.7,52,12.4,60.9
		c-0.2,8.5,2.7,16.6,8.2,23l-5-0.7c-0.4-0.1-0.8,0.2-0.8,0.6c-0.1,0.4,0.2,0.8,0.6,0.8L22.6,85.6C22.5,85.6,22.5,85.6,22.6,85.6z"/>
	<path class="st0" d="M59.1,35.7c-13,0-23.6,10.6-23.6,23.6s10.6,23.6,23.6,23.6c13.1,0.1,23.7-10.5,23.7-23.6S72.2,35.7,59.1,35.7z
		 M78.8,49h-4.3c-1.5-4.3-3.9-7.7-6.8-10.1C72.4,40.8,76.4,44.4,78.8,49z M74.7,59.3c0,3.2-0.5,6.2-1.3,8.9h-6.8
		c0.4-2.9,0.6-5.9,0.6-8.9s-0.2-6-0.6-8.9h6.8C74.2,53.1,74.7,56.1,74.7,59.3z M43.7,59.3c0-3.2,0.5-6.2,1.3-8.9h6.8
		c-0.4,2.9-0.6,5.9-0.6,8.9s0.2,6,0.6,8.9H45C44.1,65.5,43.7,62.4,43.7,59.3z M64.9,49H53.5c1.2-7.2,3.6-11.8,5.7-11.8
		C61.4,37.2,63.7,41.7,64.9,49z M65.7,59.3c0,3.3-0.2,6.2-0.6,8.9H53.2c-0.4-2.7-0.6-5.6-0.6-8.9c0-3.3,0.2-6.2,0.6-8.9h11.9
		C65.5,53,65.7,56.1,65.7,59.3z M52,49h-6.5c2.1-5.6,5.8-9.8,10.4-11.2C54,40,52.7,44.1,52,49z M52,69.7c0.8,4.8,2.1,8.9,3.9,11.2
		c-4.5-1.4-8.2-5.6-10.4-11.2H52z M53.5,69.7H65c-1.2,7.2-3.6,11.8-5.7,11.8C57.1,81.4,54.7,76.9,53.5,69.7z M66.4,69.7h6.5
		c-2.1,5.6-5.8,9.8-10.4,11.2C64.4,78.6,65.7,74.5,66.4,69.7z M66.4,49c-0.8-4.8-2.1-8.9-3.9-11.2c4.5,1.4,8.2,5.6,10.4,11.2H66.4z
		 M50.7,38.9c-3,2.4-5.3,5.8-6.8,10.1h-4.3C42,44.4,46,40.8,50.7,38.9z M38.9,50.3h4.6c-0.8,2.8-1.3,5.7-1.3,8.9
		c0,3.2,0.5,6.1,1.3,8.9h-4.6c-1.2-2.8-1.9-5.7-1.9-8.9C37.1,56.1,37.8,53.1,38.9,50.3z M39.6,69.7h4.3c1.5,4.3,3.9,7.7,6.8,10.1
		C46,77.8,42,74.2,39.6,69.7z M67.7,79.8c3-2.4,5.3-5.8,6.8-10.1h4.3C76.4,74.2,72.4,77.8,67.7,79.8z M79.4,68.3h-4.6
		c0.8-2.8,1.3-5.7,1.3-8.9s-0.5-6.1-1.3-8.9h4.6c1.2,2.8,1.9,5.7,1.9,8.9C81.3,62.4,80.6,65.5,79.4,68.3z"/>
	<path class="st0" d="M116.5,65c2.2,0,3.9-1.8,3.9-3.9c0-2.2-1.8-3.9-3.9-3.9c-2.2,0-3.9,1.8-3.9,3.9C112.6,63.3,114.4,65,116.5,65z
		 M116.5,58.8c1.3,0,2.4,1.1,2.4,2.4s-1.1,2.4-2.4,2.4c-1.3,0-2.4-1.1-2.4-2.4C114.1,59.8,115.2,58.8,116.5,58.8z"/>
</g>
</svg>
